<?xml version="1.0" encoding="UTF-8"?>
<svg xmlns="http://www.w3.org/2000/svg" xmlns:xlink="http://www.w3.org/1999/xlink" width="1008pt" height="432pt" viewBox="0 0 1008 432">
<defs>
<g>
<g id="glyph-0-0">
<path d="M 1.078125 -10.375 L 9.4375 -10.375 L 9.4375 0 L 1.078125 0 Z M 8.140625 -1.296875 L 8.140625 -9.078125 L 2.375 -9.078125 L 2.375 -1.296875 Z M 8.140625 -1.296875 "/>
</g>
<g id="glyph-0-1">
<path d="M 0.1875 -7.671875 L 2.4375 -7.671875 L 4.03125 -2.015625 L 5.65625 -7.671875 L 7.8125 -7.671875 L 5.046875 0 L 2.9375 0 Z M 0.1875 -7.671875 "/>
</g>
<g id="glyph-0-2">
<path d="M 1.21875 -6.84375 C 1.75 -7.507812 2.660156 -7.84375 3.953125 -7.84375 C 4.796875 -7.84375 5.539062 -7.675781 6.1875 -7.34375 C 6.84375 -7.007812 7.171875 -6.382812 7.171875 -5.46875 L 7.171875 -1.953125 C 7.171875 -1.703125 7.175781 -1.40625 7.1875 -1.0625 C 7.195312 -0.800781 7.234375 -0.625 7.296875 -0.53125 C 7.367188 -0.4375 7.46875 -0.359375 7.59375 -0.296875 L 7.59375 0 L 5.421875 0 C 5.359375 -0.15625 5.3125 -0.300781 5.28125 -0.4375 C 5.257812 -0.570312 5.242188 -0.726562 5.234375 -0.90625 C 4.953125 -0.601562 4.632812 -0.347656 4.28125 -0.140625 C 3.84375 0.105469 3.351562 0.234375 2.8125 0.234375 C 2.113281 0.234375 1.539062 0.0351562 1.09375 -0.359375 C 0.644531 -0.753906 0.421875 -1.316406 0.421875 -2.046875 C 0.421875 -2.984375 0.78125 -3.664062 1.5 -4.09375 C 1.90625 -4.320312 2.492188 -4.484375 3.265625 -4.578125 L 3.953125 -4.65625 C 4.316406 -4.707031 4.578125 -4.769531 4.734375 -4.84375 C 5.023438 -4.957031 5.171875 -5.144531 5.171875 -5.40625 C 5.171875 -5.71875 5.0625 -5.929688 4.84375 -6.046875 C 4.625 -6.171875 4.304688 -6.234375 3.890625 -6.234375 C 3.410156 -6.234375 3.070312 -6.117188 2.875 -5.890625 C 2.738281 -5.710938 2.644531 -5.476562 2.59375 -5.1875 L 0.65625 -5.1875 C 0.695312 -5.851562 0.882812 -6.40625 1.21875 -6.84375 Z M 2.71875 -1.453125 C 2.90625 -1.296875 3.132812 -1.21875 3.40625 -1.21875 C 3.832031 -1.21875 4.226562 -1.34375 4.59375 -1.59375 C 4.957031 -1.851562 5.144531 -2.316406 5.15625 -2.984375 L 5.15625 -3.734375 C 5.03125 -3.648438 4.90625 -3.582031 4.78125 -3.53125 C 4.65625 -3.476562 4.476562 -3.429688 4.25 -3.390625 L 3.796875 -3.3125 C 3.378906 -3.238281 3.078125 -3.144531 2.890625 -3.03125 C 2.578125 -2.851562 2.421875 -2.570312 2.421875 -2.1875 C 2.421875 -1.84375 2.519531 -1.597656 2.71875 -1.453125 Z M 2.71875 -1.453125 "/>
</g>
<g id="glyph-0-3">
<path d="M 7.359375 -6.84375 C 7.972656 -6.1875 8.28125 -5.21875 8.28125 -3.9375 C 8.28125 -2.582031 7.976562 -1.550781 7.375 -0.84375 C 6.769531 -0.132812 5.988281 0.21875 5.03125 0.21875 C 4.414062 0.21875 3.910156 0.0664062 3.515625 -0.234375 C 3.285156 -0.410156 3.066406 -0.660156 2.859375 -0.984375 L 2.859375 3.015625 L 0.875 3.015625 L 0.875 -7.671875 L 2.796875 -7.671875 L 2.796875 -6.53125 C 3.015625 -6.863281 3.242188 -7.128906 3.484375 -7.328125 C 3.929688 -7.671875 4.460938 -7.84375 5.078125 -7.84375 C 5.972656 -7.84375 6.734375 -7.507812 7.359375 -6.84375 Z M 6.21875 -3.828125 C 6.21875 -4.421875 6.082031 -4.941406 5.8125 -5.390625 C 5.539062 -5.847656 5.101562 -6.078125 4.5 -6.078125 C 3.769531 -6.078125 3.269531 -5.734375 3 -5.046875 C 2.863281 -4.679688 2.796875 -4.21875 2.796875 -3.65625 C 2.796875 -2.769531 3.03125 -2.144531 3.5 -1.78125 C 3.78125 -1.570312 4.113281 -1.46875 4.5 -1.46875 C 5.0625 -1.46875 5.488281 -1.679688 5.78125 -2.109375 C 6.070312 -2.535156 6.21875 -3.109375 6.21875 -3.828125 Z M 6.21875 -3.828125 "/>
</g>
<g id="glyph-0-4">
<path d="M 7.328125 -6.703125 C 7.972656 -5.890625 8.296875 -4.925781 8.296875 -3.8125 C 8.296875 -2.6875 7.972656 -1.722656 7.328125 -0.921875 C 6.679688 -0.128906 5.695312 0.265625 4.375 0.265625 C 3.0625 0.265625 2.082031 -0.128906 1.4375 -0.921875 C 0.789062 -1.722656 0.46875 -2.6875 0.46875 -3.8125 C 0.46875 -4.925781 0.789062 -5.882812 1.4375 -6.6875 C 2.082031 -7.5 3.0625 -7.90625 4.375 -7.90625 C 5.695312 -7.90625 6.679688 -7.503906 7.328125 -6.703125 Z M 4.375 -6.21875 C 3.789062 -6.21875 3.335938 -6.007812 3.015625 -5.59375 C 2.703125 -5.175781 2.546875 -4.582031 2.546875 -3.8125 C 2.546875 -3.050781 2.703125 -2.457031 3.015625 -2.03125 C 3.335938 -1.613281 3.789062 -1.40625 4.375 -1.40625 C 4.957031 -1.40625 5.40625 -1.613281 5.71875 -2.03125 C 6.039062 -2.457031 6.203125 -3.050781 6.203125 -3.8125 C 6.203125 -4.582031 6.039062 -5.175781 5.71875 -5.59375 C 5.40625 -6.007812 4.957031 -6.21875 4.375 -6.21875 Z M 4.375 -6.21875 "/>
</g>
<g id="glyph-0-5">
<path d="M 4.796875 -5.8125 C 3.984375 -5.8125 3.441406 -5.550781 3.171875 -5.03125 C 3.015625 -4.738281 2.9375 -4.285156 2.9375 -3.671875 L 2.9375 0 L 0.921875 0 L 0.921875 -7.671875 L 2.828125 -7.671875 L 2.828125 -6.328125 C 3.140625 -6.835938 3.410156 -7.1875 3.640625 -7.375 C 4.015625 -7.6875 4.5 -7.84375 5.09375 -7.84375 C 5.132812 -7.84375 5.164062 -7.84375 5.1875 -7.84375 C 5.21875 -7.84375 5.273438 -7.84375 5.359375 -7.84375 L 5.359375 -5.78125 C 5.234375 -5.789062 5.117188 -5.796875 5.015625 -5.796875 C 4.921875 -5.804688 4.847656 -5.8125 4.796875 -5.8125 Z M 4.796875 -5.8125 "/>
</g>
<g id="glyph-0-6">
<path d="M 8.015625 1.09375 L 8.015625 1.796875 L 0 1.796875 L 0 1.09375 Z M 8.015625 1.09375 "/>
</g>
<g id="glyph-0-7">
<path d="M 5.234375 -5.5625 C 5.066406 -5.925781 4.738281 -6.109375 4.25 -6.109375 C 3.675781 -6.109375 3.289062 -5.925781 3.09375 -5.5625 C 2.988281 -5.34375 2.9375 -5.023438 2.9375 -4.609375 L 2.9375 0 L 0.90625 0 L 0.90625 -7.65625 L 2.84375 -7.65625 L 2.84375 -6.53125 C 3.09375 -6.925781 3.328125 -7.210938 3.546875 -7.390625 C 3.941406 -7.691406 4.445312 -7.84375 5.0625 -7.84375 C 5.644531 -7.84375 6.117188 -7.710938 6.484375 -7.453125 C 6.773438 -7.210938 6.992188 -6.90625 7.140625 -6.53125 C 7.410156 -6.976562 7.738281 -7.304688 8.125 -7.515625 C 8.539062 -7.734375 9 -7.84375 9.5 -7.84375 C 9.84375 -7.84375 10.175781 -7.773438 10.5 -7.640625 C 10.832031 -7.503906 11.128906 -7.273438 11.390625 -6.953125 C 11.609375 -6.679688 11.753906 -6.351562 11.828125 -5.96875 C 11.878906 -5.707031 11.90625 -5.328125 11.90625 -4.828125 L 11.890625 0 L 9.828125 0 L 9.828125 -4.875 C 9.828125 -5.164062 9.78125 -5.40625 9.6875 -5.59375 C 9.507812 -5.957031 9.179688 -6.140625 8.703125 -6.140625 C 8.148438 -6.140625 7.769531 -5.90625 7.5625 -5.4375 C 7.457031 -5.195312 7.40625 -4.90625 7.40625 -4.5625 L 7.40625 0 L 5.375 0 L 5.375 -4.5625 C 5.375 -5.019531 5.328125 -5.351562 5.234375 -5.5625 Z M 5.234375 -5.5625 "/>
</g>
<g id="glyph-0-8">
<path d="M 7.765625 0 L 5.265625 0 L 3.953125 -2.296875 L 2.609375 0 L 0.1875 0 L 2.796875 -3.890625 L 0.296875 -7.65625 L 2.75 -7.65625 L 4.03125 -5.4375 L 5.28125 -7.65625 L 7.671875 -7.65625 L 5.15625 -3.921875 Z M 7.765625 0 "/>
</g>
<g id="glyph-0-9">
<path d="M 8.453125 -7.859375 L 8.453125 -5.90625 L 2.53125 -3.8125 L 8.453125 -1.71875 L 8.453125 0.234375 L 0.15625 -2.90625 L 0.15625 -4.71875 Z M 8.453125 -7.859375 "/>
</g>
<g id="glyph-0-10">
</g>
<g id="glyph-0-11">
<path d="M 5.453125 0 L 3.390625 0 L 3.390625 -7.03125 L 1 -7.03125 L 1 -8.40625 C 1.632812 -8.425781 2.078125 -8.46875 2.328125 -8.53125 C 2.734375 -8.613281 3.0625 -8.789062 3.3125 -9.0625 C 3.488281 -9.238281 3.617188 -9.484375 3.703125 -9.796875 C 3.753906 -9.972656 3.78125 -10.109375 3.78125 -10.203125 L 5.453125 -10.203125 Z M 5.453125 0 "/>
</g>
<g id="glyph-0-12">
<path d="M 5.015625 -8.125 C 4.773438 -8.40625 4.429688 -8.546875 3.984375 -8.546875 C 3.367188 -8.546875 2.953125 -8.320312 2.734375 -7.875 C 2.609375 -7.613281 2.535156 -7.195312 2.515625 -6.625 L 0.5625 -6.625 C 0.59375 -7.488281 0.75 -8.1875 1.03125 -8.71875 C 1.570312 -9.738281 2.523438 -10.25 3.890625 -10.25 C 4.960938 -10.25 5.816406 -9.945312 6.453125 -9.34375 C 7.097656 -8.75 7.421875 -7.960938 7.421875 -6.984375 C 7.421875 -6.222656 7.191406 -5.550781 6.734375 -4.96875 C 6.441406 -4.570312 5.957031 -4.140625 5.28125 -3.671875 L 4.484375 -3.09375 C 3.984375 -2.738281 3.640625 -2.476562 3.453125 -2.3125 C 3.265625 -2.15625 3.109375 -1.972656 2.984375 -1.765625 L 7.4375 -1.765625 L 7.4375 0 L 0.453125 0 C 0.472656 -0.726562 0.628906 -1.394531 0.921875 -2 C 1.203125 -2.6875 1.878906 -3.410156 2.953125 -4.171875 C 3.867188 -4.828125 4.460938 -5.296875 4.734375 -5.578125 C 5.148438 -6.023438 5.359375 -6.515625 5.359375 -7.046875 C 5.359375 -7.484375 5.242188 -7.84375 5.015625 -8.125 Z M 5.015625 -8.125 "/>
</g>
<g id="glyph-0-13">
<path d="M 7.53125 -3.765625 L 7.53125 -2.1875 L 6.375 -2.1875 L 6.375 0 L 4.421875 0 L 4.421875 -2.1875 L 0.375 -2.1875 L 0.375 -3.953125 L 4.125 -10.140625 L 6.375 -10.140625 L 6.375 -3.765625 Z M 1.859375 -3.765625 L 4.421875 -3.765625 L 4.421875 -8.171875 Z M 1.859375 -3.765625 "/>
</g>
<g id="glyph-0-14">
<path d="M 1.265625 -0.640625 C 0.671875 -1.242188 0.375 -1.972656 0.375 -2.828125 C 0.375 -3.398438 0.503906 -3.914062 0.765625 -4.375 C 1.023438 -4.84375 1.40625 -5.195312 1.90625 -5.4375 C 1.414062 -5.757812 1.097656 -6.109375 0.953125 -6.484375 C 0.804688 -6.867188 0.734375 -7.226562 0.734375 -7.5625 C 0.734375 -8.3125 1.007812 -8.945312 1.5625 -9.46875 C 2.125 -9.988281 2.914062 -10.25 3.9375 -10.25 C 4.945312 -10.25 5.726562 -9.988281 6.28125 -9.46875 C 6.84375 -8.945312 7.125 -8.3125 7.125 -7.5625 C 7.125 -7.226562 7.050781 -6.867188 6.90625 -6.484375 C 6.757812 -6.109375 6.441406 -5.78125 5.953125 -5.5 C 6.453125 -5.21875 6.828125 -4.84375 7.078125 -4.375 C 7.335938 -3.914062 7.46875 -3.398438 7.46875 -2.828125 C 7.46875 -1.972656 7.148438 -1.242188 6.515625 -0.640625 C 5.878906 -0.0351562 4.988281 0.265625 3.84375 0.265625 C 2.707031 0.265625 1.847656 -0.0351562 1.265625 -0.640625 Z M 2.46875 -2.96875 C 2.46875 -2.457031 2.597656 -2.0625 2.859375 -1.78125 C 3.117188 -1.507812 3.476562 -1.375 3.9375 -1.375 C 4.394531 -1.375 4.753906 -1.507812 5.015625 -1.78125 C 5.273438 -2.0625 5.40625 -2.457031 5.40625 -2.96875 C 5.40625 -3.488281 5.269531 -3.878906 5 -4.140625 C 4.738281 -4.410156 4.382812 -4.546875 3.9375 -4.546875 C 3.476562 -4.546875 3.117188 -4.410156 2.859375 -4.140625 C 2.597656 -3.878906 2.46875 -3.488281 2.46875 -2.96875 Z M 2.984375 -6.4375 C 3.210938 -6.195312 3.53125 -6.078125 3.9375 -6.078125 C 4.34375 -6.078125 4.65625 -6.191406 4.875 -6.421875 C 5.101562 -6.660156 5.21875 -6.96875 5.21875 -7.34375 C 5.21875 -7.75 5.101562 -8.0625 4.875 -8.28125 C 4.65625 -8.507812 4.34375 -8.625 3.9375 -8.625 C 3.53125 -8.625 3.210938 -8.507812 2.984375 -8.28125 C 2.753906 -8.0625 2.640625 -7.75 2.640625 -7.34375 C 2.640625 -6.96875 2.753906 -6.664062 2.984375 -6.4375 Z M 2.984375 -6.4375 "/>
</g>
<g id="glyph-0-15">
<path d="M 5.859375 -1.078125 C 5.835938 -1.054688 5.785156 -0.988281 5.703125 -0.875 C 5.628906 -0.757812 5.539062 -0.65625 5.4375 -0.5625 C 5.125 -0.28125 4.820312 -0.0859375 4.53125 0.015625 C 4.238281 0.117188 3.894531 0.171875 3.5 0.171875 C 2.363281 0.171875 1.597656 -0.238281 1.203125 -1.0625 C 0.984375 -1.507812 0.875 -2.171875 0.875 -3.046875 L 0.875 -7.671875 L 2.9375 -7.671875 L 2.9375 -3.046875 C 2.9375 -2.609375 2.988281 -2.28125 3.09375 -2.0625 C 3.269531 -1.675781 3.628906 -1.484375 4.171875 -1.484375 C 4.847656 -1.484375 5.316406 -1.757812 5.578125 -2.3125 C 5.703125 -2.601562 5.765625 -3 5.765625 -3.5 L 5.765625 -7.671875 L 7.796875 -7.671875 L 7.796875 0 L 5.859375 0 Z M 5.859375 -1.078125 "/>
</g>
<g id="glyph-0-16">
<path d="M 3.109375 1.34375 C 3.316406 1.53125 3.675781 1.625 4.1875 1.625 C 4.914062 1.625 5.398438 1.378906 5.640625 0.890625 C 5.796875 0.578125 5.875 0.0546875 5.875 -0.671875 L 5.875 -1.15625 C 5.6875 -0.832031 5.484375 -0.585938 5.265625 -0.421875 C 4.859375 -0.117188 4.335938 0.03125 3.703125 0.03125 C 2.722656 0.03125 1.9375 -0.3125 1.34375 -1 C 0.757812 -1.695312 0.46875 -2.632812 0.46875 -3.8125 C 0.46875 -4.945312 0.75 -5.898438 1.3125 -6.671875 C 1.882812 -7.453125 2.691406 -7.84375 3.734375 -7.84375 C 4.117188 -7.84375 4.453125 -7.785156 4.734375 -7.671875 C 5.222656 -7.472656 5.617188 -7.101562 5.921875 -6.5625 L 5.921875 -7.671875 L 7.859375 -7.671875 L 7.859375 -0.390625 C 7.859375 0.597656 7.691406 1.34375 7.359375 1.84375 C 6.785156 2.707031 5.691406 3.140625 4.078125 3.140625 C 3.097656 3.140625 2.296875 2.945312 1.671875 2.5625 C 1.054688 2.175781 0.710938 1.601562 0.640625 0.84375 L 2.828125 0.84375 C 2.878906 1.070312 2.972656 1.238281 3.109375 1.34375 Z M 2.765625 -2.609375 C 3.035156 -1.960938 3.523438 -1.640625 4.234375 -1.640625 C 4.703125 -1.640625 5.097656 -1.816406 5.421875 -2.171875 C 5.742188 -2.523438 5.90625 -3.09375 5.90625 -3.875 C 5.90625 -4.59375 5.75 -5.140625 5.4375 -5.515625 C 5.132812 -5.898438 4.722656 -6.09375 4.203125 -6.09375 C 3.503906 -6.09375 3.019531 -5.765625 2.75 -5.109375 C 2.613281 -4.753906 2.546875 -4.320312 2.546875 -3.8125 C 2.546875 -3.363281 2.617188 -2.960938 2.765625 -2.609375 Z M 2.765625 -2.609375 "/>
</g>
<g id="glyph-0-17">
<path d="M 7.859375 -4.5 L 7.859375 0 L 5.8125 0 L 5.8125 -4.65625 C 5.8125 -5.070312 5.742188 -5.40625 5.609375 -5.65625 C 5.421875 -6.019531 5.070312 -6.203125 4.5625 -6.203125 C 4.03125 -6.203125 3.628906 -6.023438 3.359375 -5.671875 C 3.085938 -5.316406 2.953125 -4.8125 2.953125 -4.15625 L 2.953125 0 L 0.953125 0 L 0.953125 -10.328125 L 2.953125 -10.328125 L 2.953125 -6.671875 C 3.242188 -7.117188 3.578125 -7.425781 3.953125 -7.59375 C 4.335938 -7.769531 4.738281 -7.859375 5.15625 -7.859375 C 5.632812 -7.859375 6.066406 -7.773438 6.453125 -7.609375 C 6.835938 -7.453125 7.15625 -7.203125 7.40625 -6.859375 C 7.613281 -6.578125 7.738281 -6.285156 7.78125 -5.984375 C 7.832031 -5.679688 7.859375 -5.1875 7.859375 -4.5 Z M 7.859375 -4.5 "/>
</g>
<g id="glyph-0-18">
<path d="M 4.546875 -6.1875 C 3.867188 -6.1875 3.398438 -5.894531 3.140625 -5.3125 C 3.015625 -5.007812 2.953125 -4.625 2.953125 -4.15625 L 2.953125 0 L 0.953125 0 L 0.953125 -7.65625 L 2.890625 -7.65625 L 2.890625 -6.53125 C 3.140625 -6.925781 3.378906 -7.210938 3.609375 -7.390625 C 4.023438 -7.691406 4.550781 -7.84375 5.1875 -7.84375 C 5.976562 -7.84375 6.625 -7.632812 7.125 -7.21875 C 7.632812 -6.8125 7.890625 -6.125 7.890625 -5.15625 L 7.890625 0 L 5.828125 0 L 5.828125 -4.65625 C 5.828125 -5.0625 5.773438 -5.375 5.671875 -5.59375 C 5.472656 -5.988281 5.097656 -6.1875 4.546875 -6.1875 Z M 4.546875 -6.1875 "/>
</g>
<g id="glyph-0-19">
<path d="M 7.5 -2.25 C 7.445312 -1.789062 7.207031 -1.328125 6.78125 -0.859375 C 6.125 -0.117188 5.207031 0.25 4.03125 0.25 C 3.050781 0.25 2.1875 -0.0625 1.4375 -0.6875 C 0.695312 -1.3125 0.328125 -2.332031 0.328125 -3.75 C 0.328125 -5.082031 0.660156 -6.101562 1.328125 -6.8125 C 2.003906 -7.519531 2.878906 -7.875 3.953125 -7.875 C 4.597656 -7.875 5.175781 -7.753906 5.6875 -7.515625 C 6.195312 -7.273438 6.617188 -6.894531 6.953125 -6.375 C 7.253906 -5.925781 7.445312 -5.398438 7.53125 -4.796875 C 7.582031 -4.441406 7.601562 -3.9375 7.59375 -3.28125 L 2.34375 -3.28125 C 2.375 -2.507812 2.617188 -1.96875 3.078125 -1.65625 C 3.347656 -1.46875 3.679688 -1.375 4.078125 -1.375 C 4.484375 -1.375 4.816406 -1.488281 5.078125 -1.71875 C 5.222656 -1.84375 5.347656 -2.019531 5.453125 -2.25 Z M 5.515625 -4.59375 C 5.484375 -5.125 5.320312 -5.523438 5.03125 -5.796875 C 4.738281 -6.078125 4.378906 -6.21875 3.953125 -6.21875 C 3.492188 -6.21875 3.132812 -6.070312 2.875 -5.78125 C 2.625 -5.488281 2.46875 -5.09375 2.40625 -4.59375 Z M 5.515625 -4.59375 "/>
</g>
<g id="glyph-0-20">
<path d="M 6.21875 -7.3125 C 6.820312 -6.925781 7.164062 -6.265625 7.25 -5.328125 L 5.25 -5.328125 C 5.21875 -5.585938 5.144531 -5.789062 5.03125 -5.9375 C 4.8125 -6.21875 4.4375 -6.359375 3.90625 -6.359375 C 3.46875 -6.359375 3.15625 -6.285156 2.96875 -6.140625 C 2.78125 -6.003906 2.6875 -5.847656 2.6875 -5.671875 C 2.6875 -5.441406 2.785156 -5.273438 2.984375 -5.171875 C 3.179688 -5.066406 3.878906 -4.878906 5.078125 -4.609375 C 5.878906 -4.421875 6.476562 -4.140625 6.875 -3.765625 C 7.269531 -3.378906 7.46875 -2.898438 7.46875 -2.328125 C 7.46875 -1.566406 7.179688 -0.941406 6.609375 -0.453125 C 6.046875 0.0234375 5.175781 0.265625 4 0.265625 C 2.789062 0.265625 1.898438 0.0078125 1.328125 -0.5 C 0.753906 -1.007812 0.46875 -1.660156 0.46875 -2.453125 L 2.5 -2.453125 C 2.539062 -2.085938 2.628906 -1.832031 2.765625 -1.6875 C 3.015625 -1.414062 3.476562 -1.28125 4.15625 -1.28125 C 4.539062 -1.28125 4.847656 -1.335938 5.078125 -1.453125 C 5.316406 -1.578125 5.4375 -1.753906 5.4375 -1.984375 C 5.4375 -2.210938 5.34375 -2.382812 5.15625 -2.5 C 4.96875 -2.625 4.269531 -2.828125 3.0625 -3.109375 C 2.195312 -3.328125 1.585938 -3.597656 1.234375 -3.921875 C 0.878906 -4.234375 0.703125 -4.691406 0.703125 -5.296875 C 0.703125 -6.003906 0.976562 -6.613281 1.53125 -7.125 C 2.082031 -7.632812 2.863281 -7.890625 3.875 -7.890625 C 4.832031 -7.890625 5.613281 -7.695312 6.21875 -7.3125 Z M 6.21875 -7.3125 "/>
</g>
<g id="glyph-0-21">
<path d="M 6.078125 -3.8125 L 0.15625 -5.90625 L 0.15625 -7.859375 L 8.453125 -4.703125 L 8.453125 -2.90625 L 0.15625 0.234375 L 0.15625 -1.71875 Z M 6.078125 -3.8125 "/>
</g>
<g id="glyph-0-22">
<path d="M 8.125 -6.375 L 8.125 -4.53125 L 0.515625 -4.53125 L 0.515625 -6.375 Z M 0.515625 -1.25 L 0.515625 -3.09375 L 8.125 -3.09375 L 8.125 -1.25 Z M 0.515625 -1.25 "/>
</g>
<g id="glyph-0-23">
<path d="M 2.75 -8.171875 C 2.53125 -7.867188 2.425781 -7.46875 2.4375 -6.96875 L 0.5625 -6.96875 C 0.582031 -7.46875 0.671875 -7.945312 0.828125 -8.40625 C 0.984375 -8.800781 1.238281 -9.171875 1.59375 -9.515625 C 1.851562 -9.753906 2.164062 -9.9375 2.53125 -10.0625 C 2.894531 -10.1875 3.335938 -10.25 3.859375 -10.25 C 4.835938 -10.25 5.625 -9.992188 6.21875 -9.484375 C 6.820312 -8.984375 7.125 -8.3125 7.125 -7.46875 C 7.125 -6.863281 6.941406 -6.351562 6.578125 -5.9375 C 6.359375 -5.6875 6.125 -5.515625 5.875 -5.421875 C 6.0625 -5.421875 6.328125 -5.257812 6.671875 -4.9375 C 7.179688 -4.46875 7.4375 -3.820312 7.4375 -3 C 7.4375 -2.132812 7.132812 -1.375 6.53125 -0.71875 C 5.9375 -0.0703125 5.054688 0.25 3.890625 0.25 C 2.441406 0.25 1.4375 -0.21875 0.875 -1.15625 C 0.570312 -1.65625 0.40625 -2.3125 0.375 -3.125 L 2.34375 -3.125 C 2.34375 -2.71875 2.410156 -2.382812 2.546875 -2.125 C 2.785156 -1.625 3.226562 -1.375 3.875 -1.375 C 4.269531 -1.375 4.613281 -1.507812 4.90625 -1.78125 C 5.195312 -2.050781 5.34375 -2.441406 5.34375 -2.953125 C 5.34375 -3.617188 5.070312 -4.066406 4.53125 -4.296875 C 4.21875 -4.421875 3.726562 -4.484375 3.0625 -4.484375 L 3.0625 -5.921875 C 3.71875 -5.929688 4.175781 -5.992188 4.4375 -6.109375 C 4.875 -6.304688 5.09375 -6.703125 5.09375 -7.296875 C 5.09375 -7.691406 4.976562 -8.007812 4.75 -8.25 C 4.53125 -8.488281 4.210938 -8.609375 3.796875 -8.609375 C 3.328125 -8.609375 2.976562 -8.460938 2.75 -8.171875 Z M 2.75 -8.171875 "/>
</g>
<g id="glyph-0-24">
<path d="M 6.34375 -6.921875 C 5.8125 -6.160156 5.363281 -5.378906 5 -4.578125 C 4.71875 -3.941406 4.460938 -3.164062 4.234375 -2.25 C 4.003906 -1.332031 3.890625 -0.582031 3.890625 0 L 1.796875 0 C 1.859375 -1.832031 2.460938 -3.734375 3.609375 -5.703125 C 4.335938 -6.929688 4.953125 -7.785156 5.453125 -8.265625 L 0.359375 -8.265625 L 0.390625 -10.0625 L 7.59375 -10.0625 L 7.59375 -8.5 C 7.289062 -8.195312 6.875 -7.671875 6.34375 -6.921875 Z M 6.34375 -6.921875 "/>
</g>
<g id="glyph-0-25">
<path d="M 7.5625 -4.921875 L 5.515625 -4.921875 C 5.472656 -5.203125 5.375 -5.457031 5.21875 -5.6875 C 5 -6 4.648438 -6.15625 4.171875 -6.15625 C 3.503906 -6.15625 3.046875 -5.820312 2.796875 -5.15625 C 2.660156 -4.789062 2.59375 -4.316406 2.59375 -3.734375 C 2.59375 -3.171875 2.660156 -2.71875 2.796875 -2.375 C 3.035156 -1.726562 3.484375 -1.40625 4.140625 -1.40625 C 4.609375 -1.40625 4.941406 -1.53125 5.140625 -1.78125 C 5.335938 -2.039062 5.457031 -2.375 5.5 -2.78125 L 7.546875 -2.78125 C 7.503906 -2.164062 7.285156 -1.585938 6.890625 -1.046875 C 6.253906 -0.171875 5.320312 0.265625 4.09375 0.265625 C 2.863281 0.265625 1.957031 -0.0976562 1.375 -0.828125 C 0.789062 -1.554688 0.5 -2.503906 0.5 -3.671875 C 0.5 -4.992188 0.816406 -6.019531 1.453125 -6.75 C 2.097656 -7.476562 2.988281 -7.84375 4.125 -7.84375 C 5.082031 -7.84375 5.867188 -7.628906 6.484375 -7.203125 C 7.097656 -6.773438 7.457031 -6.015625 7.5625 -4.921875 Z M 7.5625 -4.921875 "/>
</g>
<g id="glyph-0-26">
<path d="M 4.453125 -1.421875 L 4.453125 0.078125 L 3.5 0.109375 C 2.550781 0.140625 1.898438 -0.0234375 1.546875 -0.390625 C 1.328125 -0.617188 1.21875 -0.972656 1.21875 -1.453125 L 1.21875 -6.171875 L 0.140625 -6.171875 L 0.140625 -7.59375 L 1.21875 -7.59375 L 1.21875 -9.734375 L 3.203125 -9.734375 L 3.203125 -7.59375 L 4.453125 -7.59375 L 4.453125 -6.171875 L 3.203125 -6.171875 L 3.203125 -2.125 C 3.203125 -1.800781 3.238281 -1.597656 3.3125 -1.515625 C 3.394531 -1.441406 3.640625 -1.40625 4.046875 -1.40625 C 4.109375 -1.40625 4.171875 -1.40625 4.234375 -1.40625 C 4.304688 -1.414062 4.378906 -1.421875 4.453125 -1.421875 Z M 4.453125 -1.421875 "/>
</g>
<g id="glyph-0-27">
<path d="M 3 -7.671875 L 3 0 L 0.96875 0 L 0.96875 -7.671875 Z M 3 -10.4375 L 3 -8.578125 L 0.96875 -8.578125 L 0.96875 -10.4375 Z M 3 -10.4375 "/>
</g>
<g id="glyph-1-0">
<path d="M 0.375 0 L 0.375 -8.265625 L 6.921875 -8.265625 L 6.921875 0 Z M 5.890625 -1.03125 L 5.890625 -7.21875 L 1.40625 -7.21875 L 1.40625 -1.03125 Z M 5.890625 -1.03125 "/>
</g>
<g id="glyph-1-1">
<path d="M 0.359375 0 C 0.398438 -0.695312 0.539062 -1.300781 0.78125 -1.8125 C 1.03125 -2.320312 1.519531 -2.785156 2.25 -3.203125 L 3.328125 -3.828125 C 3.804688 -4.109375 4.144531 -4.347656 4.34375 -4.546875 C 4.65625 -4.859375 4.8125 -5.21875 4.8125 -5.625 C 4.8125 -6.09375 4.671875 -6.460938 4.390625 -6.734375 C 4.109375 -7.015625 3.734375 -7.15625 3.265625 -7.15625 C 2.566406 -7.15625 2.085938 -6.890625 1.828125 -6.359375 C 1.679688 -6.078125 1.597656 -5.691406 1.578125 -5.203125 L 0.5625 -5.203125 C 0.570312 -5.898438 0.695312 -6.46875 0.9375 -6.90625 C 1.382812 -7.6875 2.160156 -8.078125 3.265625 -8.078125 C 4.191406 -8.078125 4.863281 -7.828125 5.28125 -7.328125 C 5.707031 -6.828125 5.921875 -6.273438 5.921875 -5.671875 C 5.921875 -5.023438 5.695312 -4.472656 5.25 -4.015625 C 4.988281 -3.742188 4.515625 -3.421875 3.828125 -3.046875 L 3.0625 -2.625 C 2.695312 -2.414062 2.410156 -2.222656 2.203125 -2.046875 C 1.828125 -1.710938 1.585938 -1.347656 1.484375 -0.953125 L 5.890625 -0.953125 L 5.890625 0 Z M 0.359375 0 "/>
</g>
<g id="glyph-1-2">
<path d="M 6.015625 -7.921875 L 6.015625 -7.03125 C 5.765625 -6.78125 5.421875 -6.34375 4.984375 -5.71875 C 4.554688 -5.101562 4.179688 -4.4375 3.859375 -3.71875 C 3.523438 -3.007812 3.273438 -2.367188 3.109375 -1.796875 C 3.003906 -1.421875 2.863281 -0.820312 2.6875 0 L 1.5625 0 C 1.820312 -1.539062 2.382812 -3.070312 3.25 -4.59375 C 3.769531 -5.476562 4.3125 -6.25 4.875 -6.90625 L 0.421875 -6.90625 L 0.421875 -7.921875 Z M 6.015625 -7.921875 "/>
</g>
<g id="glyph-1-3">
<path d="M 1.109375 -5.703125 L 1.109375 -6.484375 C 1.835938 -6.546875 2.34375 -6.660156 2.625 -6.828125 C 2.914062 -6.992188 3.132812 -7.390625 3.28125 -8.015625 L 4.078125 -8.015625 L 4.078125 0 L 3 0 L 3 -5.703125 Z M 1.109375 -5.703125 "/>
</g>
<g id="glyph-1-4">
<path d="M 3.8125 -2.84375 L 3.8125 -6.5 L 1.21875 -2.84375 Z M 3.828125 0 L 3.828125 -1.96875 L 0.296875 -1.96875 L 0.296875 -2.953125 L 3.984375 -8.078125 L 4.828125 -8.078125 L 4.828125 -2.84375 L 6.015625 -2.84375 L 6.015625 -1.96875 L 4.828125 -1.96875 L 4.828125 0 Z M 3.828125 0 "/>
</g>
<g id="glyph-1-5">
</g>
<g id="glyph-1-6">
<path d="M 3.125 -4.671875 C 3.570312 -4.671875 3.921875 -4.796875 4.171875 -5.046875 C 4.421875 -5.296875 4.546875 -5.59375 4.546875 -5.9375 C 4.546875 -6.238281 4.425781 -6.515625 4.1875 -6.765625 C 3.945312 -7.015625 3.582031 -7.140625 3.09375 -7.140625 C 2.613281 -7.140625 2.265625 -7.015625 2.046875 -6.765625 C 1.828125 -6.515625 1.71875 -6.222656 1.71875 -5.890625 C 1.71875 -5.503906 1.859375 -5.203125 2.140625 -4.984375 C 2.421875 -4.773438 2.75 -4.671875 3.125 -4.671875 Z M 3.1875 -0.6875 C 3.65625 -0.6875 4.046875 -0.8125 4.359375 -1.0625 C 4.671875 -1.320312 4.828125 -1.703125 4.828125 -2.203125 C 4.828125 -2.722656 4.664062 -3.117188 4.34375 -3.390625 C 4.03125 -3.660156 3.625 -3.796875 3.125 -3.796875 C 2.632812 -3.796875 2.238281 -3.65625 1.9375 -3.375 C 1.632812 -3.101562 1.484375 -2.722656 1.484375 -2.234375 C 1.484375 -1.816406 1.617188 -1.453125 1.890625 -1.140625 C 2.171875 -0.835938 2.601562 -0.6875 3.1875 -0.6875 Z M 1.75 -4.296875 C 1.46875 -4.410156 1.25 -4.550781 1.09375 -4.71875 C 0.800781 -5.007812 0.65625 -5.394531 0.65625 -5.875 C 0.65625 -6.476562 0.867188 -6.992188 1.296875 -7.421875 C 1.734375 -7.859375 2.351562 -8.078125 3.15625 -8.078125 C 3.925781 -8.078125 4.53125 -7.875 4.96875 -7.46875 C 5.40625 -7.0625 5.625 -6.582031 5.625 -6.03125 C 5.625 -5.53125 5.5 -5.125 5.25 -4.8125 C 5.101562 -4.632812 4.878906 -4.460938 4.578125 -4.296875 C 4.910156 -4.148438 5.175781 -3.972656 5.375 -3.765625 C 5.726562 -3.390625 5.90625 -2.90625 5.90625 -2.3125 C 5.90625 -1.601562 5.664062 -1 5.1875 -0.5 C 4.707031 -0.0078125 4.035156 0.234375 3.171875 0.234375 C 2.390625 0.234375 1.726562 0.0195312 1.1875 -0.40625 C 0.644531 -0.832031 0.375 -1.453125 0.375 -2.265625 C 0.375 -2.734375 0.488281 -3.140625 0.71875 -3.484375 C 0.945312 -3.835938 1.289062 -4.109375 1.75 -4.296875 Z M 1.75 -4.296875 "/>
</g>
<g id="glyph-1-7">
<path d="M 3.109375 -8.046875 C 4.148438 -8.046875 4.90625 -7.617188 5.375 -6.765625 C 5.738281 -6.097656 5.921875 -5.1875 5.921875 -4.03125 C 5.921875 -2.9375 5.753906 -2.035156 5.421875 -1.328125 C 4.953125 -0.296875 4.179688 0.21875 3.109375 0.21875 C 2.140625 0.21875 1.421875 -0.203125 0.953125 -1.046875 C 0.554688 -1.742188 0.359375 -2.679688 0.359375 -3.859375 C 0.359375 -4.773438 0.476562 -5.5625 0.71875 -6.21875 C 1.15625 -7.4375 1.953125 -8.046875 3.109375 -8.046875 Z M 3.109375 -0.703125 C 3.628906 -0.703125 4.046875 -0.929688 4.359375 -1.390625 C 4.671875 -1.859375 4.828125 -2.726562 4.828125 -4 C 4.828125 -4.914062 4.710938 -5.664062 4.484375 -6.25 C 4.265625 -6.84375 3.828125 -7.140625 3.171875 -7.140625 C 2.578125 -7.140625 2.140625 -6.859375 1.859375 -6.296875 C 1.585938 -5.734375 1.453125 -4.910156 1.453125 -3.828125 C 1.453125 -3.003906 1.539062 -2.34375 1.71875 -1.84375 C 1.988281 -1.082031 2.453125 -0.703125 3.109375 -0.703125 Z M 3.109375 -0.703125 "/>
</g>
<g id="glyph-1-8">
<path d="M 7.84375 -3.90625 C 8.382812 -3.90625 8.847656 -3.710938 9.234375 -3.328125 C 9.617188 -2.953125 9.8125 -2.492188 9.8125 -1.953125 C 9.8125 -1.410156 9.617188 -0.945312 9.234375 -0.5625 C 8.847656 -0.1875 8.382812 0 7.84375 0 C 7.300781 0 6.835938 -0.1875 6.453125 -0.5625 C 6.078125 -0.945312 5.890625 -1.410156 5.890625 -1.953125 C 5.890625 -2.492188 6.078125 -2.953125 6.453125 -3.328125 C 6.835938 -3.710938 7.300781 -3.90625 7.84375 -3.90625 Z M 7.03125 -8.015625 L 7.65625 -8.015625 L 3.15625 0.21875 L 2.53125 0.21875 Z M 2.328125 -4.6875 C 2.648438 -4.6875 2.921875 -4.800781 3.140625 -5.03125 C 3.367188 -5.257812 3.484375 -5.53125 3.484375 -5.84375 C 3.484375 -6.164062 3.367188 -6.4375 3.140625 -6.65625 C 2.921875 -6.882812 2.648438 -7 2.328125 -7 C 2.003906 -7 1.726562 -6.882812 1.5 -6.65625 C 1.28125 -6.4375 1.171875 -6.164062 1.171875 -5.84375 C 1.171875 -5.53125 1.28125 -5.257812 1.5 -5.03125 C 1.726562 -4.800781 2.003906 -4.6875 2.328125 -4.6875 Z M 2.328125 -7.8125 C 2.867188 -7.8125 3.332031 -7.617188 3.71875 -7.234375 C 4.101562 -6.847656 4.296875 -6.382812 4.296875 -5.84375 C 4.296875 -5.300781 4.101562 -4.835938 3.71875 -4.453125 C 3.332031 -4.078125 2.867188 -3.890625 2.328125 -3.890625 C 1.785156 -3.890625 1.320312 -4.078125 0.9375 -4.453125 C 0.5625 -4.835938 0.375 -5.300781 0.375 -5.84375 C 0.375 -6.382812 0.5625 -6.847656 0.9375 -7.234375 C 1.320312 -7.617188 1.785156 -7.8125 2.328125 -7.8125 Z M 7.84375 -0.796875 C 8.164062 -0.796875 8.441406 -0.910156 8.671875 -1.140625 C 8.898438 -1.367188 9.015625 -1.640625 9.015625 -1.953125 C 9.015625 -2.273438 8.898438 -2.546875 8.671875 -2.765625 C 8.441406 -2.992188 8.164062 -3.109375 7.84375 -3.109375 C 7.519531 -3.109375 7.242188 -2.992188 7.015625 -2.765625 C 6.796875 -2.546875 6.6875 -2.273438 6.6875 -1.953125 C 6.6875 -1.640625 6.796875 -1.367188 7.015625 -1.140625 C 7.242188 -0.910156 7.519531 -0.796875 7.84375 -0.796875 Z M 7.84375 -0.796875 "/>
</g>
<g id="glyph-1-9">
<path d="M 2.984375 0.21875 C 2.035156 0.21875 1.347656 -0.0390625 0.921875 -0.5625 C 0.492188 -1.082031 0.28125 -1.71875 0.28125 -2.46875 L 1.328125 -2.46875 C 1.378906 -1.945312 1.476562 -1.570312 1.625 -1.34375 C 1.882812 -0.914062 2.359375 -0.703125 3.046875 -0.703125 C 3.578125 -0.703125 4.003906 -0.84375 4.328125 -1.125 C 4.648438 -1.414062 4.8125 -1.785156 4.8125 -2.234375 C 4.8125 -2.785156 4.640625 -3.171875 4.296875 -3.390625 C 3.960938 -3.617188 3.492188 -3.734375 2.890625 -3.734375 C 2.816406 -3.734375 2.742188 -3.726562 2.671875 -3.71875 C 2.609375 -3.71875 2.539062 -3.71875 2.46875 -3.71875 L 2.46875 -4.609375 C 2.570312 -4.597656 2.660156 -4.585938 2.734375 -4.578125 C 2.804688 -4.578125 2.882812 -4.578125 2.96875 -4.578125 C 3.34375 -4.578125 3.65625 -4.640625 3.90625 -4.765625 C 4.332031 -4.972656 4.546875 -5.347656 4.546875 -5.890625 C 4.546875 -6.285156 4.398438 -6.59375 4.109375 -6.8125 C 3.828125 -7.03125 3.5 -7.140625 3.125 -7.140625 C 2.445312 -7.140625 1.976562 -6.914062 1.71875 -6.46875 C 1.570312 -6.21875 1.492188 -5.863281 1.484375 -5.40625 L 0.484375 -5.40625 C 0.484375 -6.007812 0.601562 -6.519531 0.84375 -6.9375 C 1.25 -7.6875 1.972656 -8.0625 3.015625 -8.0625 C 3.835938 -8.0625 4.472656 -7.878906 4.921875 -7.515625 C 5.367188 -7.148438 5.59375 -6.617188 5.59375 -5.921875 C 5.59375 -5.429688 5.460938 -5.03125 5.203125 -4.71875 C 5.035156 -4.53125 4.816406 -4.378906 4.546875 -4.265625 C 4.972656 -4.148438 5.304688 -3.925781 5.546875 -3.59375 C 5.785156 -3.269531 5.90625 -2.867188 5.90625 -2.390625 C 5.90625 -1.617188 5.648438 -0.988281 5.140625 -0.5 C 4.640625 -0.0195312 3.921875 0.21875 2.984375 0.21875 Z M 2.984375 0.21875 "/>
</g>
<g id="glyph-1-10">
<path d="M 1.421875 -2.046875 C 1.492188 -1.472656 1.765625 -1.078125 2.234375 -0.859375 C 2.472656 -0.742188 2.75 -0.6875 3.0625 -0.6875 C 3.65625 -0.6875 4.097656 -0.875 4.390625 -1.25 C 4.679688 -1.632812 4.828125 -2.0625 4.828125 -2.53125 C 4.828125 -3.09375 4.65625 -3.523438 4.3125 -3.828125 C 3.96875 -4.140625 3.554688 -4.296875 3.078125 -4.296875 C 2.722656 -4.296875 2.421875 -4.226562 2.171875 -4.09375 C 1.929688 -3.957031 1.722656 -3.769531 1.546875 -3.53125 L 0.65625 -3.578125 L 1.28125 -7.921875 L 5.453125 -7.921875 L 5.453125 -6.9375 L 2.03125 -6.9375 L 1.6875 -4.703125 C 1.875 -4.847656 2.054688 -4.953125 2.234375 -5.015625 C 2.523438 -5.140625 2.867188 -5.203125 3.265625 -5.203125 C 4.003906 -5.203125 4.628906 -4.960938 5.140625 -4.484375 C 5.660156 -4.015625 5.921875 -3.414062 5.921875 -2.6875 C 5.921875 -1.925781 5.679688 -1.253906 5.203125 -0.671875 C 4.734375 -0.0859375 3.984375 0.203125 2.953125 0.203125 C 2.296875 0.203125 1.71875 0.0195312 1.21875 -0.34375 C 0.71875 -0.71875 0.4375 -1.285156 0.375 -2.046875 Z M 1.421875 -2.046875 "/>
</g>
<g id="glyph-1-11">
<path d="M 3.375 -8.078125 C 4.269531 -8.078125 4.894531 -7.84375 5.25 -7.375 C 5.601562 -6.914062 5.78125 -6.4375 5.78125 -5.9375 L 4.78125 -5.9375 C 4.71875 -6.257812 4.625 -6.507812 4.5 -6.6875 C 4.25 -7.03125 3.878906 -7.203125 3.390625 -7.203125 C 2.816406 -7.203125 2.363281 -6.9375 2.03125 -6.40625 C 1.695312 -5.882812 1.515625 -5.140625 1.484375 -4.171875 C 1.710938 -4.503906 2.003906 -4.757812 2.359375 -4.9375 C 2.679688 -5.082031 3.039062 -5.15625 3.4375 -5.15625 C 4.113281 -5.15625 4.703125 -4.9375 5.203125 -4.5 C 5.703125 -4.070312 5.953125 -3.429688 5.953125 -2.578125 C 5.953125 -1.847656 5.710938 -1.203125 5.234375 -0.640625 C 4.765625 -0.078125 4.085938 0.203125 3.203125 0.203125 C 2.453125 0.203125 1.800781 -0.078125 1.25 -0.640625 C 0.707031 -1.210938 0.4375 -2.175781 0.4375 -3.53125 C 0.4375 -4.53125 0.554688 -5.378906 0.796875 -6.078125 C 1.265625 -7.410156 2.125 -8.078125 3.375 -8.078125 Z M 3.296875 -0.6875 C 3.828125 -0.6875 4.222656 -0.863281 4.484375 -1.21875 C 4.753906 -1.582031 4.890625 -2.007812 4.890625 -2.5 C 4.890625 -2.90625 4.769531 -3.296875 4.53125 -3.671875 C 4.289062 -4.046875 3.863281 -4.234375 3.25 -4.234375 C 2.8125 -4.234375 2.425781 -4.085938 2.09375 -3.796875 C 1.769531 -3.515625 1.609375 -3.082031 1.609375 -2.5 C 1.609375 -1.988281 1.753906 -1.554688 2.046875 -1.203125 C 2.347656 -0.859375 2.765625 -0.6875 3.296875 -0.6875 Z M 3.296875 -0.6875 "/>
</g>
<g id="glyph-1-12">
<path d="M 1.53125 -1.953125 C 1.5625 -1.390625 1.773438 -1 2.171875 -0.78125 C 2.378906 -0.675781 2.613281 -0.625 2.875 -0.625 C 3.351562 -0.625 3.765625 -0.820312 4.109375 -1.21875 C 4.453125 -1.625 4.691406 -2.441406 4.828125 -3.671875 C 4.609375 -3.316406 4.332031 -3.066406 4 -2.921875 C 3.664062 -2.773438 3.304688 -2.703125 2.921875 -2.703125 C 2.148438 -2.703125 1.535156 -2.941406 1.078125 -3.421875 C 0.628906 -3.910156 0.40625 -4.535156 0.40625 -5.296875 C 0.40625 -6.035156 0.628906 -6.679688 1.078125 -7.234375 C 1.523438 -7.785156 2.179688 -8.0625 3.046875 -8.0625 C 4.222656 -8.0625 5.035156 -7.535156 5.484375 -6.484375 C 5.734375 -5.898438 5.859375 -5.171875 5.859375 -4.296875 C 5.859375 -3.304688 5.707031 -2.429688 5.40625 -1.671875 C 4.914062 -0.410156 4.082031 0.21875 2.90625 0.21875 C 2.125 0.21875 1.523438 0.0117188 1.109375 -0.390625 C 0.703125 -0.804688 0.5 -1.328125 0.5 -1.953125 Z M 3.0625 -3.59375 C 3.46875 -3.59375 3.832031 -3.722656 4.15625 -3.984375 C 4.488281 -4.253906 4.65625 -4.71875 4.65625 -5.375 C 4.65625 -5.96875 4.503906 -6.410156 4.203125 -6.703125 C 3.910156 -6.992188 3.535156 -7.140625 3.078125 -7.140625 C 2.578125 -7.140625 2.179688 -6.972656 1.890625 -6.640625 C 1.609375 -6.304688 1.46875 -5.863281 1.46875 -5.3125 C 1.46875 -4.789062 1.59375 -4.375 1.84375 -4.0625 C 2.101562 -3.75 2.507812 -3.59375 3.0625 -3.59375 Z M 3.0625 -3.59375 "/>
</g>
<g id="glyph-2-0">
<path d="M 0.46875 0 L 0.46875 -10.328125 L 8.671875 -10.328125 L 8.671875 0 Z M 7.375 -1.296875 L 7.375 -9.046875 L 1.765625 -9.046875 L 1.765625 -1.296875 Z M 7.375 -1.296875 "/>
</g>
<g id="glyph-2-1">
<path d="M 0.296875 -10.328125 L 1.921875 -10.328125 L 4.890625 -5.359375 L 7.859375 -10.328125 L 9.5 -10.328125 L 5.59375 -4.171875 L 5.59375 0 L 4.203125 0 L 4.203125 -4.171875 Z M 4.921875 -10.328125 Z M 4.921875 -10.328125 "/>
</g>
<g id="glyph-2-2">
<path d="M 4.0625 -7.703125 C 4.601562 -7.703125 5.125 -7.578125 5.625 -7.328125 C 6.125 -7.078125 6.503906 -6.753906 6.765625 -6.359375 C 7.015625 -5.972656 7.1875 -5.523438 7.28125 -5.015625 C 7.351562 -4.671875 7.390625 -4.117188 7.390625 -3.359375 L 1.859375 -3.359375 C 1.890625 -2.597656 2.070312 -1.984375 2.40625 -1.515625 C 2.738281 -1.054688 3.257812 -0.828125 3.96875 -0.828125 C 4.632812 -0.828125 5.164062 -1.046875 5.5625 -1.484375 C 5.78125 -1.734375 5.9375 -2.023438 6.03125 -2.359375 L 7.28125 -2.359375 C 7.25 -2.085938 7.140625 -1.78125 6.953125 -1.4375 C 6.765625 -1.09375 6.554688 -0.816406 6.328125 -0.609375 C 5.941406 -0.234375 5.46875 0.0195312 4.90625 0.15625 C 4.601562 0.226562 4.257812 0.265625 3.875 0.265625 C 2.9375 0.265625 2.140625 -0.0703125 1.484375 -0.75 C 0.828125 -1.4375 0.5 -2.394531 0.5 -3.625 C 0.5 -4.832031 0.828125 -5.8125 1.484375 -6.5625 C 2.140625 -7.320312 3 -7.703125 4.0625 -7.703125 Z M 6.078125 -4.375 C 6.023438 -4.914062 5.90625 -5.351562 5.71875 -5.6875 C 5.375 -6.289062 4.796875 -6.59375 3.984375 -6.59375 C 3.398438 -6.59375 2.910156 -6.382812 2.515625 -5.96875 C 2.128906 -5.550781 1.925781 -5.019531 1.90625 -4.375 Z M 3.953125 -7.71875 Z M 3.953125 -7.71875 "/>
</g>
<g id="glyph-2-3">
<path d="M 1.6875 -2.359375 C 1.71875 -1.941406 1.820312 -1.617188 2 -1.390625 C 2.3125 -0.984375 2.863281 -0.78125 3.65625 -0.78125 C 4.125 -0.78125 4.535156 -0.878906 4.890625 -1.078125 C 5.253906 -1.285156 5.4375 -1.601562 5.4375 -2.03125 C 5.4375 -2.351562 5.289062 -2.597656 5 -2.765625 C 4.820312 -2.867188 4.460938 -2.988281 3.921875 -3.125 L 2.90625 -3.390625 C 2.269531 -3.546875 1.796875 -3.722656 1.484375 -3.921875 C 0.941406 -4.265625 0.671875 -4.738281 0.671875 -5.34375 C 0.671875 -6.050781 0.925781 -6.625 1.4375 -7.0625 C 1.957031 -7.507812 2.648438 -7.734375 3.515625 -7.734375 C 4.648438 -7.734375 5.46875 -7.398438 5.96875 -6.734375 C 6.28125 -6.304688 6.429688 -5.847656 6.421875 -5.359375 L 5.234375 -5.359375 C 5.210938 -5.648438 5.113281 -5.910156 4.9375 -6.140625 C 4.644531 -6.472656 4.140625 -6.640625 3.421875 -6.640625 C 2.941406 -6.640625 2.578125 -6.546875 2.328125 -6.359375 C 2.085938 -6.179688 1.96875 -5.945312 1.96875 -5.65625 C 1.96875 -5.320312 2.128906 -5.054688 2.453125 -4.859375 C 2.640625 -4.742188 2.914062 -4.640625 3.28125 -4.546875 L 4.109375 -4.34375 C 5.023438 -4.125 5.632812 -3.910156 5.9375 -3.703125 C 6.4375 -3.378906 6.6875 -2.875 6.6875 -2.1875 C 6.6875 -1.507812 6.429688 -0.925781 5.921875 -0.4375 C 5.410156 0.0390625 4.632812 0.28125 3.59375 0.28125 C 2.46875 0.28125 1.671875 0.0273438 1.203125 -0.46875 C 0.742188 -0.976562 0.5 -1.609375 0.46875 -2.359375 Z M 3.546875 -7.71875 Z M 3.546875 -7.71875 "/>
</g>
<g id="glyph-2-4">
<path d="M 1.09375 -10.328125 L 2.75 -10.328125 L 7.96875 -1.96875 L 7.96875 -10.328125 L 9.296875 -10.328125 L 9.296875 0 L 7.734375 0 L 2.4375 -8.359375 L 2.4375 0 L 1.09375 0 Z M 5.109375 -10.328125 Z M 5.109375 -10.328125 "/>
</g>
<g id="glyph-2-5">
<path d="M 3.921875 -0.8125 C 4.753906 -0.8125 5.328125 -1.128906 5.640625 -1.765625 C 5.953125 -2.398438 6.109375 -3.109375 6.109375 -3.890625 C 6.109375 -4.585938 6 -5.160156 5.78125 -5.609375 C 5.414062 -6.296875 4.800781 -6.640625 3.9375 -6.640625 C 3.15625 -6.640625 2.585938 -6.34375 2.234375 -5.75 C 1.890625 -5.164062 1.71875 -4.457031 1.71875 -3.625 C 1.71875 -2.820312 1.890625 -2.148438 2.234375 -1.609375 C 2.585938 -1.078125 3.148438 -0.8125 3.921875 -0.8125 Z M 3.96875 -7.75 C 4.9375 -7.75 5.753906 -7.425781 6.421875 -6.78125 C 7.097656 -6.132812 7.4375 -5.179688 7.4375 -3.921875 C 7.4375 -2.710938 7.140625 -1.707031 6.546875 -0.90625 C 5.953125 -0.113281 5.035156 0.28125 3.796875 0.28125 C 2.765625 0.28125 1.941406 -0.0664062 1.328125 -0.765625 C 0.722656 -1.472656 0.421875 -2.421875 0.421875 -3.609375 C 0.421875 -4.867188 0.738281 -5.875 1.375 -6.625 C 2.019531 -7.375 2.882812 -7.75 3.96875 -7.75 Z M 3.921875 -7.71875 Z M 3.921875 -7.71875 "/>
</g>
</g>
</defs>
<path fill="none" stroke-width="0.9" stroke-linecap="butt" stroke-linejoin="round" stroke="rgb(0%, 0%, 0%)" stroke-opacity="1" stroke-miterlimit="10" d="M 223.4375 172.835938 L 223.4375 35.269531 L 503.433594 35.269531 "/>
<path fill="none" stroke-width="0.9" stroke-linecap="butt" stroke-linejoin="round" stroke="rgb(0%, 0%, 0%)" stroke-opacity="1" stroke-miterlimit="10" d="M 83.441406 351.113281 L 83.441406 183.835938 L 223.4375 183.835938 "/>
<path fill="none" stroke-width="0.9" stroke-linecap="butt" stroke-linejoin="round" stroke="rgb(0%, 0%, 0%)" stroke-opacity="1" stroke-miterlimit="10" d="M 363.433594 351.113281 L 363.433594 183.835938 L 223.4375 183.835938 "/>
<path fill="none" stroke-width="0.9" stroke-linecap="butt" stroke-linejoin="round" stroke="rgb(0%, 0%, 0%)" stroke-opacity="1" stroke-miterlimit="10" d="M 783.425781 172.835938 L 783.425781 35.269531 L 503.433594 35.269531 "/>
<path fill="none" stroke-width="0.9" stroke-linecap="butt" stroke-linejoin="round" stroke="rgb(0%, 0%, 0%)" stroke-opacity="1" stroke-miterlimit="10" d="M 643.429688 351.113281 L 643.429688 183.835938 L 783.425781 183.835938 "/>
<path fill="none" stroke-width="0.9" stroke-linecap="butt" stroke-linejoin="round" stroke="rgb(0%, 0%, 0%)" stroke-opacity="1" stroke-miterlimit="10" d="M 923.425781 351.113281 L 923.425781 183.835938 L 783.425781 183.835938 "/>
<path fill-rule="nonzero" fill="rgb(100%, 100%, 100%)" fill-opacity="1" d="M 183.738281 120.644531 L 183.738281 81.363281 L 263.136719 81.363281 L 263.136719 120.644531 Z M 183.738281 120.644531 "/>
<path fill-rule="nonzero" fill="rgb(100%, 100%, 100%)" fill-opacity="1" d="M 44.738281 269.210938 L 44.738281 229.929688 L 122.140625 229.929688 L 122.140625 269.210938 Z M 44.738281 269.210938 "/>
<path fill-rule="nonzero" fill="rgb(100%, 100%, 100%)" fill-opacity="1" d="M 606.230469 250.671875 L 606.230469 228.671875 L 680.628906 228.671875 L 680.628906 250.671875 Z M 606.230469 250.671875 "/>
<g fill="rgb(0%, 0%, 0%)" fill-opacity="1">
<use xlink:href="#glyph-0-1" x="184.9375" y="96.951172"/>
<use xlink:href="#glyph-0-2" x="192.9375" y="96.951172"/>
<use xlink:href="#glyph-0-3" x="200.9375" y="96.951172"/>
<use xlink:href="#glyph-0-4" x="209.9375" y="96.951172"/>
<use xlink:href="#glyph-0-5" x="218.9375" y="96.951172"/>
<use xlink:href="#glyph-0-6" x="224.9375" y="96.951172"/>
<use xlink:href="#glyph-0-7" x="232.9375" y="96.951172"/>
<use xlink:href="#glyph-0-2" x="245.9375" y="96.951172"/>
<use xlink:href="#glyph-0-8" x="253.9375" y="96.951172"/>
</g>
<g fill="rgb(0%, 0%, 0%)" fill-opacity="1">
<use xlink:href="#glyph-0-9" x="201.4375" y="114.232422"/>
<use xlink:href="#glyph-0-10" x="209.4375" y="114.232422"/>
<use xlink:href="#glyph-0-11" x="213.4375" y="114.232422"/>
<use xlink:href="#glyph-0-12" x="221.4375" y="114.232422"/>
<use xlink:href="#glyph-0-13" x="229.4375" y="114.232422"/>
<use xlink:href="#glyph-0-14" x="237.4375" y="114.232422"/>
</g>
<g fill="rgb(0%, 0%, 0%)" fill-opacity="1">
<use xlink:href="#glyph-0-5" x="45.941406" y="245.517578"/>
<use xlink:href="#glyph-0-4" x="51.941406" y="245.517578"/>
<use xlink:href="#glyph-0-15" x="60.941406" y="245.517578"/>
<use xlink:href="#glyph-0-16" x="69.941406" y="245.517578"/>
<use xlink:href="#glyph-0-17" x="78.941406" y="245.517578"/>
<use xlink:href="#glyph-0-18" x="87.941406" y="245.517578"/>
<use xlink:href="#glyph-0-19" x="96.941406" y="245.517578"/>
<use xlink:href="#glyph-0-20" x="104.941406" y="245.517578"/>
<use xlink:href="#glyph-0-20" x="112.941406" y="245.517578"/>
</g>
<g fill="rgb(0%, 0%, 0%)" fill-opacity="1">
<use xlink:href="#glyph-0-21" x="65.441406" y="262.798828"/>
<use xlink:href="#glyph-0-22" x="73.441406" y="262.798828"/>
<use xlink:href="#glyph-0-10" x="81.441406" y="262.798828"/>
<use xlink:href="#glyph-0-11" x="85.441406" y="262.798828"/>
<use xlink:href="#glyph-0-23" x="93.441406" y="262.798828"/>
</g>
<g fill="rgb(0%, 0%, 0%)" fill-opacity="1">
<use xlink:href="#glyph-0-24" x="607.429688" y="243.759766"/>
<use xlink:href="#glyph-0-10" x="615.429688" y="243.759766"/>
<use xlink:href="#glyph-0-25" x="619.429688" y="243.759766"/>
<use xlink:href="#glyph-0-4" x="627.429688" y="243.759766"/>
<use xlink:href="#glyph-0-15" x="636.429688" y="243.759766"/>
<use xlink:href="#glyph-0-18" x="645.429688" y="243.759766"/>
<use xlink:href="#glyph-0-26" x="654.429688" y="243.759766"/>
<use xlink:href="#glyph-0-27" x="659.429688" y="243.759766"/>
<use xlink:href="#glyph-0-19" x="663.429688" y="243.759766"/>
<use xlink:href="#glyph-0-20" x="671.429688" y="243.759766"/>
</g>
<path fill-rule="nonzero" fill="rgb(100%, 100%, 100%)" fill-opacity="1" d="M 743.726562 159.925781 L 743.726562 120.644531 L 823.128906 120.644531 L 823.128906 159.925781 Z M 743.726562 159.925781 "/>
<path fill-rule="nonzero" fill="rgb(100%, 100%, 100%)" fill-opacity="1" d="M 324.734375 308.488281 L 324.734375 269.210938 L 402.136719 269.210938 L 402.136719 308.488281 Z M 324.734375 308.488281 "/>
<path fill-rule="nonzero" fill="rgb(100%, 100%, 100%)" fill-opacity="1" d="M 882.226562 272.671875 L 882.226562 250.671875 L 964.625 250.671875 L 964.625 272.671875 Z M 882.226562 272.671875 "/>
<g fill="rgb(0%, 0%, 0%)" fill-opacity="1">
<use xlink:href="#glyph-0-1" x="744.925781" y="136.232422"/>
<use xlink:href="#glyph-0-2" x="752.925781" y="136.232422"/>
<use xlink:href="#glyph-0-3" x="760.925781" y="136.232422"/>
<use xlink:href="#glyph-0-4" x="769.925781" y="136.232422"/>
<use xlink:href="#glyph-0-5" x="778.925781" y="136.232422"/>
<use xlink:href="#glyph-0-6" x="784.925781" y="136.232422"/>
<use xlink:href="#glyph-0-7" x="792.925781" y="136.232422"/>
<use xlink:href="#glyph-0-2" x="805.925781" y="136.232422"/>
<use xlink:href="#glyph-0-8" x="813.925781" y="136.232422"/>
</g>
<g fill="rgb(0%, 0%, 0%)" fill-opacity="1">
<use xlink:href="#glyph-0-21" x="757.425781" y="153.513672"/>
<use xlink:href="#glyph-0-22" x="765.425781" y="153.513672"/>
<use xlink:href="#glyph-0-10" x="773.425781" y="153.513672"/>
<use xlink:href="#glyph-0-11" x="777.425781" y="153.513672"/>
<use xlink:href="#glyph-0-12" x="785.425781" y="153.513672"/>
<use xlink:href="#glyph-0-13" x="793.425781" y="153.513672"/>
<use xlink:href="#glyph-0-14" x="801.425781" y="153.513672"/>
</g>
<g fill="rgb(0%, 0%, 0%)" fill-opacity="1">
<use xlink:href="#glyph-0-5" x="325.933594" y="284.798828"/>
<use xlink:href="#glyph-0-4" x="331.933594" y="284.798828"/>
<use xlink:href="#glyph-0-15" x="340.933594" y="284.798828"/>
<use xlink:href="#glyph-0-16" x="349.933594" y="284.798828"/>
<use xlink:href="#glyph-0-17" x="358.933594" y="284.798828"/>
<use xlink:href="#glyph-0-18" x="367.933594" y="284.798828"/>
<use xlink:href="#glyph-0-19" x="376.933594" y="284.798828"/>
<use xlink:href="#glyph-0-20" x="384.933594" y="284.798828"/>
<use xlink:href="#glyph-0-20" x="392.933594" y="284.798828"/>
</g>
<g fill="rgb(0%, 0%, 0%)" fill-opacity="1">
<use xlink:href="#glyph-0-9" x="349.433594" y="302.076172"/>
<use xlink:href="#glyph-0-10" x="357.433594" y="302.076172"/>
<use xlink:href="#glyph-0-11" x="361.433594" y="302.076172"/>
<use xlink:href="#glyph-0-23" x="369.433594" y="302.076172"/>
</g>
<g fill="rgb(0%, 0%, 0%)" fill-opacity="1">
<use xlink:href="#glyph-0-11" x="883.425781" y="265.759766"/>
<use xlink:href="#glyph-0-23" x="891.425781" y="265.759766"/>
<use xlink:href="#glyph-0-10" x="899.425781" y="265.759766"/>
<use xlink:href="#glyph-0-25" x="903.425781" y="265.759766"/>
<use xlink:href="#glyph-0-4" x="911.425781" y="265.759766"/>
<use xlink:href="#glyph-0-15" x="920.425781" y="265.759766"/>
<use xlink:href="#glyph-0-18" x="929.425781" y="265.759766"/>
<use xlink:href="#glyph-0-26" x="938.425781" y="265.759766"/>
<use xlink:href="#glyph-0-27" x="943.425781" y="265.759766"/>
<use xlink:href="#glyph-0-19" x="947.425781" y="265.759766"/>
<use xlink:href="#glyph-0-20" x="955.425781" y="265.759766"/>
</g>
<path fill-rule="nonzero" fill="rgb(78.039216%, 91.372549%, 75.294118%)" fill-opacity="1" stroke-width="0.9" stroke-linecap="round" stroke-linejoin="round" stroke="rgb(0%, 0%, 0%)" stroke-opacity="1" stroke-miterlimit="10" d="M 485.933594 31.476562 L 486.527344 29.609375 L 488.277344 27.871094 L 491.058594 26.378906 L 494.683594 25.234375 L 498.902344 24.515625 L 503.433594 24.269531 L 507.960938 24.515625 L 512.183594 25.234375 L 515.808594 26.378906 L 518.589844 27.871094 L 520.335938 29.609375 L 520.933594 31.476562 L 520.933594 39.0625 L 520.335938 40.929688 L 518.589844 42.667969 L 515.808594 44.160156 L 512.183594 45.304688 L 507.960938 46.023438 L 503.433594 46.269531 L 498.902344 46.023438 L 494.683594 45.304688 L 491.058594 44.160156 L 488.277344 42.667969 L 486.527344 40.929688 L 485.933594 39.0625 Z M 485.933594 31.476562 "/>
<path fill-rule="nonzero" fill="rgb(63.137255%, 85.098039%, 60.784314%)" fill-opacity="1" stroke-width="0.9" stroke-linecap="round" stroke-linejoin="round" stroke="rgb(0%, 0%, 0%)" stroke-opacity="1" stroke-miterlimit="10" d="M 205.9375 180.039062 L 206.535156 178.175781 L 208.28125 176.4375 L 211.0625 174.945312 L 214.6875 173.800781 L 218.90625 173.082031 L 223.4375 172.835938 L 227.96875 173.082031 L 232.1875 173.800781 L 235.8125 174.945312 L 238.59375 176.4375 L 240.339844 178.175781 L 240.9375 180.039062 L 240.9375 187.628906 L 240.339844 189.496094 L 238.59375 191.230469 L 235.8125 192.722656 L 232.1875 193.871094 L 227.96875 194.589844 L 223.4375 194.835938 L 218.90625 194.589844 L 214.6875 193.871094 L 211.0625 192.722656 L 208.28125 191.230469 L 206.535156 189.496094 L 205.9375 187.628906 Z M 205.9375 180.039062 "/>
<path fill-rule="nonzero" fill="rgb(45.490196%, 76.862745%, 46.27451%)" fill-opacity="1" stroke-width="0.9" stroke-linecap="round" stroke-linejoin="round" stroke="rgb(0%, 0%, 0%)" stroke-opacity="1" stroke-miterlimit="10" d="M 65.941406 358.320312 L 66.535156 356.457031 L 68.285156 354.71875 L 71.066406 353.226562 L 74.691406 352.078125 L 78.910156 351.359375 L 83.441406 351.113281 L 87.96875 351.359375 L 92.191406 352.078125 L 95.8125 353.226562 L 98.59375 354.71875 L 100.34375 356.457031 L 100.941406 358.320312 L 100.941406 365.910156 L 100.34375 367.773438 L 98.59375 369.511719 L 95.8125 371.003906 L 92.191406 372.148438 L 87.96875 372.867188 L 83.441406 373.113281 L 78.910156 372.867188 L 74.691406 372.148438 L 71.066406 371.003906 L 68.285156 369.511719 L 66.535156 367.773438 L 65.941406 365.910156 Z M 65.941406 358.320312 "/>
<path fill-rule="nonzero" fill="rgb(89.803922%, 96.078431%, 87.843137%)" fill-opacity="1" stroke-width="0.9" stroke-linecap="round" stroke-linejoin="round" stroke="rgb(0%, 0%, 0%)" stroke-opacity="1" stroke-miterlimit="10" d="M 345.933594 358.320312 L 346.53125 356.457031 L 348.28125 354.71875 L 351.0625 353.226562 L 354.683594 352.078125 L 358.90625 351.359375 L 363.433594 351.113281 L 367.964844 351.359375 L 372.183594 352.078125 L 375.808594 353.226562 L 378.589844 354.71875 L 380.339844 356.457031 L 380.933594 358.320312 L 380.933594 365.910156 L 380.339844 367.773438 L 378.589844 369.511719 L 375.808594 371.003906 L 372.183594 372.148438 L 367.964844 372.867188 L 363.433594 373.113281 L 358.90625 372.867188 L 354.683594 372.148438 L 351.0625 371.003906 L 348.28125 369.511719 L 346.53125 367.773438 L 345.933594 365.910156 Z M 345.933594 358.320312 "/>
<path fill-rule="nonzero" fill="rgb(90.588235%, 69.019608%, 56.470588%)" fill-opacity="1" stroke-width="0.9" stroke-linecap="round" stroke-linejoin="round" stroke="rgb(0%, 0%, 0%)" stroke-opacity="1" stroke-miterlimit="10" d="M 768.425781 179.011719 L 768.9375 177.414062 L 770.4375 175.921875 L 772.820312 174.644531 L 775.925781 173.664062 L 779.546875 173.046875 L 783.425781 172.835938 L 787.308594 173.046875 L 790.925781 173.664062 L 794.035156 174.644531 L 796.417969 175.921875 L 797.917969 177.414062 L 798.425781 179.011719 L 798.425781 188.660156 L 797.917969 190.257812 L 796.417969 191.746094 L 794.035156 193.027344 L 790.925781 194.007812 L 787.308594 194.625 L 783.425781 194.835938 L 779.546875 194.625 L 775.925781 194.007812 L 772.820312 193.027344 L 770.4375 191.746094 L 768.9375 190.257812 L 768.425781 188.660156 Z M 768.425781 179.011719 "/>
<path fill-rule="nonzero" fill="rgb(96.078431%, 87.058824%, 81.960784%)" fill-opacity="1" stroke-width="0.9" stroke-linecap="round" stroke-linejoin="round" stroke="rgb(0%, 0%, 0%)" stroke-opacity="1" stroke-miterlimit="10" d="M 628.429688 357.289062 L 628.941406 355.691406 L 630.441406 354.203125 L 632.824219 352.921875 L 635.929688 351.941406 L 639.546875 351.324219 L 643.429688 351.113281 L 647.3125 351.324219 L 650.929688 351.941406 L 654.035156 352.921875 L 656.421875 354.203125 L 657.917969 355.691406 L 658.429688 357.289062 L 658.429688 366.9375 L 657.917969 368.535156 L 656.421875 370.027344 L 654.035156 371.304688 L 650.929688 372.285156 L 647.3125 372.902344 L 643.429688 373.113281 L 639.546875 372.902344 L 635.929688 372.285156 L 632.824219 371.304688 L 630.441406 370.027344 L 628.941406 368.535156 L 628.429688 366.9375 Z M 628.429688 357.289062 "/>
<path fill-rule="nonzero" fill="rgb(85.098039%, 52.54902%, 34.117647%)" fill-opacity="1" stroke-width="0.9" stroke-linecap="round" stroke-linejoin="round" stroke="rgb(0%, 0%, 0%)" stroke-opacity="1" stroke-miterlimit="10" d="M 908.425781 357.289062 L 908.9375 355.691406 L 910.433594 354.203125 L 912.820312 352.921875 L 915.925781 351.941406 L 919.542969 351.324219 L 923.425781 351.113281 L 927.308594 351.324219 L 930.925781 351.941406 L 934.03125 352.921875 L 936.414062 354.203125 L 937.914062 355.691406 L 938.425781 357.289062 L 938.425781 366.9375 L 937.914062 368.535156 L 936.414062 370.027344 L 934.03125 371.304688 L 930.925781 372.285156 L 927.308594 372.902344 L 923.425781 373.113281 L 919.542969 372.902344 L 915.925781 372.285156 L 912.820312 371.304688 L 910.433594 370.027344 L 908.9375 368.535156 L 908.425781 366.9375 Z M 908.425781 357.289062 "/>
<path fill-rule="nonzero" fill="rgb(100%, 100%, 100%)" fill-opacity="1" d="M 471.03125 74.59375 L 535.832031 74.59375 L 535.832031 51.769531 L 471.03125 51.769531 Z M 471.03125 74.59375 "/>
<path fill-rule="nonzero" fill="rgb(100%, 100%, 100%)" fill-opacity="1" d="M 194.636719 223.160156 L 252.238281 223.160156 L 252.238281 200.335938 L 194.636719 200.335938 Z M 194.636719 223.160156 "/>
<path fill-rule="nonzero" fill="rgb(100%, 100%, 100%)" fill-opacity="1" d="M 54.640625 401.4375 L 112.242188 401.4375 L 112.242188 378.613281 L 54.640625 378.613281 Z M 54.640625 401.4375 "/>
<path fill-rule="nonzero" fill="rgb(100%, 100%, 100%)" fill-opacity="1" d="M 338.234375 401.4375 L 388.632812 401.4375 L 388.632812 378.613281 L 338.234375 378.613281 Z M 338.234375 401.4375 "/>
<path fill-rule="nonzero" fill="rgb(100%, 100%, 100%)" fill-opacity="1" d="M 754.628906 223.160156 L 812.230469 223.160156 L 812.230469 200.335938 L 754.628906 200.335938 Z M 754.628906 223.160156 "/>
<path fill-rule="nonzero" fill="rgb(100%, 100%, 100%)" fill-opacity="1" d="M 618.230469 401.4375 L 668.628906 401.4375 L 668.628906 378.613281 L 618.230469 378.613281 Z M 618.230469 401.4375 "/>
<path fill-rule="nonzero" fill="rgb(100%, 100%, 100%)" fill-opacity="1" d="M 898.226562 401.4375 L 948.625 401.4375 L 948.625 378.613281 L 898.226562 378.613281 Z M 898.226562 401.4375 "/>
<g fill="rgb(0%, 0%, 0%)" fill-opacity="1">
<use xlink:href="#glyph-1-1" x="476.433594" y="60.639648"/>
<use xlink:href="#glyph-1-2" x="482.433594" y="60.639648"/>
<use xlink:href="#glyph-1-3" x="488.433594" y="60.639648"/>
<use xlink:href="#glyph-1-4" x="494.433594" y="60.639648"/>
<use xlink:href="#glyph-1-5" x="500.433594" y="60.639648"/>
<use xlink:href="#glyph-1-5" x="503.433594" y="60.639648"/>
<use xlink:href="#glyph-1-1" x="506.433594" y="60.639648"/>
<use xlink:href="#glyph-1-3" x="512.433594" y="60.639648"/>
<use xlink:href="#glyph-1-3" x="518.433594" y="60.639648"/>
<use xlink:href="#glyph-1-6" x="524.433594" y="60.639648"/>
</g>
<g fill="rgb(0%, 0%, 0%)" fill-opacity="1">
<use xlink:href="#glyph-1-3" x="489.433594" y="74.463867"/>
<use xlink:href="#glyph-1-7" x="495.433594" y="74.463867"/>
<use xlink:href="#glyph-1-7" x="501.433594" y="74.463867"/>
<use xlink:href="#glyph-1-8" x="507.433594" y="74.463867"/>
</g>
<g fill="rgb(0%, 0%, 0%)" fill-opacity="1">
<use xlink:href="#glyph-1-1" x="199.4375" y="209.206055"/>
<use xlink:href="#glyph-1-4" x="205.4375" y="209.206055"/>
<use xlink:href="#glyph-1-9" x="211.4375" y="209.206055"/>
<use xlink:href="#glyph-1-2" x="217.4375" y="209.206055"/>
<use xlink:href="#glyph-1-5" x="223.4375" y="209.206055"/>
<use xlink:href="#glyph-1-5" x="226.4375" y="209.206055"/>
<use xlink:href="#glyph-1-10" x="229.4375" y="209.206055"/>
<use xlink:href="#glyph-1-3" x="235.4375" y="209.206055"/>
<use xlink:href="#glyph-1-10" x="241.4375" y="209.206055"/>
</g>
<g fill="rgb(0%, 0%, 0%)" fill-opacity="1">
<use xlink:href="#glyph-1-11" x="212.4375" y="223.030273"/>
<use xlink:href="#glyph-1-3" x="218.4375" y="223.030273"/>
<use xlink:href="#glyph-1-8" x="224.4375" y="223.030273"/>
</g>
<g fill="rgb(0%, 0%, 0%)" fill-opacity="1">
<use xlink:href="#glyph-1-1" x="59.441406" y="387.483398"/>
<use xlink:href="#glyph-1-3" x="65.441406" y="387.483398"/>
<use xlink:href="#glyph-1-12" x="71.441406" y="387.483398"/>
<use xlink:href="#glyph-1-7" x="77.441406" y="387.483398"/>
<use xlink:href="#glyph-1-5" x="83.441406" y="387.483398"/>
<use xlink:href="#glyph-1-5" x="86.441406" y="387.483398"/>
<use xlink:href="#glyph-1-9" x="89.441406" y="387.483398"/>
<use xlink:href="#glyph-1-7" x="95.441406" y="387.483398"/>
<use xlink:href="#glyph-1-3" x="101.441406" y="387.483398"/>
</g>
<g fill="rgb(0%, 0%, 0%)" fill-opacity="1">
<use xlink:href="#glyph-1-10" x="72.441406" y="401.307617"/>
<use xlink:href="#glyph-1-1" x="78.441406" y="401.307617"/>
<use xlink:href="#glyph-1-8" x="84.441406" y="401.307617"/>
</g>
<g fill="rgb(0%, 0%, 0%)" fill-opacity="1">
<use xlink:href="#glyph-1-1" x="342.433594" y="387.483398"/>
<use xlink:href="#glyph-1-4" x="348.433594" y="387.483398"/>
<use xlink:href="#glyph-1-2" x="354.433594" y="387.483398"/>
<use xlink:href="#glyph-1-5" x="360.433594" y="387.483398"/>
<use xlink:href="#glyph-1-5" x="363.433594" y="387.483398"/>
<use xlink:href="#glyph-1-1" x="366.433594" y="387.483398"/>
<use xlink:href="#glyph-1-3" x="372.433594" y="387.483398"/>
<use xlink:href="#glyph-1-4" x="378.433594" y="387.483398"/>
</g>
<g fill="rgb(0%, 0%, 0%)" fill-opacity="1">
<use xlink:href="#glyph-1-3" x="352.433594" y="401.307617"/>
<use xlink:href="#glyph-1-7" x="358.433594" y="401.307617"/>
<use xlink:href="#glyph-1-8" x="364.433594" y="401.307617"/>
</g>
<g fill="rgb(0%, 0%, 0%)" fill-opacity="1">
<use xlink:href="#glyph-1-1" x="759.425781" y="209.206055"/>
<use xlink:href="#glyph-1-2" x="765.425781" y="209.206055"/>
<use xlink:href="#glyph-1-2" x="771.425781" y="209.206055"/>
<use xlink:href="#glyph-1-5" x="777.425781" y="209.206055"/>
<use xlink:href="#glyph-1-5" x="780.425781" y="209.206055"/>
<use xlink:href="#glyph-1-3" x="783.425781" y="209.206055"/>
<use xlink:href="#glyph-1-11" x="789.425781" y="209.206055"/>
<use xlink:href="#glyph-1-7" x="795.425781" y="209.206055"/>
<use xlink:href="#glyph-1-9" x="801.425781" y="209.206055"/>
</g>
<g fill="rgb(0%, 0%, 0%)" fill-opacity="1">
<use xlink:href="#glyph-1-9" x="772.425781" y="223.030273"/>
<use xlink:href="#glyph-1-12" x="778.425781" y="223.030273"/>
<use xlink:href="#glyph-1-8" x="784.425781" y="223.030273"/>
</g>
<g fill="rgb(0%, 0%, 0%)" fill-opacity="1">
<use xlink:href="#glyph-1-1" x="622.429688" y="387.483398"/>
<use xlink:href="#glyph-1-10" x="628.429688" y="387.483398"/>
<use xlink:href="#glyph-1-9" x="634.429688" y="387.483398"/>
<use xlink:href="#glyph-1-5" x="640.429688" y="387.483398"/>
<use xlink:href="#glyph-1-5" x="643.429688" y="387.483398"/>
<use xlink:href="#glyph-1-1" x="646.429688" y="387.483398"/>
<use xlink:href="#glyph-1-11" x="652.429688" y="387.483398"/>
<use xlink:href="#glyph-1-6" x="658.429688" y="387.483398"/>
</g>
<g fill="rgb(0%, 0%, 0%)" fill-opacity="1">
<use xlink:href="#glyph-1-3" x="632.429688" y="401.307617"/>
<use xlink:href="#glyph-1-3" x="638.429688" y="401.307617"/>
<use xlink:href="#glyph-1-8" x="644.429688" y="401.307617"/>
</g>
<g fill="rgb(0%, 0%, 0%)" fill-opacity="1">
<use xlink:href="#glyph-1-1" x="902.425781" y="387.483398"/>
<use xlink:href="#glyph-1-4" x="908.425781" y="387.483398"/>
<use xlink:href="#glyph-1-5" x="914.425781" y="387.483398"/>
<use xlink:href="#glyph-1-5" x="917.425781" y="387.483398"/>
<use xlink:href="#glyph-1-3" x="920.425781" y="387.483398"/>
<use xlink:href="#glyph-1-9" x="926.425781" y="387.483398"/>
<use xlink:href="#glyph-1-9" x="932.425781" y="387.483398"/>
<use xlink:href="#glyph-1-10" x="938.425781" y="387.483398"/>
</g>
<g fill="rgb(0%, 0%, 0%)" fill-opacity="1">
<use xlink:href="#glyph-1-1" x="912.425781" y="401.307617"/>
<use xlink:href="#glyph-1-6" x="918.425781" y="401.307617"/>
<use xlink:href="#glyph-1-8" x="924.425781" y="401.307617"/>
</g>
<g fill="rgb(0%, 0%, 0%)" fill-opacity="1">
<use xlink:href="#glyph-2-1" x="491.933594" y="39.357422"/>
<use xlink:href="#glyph-2-2" x="499.933594" y="39.357422"/>
<use xlink:href="#glyph-2-3" x="507.933594" y="39.357422"/>
</g>
<g fill="rgb(0%, 0%, 0%)" fill-opacity="1">
<use xlink:href="#glyph-2-1" x="211.9375" y="187.923828"/>
<use xlink:href="#glyph-2-2" x="219.9375" y="187.923828"/>
<use xlink:href="#glyph-2-3" x="227.9375" y="187.923828"/>
</g>
<g fill="rgb(0%, 0%, 0%)" fill-opacity="1">
<use xlink:href="#glyph-2-1" x="71.941406" y="366.201172"/>
<use xlink:href="#glyph-2-2" x="79.941406" y="366.201172"/>
<use xlink:href="#glyph-2-3" x="87.941406" y="366.201172"/>
</g>
<g fill="rgb(0%, 0%, 0%)" fill-opacity="1">
<use xlink:href="#glyph-2-1" x="351.933594" y="366.201172"/>
<use xlink:href="#glyph-2-2" x="359.933594" y="366.201172"/>
<use xlink:href="#glyph-2-3" x="367.933594" y="366.201172"/>
</g>
<g fill="rgb(0%, 0%, 0%)" fill-opacity="1">
<use xlink:href="#glyph-2-4" x="774.425781" y="187.923828"/>
<use xlink:href="#glyph-2-5" x="784.425781" y="187.923828"/>
</g>
<g fill="rgb(0%, 0%, 0%)" fill-opacity="1">
<use xlink:href="#glyph-2-4" x="634.429688" y="366.201172"/>
<use xlink:href="#glyph-2-5" x="644.429688" y="366.201172"/>
</g>
<g fill="rgb(0%, 0%, 0%)" fill-opacity="1">
<use xlink:href="#glyph-2-4" x="914.425781" y="366.201172"/>
<use xlink:href="#glyph-2-5" x="924.425781" y="366.201172"/>
</g>
</svg>
