<?xml version="1.0" encoding="UTF-8" standalone="no"?>
<!DOCTYPE svg PUBLIC "-//W3C//DTD SVG 1.1//EN" "http://www.w3.org/Graphics/SVG/1.1/DTD/svg11.dtd">
<svg xmlns:dc="http://purl.org/dc/elements/1.1/" version="1.1" xmlns="http://www.w3.org/2000/svg" xmlns:xl="http://www.w3.org/1999/xlink" viewBox="-363 2686 686.65 354.874" width="686.65" height="354.874">
  <defs/>
  <g id="Canvas_1" stroke-dasharray="none" fill="none" stroke-opacity="1" fill-opacity="1" stroke="none">
    <title>Canvas 1</title>
    <g id="Canvas_1_Layer_1">
      <title>Layer 1</title>
      <g id="Graphic_3144">
        <text transform="translate(-345 2786.224)" fill="black">
          <tspan font-family="Helvetica Neue" font-size="16" fill="black" x="4.512" y="15">Model Fit </tspan>
          <tspan font-family="Helvetica Neue" font-size="16" fill="black" x="17.408" y="33.448">Using</tspan>
        </text>
      </g>
      <g id="Graphic_3143">
        <text transform="translate(-358 2938.224)" fill="black">
          <tspan font-family="Helvetica Neue" font-size="16" fill="black" x="17.38" y="15">Estimate </tspan>
          <tspan font-family="Helvetica Neue" font-size="16" fill="black" x="2.572" y="33.448">Performance </tspan>
          <tspan font-family="Helvetica Neue" font-size="16" fill="black" x="27.908" y="51.895996">Using</tspan>
        </text>
      </g>
      <g id="Graphic_3142">
        <text transform="translate(-183.672 2691.656)" fill="black">
          <tspan font-family="Helvetica Neue" font-size="16" fill="black" x="0" y="15">Iteration 1</tspan>
        </text>
      </g>
      <g id="Line_3141">
        <line x1="-232" y1="2724.328" x2="-62" y2="2724.328" stroke="black" stroke-linecap="round" stroke-linejoin="round" stroke-width="1.3"/>
      </g>
      <g id="Line_3140">
        <line x1="-253" y1="2881.224" x2="-253" y2="2741.224" stroke="black" stroke-linecap="round" stroke-linejoin="round" stroke-width="1.3"/>
      </g>
      <g id="Line_3139">
        <line x1="-253" y1="3040.224" x2="-253" y2="2900.224" stroke="black" stroke-linecap="round" stroke-linejoin="round" stroke-width="1.3"/>
      </g>
      <g id="Graphic_3138">
        <path d="M -196.66667 2809.328 L -182.33333 2809.328 C -178.46734 2809.328 -175.33333 2812.462 -175.33333 2816.328 L -175.33333 2830.328 C -175.33333 2834.194 -178.46734 2837.328 -182.33333 2837.328 L -196.66667 2837.328 C -200.53266 2837.328 -203.66667 2834.194 -203.66667 2830.328 L -203.66667 2816.328 C -203.66667 2812.462 -200.53266 2809.328 -196.66667 2809.328 Z" fill="#fbebb9"/>
        <path d="M -196.66667 2809.328 L -182.33333 2809.328 C -178.46734 2809.328 -175.33333 2812.462 -175.33333 2816.328 L -175.33333 2830.328 C -175.33333 2834.194 -178.46734 2837.328 -182.33333 2837.328 L -196.66667 2837.328 C -200.53266 2837.328 -203.66667 2834.194 -203.66667 2830.328 L -203.66667 2816.328 C -203.66667 2812.462 -200.53266 2809.328 -196.66667 2809.328 Z" stroke="gray" stroke-linecap="round" stroke-linejoin="round" stroke-width="1"/>
        <text transform="translate(-197.13977 2814.9974) rotate(1)" fill="black">
          <tspan font-family="Helvetica Neue" font-size="14" fill="black" x="0" y="13">19</tspan>
        </text>
      </g>
      <g id="Graphic_3137">
        <path d="M -83.33333 2809.328 L -69 2809.328 C -65.13401 2809.328 -62 2812.462 -62 2816.328 L -62 2830.328 C -62 2834.194 -65.13401 2837.328 -69 2837.328 L -83.33333 2837.328 C -87.19933 2837.328 -90.33333 2834.194 -90.33333 2830.328 L -90.33333 2816.328 C -90.33333 2812.462 -87.19933 2809.328 -83.33333 2809.328 Z" fill="#fbebb9"/>
        <path d="M -83.33333 2809.328 L -69 2809.328 C -65.13401 2809.328 -62 2812.462 -62 2816.328 L -62 2830.328 C -62 2834.194 -65.13401 2837.328 -69 2837.328 L -83.33333 2837.328 C -87.19933 2837.328 -90.33333 2834.194 -90.33333 2830.328 L -90.33333 2816.328 C -90.33333 2812.462 -87.19933 2809.328 -83.33333 2809.328 Z" stroke="gray" stroke-linecap="round" stroke-linejoin="round" stroke-width="1"/>
        <text transform="translate(-83.80644 2814.9974) rotate(1)" fill="black">
          <tspan font-family="Helvetica Neue" font-size="14" fill="black" x="0" y="13">24</tspan>
        </text>
      </g>
      <g id="Graphic_3135">
        <path d="M -111.66667 2809.328 L -97.33333 2809.328 C -93.46734 2809.328 -90.33333 2812.462 -90.33333 2816.328 L -90.33333 2830.328 C -90.33333 2834.194 -93.46734 2837.328 -97.33333 2837.328 L -111.66667 2837.328 C -115.53266 2837.328 -118.66667 2834.194 -118.66667 2830.328 L -118.66667 2816.328 C -118.66667 2812.462 -115.53266 2809.328 -111.66667 2809.328 Z" fill="#fbebb9"/>
        <path d="M -111.66667 2809.328 L -97.33333 2809.328 C -93.46734 2809.328 -90.33333 2812.462 -90.33333 2816.328 L -90.33333 2830.328 C -90.33333 2834.194 -93.46734 2837.328 -97.33333 2837.328 L -111.66667 2837.328 C -115.53266 2837.328 -118.66667 2834.194 -118.66667 2830.328 L -118.66667 2816.328 C -118.66667 2812.462 -115.53266 2809.328 -111.66667 2809.328 Z" stroke="gray" stroke-linecap="round" stroke-linejoin="round" stroke-width="1"/>
        <text transform="translate(-112.13977 2814.9974) rotate(1)" fill="black">
          <tspan font-family="Helvetica Neue" font-size="14" fill="black" x="0" y="13">22</tspan>
        </text>
      </g>
      <g id="Graphic_3134">
        <path d="M -168.33333 2837.328 L -154 2837.328 C -150.134 2837.328 -147 2840.462 -147 2844.328 L -147 2858.328 C -147 2862.194 -150.134 2865.328 -154 2865.328 L -168.33333 2865.328 C -172.19933 2865.328 -175.33333 2862.194 -175.33333 2858.328 L -175.33333 2844.328 C -175.33333 2840.462 -172.19933 2837.328 -168.33333 2837.328 Z" fill="#fbebb9"/>
        <path d="M -168.33333 2837.328 L -154 2837.328 C -150.134 2837.328 -147 2840.462 -147 2844.328 L -147 2858.328 C -147 2862.194 -150.134 2865.328 -154 2865.328 L -168.33333 2865.328 C -172.19933 2865.328 -175.33333 2862.194 -175.33333 2858.328 L -175.33333 2844.328 C -175.33333 2840.462 -172.19933 2837.328 -168.33333 2837.328 Z" stroke="gray" stroke-linecap="round" stroke-linejoin="round" stroke-width="1"/>
        <text transform="translate(-168.80644 2842.9974) rotate(1)" fill="black">
          <tspan font-family="Helvetica Neue" font-size="14" fill="black" x="0" y="13">27</tspan>
        </text>
      </g>
      <g id="Graphic_3132">
        <path d="M -140 2837.328 L -125.66667 2837.328 C -121.80067 2837.328 -118.66667 2840.462 -118.66667 2844.328 L -118.66667 2858.328 C -118.66667 2862.194 -121.80067 2865.328 -125.66667 2865.328 L -140 2865.328 C -143.866 2865.328 -147 2862.194 -147 2858.328 L -147 2844.328 C -147 2840.462 -143.866 2837.328 -140 2837.328 Z" fill="#fbebb9"/>
        <path d="M -140 2837.328 L -125.66667 2837.328 C -121.80067 2837.328 -118.66667 2840.462 -118.66667 2844.328 L -118.66667 2858.328 C -118.66667 2862.194 -121.80067 2865.328 -125.66667 2865.328 L -140 2865.328 C -143.866 2865.328 -147 2862.194 -147 2858.328 L -147 2844.328 C -147 2840.462 -143.866 2837.328 -140 2837.328 Z" stroke="gray" stroke-linecap="round" stroke-linejoin="round" stroke-width="1"/>
        <text transform="translate(-140.4731 2842.9974) rotate(1)" fill="black">
          <tspan font-family="Helvetica Neue" font-size="14" fill="black" x="0" y="13">28</tspan>
        </text>
      </g>
      <g id="Graphic_3131">
        <path d="M -196.66667 2781.328 L -182.33333 2781.328 C -178.46734 2781.328 -175.33333 2784.462 -175.33333 2788.328 L -175.33333 2802.328 C -175.33333 2806.194 -178.46734 2809.328 -182.33333 2809.328 L -196.66667 2809.328 C -200.53266 2809.328 -203.66667 2806.194 -203.66667 2802.328 L -203.66667 2788.328 C -203.66667 2784.462 -200.53266 2781.328 -196.66667 2781.328 Z" fill="#fbebb9"/>
        <path d="M -196.66667 2781.328 L -182.33333 2781.328 C -178.46734 2781.328 -175.33333 2784.462 -175.33333 2788.328 L -175.33333 2802.328 C -175.33333 2806.194 -178.46734 2809.328 -182.33333 2809.328 L -196.66667 2809.328 C -200.53266 2809.328 -203.66667 2806.194 -203.66667 2802.328 L -203.66667 2788.328 C -203.66667 2784.462 -200.53266 2781.328 -196.66667 2781.328 Z" stroke="gray" stroke-linecap="round" stroke-linejoin="round" stroke-width="1"/>
        <text transform="translate(-193.24837 2787.0653) rotate(1)" fill="black">
          <tspan font-family="Helvetica Neue" font-size="14" fill="black" x="0" y="13">9</tspan>
        </text>
      </g>
      <g id="Graphic_3130">
        <path d="M -83.33333 2753.328 L -69 2753.328 C -65.13401 2753.328 -62 2756.462 -62 2760.328 L -62 2774.328 C -62 2778.194 -65.13401 2781.328 -69 2781.328 L -83.33333 2781.328 C -87.19933 2781.328 -90.33333 2778.194 -90.33333 2774.328 L -90.33333 2760.328 C -90.33333 2756.462 -87.19933 2753.328 -83.33333 2753.328 Z" fill="#fbebb9"/>
        <path d="M -83.33333 2753.328 L -69 2753.328 C -65.13401 2753.328 -62 2756.462 -62 2760.328 L -62 2774.328 C -62 2778.194 -65.13401 2781.328 -69 2781.328 L -83.33333 2781.328 C -87.19933 2781.328 -90.33333 2778.194 -90.33333 2774.328 L -90.33333 2760.328 C -90.33333 2756.462 -87.19933 2753.328 -83.33333 2753.328 Z" stroke="gray" stroke-linecap="round" stroke-linejoin="round" stroke-width="1"/>
        <text transform="translate(-79.91503 2759.0653) rotate(1)" fill="black">
          <tspan font-family="Helvetica Neue" font-size="14" fill="black" x="0" y="13">7</tspan>
        </text>
      </g>
      <g id="Graphic_3128">
        <path d="M -225 2753.328 L -210.66667 2753.328 C -206.80067 2753.328 -203.66667 2756.462 -203.66667 2760.328 L -203.66667 2774.328 C -203.66667 2778.194 -206.80067 2781.328 -210.66667 2781.328 L -225 2781.328 C -228.866 2781.328 -232 2778.194 -232 2774.328 L -232 2760.328 C -232 2756.462 -228.866 2753.328 -225 2753.328 Z" fill="#fbebb9"/>
        <path d="M -225 2753.328 L -210.66667 2753.328 C -206.80067 2753.328 -203.66667 2756.462 -203.66667 2760.328 L -203.66667 2774.328 C -203.66667 2778.194 -206.80067 2781.328 -210.66667 2781.328 L -225 2781.328 C -228.866 2781.328 -232 2778.194 -232 2774.328 L -232 2760.328 C -232 2756.462 -228.866 2753.328 -225 2753.328 Z" stroke="gray" stroke-linecap="round" stroke-linejoin="round" stroke-width="1"/>
        <text transform="translate(-221.5817 2759.0653) rotate(1)" fill="black">
          <tspan font-family="Helvetica Neue" font-size="14" fill="black" x="0" y="13">1</tspan>
        </text>
      </g>
      <g id="Graphic_3127">
        <path d="M -111.66667 2837.328 L -97.33333 2837.328 C -93.46734 2837.328 -90.33333 2840.462 -90.33333 2844.328 L -90.33333 2858.328 C -90.33333 2862.194 -93.46734 2865.328 -97.33333 2865.328 L -111.66667 2865.328 C -115.53266 2865.328 -118.66667 2862.194 -118.66667 2858.328 L -118.66667 2844.328 C -118.66667 2840.462 -115.53266 2837.328 -111.66667 2837.328 Z" fill="#fbebb9"/>
        <path d="M -111.66667 2837.328 L -97.33333 2837.328 C -93.46734 2837.328 -90.33333 2840.462 -90.33333 2844.328 L -90.33333 2858.328 C -90.33333 2862.194 -93.46734 2865.328 -97.33333 2865.328 L -111.66667 2865.328 C -115.53266 2865.328 -118.66667 2862.194 -118.66667 2858.328 L -118.66667 2844.328 C -118.66667 2840.462 -115.53266 2837.328 -111.66667 2837.328 Z" stroke="gray" stroke-linecap="round" stroke-linejoin="round" stroke-width="1"/>
        <text transform="translate(-112.13977 2842.9974) rotate(1)" fill="black">
          <tspan font-family="Helvetica Neue" font-size="14" fill="black" x="0" y="13">29</tspan>
        </text>
      </g>
      <g id="Graphic_3125">
        <path d="M -168.33333 2753.328 L -154 2753.328 C -150.134 2753.328 -147 2756.462 -147 2760.328 L -147 2774.328 C -147 2778.194 -150.134 2781.328 -154 2781.328 L -168.33333 2781.328 C -172.19933 2781.328 -175.33333 2778.194 -175.33333 2774.328 L -175.33333 2760.328 C -175.33333 2756.462 -172.19933 2753.328 -168.33333 2753.328 Z" fill="#fbebb9"/>
        <path d="M -168.33333 2753.328 L -154 2753.328 C -150.134 2753.328 -147 2756.462 -147 2760.328 L -147 2774.328 C -147 2778.194 -150.134 2781.328 -154 2781.328 L -168.33333 2781.328 C -172.19933 2781.328 -175.33333 2778.194 -175.33333 2774.328 L -175.33333 2760.328 C -175.33333 2756.462 -172.19933 2753.328 -168.33333 2753.328 Z" stroke="gray" stroke-linecap="round" stroke-linejoin="round" stroke-width="1"/>
        <text transform="translate(-164.91503 2759.0653) rotate(1)" fill="black">
          <tspan font-family="Helvetica Neue" font-size="14" fill="black" x="0" y="13">3</tspan>
        </text>
      </g>
      <g id="Graphic_3124">
        <path d="M -196.66667 2753.328 L -182.33333 2753.328 C -178.46734 2753.328 -175.33333 2756.462 -175.33333 2760.328 L -175.33333 2774.328 C -175.33333 2778.194 -178.46734 2781.328 -182.33333 2781.328 L -196.66667 2781.328 C -200.53266 2781.328 -203.66667 2778.194 -203.66667 2774.328 L -203.66667 2760.328 C -203.66667 2756.462 -200.53266 2753.328 -196.66667 2753.328 Z" fill="#fbebb9"/>
        <path d="M -196.66667 2753.328 L -182.33333 2753.328 C -178.46734 2753.328 -175.33333 2756.462 -175.33333 2760.328 L -175.33333 2774.328 C -175.33333 2778.194 -178.46734 2781.328 -182.33333 2781.328 L -196.66667 2781.328 C -200.53266 2781.328 -203.66667 2778.194 -203.66667 2774.328 L -203.66667 2760.328 C -203.66667 2756.462 -200.53266 2753.328 -196.66667 2753.328 Z" stroke="gray" stroke-linecap="round" stroke-linejoin="round" stroke-width="1"/>
        <text transform="translate(-193.24837 2759.0653) rotate(1)" fill="black">
          <tspan font-family="Helvetica Neue" font-size="14" fill="black" x="0" y="13">2</tspan>
        </text>
      </g>
      <g id="Graphic_3123">
        <path d="M -225 2837.328 L -210.66667 2837.328 C -206.80067 2837.328 -203.66667 2840.462 -203.66667 2844.328 L -203.66667 2858.328 C -203.66667 2862.194 -206.80067 2865.328 -210.66667 2865.328 L -225 2865.328 C -228.866 2865.328 -232 2862.194 -232 2858.328 L -232 2844.328 C -232 2840.462 -228.866 2837.328 -225 2837.328 Z" fill="#fbebb9"/>
        <path d="M -225 2837.328 L -210.66667 2837.328 C -206.80067 2837.328 -203.66667 2840.462 -203.66667 2844.328 L -203.66667 2858.328 C -203.66667 2862.194 -206.80067 2865.328 -210.66667 2865.328 L -225 2865.328 C -228.866 2865.328 -232 2862.194 -232 2858.328 L -232 2844.328 C -232 2840.462 -228.866 2837.328 -225 2837.328 Z" stroke="gray" stroke-linecap="round" stroke-linejoin="round" stroke-width="1"/>
        <text transform="translate(-225.4731 2842.9974) rotate(1)" fill="black">
          <tspan font-family="Helvetica Neue" font-size="14" fill="black" x="0" y="13">25</tspan>
        </text>
      </g>
      <g id="Graphic_3122">
        <path d="M -111.66667 2781.328 L -97.33333 2781.328 C -93.46734 2781.328 -90.33333 2784.462 -90.33333 2788.328 L -90.33333 2802.328 C -90.33333 2806.194 -93.46734 2809.328 -97.33333 2809.328 L -111.66667 2809.328 C -115.53266 2809.328 -118.66667 2806.194 -118.66667 2802.328 L -118.66667 2788.328 C -118.66667 2784.462 -115.53266 2781.328 -111.66667 2781.328 Z" fill="#fbebb9"/>
        <path d="M -111.66667 2781.328 L -97.33333 2781.328 C -93.46734 2781.328 -90.33333 2784.462 -90.33333 2788.328 L -90.33333 2802.328 C -90.33333 2806.194 -93.46734 2809.328 -97.33333 2809.328 L -111.66667 2809.328 C -115.53266 2809.328 -118.66667 2806.194 -118.66667 2802.328 L -118.66667 2788.328 C -118.66667 2784.462 -115.53266 2781.328 -111.66667 2781.328 Z" stroke="gray" stroke-linecap="round" stroke-linejoin="round" stroke-width="1"/>
        <text transform="translate(-112.13977 2786.9974) rotate(1)" fill="black">
          <tspan font-family="Helvetica Neue" font-size="14" fill="black" x="0" y="13">12</tspan>
        </text>
      </g>
      <g id="Graphic_3121">
        <path d="M -225 2781.328 L -210.66667 2781.328 C -206.80067 2781.328 -203.66667 2784.462 -203.66667 2788.328 L -203.66667 2802.328 C -203.66667 2806.194 -206.80067 2809.328 -210.66667 2809.328 L -225 2809.328 C -228.866 2809.328 -232 2806.194 -232 2802.328 L -232 2788.328 C -232 2784.462 -228.866 2781.328 -225 2781.328 Z" fill="#fbebb9"/>
        <path d="M -225 2781.328 L -210.66667 2781.328 C -206.80067 2781.328 -203.66667 2784.462 -203.66667 2788.328 L -203.66667 2802.328 C -203.66667 2806.194 -206.80067 2809.328 -210.66667 2809.328 L -225 2809.328 C -228.866 2809.328 -232 2806.194 -232 2802.328 L -232 2788.328 C -232 2784.462 -228.866 2781.328 -225 2781.328 Z" stroke="gray" stroke-linecap="round" stroke-linejoin="round" stroke-width="1"/>
        <text transform="translate(-221.5817 2787.0653) rotate(1)" fill="black">
          <tspan font-family="Helvetica Neue" font-size="14" fill="black" x="0" y="13">8</tspan>
        </text>
      </g>
      <g id="Graphic_3119">
        <path d="M -83.33333 2837.328 L -69 2837.328 C -65.13401 2837.328 -62 2840.462 -62 2844.328 L -62 2858.328 C -62 2862.194 -65.13401 2865.328 -69 2865.328 L -83.33333 2865.328 C -87.19933 2865.328 -90.33333 2862.194 -90.33333 2858.328 L -90.33333 2844.328 C -90.33333 2840.462 -87.19933 2837.328 -83.33333 2837.328 Z" fill="#fbebb9"/>
        <path d="M -83.33333 2837.328 L -69 2837.328 C -65.13401 2837.328 -62 2840.462 -62 2844.328 L -62 2858.328 C -62 2862.194 -65.13401 2865.328 -69 2865.328 L -83.33333 2865.328 C -87.19933 2865.328 -90.33333 2862.194 -90.33333 2858.328 L -90.33333 2844.328 C -90.33333 2840.462 -87.19933 2837.328 -83.33333 2837.328 Z" stroke="gray" stroke-linecap="round" stroke-linejoin="round" stroke-width="1"/>
        <text transform="translate(-83.80644 2842.9974) rotate(1)" fill="black">
          <tspan font-family="Helvetica Neue" font-size="14" fill="black" x="0" y="13">30</tspan>
        </text>
      </g>
      <g id="Graphic_3118">
        <path d="M -140 2809.328 L -125.66667 2809.328 C -121.80067 2809.328 -118.66667 2812.462 -118.66667 2816.328 L -118.66667 2830.328 C -118.66667 2834.194 -121.80067 2837.328 -125.66667 2837.328 L -140 2837.328 C -143.866 2837.328 -147 2834.194 -147 2830.328 L -147 2816.328 C -147 2812.462 -143.866 2809.328 -140 2809.328 Z" fill="#fbebb9"/>
        <path d="M -140 2809.328 L -125.66667 2809.328 C -121.80067 2809.328 -118.66667 2812.462 -118.66667 2816.328 L -118.66667 2830.328 C -118.66667 2834.194 -121.80067 2837.328 -125.66667 2837.328 L -140 2837.328 C -143.866 2837.328 -147 2834.194 -147 2830.328 L -147 2816.328 C -147 2812.462 -143.866 2809.328 -140 2809.328 Z" stroke="gray" stroke-linecap="round" stroke-linejoin="round" stroke-width="1"/>
        <text transform="translate(-140.4731 2814.9974) rotate(1)" fill="black">
          <tspan font-family="Helvetica Neue" font-size="14" fill="black" x="0" y="13">21</tspan>
        </text>
      </g>
      <g id="Graphic_3117">
        <path d="M -168.33333 2781.328 L -154 2781.328 C -150.134 2781.328 -147 2784.462 -147 2788.328 L -147 2802.328 C -147 2806.194 -150.134 2809.328 -154 2809.328 L -168.33333 2809.328 C -172.19933 2809.328 -175.33333 2806.194 -175.33333 2802.328 L -175.33333 2788.328 C -175.33333 2784.462 -172.19933 2781.328 -168.33333 2781.328 Z" fill="#fbebb9"/>
        <path d="M -168.33333 2781.328 L -154 2781.328 C -150.134 2781.328 -147 2784.462 -147 2788.328 L -147 2802.328 C -147 2806.194 -150.134 2809.328 -154 2809.328 L -168.33333 2809.328 C -172.19933 2809.328 -175.33333 2806.194 -175.33333 2802.328 L -175.33333 2788.328 C -175.33333 2784.462 -172.19933 2781.328 -168.33333 2781.328 Z" stroke="gray" stroke-linecap="round" stroke-linejoin="round" stroke-width="1"/>
        <text transform="translate(-168.80644 2786.9974) rotate(1)" fill="black">
          <tspan font-family="Helvetica Neue" font-size="14" fill="black" x="0" y="13">10</tspan>
        </text>
      </g>
      <g id="Graphic_3116">
        <path d="M -140 2753.328 L -125.66667 2753.328 C -121.80067 2753.328 -118.66667 2756.462 -118.66667 2760.328 L -118.66667 2774.328 C -118.66667 2778.194 -121.80067 2781.328 -125.66667 2781.328 L -140 2781.328 C -143.866 2781.328 -147 2778.194 -147 2774.328 L -147 2760.328 C -147 2756.462 -143.866 2753.328 -140 2753.328 Z" fill="#fbebb9"/>
        <path d="M -140 2753.328 L -125.66667 2753.328 C -121.80067 2753.328 -118.66667 2756.462 -118.66667 2760.328 L -118.66667 2774.328 C -118.66667 2778.194 -121.80067 2781.328 -125.66667 2781.328 L -140 2781.328 C -143.866 2781.328 -147 2778.194 -147 2774.328 L -147 2760.328 C -147 2756.462 -143.866 2753.328 -140 2753.328 Z" stroke="gray" stroke-linecap="round" stroke-linejoin="round" stroke-width="1"/>
        <text transform="translate(-136.5817 2759.0653) rotate(1)" fill="black">
          <tspan font-family="Helvetica Neue" font-size="14" fill="black" x="0" y="13">4</tspan>
        </text>
      </g>
      <g id="Graphic_3114">
        <path d="M -196.66667 2837.328 L -182.33333 2837.328 C -178.46734 2837.328 -175.33333 2840.462 -175.33333 2844.328 L -175.33333 2858.328 C -175.33333 2862.194 -178.46734 2865.328 -182.33333 2865.328 L -196.66667 2865.328 C -200.53266 2865.328 -203.66667 2862.194 -203.66667 2858.328 L -203.66667 2844.328 C -203.66667 2840.462 -200.53266 2837.328 -196.66667 2837.328 Z" fill="#fbebb9"/>
        <path d="M -196.66667 2837.328 L -182.33333 2837.328 C -178.46734 2837.328 -175.33333 2840.462 -175.33333 2844.328 L -175.33333 2858.328 C -175.33333 2862.194 -178.46734 2865.328 -182.33333 2865.328 L -196.66667 2865.328 C -200.53266 2865.328 -203.66667 2862.194 -203.66667 2858.328 L -203.66667 2844.328 C -203.66667 2840.462 -200.53266 2837.328 -196.66667 2837.328 Z" stroke="gray" stroke-linecap="round" stroke-linejoin="round" stroke-width="1"/>
        <text transform="translate(-197.13977 2842.9974) rotate(1)" fill="black">
          <tspan font-family="Helvetica Neue" font-size="14" fill="black" x="0" y="13">26</tspan>
        </text>
      </g>
      <g id="Graphic_3113">
        <path d="M -83.33333 2781.328 L -69 2781.328 C -65.13401 2781.328 -62 2784.462 -62 2788.328 L -62 2802.328 C -62 2806.194 -65.13401 2809.328 -69 2809.328 L -83.33333 2809.328 C -87.19933 2809.328 -90.33333 2806.194 -90.33333 2802.328 L -90.33333 2788.328 C -90.33333 2784.462 -87.19933 2781.328 -83.33333 2781.328 Z" fill="#fbebb9"/>
        <path d="M -83.33333 2781.328 L -69 2781.328 C -65.13401 2781.328 -62 2784.462 -62 2788.328 L -62 2802.328 C -62 2806.194 -65.13401 2809.328 -69 2809.328 L -83.33333 2809.328 C -87.19933 2809.328 -90.33333 2806.194 -90.33333 2802.328 L -90.33333 2788.328 C -90.33333 2784.462 -87.19933 2781.328 -83.33333 2781.328 Z" stroke="gray" stroke-linecap="round" stroke-linejoin="round" stroke-width="1"/>
        <text transform="translate(-83.80644 2786.9974) rotate(1)" fill="black">
          <tspan font-family="Helvetica Neue" font-size="14" fill="black" x="0" y="13">14</tspan>
        </text>
      </g>
      <g id="Graphic_3112">
        <path d="M -225 2809.328 L -210.66667 2809.328 C -206.80067 2809.328 -203.66667 2812.462 -203.66667 2816.328 L -203.66667 2830.328 C -203.66667 2834.194 -206.80067 2837.328 -210.66667 2837.328 L -225 2837.328 C -228.866 2837.328 -232 2834.194 -232 2830.328 L -232 2816.328 C -232 2812.462 -228.866 2809.328 -225 2809.328 Z" fill="#fbebb9"/>
        <path d="M -225 2809.328 L -210.66667 2809.328 C -206.80067 2809.328 -203.66667 2812.462 -203.66667 2816.328 L -203.66667 2830.328 C -203.66667 2834.194 -206.80067 2837.328 -210.66667 2837.328 L -225 2837.328 C -228.866 2837.328 -232 2834.194 -232 2830.328 L -232 2816.328 C -232 2812.462 -228.866 2809.328 -225 2809.328 Z" stroke="gray" stroke-linecap="round" stroke-linejoin="round" stroke-width="1"/>
        <text transform="translate(-225.4731 2814.9974) rotate(1)" fill="black">
          <tspan font-family="Helvetica Neue" font-size="14" fill="black" x="0" y="13">18</tspan>
        </text>
      </g>
      <g id="Graphic_3111">
        <path d="M -168.33333 2809.328 L -154 2809.328 C -150.134 2809.328 -147 2812.462 -147 2816.328 L -147 2830.328 C -147 2834.194 -150.134 2837.328 -154 2837.328 L -168.33333 2837.328 C -172.19933 2837.328 -175.33333 2834.194 -175.33333 2830.328 L -175.33333 2816.328 C -175.33333 2812.462 -172.19933 2809.328 -168.33333 2809.328 Z" fill="#fbebb9"/>
        <path d="M -168.33333 2809.328 L -154 2809.328 C -150.134 2809.328 -147 2812.462 -147 2816.328 L -147 2830.328 C -147 2834.194 -150.134 2837.328 -154 2837.328 L -168.33333 2837.328 C -172.19933 2837.328 -175.33333 2834.194 -175.33333 2830.328 L -175.33333 2816.328 C -175.33333 2812.462 -172.19933 2809.328 -168.33333 2809.328 Z" stroke="gray" stroke-linecap="round" stroke-linejoin="round" stroke-width="1"/>
        <text transform="translate(-168.80644 2814.9974) rotate(1)" fill="black">
          <tspan font-family="Helvetica Neue" font-size="14" fill="black" x="0" y="13">20</tspan>
        </text>
      </g>
      <g id="Graphic_3110">
        <path d="M -111.66667 2753.328 L -97.33333 2753.328 C -93.46734 2753.328 -90.33333 2756.462 -90.33333 2760.328 L -90.33333 2774.328 C -90.33333 2778.194 -93.46734 2781.328 -97.33333 2781.328 L -111.66667 2781.328 C -115.53266 2781.328 -118.66667 2778.194 -118.66667 2774.328 L -118.66667 2760.328 C -118.66667 2756.462 -115.53266 2753.328 -111.66667 2753.328 Z" fill="#fbebb9"/>
        <path d="M -111.66667 2753.328 L -97.33333 2753.328 C -93.46734 2753.328 -90.33333 2756.462 -90.33333 2760.328 L -90.33333 2774.328 C -90.33333 2778.194 -93.46734 2781.328 -97.33333 2781.328 L -111.66667 2781.328 C -115.53266 2781.328 -118.66667 2778.194 -118.66667 2774.328 L -118.66667 2760.328 C -118.66667 2756.462 -115.53266 2753.328 -111.66667 2753.328 Z" stroke="gray" stroke-linecap="round" stroke-linejoin="round" stroke-width="1"/>
        <text transform="translate(-108.24837 2759.0653) rotate(1)" fill="black">
          <tspan font-family="Helvetica Neue" font-size="14" fill="black" x="0" y="13">5</tspan>
        </text>
      </g>
      <g id="Graphic_3109">
        <path d="M -140 2781.328 L -125.66667 2781.328 C -121.80067 2781.328 -118.66667 2784.462 -118.66667 2788.328 L -118.66667 2802.328 C -118.66667 2806.194 -121.80067 2809.328 -125.66667 2809.328 L -140 2809.328 C -143.866 2809.328 -147 2806.194 -147 2802.328 L -147 2788.328 C -147 2784.462 -143.866 2781.328 -140 2781.328 Z" fill="#fbebb9"/>
        <path d="M -140 2781.328 L -125.66667 2781.328 C -121.80067 2781.328 -118.66667 2784.462 -118.66667 2788.328 L -118.66667 2802.328 C -118.66667 2806.194 -121.80067 2809.328 -125.66667 2809.328 L -140 2809.328 C -143.866 2809.328 -147 2806.194 -147 2802.328 L -147 2788.328 C -147 2784.462 -143.866 2781.328 -140 2781.328 Z" stroke="gray" stroke-linecap="round" stroke-linejoin="round" stroke-width="1"/>
        <text transform="translate(-140.4731 2786.9974) rotate(1)" fill="black">
          <tspan font-family="Helvetica Neue" font-size="14" fill="black" x="0" y="13">11</tspan>
        </text>
      </g>
      <g id="Graphic_3100">
        <path d="M -196.66667 2955.328 L -182.33333 2955.328 C -178.46734 2955.328 -175.33333 2958.462 -175.33333 2962.328 L -175.33333 2976.328 C -175.33333 2980.194 -178.46734 2983.328 -182.33333 2983.328 L -196.66667 2983.328 C -200.53266 2983.328 -203.66667 2980.194 -203.66667 2976.328 L -203.66667 2962.328 C -203.66667 2958.462 -200.53266 2955.328 -196.66667 2955.328 Z" fill="#e5e5ff"/>
        <path d="M -196.66667 2955.328 L -182.33333 2955.328 C -178.46734 2955.328 -175.33333 2958.462 -175.33333 2962.328 L -175.33333 2976.328 C -175.33333 2980.194 -178.46734 2983.328 -182.33333 2983.328 L -196.66667 2983.328 C -200.53266 2983.328 -203.66667 2980.194 -203.66667 2976.328 L -203.66667 2962.328 C -203.66667 2958.462 -200.53266 2955.328 -196.66667 2955.328 Z" stroke="gray" stroke-linecap="round" stroke-linejoin="round" stroke-width="1"/>
        <text transform="translate(-197.13977 2960.9974) rotate(1)" fill="black">
          <tspan font-family="Helvetica Neue" font-size="14" fill="black" x="0" y="13">13</tspan>
        </text>
      </g>
      <g id="Graphic_3099"/>
      <g id="Graphic_3097"/>
      <g id="Graphic_3094"/>
      <g id="Graphic_3093"/>
      <g id="Graphic_3091">
        <path d="M -111.66667 2955.328 L -97.33333 2955.328 C -93.46734 2955.328 -90.33333 2958.462 -90.33333 2962.328 L -90.33333 2976.328 C -90.33333 2980.194 -93.46734 2983.328 -97.33333 2983.328 L -111.66667 2983.328 C -115.53266 2983.328 -118.66667 2980.194 -118.66667 2976.328 L -118.66667 2962.328 C -118.66667 2958.462 -115.53266 2955.328 -111.66667 2955.328 Z" fill="#e5e5ff"/>
        <path d="M -111.66667 2955.328 L -97.33333 2955.328 C -93.46734 2955.328 -90.33333 2958.462 -90.33333 2962.328 L -90.33333 2976.328 C -90.33333 2980.194 -93.46734 2983.328 -97.33333 2983.328 L -111.66667 2983.328 C -115.53266 2983.328 -118.66667 2980.194 -118.66667 2976.328 L -118.66667 2962.328 C -118.66667 2958.462 -115.53266 2955.328 -111.66667 2955.328 Z" stroke="gray" stroke-linecap="round" stroke-linejoin="round" stroke-width="1"/>
        <text transform="translate(-112.13977 2960.9974) rotate(1)" fill="black">
          <tspan font-family="Helvetica Neue" font-size="14" fill="black" x="0" y="13">17</tspan>
        </text>
      </g>
      <g id="Graphic_3090">
        <path d="M -225 2955.328 L -210.66667 2955.328 C -206.80067 2955.328 -203.66667 2958.462 -203.66667 2962.328 L -203.66667 2976.328 C -203.66667 2980.194 -206.80067 2983.328 -210.66667 2983.328 L -225 2983.328 C -228.866 2983.328 -232 2980.194 -232 2976.328 L -232 2962.328 C -232 2958.462 -228.866 2955.328 -225 2955.328 Z" fill="#e5e5ff"/>
        <path d="M -225 2955.328 L -210.66667 2955.328 C -206.80067 2955.328 -203.66667 2958.462 -203.66667 2962.328 L -203.66667 2976.328 C -203.66667 2980.194 -206.80067 2983.328 -210.66667 2983.328 L -225 2983.328 C -228.866 2983.328 -232 2980.194 -232 2976.328 L -232 2962.328 C -232 2958.462 -228.866 2955.328 -225 2955.328 Z" stroke="gray" stroke-linecap="round" stroke-linejoin="round" stroke-width="1"/>
        <text transform="translate(-221.5817 2961.0653) rotate(1)" fill="black">
          <tspan font-family="Helvetica Neue" font-size="14" fill="black" x="0" y="13">6</tspan>
        </text>
      </g>
      <g id="Graphic_3086">
        <path d="M -168.33333 2955.328 L -154 2955.328 C -150.134 2955.328 -147 2958.462 -147 2962.328 L -147 2976.328 C -147 2980.194 -150.134 2983.328 -154 2983.328 L -168.33333 2983.328 C -172.19933 2983.328 -175.33333 2980.194 -175.33333 2976.328 L -175.33333 2962.328 C -175.33333 2958.462 -172.19933 2955.328 -168.33333 2955.328 Z" fill="#e5e5ff"/>
        <path d="M -168.33333 2955.328 L -154 2955.328 C -150.134 2955.328 -147 2958.462 -147 2962.328 L -147 2976.328 C -147 2980.194 -150.134 2983.328 -154 2983.328 L -168.33333 2983.328 C -172.19933 2983.328 -175.33333 2980.194 -175.33333 2976.328 L -175.33333 2962.328 C -175.33333 2958.462 -172.19933 2955.328 -168.33333 2955.328 Z" stroke="gray" stroke-linecap="round" stroke-linejoin="round" stroke-width="1"/>
        <text transform="translate(-168.80644 2960.9974) rotate(1)" fill="black">
          <tspan font-family="Helvetica Neue" font-size="14" fill="black" x="0" y="13">15</tspan>
        </text>
      </g>
      <g id="Graphic_3085"/>
      <g id="Graphic_3082">
        <path d="M -83.33333 2955.328 L -69 2955.328 C -65.13401 2955.328 -62 2958.462 -62 2962.328 L -62 2976.328 C -62 2980.194 -65.13401 2983.328 -69 2983.328 L -83.33333 2983.328 C -87.19933 2983.328 -90.33333 2980.194 -90.33333 2976.328 L -90.33333 2962.328 C -90.33333 2958.462 -87.19933 2955.328 -83.33333 2955.328 Z" fill="#e5e5ff"/>
        <path d="M -83.33333 2955.328 L -69 2955.328 C -65.13401 2955.328 -62 2958.462 -62 2962.328 L -62 2976.328 C -62 2980.194 -65.13401 2983.328 -69 2983.328 L -83.33333 2983.328 C -87.19933 2983.328 -90.33333 2980.194 -90.33333 2976.328 L -90.33333 2962.328 C -90.33333 2958.462 -87.19933 2955.328 -83.33333 2955.328 Z" stroke="gray" stroke-linecap="round" stroke-linejoin="round" stroke-width="1"/>
        <text transform="translate(-83.80644 2960.9974) rotate(1)" fill="black">
          <tspan font-family="Helvetica Neue" font-size="14" fill="black" x="0" y="13">23</tspan>
        </text>
      </g>
      <g id="Graphic_3079"/>
      <g id="Graphic_3078">
        <path d="M -140 2955.328 L -125.66667 2955.328 C -121.80067 2955.328 -118.66667 2958.462 -118.66667 2962.328 L -118.66667 2976.328 C -118.66667 2980.194 -121.80067 2983.328 -125.66667 2983.328 L -140 2983.328 C -143.866 2983.328 -147 2980.194 -147 2976.328 L -147 2962.328 C -147 2958.462 -143.866 2955.328 -140 2955.328 Z" fill="#e5e5ff"/>
        <path d="M -140 2955.328 L -125.66667 2955.328 C -121.80067 2955.328 -118.66667 2958.462 -118.66667 2962.328 L -118.66667 2976.328 C -118.66667 2980.194 -121.80067 2983.328 -125.66667 2983.328 L -140 2983.328 C -143.866 2983.328 -147 2980.194 -147 2976.328 L -147 2962.328 C -147 2958.462 -143.866 2955.328 -140 2955.328 Z" stroke="gray" stroke-linecap="round" stroke-linejoin="round" stroke-width="1"/>
        <text transform="translate(-140.4731 2960.9974) rotate(1)" fill="black">
          <tspan font-family="Helvetica Neue" font-size="14" fill="black" x="0" y="13">16</tspan>
        </text>
      </g>
      <g id="Line_3077">
        <line x1="-39" y1="2724.328" x2="131" y2="2724.328" stroke="black" stroke-linecap="round" stroke-linejoin="round" stroke-width="1.3"/>
      </g>
      <g id="Graphic_3076">
        <path d="M -3.6666667 2809.328 L 10.666667 2809.328 C 14.53266 2809.328 17.666667 2812.462 17.666667 2816.328 L 17.666667 2830.328 C 17.666667 2834.194 14.53266 2837.328 10.666667 2837.328 L -3.6666667 2837.328 C -7.53266 2837.328 -10.666667 2834.194 -10.666667 2830.328 L -10.666667 2816.328 C -10.666667 2812.462 -7.53266 2809.328 -3.6666667 2809.328 Z" fill="#fbebb9"/>
        <path d="M -3.6666667 2809.328 L 10.666667 2809.328 C 14.53266 2809.328 17.666667 2812.462 17.666667 2816.328 L 17.666667 2830.328 C 17.666667 2834.194 14.53266 2837.328 10.666667 2837.328 L -3.6666667 2837.328 C -7.53266 2837.328 -10.666667 2834.194 -10.666667 2830.328 L -10.666667 2816.328 C -10.666667 2812.462 -7.53266 2809.328 -3.6666667 2809.328 Z" stroke="gray" stroke-linecap="round" stroke-linejoin="round" stroke-width="1"/>
        <text transform="translate(-4.1397744 2814.9974) rotate(1)" fill="black">
          <tspan font-family="Helvetica Neue" font-size="14" fill="black" x="0" y="13">19</tspan>
        </text>
      </g>
      <g id="Graphic_3075">
        <path d="M 109.66667 2809.328 L 124 2809.328 C 127.866 2809.328 131 2812.462 131 2816.328 L 131 2830.328 C 131 2834.194 127.866 2837.328 124 2837.328 L 109.66667 2837.328 C 105.80067 2837.328 102.66667 2834.194 102.66667 2830.328 L 102.66667 2816.328 C 102.66667 2812.462 105.80067 2809.328 109.66667 2809.328 Z" fill="#fbebb9"/>
        <path d="M 109.66667 2809.328 L 124 2809.328 C 127.866 2809.328 131 2812.462 131 2816.328 L 131 2830.328 C 131 2834.194 127.866 2837.328 124 2837.328 L 109.66667 2837.328 C 105.80067 2837.328 102.66667 2834.194 102.66667 2830.328 L 102.66667 2816.328 C 102.66667 2812.462 105.80067 2809.328 109.66667 2809.328 Z" stroke="gray" stroke-linecap="round" stroke-linejoin="round" stroke-width="1"/>
        <text transform="translate(109.19356 2814.9974) rotate(1)" fill="black">
          <tspan font-family="Helvetica Neue" font-size="14" fill="black" x="0" y="13">23</tspan>
        </text>
      </g>
      <g id="Graphic_3073">
        <path d="M 81.33333 2809.328 L 95.66667 2809.328 C 99.53266 2809.328 102.66667 2812.462 102.66667 2816.328 L 102.66667 2830.328 C 102.66667 2834.194 99.53266 2837.328 95.66667 2837.328 L 81.33333 2837.328 C 77.46734 2837.328 74.33333 2834.194 74.33333 2830.328 L 74.33333 2816.328 C 74.33333 2812.462 77.46734 2809.328 81.33333 2809.328 Z" fill="#fbebb9"/>
        <path d="M 81.33333 2809.328 L 95.66667 2809.328 C 99.53266 2809.328 102.66667 2812.462 102.66667 2816.328 L 102.66667 2830.328 C 102.66667 2834.194 99.53266 2837.328 95.66667 2837.328 L 81.33333 2837.328 C 77.46734 2837.328 74.33333 2834.194 74.33333 2830.328 L 74.33333 2816.328 C 74.33333 2812.462 77.46734 2809.328 81.33333 2809.328 Z" stroke="gray" stroke-linecap="round" stroke-linejoin="round" stroke-width="1"/>
        <text transform="translate(80.86023 2814.9974) rotate(1)" fill="black">
          <tspan font-family="Helvetica Neue" font-size="14" fill="black" x="0" y="13">22</tspan>
        </text>
      </g>
      <g id="Graphic_3072">
        <path d="M 24.666667 2837.328 L 39 2837.328 C 42.865993 2837.328 46 2840.462 46 2844.328 L 46 2858.328 C 46 2862.194 42.865993 2865.328 39 2865.328 L 24.666667 2865.328 C 20.800673 2865.328 17.666667 2862.194 17.666667 2858.328 L 17.666667 2844.328 C 17.666667 2840.462 20.800673 2837.328 24.666667 2837.328 Z" fill="#fbebb9"/>
        <path d="M 24.666667 2837.328 L 39 2837.328 C 42.865993 2837.328 46 2840.462 46 2844.328 L 46 2858.328 C 46 2862.194 42.865993 2865.328 39 2865.328 L 24.666667 2865.328 C 20.800673 2865.328 17.666667 2862.194 17.666667 2858.328 L 17.666667 2844.328 C 17.666667 2840.462 20.800673 2837.328 24.666667 2837.328 Z" stroke="gray" stroke-linecap="round" stroke-linejoin="round" stroke-width="1"/>
        <text transform="translate(24.19356 2842.9974) rotate(1)" fill="black">
          <tspan font-family="Helvetica Neue" font-size="14" fill="black" x="0" y="13">26</tspan>
        </text>
      </g>
      <g id="Graphic_3070">
        <path d="M 53 2837.328 L 67.33333 2837.328 C 71.19933 2837.328 74.33333 2840.462 74.33333 2844.328 L 74.33333 2858.328 C 74.33333 2862.194 71.19933 2865.328 67.33333 2865.328 L 53 2865.328 C 49.134007 2865.328 46 2862.194 46 2858.328 L 46 2844.328 C 46 2840.462 49.134007 2837.328 53 2837.328 Z" fill="#fbebb9"/>
        <path d="M 53 2837.328 L 67.33333 2837.328 C 71.19933 2837.328 74.33333 2840.462 74.33333 2844.328 L 74.33333 2858.328 C 74.33333 2862.194 71.19933 2865.328 67.33333 2865.328 L 53 2865.328 C 49.134007 2865.328 46 2862.194 46 2858.328 L 46 2844.328 C 46 2840.462 49.134007 2837.328 53 2837.328 Z" stroke="gray" stroke-linecap="round" stroke-linejoin="round" stroke-width="1"/>
        <text transform="translate(52.52689 2842.9974) rotate(1)" fill="black">
          <tspan font-family="Helvetica Neue" font-size="14" fill="black" x="0" y="13">27</tspan>
        </text>
      </g>
      <g id="Graphic_3069">
        <path d="M -3.6666667 2781.328 L 10.666667 2781.328 C 14.53266 2781.328 17.666667 2784.462 17.666667 2788.328 L 17.666667 2802.328 C 17.666667 2806.194 14.53266 2809.328 10.666667 2809.328 L -3.6666667 2809.328 C -7.53266 2809.328 -10.666667 2806.194 -10.666667 2802.328 L -10.666667 2788.328 C -10.666667 2784.462 -7.53266 2781.328 -3.6666667 2781.328 Z" fill="#fbebb9"/>
        <path d="M -3.6666667 2781.328 L 10.666667 2781.328 C 14.53266 2781.328 17.666667 2784.462 17.666667 2788.328 L 17.666667 2802.328 C 17.666667 2806.194 14.53266 2809.328 10.666667 2809.328 L -3.6666667 2809.328 C -7.53266 2809.328 -10.666667 2806.194 -10.666667 2802.328 L -10.666667 2788.328 C -10.666667 2784.462 -7.53266 2781.328 -3.6666667 2781.328 Z" stroke="gray" stroke-linecap="round" stroke-linejoin="round" stroke-width="1"/>
        <text transform="translate(-4.1397744 2786.9974) rotate(1)" fill="black">
          <tspan font-family="Helvetica Neue" font-size="14" fill="black" x="0" y="13">12</tspan>
        </text>
      </g>
      <g id="Graphic_3068">
        <path d="M 109.66667 2753.328 L 124 2753.328 C 127.866 2753.328 131 2756.462 131 2760.328 L 131 2774.328 C 131 2778.194 127.866 2781.328 124 2781.328 L 109.66667 2781.328 C 105.80067 2781.328 102.66667 2778.194 102.66667 2774.328 L 102.66667 2760.328 C 102.66667 2756.462 105.80067 2753.328 109.66667 2753.328 Z" fill="#fbebb9"/>
        <path d="M 109.66667 2753.328 L 124 2753.328 C 127.866 2753.328 131 2756.462 131 2760.328 L 131 2774.328 C 131 2778.194 127.866 2781.328 124 2781.328 L 109.66667 2781.328 C 105.80067 2781.328 102.66667 2778.194 102.66667 2774.328 L 102.66667 2760.328 C 102.66667 2756.462 105.80067 2753.328 109.66667 2753.328 Z" stroke="gray" stroke-linecap="round" stroke-linejoin="round" stroke-width="1"/>
        <text transform="translate(113.08497 2759.0653) rotate(1)" fill="black">
          <tspan font-family="Helvetica Neue" font-size="14" fill="black" x="0" y="13">8</tspan>
        </text>
      </g>
      <g id="Graphic_3066">
        <path d="M -32 2753.328 L -17.666667 2753.328 C -13.800673 2753.328 -10.666667 2756.462 -10.666667 2760.328 L -10.666667 2774.328 C -10.666667 2778.194 -13.800673 2781.328 -17.666667 2781.328 L -32 2781.328 C -35.865993 2781.328 -39 2778.194 -39 2774.328 L -39 2760.328 C -39 2756.462 -35.865993 2753.328 -32 2753.328 Z" fill="#fbebb9"/>
        <path d="M -32 2753.328 L -17.666667 2753.328 C -13.800673 2753.328 -10.666667 2756.462 -10.666667 2760.328 L -10.666667 2774.328 C -10.666667 2778.194 -13.800673 2781.328 -17.666667 2781.328 L -32 2781.328 C -35.865993 2781.328 -39 2778.194 -39 2774.328 L -39 2760.328 C -39 2756.462 -35.865993 2753.328 -32 2753.328 Z" stroke="gray" stroke-linecap="round" stroke-linejoin="round" stroke-width="1"/>
        <text transform="translate(-28.5817 2759.0653) rotate(1)" fill="black">
          <tspan font-family="Helvetica Neue" font-size="14" fill="black" x="0" y="13">1</tspan>
        </text>
      </g>
      <g id="Graphic_3065">
        <path d="M 81.33333 2837.328 L 95.66667 2837.328 C 99.53266 2837.328 102.66667 2840.462 102.66667 2844.328 L 102.66667 2858.328 C 102.66667 2862.194 99.53266 2865.328 95.66667 2865.328 L 81.33333 2865.328 C 77.46734 2865.328 74.33333 2862.194 74.33333 2858.328 L 74.33333 2844.328 C 74.33333 2840.462 77.46734 2837.328 81.33333 2837.328 Z" fill="#fbebb9"/>
        <path d="M 81.33333 2837.328 L 95.66667 2837.328 C 99.53266 2837.328 102.66667 2840.462 102.66667 2844.328 L 102.66667 2858.328 C 102.66667 2862.194 99.53266 2865.328 95.66667 2865.328 L 81.33333 2865.328 C 77.46734 2865.328 74.33333 2862.194 74.33333 2858.328 L 74.33333 2844.328 C 74.33333 2840.462 77.46734 2837.328 81.33333 2837.328 Z" stroke="gray" stroke-linecap="round" stroke-linejoin="round" stroke-width="1"/>
        <text transform="translate(80.86023 2842.9974) rotate(1)" fill="black">
          <tspan font-family="Helvetica Neue" font-size="14" fill="black" x="0" y="13">28</tspan>
        </text>
      </g>
      <g id="Graphic_3063">
        <path d="M 24.666667 2753.328 L 39 2753.328 C 42.865993 2753.328 46 2756.462 46 2760.328 L 46 2774.328 C 46 2778.194 42.865993 2781.328 39 2781.328 L 24.666667 2781.328 C 20.800673 2781.328 17.666667 2778.194 17.666667 2774.328 L 17.666667 2760.328 C 17.666667 2756.462 20.800673 2753.328 24.666667 2753.328 Z" fill="#fbebb9"/>
        <path d="M 24.666667 2753.328 L 39 2753.328 C 42.865993 2753.328 46 2756.462 46 2760.328 L 46 2774.328 C 46 2778.194 42.865993 2781.328 39 2781.328 L 24.666667 2781.328 C 20.800673 2781.328 17.666667 2778.194 17.666667 2774.328 L 17.666667 2760.328 C 17.666667 2756.462 20.800673 2753.328 24.666667 2753.328 Z" stroke="gray" stroke-linecap="round" stroke-linejoin="round" stroke-width="1"/>
        <text transform="translate(28.084966 2759.0653) rotate(1)" fill="black">
          <tspan font-family="Helvetica Neue" font-size="14" fill="black" x="0" y="13">5</tspan>
        </text>
      </g>
      <g id="Graphic_3062">
        <path d="M -3.6666667 2753.328 L 10.666667 2753.328 C 14.53266 2753.328 17.666667 2756.462 17.666667 2760.328 L 17.666667 2774.328 C 17.666667 2778.194 14.53266 2781.328 10.666667 2781.328 L -3.6666667 2781.328 C -7.53266 2781.328 -10.666667 2778.194 -10.666667 2774.328 L -10.666667 2760.328 C -10.666667 2756.462 -7.53266 2753.328 -3.6666667 2753.328 Z" fill="#fbebb9"/>
        <path d="M -3.6666667 2753.328 L 10.666667 2753.328 C 14.53266 2753.328 17.666667 2756.462 17.666667 2760.328 L 17.666667 2774.328 C 17.666667 2778.194 14.53266 2781.328 10.666667 2781.328 L -3.6666667 2781.328 C -7.53266 2781.328 -10.666667 2778.194 -10.666667 2774.328 L -10.666667 2760.328 C -10.666667 2756.462 -7.53266 2753.328 -3.6666667 2753.328 Z" stroke="gray" stroke-linecap="round" stroke-linejoin="round" stroke-width="1"/>
        <text transform="translate(-.24836716 2759.0653) rotate(1)" fill="black">
          <tspan font-family="Helvetica Neue" font-size="14" fill="black" x="0" y="13">4</tspan>
        </text>
      </g>
      <g id="Graphic_3061">
        <path d="M -32 2837.328 L -17.666667 2837.328 C -13.800673 2837.328 -10.666667 2840.462 -10.666667 2844.328 L -10.666667 2858.328 C -10.666667 2862.194 -13.800673 2865.328 -17.666667 2865.328 L -32 2865.328 C -35.865993 2865.328 -39 2862.194 -39 2858.328 L -39 2844.328 C -39 2840.462 -35.865993 2837.328 -32 2837.328 Z" fill="#fbebb9"/>
        <path d="M -32 2837.328 L -17.666667 2837.328 C -13.800673 2837.328 -10.666667 2840.462 -10.666667 2844.328 L -10.666667 2858.328 C -10.666667 2862.194 -13.800673 2865.328 -17.666667 2865.328 L -32 2865.328 C -35.865993 2865.328 -39 2862.194 -39 2858.328 L -39 2844.328 C -39 2840.462 -35.865993 2837.328 -32 2837.328 Z" stroke="gray" stroke-linecap="round" stroke-linejoin="round" stroke-width="1"/>
        <text transform="translate(-32.473108 2842.9974) rotate(1)" fill="black">
          <tspan font-family="Helvetica Neue" font-size="14" fill="black" x="0" y="13">24</tspan>
        </text>
      </g>
      <g id="Graphic_3060">
        <path d="M 81.33333 2781.328 L 95.66667 2781.328 C 99.53266 2781.328 102.66667 2784.462 102.66667 2788.328 L 102.66667 2802.328 C 102.66667 2806.194 99.53266 2809.328 95.66667 2809.328 L 81.33333 2809.328 C 77.46734 2809.328 74.33333 2806.194 74.33333 2802.328 L 74.33333 2788.328 C 74.33333 2784.462 77.46734 2781.328 81.33333 2781.328 Z" fill="#fbebb9"/>
        <path d="M 81.33333 2781.328 L 95.66667 2781.328 C 99.53266 2781.328 102.66667 2784.462 102.66667 2788.328 L 102.66667 2802.328 C 102.66667 2806.194 99.53266 2809.328 95.66667 2809.328 L 81.33333 2809.328 C 77.46734 2809.328 74.33333 2806.194 74.33333 2802.328 L 74.33333 2788.328 C 74.33333 2784.462 77.46734 2781.328 81.33333 2781.328 Z" stroke="gray" stroke-linecap="round" stroke-linejoin="round" stroke-width="1"/>
        <text transform="translate(80.86023 2786.9974) rotate(1)" fill="black">
          <tspan font-family="Helvetica Neue" font-size="14" fill="black" x="0" y="13">15</tspan>
        </text>
      </g>
      <g id="Graphic_3059">
        <path d="M -32 2781.328 L -17.666667 2781.328 C -13.800673 2781.328 -10.666667 2784.462 -10.666667 2788.328 L -10.666667 2802.328 C -10.666667 2806.194 -13.800673 2809.328 -17.666667 2809.328 L -32 2809.328 C -35.865993 2809.328 -39 2806.194 -39 2802.328 L -39 2788.328 C -39 2784.462 -35.865993 2781.328 -32 2781.328 Z" fill="#fbebb9"/>
        <path d="M -32 2781.328 L -17.666667 2781.328 C -13.800673 2781.328 -10.666667 2784.462 -10.666667 2788.328 L -10.666667 2802.328 C -10.666667 2806.194 -13.800673 2809.328 -17.666667 2809.328 L -32 2809.328 C -35.865993 2809.328 -39 2806.194 -39 2802.328 L -39 2788.328 C -39 2784.462 -35.865993 2781.328 -32 2781.328 Z" stroke="gray" stroke-linecap="round" stroke-linejoin="round" stroke-width="1"/>
        <text transform="translate(-28.5817 2787.0653) rotate(1)" fill="black">
          <tspan font-family="Helvetica Neue" font-size="14" fill="black" x="0" y="13">9</tspan>
        </text>
      </g>
      <g id="Graphic_3057">
        <path d="M 109.66667 2837.328 L 124 2837.328 C 127.866 2837.328 131 2840.462 131 2844.328 L 131 2858.328 C 131 2862.194 127.866 2865.328 124 2865.328 L 109.66667 2865.328 C 105.80067 2865.328 102.66667 2862.194 102.66667 2858.328 L 102.66667 2844.328 C 102.66667 2840.462 105.80067 2837.328 109.66667 2837.328 Z" fill="#fbebb9"/>
        <path d="M 109.66667 2837.328 L 124 2837.328 C 127.866 2837.328 131 2840.462 131 2844.328 L 131 2858.328 C 131 2862.194 127.866 2865.328 124 2865.328 L 109.66667 2865.328 C 105.80067 2865.328 102.66667 2862.194 102.66667 2858.328 L 102.66667 2844.328 C 102.66667 2840.462 105.80067 2837.328 109.66667 2837.328 Z" stroke="gray" stroke-linecap="round" stroke-linejoin="round" stroke-width="1"/>
        <text transform="translate(109.19356 2842.9974) rotate(1)" fill="black">
          <tspan font-family="Helvetica Neue" font-size="14" fill="black" x="0" y="13">29</tspan>
        </text>
      </g>
      <g id="Graphic_3056">
        <path d="M 53 2809.328 L 67.33333 2809.328 C 71.19933 2809.328 74.33333 2812.462 74.33333 2816.328 L 74.33333 2830.328 C 74.33333 2834.194 71.19933 2837.328 67.33333 2837.328 L 53 2837.328 C 49.134007 2837.328 46 2834.194 46 2830.328 L 46 2816.328 C 46 2812.462 49.134007 2809.328 53 2809.328 Z" fill="#fbebb9"/>
        <path d="M 53 2809.328 L 67.33333 2809.328 C 71.19933 2809.328 74.33333 2812.462 74.33333 2816.328 L 74.33333 2830.328 C 74.33333 2834.194 71.19933 2837.328 67.33333 2837.328 L 53 2837.328 C 49.134007 2837.328 46 2834.194 46 2830.328 L 46 2816.328 C 46 2812.462 49.134007 2809.328 53 2809.328 Z" stroke="gray" stroke-linecap="round" stroke-linejoin="round" stroke-width="1"/>
        <text transform="translate(52.52689 2814.9974) rotate(1)" fill="black">
          <tspan font-family="Helvetica Neue" font-size="14" fill="black" x="0" y="13">21</tspan>
        </text>
      </g>
      <g id="Graphic_3055">
        <path d="M 24.666667 2781.328 L 39 2781.328 C 42.865993 2781.328 46 2784.462 46 2788.328 L 46 2802.328 C 46 2806.194 42.865993 2809.328 39 2809.328 L 24.666667 2809.328 C 20.800673 2809.328 17.666667 2806.194 17.666667 2802.328 L 17.666667 2788.328 C 17.666667 2784.462 20.800673 2781.328 24.666667 2781.328 Z" fill="#fbebb9"/>
        <path d="M 24.666667 2781.328 L 39 2781.328 C 42.865993 2781.328 46 2784.462 46 2788.328 L 46 2802.328 C 46 2806.194 42.865993 2809.328 39 2809.328 L 24.666667 2809.328 C 20.800673 2809.328 17.666667 2806.194 17.666667 2802.328 L 17.666667 2788.328 C 17.666667 2784.462 20.800673 2781.328 24.666667 2781.328 Z" stroke="gray" stroke-linecap="round" stroke-linejoin="round" stroke-width="1"/>
        <text transform="translate(24.19356 2786.9974) rotate(1)" fill="black">
          <tspan font-family="Helvetica Neue" font-size="14" fill="black" x="0" y="13">13</tspan>
        </text>
      </g>
      <g id="Graphic_3054">
        <path d="M 53 2753.328 L 67.33333 2753.328 C 71.19933 2753.328 74.33333 2756.462 74.33333 2760.328 L 74.33333 2774.328 C 74.33333 2778.194 71.19933 2781.328 67.33333 2781.328 L 53 2781.328 C 49.134007 2781.328 46 2778.194 46 2774.328 L 46 2760.328 C 46 2756.462 49.134007 2753.328 53 2753.328 Z" fill="#fbebb9"/>
        <path d="M 53 2753.328 L 67.33333 2753.328 C 71.19933 2753.328 74.33333 2756.462 74.33333 2760.328 L 74.33333 2774.328 C 74.33333 2778.194 71.19933 2781.328 67.33333 2781.328 L 53 2781.328 C 49.134007 2781.328 46 2778.194 46 2774.328 L 46 2760.328 C 46 2756.462 49.134007 2753.328 53 2753.328 Z" stroke="gray" stroke-linecap="round" stroke-linejoin="round" stroke-width="1"/>
        <text transform="translate(56.4183 2759.0653) rotate(1)" fill="black">
          <tspan font-family="Helvetica Neue" font-size="14" fill="black" x="0" y="13">6</tspan>
        </text>
      </g>
      <g id="Graphic_3052">
        <path d="M -3.6666667 2837.328 L 10.666667 2837.328 C 14.53266 2837.328 17.666667 2840.462 17.666667 2844.328 L 17.666667 2858.328 C 17.666667 2862.194 14.53266 2865.328 10.666667 2865.328 L -3.6666667 2865.328 C -7.53266 2865.328 -10.666667 2862.194 -10.666667 2858.328 L -10.666667 2844.328 C -10.666667 2840.462 -7.53266 2837.328 -3.6666667 2837.328 Z" fill="#fbebb9"/>
        <path d="M -3.6666667 2837.328 L 10.666667 2837.328 C 14.53266 2837.328 17.666667 2840.462 17.666667 2844.328 L 17.666667 2858.328 C 17.666667 2862.194 14.53266 2865.328 10.666667 2865.328 L -3.6666667 2865.328 C -7.53266 2865.328 -10.666667 2862.194 -10.666667 2858.328 L -10.666667 2844.328 C -10.666667 2840.462 -7.53266 2837.328 -3.6666667 2837.328 Z" stroke="gray" stroke-linecap="round" stroke-linejoin="round" stroke-width="1"/>
        <text transform="translate(-4.1397744 2842.9974) rotate(1)" fill="black">
          <tspan font-family="Helvetica Neue" font-size="14" fill="black" x="0" y="13">25</tspan>
        </text>
      </g>
      <g id="Graphic_3051">
        <path d="M 109.66667 2781.328 L 124 2781.328 C 127.866 2781.328 131 2784.462 131 2788.328 L 131 2802.328 C 131 2806.194 127.866 2809.328 124 2809.328 L 109.66667 2809.328 C 105.80067 2809.328 102.66667 2806.194 102.66667 2802.328 L 102.66667 2788.328 C 102.66667 2784.462 105.80067 2781.328 109.66667 2781.328 Z" fill="#fbebb9"/>
        <path d="M 109.66667 2781.328 L 124 2781.328 C 127.866 2781.328 131 2784.462 131 2788.328 L 131 2802.328 C 131 2806.194 127.866 2809.328 124 2809.328 L 109.66667 2809.328 C 105.80067 2809.328 102.66667 2806.194 102.66667 2802.328 L 102.66667 2788.328 C 102.66667 2784.462 105.80067 2781.328 109.66667 2781.328 Z" stroke="gray" stroke-linecap="round" stroke-linejoin="round" stroke-width="1"/>
        <text transform="translate(109.19356 2786.9974) rotate(1)" fill="black">
          <tspan font-family="Helvetica Neue" font-size="14" fill="black" x="0" y="13">16</tspan>
        </text>
      </g>
      <g id="Graphic_3050">
        <path d="M -32 2809.328 L -17.666667 2809.328 C -13.800673 2809.328 -10.666667 2812.462 -10.666667 2816.328 L -10.666667 2830.328 C -10.666667 2834.194 -13.800673 2837.328 -17.666667 2837.328 L -32 2837.328 C -35.865993 2837.328 -39 2834.194 -39 2830.328 L -39 2816.328 C -39 2812.462 -35.865993 2809.328 -32 2809.328 Z" fill="#fbebb9"/>
        <path d="M -32 2809.328 L -17.666667 2809.328 C -13.800673 2809.328 -10.666667 2812.462 -10.666667 2816.328 L -10.666667 2830.328 C -10.666667 2834.194 -13.800673 2837.328 -17.666667 2837.328 L -32 2837.328 C -35.865993 2837.328 -39 2834.194 -39 2830.328 L -39 2816.328 C -39 2812.462 -35.865993 2809.328 -32 2809.328 Z" stroke="gray" stroke-linecap="round" stroke-linejoin="round" stroke-width="1"/>
        <text transform="translate(-32.473108 2814.9974) rotate(1)" fill="black">
          <tspan font-family="Helvetica Neue" font-size="14" fill="black" x="0" y="13">18</tspan>
        </text>
      </g>
      <g id="Graphic_3049">
        <path d="M 24.666667 2809.328 L 39 2809.328 C 42.865993 2809.328 46 2812.462 46 2816.328 L 46 2830.328 C 46 2834.194 42.865993 2837.328 39 2837.328 L 24.666667 2837.328 C 20.800673 2837.328 17.666667 2834.194 17.666667 2830.328 L 17.666667 2816.328 C 17.666667 2812.462 20.800673 2809.328 24.666667 2809.328 Z" fill="#fbebb9"/>
        <path d="M 24.666667 2809.328 L 39 2809.328 C 42.865993 2809.328 46 2812.462 46 2816.328 L 46 2830.328 C 46 2834.194 42.865993 2837.328 39 2837.328 L 24.666667 2837.328 C 20.800673 2837.328 17.666667 2834.194 17.666667 2830.328 L 17.666667 2816.328 C 17.666667 2812.462 20.800673 2809.328 24.666667 2809.328 Z" stroke="gray" stroke-linecap="round" stroke-linejoin="round" stroke-width="1"/>
        <text transform="translate(24.19356 2814.9974) rotate(1)" fill="black">
          <tspan font-family="Helvetica Neue" font-size="14" fill="black" x="0" y="13">20</tspan>
        </text>
      </g>
      <g id="Graphic_3048">
        <path d="M 81.33333 2753.328 L 95.66667 2753.328 C 99.53266 2753.328 102.66667 2756.462 102.66667 2760.328 L 102.66667 2774.328 C 102.66667 2778.194 99.53266 2781.328 95.66667 2781.328 L 81.33333 2781.328 C 77.46734 2781.328 74.33333 2778.194 74.33333 2774.328 L 74.33333 2760.328 C 74.33333 2756.462 77.46734 2753.328 81.33333 2753.328 Z" fill="#fbebb9"/>
        <path d="M 81.33333 2753.328 L 95.66667 2753.328 C 99.53266 2753.328 102.66667 2756.462 102.66667 2760.328 L 102.66667 2774.328 C 102.66667 2778.194 99.53266 2781.328 95.66667 2781.328 L 81.33333 2781.328 C 77.46734 2781.328 74.33333 2778.194 74.33333 2774.328 L 74.33333 2760.328 C 74.33333 2756.462 77.46734 2753.328 81.33333 2753.328 Z" stroke="gray" stroke-linecap="round" stroke-linejoin="round" stroke-width="1"/>
        <text transform="translate(84.75163 2759.0653) rotate(1)" fill="black">
          <tspan font-family="Helvetica Neue" font-size="14" fill="black" x="0" y="13">7</tspan>
        </text>
      </g>
      <g id="Graphic_3047">
        <path d="M 53 2781.328 L 67.33333 2781.328 C 71.19933 2781.328 74.33333 2784.462 74.33333 2788.328 L 74.33333 2802.328 C 74.33333 2806.194 71.19933 2809.328 67.33333 2809.328 L 53 2809.328 C 49.134007 2809.328 46 2806.194 46 2802.328 L 46 2788.328 C 46 2784.462 49.134007 2781.328 53 2781.328 Z" fill="#fbebb9"/>
        <path d="M 53 2781.328 L 67.33333 2781.328 C 71.19933 2781.328 74.33333 2784.462 74.33333 2788.328 L 74.33333 2802.328 C 74.33333 2806.194 71.19933 2809.328 67.33333 2809.328 L 53 2809.328 C 49.134007 2809.328 46 2806.194 46 2802.328 L 46 2788.328 C 46 2784.462 49.134007 2781.328 53 2781.328 Z" stroke="gray" stroke-linecap="round" stroke-linejoin="round" stroke-width="1"/>
        <text transform="translate(52.52689 2786.9974) rotate(1)" fill="black">
          <tspan font-family="Helvetica Neue" font-size="14" fill="black" x="0" y="13">14</tspan>
        </text>
      </g>
      <g id="Graphic_3038">
        <path d="M -3.6666667 2955.328 L 10.666667 2955.328 C 14.53266 2955.328 17.666667 2958.462 17.666667 2962.328 L 17.666667 2976.328 C 17.666667 2980.194 14.53266 2983.328 10.666667 2983.328 L -3.6666667 2983.328 C -7.53266 2983.328 -10.666667 2980.194 -10.666667 2976.328 L -10.666667 2962.328 C -10.666667 2958.462 -7.53266 2955.328 -3.6666667 2955.328 Z" fill="#e5e5ff"/>
        <path d="M -3.6666667 2955.328 L 10.666667 2955.328 C 14.53266 2955.328 17.666667 2958.462 17.666667 2962.328 L 17.666667 2976.328 C 17.666667 2980.194 14.53266 2983.328 10.666667 2983.328 L -3.6666667 2983.328 C -7.53266 2983.328 -10.666667 2980.194 -10.666667 2976.328 L -10.666667 2962.328 C -10.666667 2958.462 -7.53266 2955.328 -3.6666667 2955.328 Z" stroke="gray" stroke-linecap="round" stroke-linejoin="round" stroke-width="1"/>
        <text transform="translate(-.24836716 2961.0653) rotate(1)" fill="black">
          <tspan font-family="Helvetica Neue" font-size="14" fill="black" x="0" y="13">3</tspan>
        </text>
      </g>
      <g id="Graphic_3037"/>
      <g id="Graphic_3035"/>
      <g id="Graphic_3032"/>
      <g id="Graphic_3031"/>
      <g id="Graphic_3029">
        <path d="M 81.33333 2955.328 L 95.66667 2955.328 C 99.53266 2955.328 102.66667 2958.462 102.66667 2962.328 L 102.66667 2976.328 C 102.66667 2980.194 99.53266 2983.328 95.66667 2983.328 L 81.33333 2983.328 C 77.46734 2983.328 74.33333 2980.194 74.33333 2976.328 L 74.33333 2962.328 C 74.33333 2958.462 77.46734 2955.328 81.33333 2955.328 Z" fill="#e5e5ff"/>
        <path d="M 81.33333 2955.328 L 95.66667 2955.328 C 99.53266 2955.328 102.66667 2958.462 102.66667 2962.328 L 102.66667 2976.328 C 102.66667 2980.194 99.53266 2983.328 95.66667 2983.328 L 81.33333 2983.328 C 77.46734 2983.328 74.33333 2980.194 74.33333 2976.328 L 74.33333 2962.328 C 74.33333 2958.462 77.46734 2955.328 81.33333 2955.328 Z" stroke="gray" stroke-linecap="round" stroke-linejoin="round" stroke-width="1"/>
        <text transform="translate(80.86023 2960.9974) rotate(1)" fill="black">
          <tspan font-family="Helvetica Neue" font-size="14" fill="black" x="0" y="13">17</tspan>
        </text>
      </g>
      <g id="Graphic_3028">
        <path d="M -32 2955.328 L -17.666667 2955.328 C -13.800673 2955.328 -10.666667 2958.462 -10.666667 2962.328 L -10.666667 2976.328 C -10.666667 2980.194 -13.800673 2983.328 -17.666667 2983.328 L -32 2983.328 C -35.865993 2983.328 -39 2980.194 -39 2976.328 L -39 2962.328 C -39 2958.462 -35.865993 2955.328 -32 2955.328 Z" fill="#e5e5ff"/>
        <path d="M -32 2955.328 L -17.666667 2955.328 C -13.800673 2955.328 -10.666667 2958.462 -10.666667 2962.328 L -10.666667 2976.328 C -10.666667 2980.194 -13.800673 2983.328 -17.666667 2983.328 L -32 2983.328 C -35.865993 2983.328 -39 2980.194 -39 2976.328 L -39 2962.328 C -39 2958.462 -35.865993 2955.328 -32 2955.328 Z" stroke="gray" stroke-linecap="round" stroke-linejoin="round" stroke-width="1"/>
        <text transform="translate(-28.5817 2961.0653) rotate(1)" fill="black">
          <tspan font-family="Helvetica Neue" font-size="14" fill="black" x="0" y="13">2</tspan>
        </text>
      </g>
      <g id="Graphic_3024">
        <path d="M 24.666667 2955.328 L 39 2955.328 C 42.865993 2955.328 46 2958.462 46 2962.328 L 46 2976.328 C 46 2980.194 42.865993 2983.328 39 2983.328 L 24.666667 2983.328 C 20.800673 2983.328 17.666667 2980.194 17.666667 2976.328 L 17.666667 2962.328 C 17.666667 2958.462 20.800673 2955.328 24.666667 2955.328 Z" fill="#e5e5ff"/>
        <path d="M 24.666667 2955.328 L 39 2955.328 C 42.865993 2955.328 46 2958.462 46 2962.328 L 46 2976.328 C 46 2980.194 42.865993 2983.328 39 2983.328 L 24.666667 2983.328 C 20.800673 2983.328 17.666667 2980.194 17.666667 2976.328 L 17.666667 2962.328 C 17.666667 2958.462 20.800673 2955.328 24.666667 2955.328 Z" stroke="gray" stroke-linecap="round" stroke-linejoin="round" stroke-width="1"/>
        <text transform="translate(24.19356 2960.9974) rotate(1)" fill="black">
          <tspan font-family="Helvetica Neue" font-size="14" fill="black" x="0" y="13">10</tspan>
        </text>
      </g>
      <g id="Graphic_3023"/>
      <g id="Graphic_3020">
        <path d="M 109.66667 2955.328 L 124 2955.328 C 127.866 2955.328 131 2958.462 131 2962.328 L 131 2976.328 C 131 2980.194 127.866 2983.328 124 2983.328 L 109.66667 2983.328 C 105.80067 2983.328 102.66667 2980.194 102.66667 2976.328 L 102.66667 2962.328 C 102.66667 2958.462 105.80067 2955.328 109.66667 2955.328 Z" fill="#e5e5ff"/>
        <path d="M 109.66667 2955.328 L 124 2955.328 C 127.866 2955.328 131 2958.462 131 2962.328 L 131 2976.328 C 131 2980.194 127.866 2983.328 124 2983.328 L 109.66667 2983.328 C 105.80067 2983.328 102.66667 2980.194 102.66667 2976.328 L 102.66667 2962.328 C 102.66667 2958.462 105.80067 2955.328 109.66667 2955.328 Z" stroke="gray" stroke-linecap="round" stroke-linejoin="round" stroke-width="1"/>
        <text transform="translate(109.19356 2960.9974) rotate(1)" fill="black">
          <tspan font-family="Helvetica Neue" font-size="14" fill="black" x="0" y="13">30</tspan>
        </text>
      </g>
      <g id="Graphic_3017"/>
      <g id="Graphic_3016">
        <path d="M 53 2955.328 L 67.33333 2955.328 C 71.19933 2955.328 74.33333 2958.462 74.33333 2962.328 L 74.33333 2976.328 C 74.33333 2980.194 71.19933 2983.328 67.33333 2983.328 L 53 2983.328 C 49.134007 2983.328 46 2980.194 46 2976.328 L 46 2962.328 C 46 2958.462 49.134007 2955.328 53 2955.328 Z" fill="#e5e5ff"/>
        <path d="M 53 2955.328 L 67.33333 2955.328 C 71.19933 2955.328 74.33333 2958.462 74.33333 2962.328 L 74.33333 2976.328 C 74.33333 2980.194 71.19933 2983.328 67.33333 2983.328 L 53 2983.328 C 49.134007 2983.328 46 2980.194 46 2976.328 L 46 2962.328 C 46 2958.462 49.134007 2955.328 53 2955.328 Z" stroke="gray" stroke-linecap="round" stroke-linejoin="round" stroke-width="1"/>
        <text transform="translate(52.52689 2960.9974) rotate(1)" fill="black">
          <tspan font-family="Helvetica Neue" font-size="14" fill="black" x="0" y="13">11</tspan>
        </text>
      </g>
      <g id="Line_3015">
        <line x1="153" y1="2724.328" x2="323" y2="2724.328" stroke="black" stroke-linecap="round" stroke-linejoin="round" stroke-width="1.3"/>
      </g>
      <g id="Graphic_3014">
        <path d="M 188.33333 2809.328 L 202.66667 2809.328 C 206.53266 2809.328 209.66667 2812.462 209.66667 2816.328 L 209.66667 2830.328 C 209.66667 2834.194 206.53266 2837.328 202.66667 2837.328 L 188.33333 2837.328 C 184.46734 2837.328 181.33333 2834.194 181.33333 2830.328 L 181.33333 2816.328 C 181.33333 2812.462 184.46734 2809.328 188.33333 2809.328 Z" fill="#fbebb9"/>
        <path d="M 188.33333 2809.328 L 202.66667 2809.328 C 206.53266 2809.328 209.66667 2812.462 209.66667 2816.328 L 209.66667 2830.328 C 209.66667 2834.194 206.53266 2837.328 202.66667 2837.328 L 188.33333 2837.328 C 184.46734 2837.328 181.33333 2834.194 181.33333 2830.328 L 181.33333 2816.328 C 181.33333 2812.462 184.46734 2809.328 188.33333 2809.328 Z" stroke="gray" stroke-linecap="round" stroke-linejoin="round" stroke-width="1"/>
        <text transform="translate(187.86023 2814.9974) rotate(1)" fill="black">
          <tspan font-family="Helvetica Neue" font-size="14" fill="black" x="0" y="13">17</tspan>
        </text>
      </g>
      <g id="Graphic_3013">
        <path d="M 301.66667 2809.328 L 316 2809.328 C 319.866 2809.328 323 2812.462 323 2816.328 L 323 2830.328 C 323 2834.194 319.866 2837.328 316 2837.328 L 301.66667 2837.328 C 297.80067 2837.328 294.66667 2834.194 294.66667 2830.328 L 294.66667 2816.328 C 294.66667 2812.462 297.80067 2809.328 301.66667 2809.328 Z" fill="#fbebb9"/>
        <path d="M 301.66667 2809.328 L 316 2809.328 C 319.866 2809.328 323 2812.462 323 2816.328 L 323 2830.328 C 323 2834.194 319.866 2837.328 316 2837.328 L 301.66667 2837.328 C 297.80067 2837.328 294.66667 2834.194 294.66667 2830.328 L 294.66667 2816.328 C 294.66667 2812.462 297.80067 2809.328 301.66667 2809.328 Z" stroke="gray" stroke-linecap="round" stroke-linejoin="round" stroke-width="1"/>
        <text transform="translate(301.19356 2814.9974) rotate(1)" fill="black">
          <tspan font-family="Helvetica Neue" font-size="14" fill="black" x="0" y="13">21</tspan>
        </text>
      </g>
      <g id="Graphic_3011">
        <path d="M 273.33333 2809.328 L 287.66667 2809.328 C 291.53266 2809.328 294.66667 2812.462 294.66667 2816.328 L 294.66667 2830.328 C 294.66667 2834.194 291.53266 2837.328 287.66667 2837.328 L 273.33333 2837.328 C 269.46734 2837.328 266.33333 2834.194 266.33333 2830.328 L 266.33333 2816.328 C 266.33333 2812.462 269.46734 2809.328 273.33333 2809.328 Z" fill="#fbebb9"/>
        <path d="M 273.33333 2809.328 L 287.66667 2809.328 C 291.53266 2809.328 294.66667 2812.462 294.66667 2816.328 L 294.66667 2830.328 C 294.66667 2834.194 291.53266 2837.328 287.66667 2837.328 L 273.33333 2837.328 C 269.46734 2837.328 266.33333 2834.194 266.33333 2830.328 L 266.33333 2816.328 C 266.33333 2812.462 269.46734 2809.328 273.33333 2809.328 Z" stroke="gray" stroke-linecap="round" stroke-linejoin="round" stroke-width="1"/>
        <text transform="translate(272.86023 2814.9974) rotate(1)" fill="black">
          <tspan font-family="Helvetica Neue" font-size="14" fill="black" x="0" y="13">20</tspan>
        </text>
      </g>
      <g id="Graphic_3010">
        <path d="M 216.66667 2837.328 L 231 2837.328 C 234.866 2837.328 238 2840.462 238 2844.328 L 238 2858.328 C 238 2862.194 234.866 2865.328 231 2865.328 L 216.66667 2865.328 C 212.80067 2865.328 209.66667 2862.194 209.66667 2858.328 L 209.66667 2844.328 C 209.66667 2840.462 212.80067 2837.328 216.66667 2837.328 Z" fill="#fbebb9"/>
        <path d="M 216.66667 2837.328 L 231 2837.328 C 234.866 2837.328 238 2840.462 238 2844.328 L 238 2858.328 C 238 2862.194 234.866 2865.328 231 2865.328 L 216.66667 2865.328 C 212.80067 2865.328 209.66667 2862.194 209.66667 2858.328 L 209.66667 2844.328 C 209.66667 2840.462 212.80067 2837.328 216.66667 2837.328 Z" stroke="gray" stroke-linecap="round" stroke-linejoin="round" stroke-width="1"/>
        <text transform="translate(216.19356 2842.9974) rotate(1)" fill="black">
          <tspan font-family="Helvetica Neue" font-size="14" fill="black" x="0" y="13">26</tspan>
        </text>
      </g>
      <g id="Graphic_3008">
        <path d="M 245 2837.328 L 259.33333 2837.328 C 263.19933 2837.328 266.33333 2840.462 266.33333 2844.328 L 266.33333 2858.328 C 266.33333 2862.194 263.19933 2865.328 259.33333 2865.328 L 245 2865.328 C 241.134 2865.328 238 2862.194 238 2858.328 L 238 2844.328 C 238 2840.462 241.134 2837.328 245 2837.328 Z" fill="#fbebb9"/>
        <path d="M 245 2837.328 L 259.33333 2837.328 C 263.19933 2837.328 266.33333 2840.462 266.33333 2844.328 L 266.33333 2858.328 C 266.33333 2862.194 263.19933 2865.328 259.33333 2865.328 L 245 2865.328 C 241.134 2865.328 238 2862.194 238 2858.328 L 238 2844.328 C 238 2840.462 241.134 2837.328 245 2837.328 Z" stroke="gray" stroke-linecap="round" stroke-linejoin="round" stroke-width="1"/>
        <text transform="translate(244.5269 2842.9974) rotate(1)" fill="black">
          <tspan font-family="Helvetica Neue" font-size="14" fill="black" x="0" y="13">28</tspan>
        </text>
      </g>
      <g id="Graphic_3007">
        <path d="M 188.33333 2781.328 L 202.66667 2781.328 C 206.53266 2781.328 209.66667 2784.462 209.66667 2788.328 L 209.66667 2802.328 C 209.66667 2806.194 206.53266 2809.328 202.66667 2809.328 L 188.33333 2809.328 C 184.46734 2809.328 181.33333 2806.194 181.33333 2802.328 L 181.33333 2788.328 C 181.33333 2784.462 184.46734 2781.328 188.33333 2781.328 Z" fill="#fbebb9"/>
        <path d="M 188.33333 2781.328 L 202.66667 2781.328 C 206.53266 2781.328 209.66667 2784.462 209.66667 2788.328 L 209.66667 2802.328 C 209.66667 2806.194 206.53266 2809.328 202.66667 2809.328 L 188.33333 2809.328 C 184.46734 2809.328 181.33333 2806.194 181.33333 2802.328 L 181.33333 2788.328 C 181.33333 2784.462 184.46734 2781.328 188.33333 2781.328 Z" stroke="gray" stroke-linecap="round" stroke-linejoin="round" stroke-width="1"/>
        <text transform="translate(191.75163 2787.0653) rotate(1)" fill="black">
          <tspan font-family="Helvetica Neue" font-size="14" fill="black" x="0" y="13">9</tspan>
        </text>
      </g>
      <g id="Graphic_3006">
        <path d="M 301.66667 2753.328 L 316 2753.328 C 319.866 2753.328 323 2756.462 323 2760.328 L 323 2774.328 C 323 2778.194 319.866 2781.328 316 2781.328 L 301.66667 2781.328 C 297.80067 2781.328 294.66667 2778.194 294.66667 2774.328 L 294.66667 2760.328 C 294.66667 2756.462 297.80067 2753.328 301.66667 2753.328 Z" fill="#fbebb9"/>
        <path d="M 301.66667 2753.328 L 316 2753.328 C 319.866 2753.328 323 2756.462 323 2760.328 L 323 2774.328 C 323 2778.194 319.866 2781.328 316 2781.328 L 301.66667 2781.328 C 297.80067 2781.328 294.66667 2778.194 294.66667 2774.328 L 294.66667 2760.328 C 294.66667 2756.462 297.80067 2753.328 301.66667 2753.328 Z" stroke="gray" stroke-linecap="round" stroke-linejoin="round" stroke-width="1"/>
        <text transform="translate(305.08497 2759.0653) rotate(1)" fill="black">
          <tspan font-family="Helvetica Neue" font-size="14" fill="black" x="0" y="13">7</tspan>
        </text>
      </g>
      <g id="Graphic_3004">
        <path d="M 160 2753.328 L 174.33333 2753.328 C 178.19933 2753.328 181.33333 2756.462 181.33333 2760.328 L 181.33333 2774.328 C 181.33333 2778.194 178.19933 2781.328 174.33333 2781.328 L 160 2781.328 C 156.134 2781.328 153 2778.194 153 2774.328 L 153 2760.328 C 153 2756.462 156.134 2753.328 160 2753.328 Z" fill="#fbebb9"/>
        <path d="M 160 2753.328 L 174.33333 2753.328 C 178.19933 2753.328 181.33333 2756.462 181.33333 2760.328 L 181.33333 2774.328 C 181.33333 2778.194 178.19933 2781.328 174.33333 2781.328 L 160 2781.328 C 156.134 2781.328 153 2778.194 153 2774.328 L 153 2760.328 C 153 2756.462 156.134 2753.328 160 2753.328 Z" stroke="gray" stroke-linecap="round" stroke-linejoin="round" stroke-width="1"/>
        <text transform="translate(163.4183 2759.0653) rotate(1)" fill="black">
          <tspan font-family="Helvetica Neue" font-size="14" fill="black" x="0" y="13">2</tspan>
        </text>
      </g>
      <g id="Graphic_3003">
        <path d="M 273.33333 2837.328 L 287.66667 2837.328 C 291.53266 2837.328 294.66667 2840.462 294.66667 2844.328 L 294.66667 2858.328 C 294.66667 2862.194 291.53266 2865.328 287.66667 2865.328 L 273.33333 2865.328 C 269.46734 2865.328 266.33333 2862.194 266.33333 2858.328 L 266.33333 2844.328 C 266.33333 2840.462 269.46734 2837.328 273.33333 2837.328 Z" fill="#fbebb9"/>
        <path d="M 273.33333 2837.328 L 287.66667 2837.328 C 291.53266 2837.328 294.66667 2840.462 294.66667 2844.328 L 294.66667 2858.328 C 294.66667 2862.194 291.53266 2865.328 287.66667 2865.328 L 273.33333 2865.328 C 269.46734 2865.328 266.33333 2862.194 266.33333 2858.328 L 266.33333 2844.328 C 266.33333 2840.462 269.46734 2837.328 273.33333 2837.328 Z" stroke="gray" stroke-linecap="round" stroke-linejoin="round" stroke-width="1"/>
        <text transform="translate(272.86023 2842.9974) rotate(1)" fill="black">
          <tspan font-family="Helvetica Neue" font-size="14" fill="black" x="0" y="13">29</tspan>
        </text>
      </g>
      <g id="Graphic_3001">
        <path d="M 216.66667 2753.328 L 231 2753.328 C 234.866 2753.328 238 2756.462 238 2760.328 L 238 2774.328 C 238 2778.194 234.866 2781.328 231 2781.328 L 216.66667 2781.328 C 212.80067 2781.328 209.66667 2778.194 209.66667 2774.328 L 209.66667 2760.328 C 209.66667 2756.462 212.80067 2753.328 216.66667 2753.328 Z" fill="#fbebb9"/>
        <path d="M 216.66667 2753.328 L 231 2753.328 C 234.866 2753.328 238 2756.462 238 2760.328 L 238 2774.328 C 238 2778.194 234.866 2781.328 231 2781.328 L 216.66667 2781.328 C 212.80067 2781.328 209.66667 2778.194 209.66667 2774.328 L 209.66667 2760.328 C 209.66667 2756.462 212.80067 2753.328 216.66667 2753.328 Z" stroke="gray" stroke-linecap="round" stroke-linejoin="round" stroke-width="1"/>
        <text transform="translate(220.08497 2759.0653) rotate(1)" fill="black">
          <tspan font-family="Helvetica Neue" font-size="14" fill="black" x="0" y="13">4</tspan>
        </text>
      </g>
      <g id="Graphic_3000">
        <path d="M 188.33333 2753.328 L 202.66667 2753.328 C 206.53266 2753.328 209.66667 2756.462 209.66667 2760.328 L 209.66667 2774.328 C 209.66667 2778.194 206.53266 2781.328 202.66667 2781.328 L 188.33333 2781.328 C 184.46734 2781.328 181.33333 2778.194 181.33333 2774.328 L 181.33333 2760.328 C 181.33333 2756.462 184.46734 2753.328 188.33333 2753.328 Z" fill="#fbebb9"/>
        <path d="M 188.33333 2753.328 L 202.66667 2753.328 C 206.53266 2753.328 209.66667 2756.462 209.66667 2760.328 L 209.66667 2774.328 C 209.66667 2778.194 206.53266 2781.328 202.66667 2781.328 L 188.33333 2781.328 C 184.46734 2781.328 181.33333 2778.194 181.33333 2774.328 L 181.33333 2760.328 C 181.33333 2756.462 184.46734 2753.328 188.33333 2753.328 Z" stroke="gray" stroke-linecap="round" stroke-linejoin="round" stroke-width="1"/>
        <text transform="translate(191.75163 2759.0653) rotate(1)" fill="black">
          <tspan font-family="Helvetica Neue" font-size="14" fill="black" x="0" y="13">3</tspan>
        </text>
      </g>
      <g id="Graphic_2999">
        <path d="M 160 2837.328 L 174.33333 2837.328 C 178.19933 2837.328 181.33333 2840.462 181.33333 2844.328 L 181.33333 2858.328 C 181.33333 2862.194 178.19933 2865.328 174.33333 2865.328 L 160 2865.328 C 156.134 2865.328 153 2862.194 153 2858.328 L 153 2844.328 C 153 2840.462 156.134 2837.328 160 2837.328 Z" fill="#fbebb9"/>
        <path d="M 160 2837.328 L 174.33333 2837.328 C 178.19933 2837.328 181.33333 2840.462 181.33333 2844.328 L 181.33333 2858.328 C 181.33333 2862.194 178.19933 2865.328 174.33333 2865.328 L 160 2865.328 C 156.134 2865.328 153 2862.194 153 2858.328 L 153 2844.328 C 153 2840.462 156.134 2837.328 160 2837.328 Z" stroke="gray" stroke-linecap="round" stroke-linejoin="round" stroke-width="1"/>
        <text transform="translate(159.5269 2842.9974) rotate(1)" fill="black">
          <tspan font-family="Helvetica Neue" font-size="14" fill="black" x="0" y="13">23</tspan>
        </text>
      </g>
      <g id="Graphic_2998">
        <path d="M 273.33333 2781.328 L 287.66667 2781.328 C 291.53266 2781.328 294.66667 2784.462 294.66667 2788.328 L 294.66667 2802.328 C 294.66667 2806.194 291.53266 2809.328 287.66667 2809.328 L 273.33333 2809.328 C 269.46734 2809.328 266.33333 2806.194 266.33333 2802.328 L 266.33333 2788.328 C 266.33333 2784.462 269.46734 2781.328 273.33333 2781.328 Z" fill="#fbebb9"/>
        <path d="M 273.33333 2781.328 L 287.66667 2781.328 C 291.53266 2781.328 294.66667 2784.462 294.66667 2788.328 L 294.66667 2802.328 C 294.66667 2806.194 291.53266 2809.328 287.66667 2809.328 L 273.33333 2809.328 C 269.46734 2809.328 266.33333 2806.194 266.33333 2802.328 L 266.33333 2788.328 C 266.33333 2784.462 269.46734 2781.328 273.33333 2781.328 Z" stroke="gray" stroke-linecap="round" stroke-linejoin="round" stroke-width="1"/>
        <text transform="translate(272.86023 2786.9974) rotate(1)" fill="black">
          <tspan font-family="Helvetica Neue" font-size="14" fill="black" x="0" y="13">12</tspan>
        </text>
      </g>
      <g id="Graphic_2997">
        <path d="M 160 2781.328 L 174.33333 2781.328 C 178.19933 2781.328 181.33333 2784.462 181.33333 2788.328 L 181.33333 2802.328 C 181.33333 2806.194 178.19933 2809.328 174.33333 2809.328 L 160 2809.328 C 156.134 2809.328 153 2806.194 153 2802.328 L 153 2788.328 C 153 2784.462 156.134 2781.328 160 2781.328 Z" fill="#fbebb9"/>
        <path d="M 160 2781.328 L 174.33333 2781.328 C 178.19933 2781.328 181.33333 2784.462 181.33333 2788.328 L 181.33333 2802.328 C 181.33333 2806.194 178.19933 2809.328 174.33333 2809.328 L 160 2809.328 C 156.134 2809.328 153 2806.194 153 2802.328 L 153 2788.328 C 153 2784.462 156.134 2781.328 160 2781.328 Z" stroke="gray" stroke-linecap="round" stroke-linejoin="round" stroke-width="1"/>
        <text transform="translate(163.4183 2787.0653) rotate(1)" fill="black">
          <tspan font-family="Helvetica Neue" font-size="14" fill="black" x="0" y="13">8</tspan>
        </text>
      </g>
      <g id="Graphic_2995">
        <path d="M 301.66667 2837.328 L 316 2837.328 C 319.866 2837.328 323 2840.462 323 2844.328 L 323 2858.328 C 323 2862.194 319.866 2865.328 316 2865.328 L 301.66667 2865.328 C 297.80067 2865.328 294.66667 2862.194 294.66667 2858.328 L 294.66667 2844.328 C 294.66667 2840.462 297.80067 2837.328 301.66667 2837.328 Z" fill="#fbebb9"/>
        <path d="M 301.66667 2837.328 L 316 2837.328 C 319.866 2837.328 323 2840.462 323 2844.328 L 323 2858.328 C 323 2862.194 319.866 2865.328 316 2865.328 L 301.66667 2865.328 C 297.80067 2865.328 294.66667 2862.194 294.66667 2858.328 L 294.66667 2844.328 C 294.66667 2840.462 297.80067 2837.328 301.66667 2837.328 Z" stroke="gray" stroke-linecap="round" stroke-linejoin="round" stroke-width="1"/>
        <text transform="translate(301.19356 2842.9974) rotate(1)" fill="black">
          <tspan font-family="Helvetica Neue" font-size="14" fill="black" x="0" y="13">30</tspan>
        </text>
      </g>
      <g id="Graphic_2994">
        <path d="M 245 2809.328 L 259.33333 2809.328 C 263.19933 2809.328 266.33333 2812.462 266.33333 2816.328 L 266.33333 2830.328 C 266.33333 2834.194 263.19933 2837.328 259.33333 2837.328 L 245 2837.328 C 241.134 2837.328 238 2834.194 238 2830.328 L 238 2816.328 C 238 2812.462 241.134 2809.328 245 2809.328 Z" fill="#fbebb9"/>
        <path d="M 245 2809.328 L 259.33333 2809.328 C 263.19933 2809.328 266.33333 2812.462 266.33333 2816.328 L 266.33333 2830.328 C 266.33333 2834.194 263.19933 2837.328 259.33333 2837.328 L 245 2837.328 C 241.134 2837.328 238 2834.194 238 2830.328 L 238 2816.328 C 238 2812.462 241.134 2809.328 245 2809.328 Z" stroke="gray" stroke-linecap="round" stroke-linejoin="round" stroke-width="1"/>
        <text transform="translate(244.5269 2814.9974) rotate(1)" fill="black">
          <tspan font-family="Helvetica Neue" font-size="14" fill="black" x="0" y="13">19</tspan>
        </text>
      </g>
      <g id="Graphic_2993">
        <path d="M 216.66667 2781.328 L 231 2781.328 C 234.866 2781.328 238 2784.462 238 2788.328 L 238 2802.328 C 238 2806.194 234.866 2809.328 231 2809.328 L 216.66667 2809.328 C 212.80067 2809.328 209.66667 2806.194 209.66667 2802.328 L 209.66667 2788.328 C 209.66667 2784.462 212.80067 2781.328 216.66667 2781.328 Z" fill="#fbebb9"/>
        <path d="M 216.66667 2781.328 L 231 2781.328 C 234.866 2781.328 238 2784.462 238 2788.328 L 238 2802.328 C 238 2806.194 234.866 2809.328 231 2809.328 L 216.66667 2809.328 C 212.80067 2809.328 209.66667 2806.194 209.66667 2802.328 L 209.66667 2788.328 C 209.66667 2784.462 212.80067 2781.328 216.66667 2781.328 Z" stroke="gray" stroke-linecap="round" stroke-linejoin="round" stroke-width="1"/>
        <text transform="translate(216.19356 2786.9974) rotate(1)" fill="black">
          <tspan font-family="Helvetica Neue" font-size="14" fill="black" x="0" y="13">10</tspan>
        </text>
      </g>
      <g id="Graphic_2992">
        <path d="M 245 2753.328 L 259.33333 2753.328 C 263.19933 2753.328 266.33333 2756.462 266.33333 2760.328 L 266.33333 2774.328 C 266.33333 2778.194 263.19933 2781.328 259.33333 2781.328 L 245 2781.328 C 241.134 2781.328 238 2778.194 238 2774.328 L 238 2760.328 C 238 2756.462 241.134 2753.328 245 2753.328 Z" fill="#fbebb9"/>
        <path d="M 245 2753.328 L 259.33333 2753.328 C 263.19933 2753.328 266.33333 2756.462 266.33333 2760.328 L 266.33333 2774.328 C 266.33333 2778.194 263.19933 2781.328 259.33333 2781.328 L 245 2781.328 C 241.134 2781.328 238 2778.194 238 2774.328 L 238 2760.328 C 238 2756.462 241.134 2753.328 245 2753.328 Z" stroke="gray" stroke-linecap="round" stroke-linejoin="round" stroke-width="1"/>
        <text transform="translate(248.4183 2759.0653) rotate(1)" fill="black">
          <tspan font-family="Helvetica Neue" font-size="14" fill="black" x="0" y="13">5</tspan>
        </text>
      </g>
      <g id="Graphic_2990">
        <path d="M 188.33333 2837.328 L 202.66667 2837.328 C 206.53266 2837.328 209.66667 2840.462 209.66667 2844.328 L 209.66667 2858.328 C 209.66667 2862.194 206.53266 2865.328 202.66667 2865.328 L 188.33333 2865.328 C 184.46734 2865.328 181.33333 2862.194 181.33333 2858.328 L 181.33333 2844.328 C 181.33333 2840.462 184.46734 2837.328 188.33333 2837.328 Z" fill="#fbebb9"/>
        <path d="M 188.33333 2837.328 L 202.66667 2837.328 C 206.53266 2837.328 209.66667 2840.462 209.66667 2844.328 L 209.66667 2858.328 C 209.66667 2862.194 206.53266 2865.328 202.66667 2865.328 L 188.33333 2865.328 C 184.46734 2865.328 181.33333 2862.194 181.33333 2858.328 L 181.33333 2844.328 C 181.33333 2840.462 184.46734 2837.328 188.33333 2837.328 Z" stroke="gray" stroke-linecap="round" stroke-linejoin="round" stroke-width="1"/>
        <text transform="translate(187.86023 2842.9974) rotate(1)" fill="black">
          <tspan font-family="Helvetica Neue" font-size="14" fill="black" x="0" y="13">24</tspan>
        </text>
      </g>
      <g id="Graphic_2989">
        <path d="M 301.66667 2781.328 L 316 2781.328 C 319.866 2781.328 323 2784.462 323 2788.328 L 323 2802.328 C 323 2806.194 319.866 2809.328 316 2809.328 L 301.66667 2809.328 C 297.80067 2809.328 294.66667 2806.194 294.66667 2802.328 L 294.66667 2788.328 C 294.66667 2784.462 297.80067 2781.328 301.66667 2781.328 Z" fill="#fbebb9"/>
        <path d="M 301.66667 2781.328 L 316 2781.328 C 319.866 2781.328 323 2784.462 323 2788.328 L 323 2802.328 C 323 2806.194 319.866 2809.328 316 2809.328 L 301.66667 2809.328 C 297.80067 2809.328 294.66667 2806.194 294.66667 2802.328 L 294.66667 2788.328 C 294.66667 2784.462 297.80067 2781.328 301.66667 2781.328 Z" stroke="gray" stroke-linecap="round" stroke-linejoin="round" stroke-width="1"/>
        <text transform="translate(301.19356 2786.9974) rotate(1)" fill="black">
          <tspan font-family="Helvetica Neue" font-size="14" fill="black" x="0" y="13">13</tspan>
        </text>
      </g>
      <g id="Graphic_2988">
        <path d="M 160 2809.328 L 174.33333 2809.328 C 178.19933 2809.328 181.33333 2812.462 181.33333 2816.328 L 181.33333 2830.328 C 181.33333 2834.194 178.19933 2837.328 174.33333 2837.328 L 160 2837.328 C 156.134 2837.328 153 2834.194 153 2830.328 L 153 2816.328 C 153 2812.462 156.134 2809.328 160 2809.328 Z" fill="#fbebb9"/>
        <path d="M 160 2809.328 L 174.33333 2809.328 C 178.19933 2809.328 181.33333 2812.462 181.33333 2816.328 L 181.33333 2830.328 C 181.33333 2834.194 178.19933 2837.328 174.33333 2837.328 L 160 2837.328 C 156.134 2837.328 153 2834.194 153 2830.328 L 153 2816.328 C 153 2812.462 156.134 2809.328 160 2809.328 Z" stroke="gray" stroke-linecap="round" stroke-linejoin="round" stroke-width="1"/>
        <text transform="translate(159.5269 2814.9974) rotate(1)" fill="black">
          <tspan font-family="Helvetica Neue" font-size="14" fill="black" x="0" y="13">15</tspan>
        </text>
      </g>
      <g id="Graphic_2987">
        <path d="M 216.66667 2809.328 L 231 2809.328 C 234.866 2809.328 238 2812.462 238 2816.328 L 238 2830.328 C 238 2834.194 234.866 2837.328 231 2837.328 L 216.66667 2837.328 C 212.80067 2837.328 209.66667 2834.194 209.66667 2830.328 L 209.66667 2816.328 C 209.66667 2812.462 212.80067 2809.328 216.66667 2809.328 Z" fill="#fbebb9"/>
        <path d="M 216.66667 2809.328 L 231 2809.328 C 234.866 2809.328 238 2812.462 238 2816.328 L 238 2830.328 C 238 2834.194 234.866 2837.328 231 2837.328 L 216.66667 2837.328 C 212.80067 2837.328 209.66667 2834.194 209.66667 2830.328 L 209.66667 2816.328 C 209.66667 2812.462 212.80067 2809.328 216.66667 2809.328 Z" stroke="gray" stroke-linecap="round" stroke-linejoin="round" stroke-width="1"/>
        <text transform="translate(216.19356 2814.9974) rotate(1)" fill="black">
          <tspan font-family="Helvetica Neue" font-size="14" fill="black" x="0" y="13">18</tspan>
        </text>
      </g>
      <g id="Graphic_2986">
        <path d="M 273.33333 2753.328 L 287.66667 2753.328 C 291.53266 2753.328 294.66667 2756.462 294.66667 2760.328 L 294.66667 2774.328 C 294.66667 2778.194 291.53266 2781.328 287.66667 2781.328 L 273.33333 2781.328 C 269.46734 2781.328 266.33333 2778.194 266.33333 2774.328 L 266.33333 2760.328 C 266.33333 2756.462 269.46734 2753.328 273.33333 2753.328 Z" fill="#fbebb9"/>
        <path d="M 273.33333 2753.328 L 287.66667 2753.328 C 291.53266 2753.328 294.66667 2756.462 294.66667 2760.328 L 294.66667 2774.328 C 294.66667 2778.194 291.53266 2781.328 287.66667 2781.328 L 273.33333 2781.328 C 269.46734 2781.328 266.33333 2778.194 266.33333 2774.328 L 266.33333 2760.328 C 266.33333 2756.462 269.46734 2753.328 273.33333 2753.328 Z" stroke="gray" stroke-linecap="round" stroke-linejoin="round" stroke-width="1"/>
        <text transform="translate(276.75163 2759.0653) rotate(1)" fill="black">
          <tspan font-family="Helvetica Neue" font-size="14" fill="black" x="0" y="13">6</tspan>
        </text>
      </g>
      <g id="Graphic_2985">
        <path d="M 245 2781.328 L 259.33333 2781.328 C 263.19933 2781.328 266.33333 2784.462 266.33333 2788.328 L 266.33333 2802.328 C 266.33333 2806.194 263.19933 2809.328 259.33333 2809.328 L 245 2809.328 C 241.134 2809.328 238 2806.194 238 2802.328 L 238 2788.328 C 238 2784.462 241.134 2781.328 245 2781.328 Z" fill="#fbebb9"/>
        <path d="M 245 2781.328 L 259.33333 2781.328 C 263.19933 2781.328 266.33333 2784.462 266.33333 2788.328 L 266.33333 2802.328 C 266.33333 2806.194 263.19933 2809.328 259.33333 2809.328 L 245 2809.328 C 241.134 2809.328 238 2806.194 238 2802.328 L 238 2788.328 C 238 2784.462 241.134 2781.328 245 2781.328 Z" stroke="gray" stroke-linecap="round" stroke-linejoin="round" stroke-width="1"/>
        <text transform="translate(244.5269 2786.9974) rotate(1)" fill="black">
          <tspan font-family="Helvetica Neue" font-size="14" fill="black" x="0" y="13">11</tspan>
        </text>
      </g>
      <g id="Graphic_2976">
        <path d="M 188.33333 2955.328 L 202.66667 2955.328 C 206.53266 2955.328 209.66667 2958.462 209.66667 2962.328 L 209.66667 2976.328 C 209.66667 2980.194 206.53266 2983.328 202.66667 2983.328 L 188.33333 2983.328 C 184.46734 2983.328 181.33333 2980.194 181.33333 2976.328 L 181.33333 2962.328 C 181.33333 2958.462 184.46734 2955.328 188.33333 2955.328 Z" fill="#e5e5ff"/>
        <path d="M 188.33333 2955.328 L 202.66667 2955.328 C 206.53266 2955.328 209.66667 2958.462 209.66667 2962.328 L 209.66667 2976.328 C 209.66667 2980.194 206.53266 2983.328 202.66667 2983.328 L 188.33333 2983.328 C 184.46734 2983.328 181.33333 2980.194 181.33333 2976.328 L 181.33333 2962.328 C 181.33333 2958.462 184.46734 2955.328 188.33333 2955.328 Z" stroke="gray" stroke-linecap="round" stroke-linejoin="round" stroke-width="1"/>
        <text transform="translate(187.86023 2960.9974) rotate(1)" fill="black">
          <tspan font-family="Helvetica Neue" font-size="14" fill="black" x="0" y="13">14</tspan>
        </text>
      </g>
      <g id="Graphic_2975"/>
      <g id="Graphic_2973"/>
      <g id="Graphic_2970"/>
      <g id="Graphic_2969"/>
      <g id="Graphic_2967">
        <path d="M 273.33333 2955.328 L 287.66667 2955.328 C 291.53266 2955.328 294.66667 2958.462 294.66667 2962.328 L 294.66667 2976.328 C 294.66667 2980.194 291.53266 2983.328 287.66667 2983.328 L 273.33333 2983.328 C 269.46734 2983.328 266.33333 2980.194 266.33333 2976.328 L 266.33333 2962.328 C 266.33333 2958.462 269.46734 2955.328 273.33333 2955.328 Z" fill="#e5e5ff"/>
        <path d="M 273.33333 2955.328 L 287.66667 2955.328 C 291.53266 2955.328 294.66667 2958.462 294.66667 2962.328 L 294.66667 2976.328 C 294.66667 2980.194 291.53266 2983.328 287.66667 2983.328 L 273.33333 2983.328 C 269.46734 2983.328 266.33333 2980.194 266.33333 2976.328 L 266.33333 2962.328 C 266.33333 2958.462 269.46734 2955.328 273.33333 2955.328 Z" stroke="gray" stroke-linecap="round" stroke-linejoin="round" stroke-width="1"/>
        <text transform="translate(272.86023 2960.9974) rotate(1)" fill="black">
          <tspan font-family="Helvetica Neue" font-size="14" fill="black" x="0" y="13">25</tspan>
        </text>
      </g>
      <g id="Graphic_2966">
        <path d="M 160 2955.328 L 174.33333 2955.328 C 178.19933 2955.328 181.33333 2958.462 181.33333 2962.328 L 181.33333 2976.328 C 181.33333 2980.194 178.19933 2983.328 174.33333 2983.328 L 160 2983.328 C 156.134 2983.328 153 2980.194 153 2976.328 L 153 2962.328 C 153 2958.462 156.134 2955.328 160 2955.328 Z" fill="#e5e5ff"/>
        <path d="M 160 2955.328 L 174.33333 2955.328 C 178.19933 2955.328 181.33333 2958.462 181.33333 2962.328 L 181.33333 2976.328 C 181.33333 2980.194 178.19933 2983.328 174.33333 2983.328 L 160 2983.328 C 156.134 2983.328 153 2980.194 153 2976.328 L 153 2962.328 C 153 2958.462 156.134 2955.328 160 2955.328 Z" stroke="gray" stroke-linecap="round" stroke-linejoin="round" stroke-width="1"/>
        <text transform="translate(163.4183 2961.0653) rotate(1)" fill="black">
          <tspan font-family="Helvetica Neue" font-size="14" fill="black" x="0" y="13">1</tspan>
        </text>
      </g>
      <g id="Graphic_2962">
        <path d="M 216.66667 2955.328 L 231 2955.328 C 234.866 2955.328 238 2958.462 238 2962.328 L 238 2976.328 C 238 2980.194 234.866 2983.328 231 2983.328 L 216.66667 2983.328 C 212.80067 2983.328 209.66667 2980.194 209.66667 2976.328 L 209.66667 2962.328 C 209.66667 2958.462 212.80067 2955.328 216.66667 2955.328 Z" fill="#e5e5ff"/>
        <path d="M 216.66667 2955.328 L 231 2955.328 C 234.866 2955.328 238 2958.462 238 2962.328 L 238 2976.328 C 238 2980.194 234.866 2983.328 231 2983.328 L 216.66667 2983.328 C 212.80067 2983.328 209.66667 2980.194 209.66667 2976.328 L 209.66667 2962.328 C 209.66667 2958.462 212.80067 2955.328 216.66667 2955.328 Z" stroke="gray" stroke-linecap="round" stroke-linejoin="round" stroke-width="1"/>
        <text transform="translate(216.19356 2960.9974) rotate(1)" fill="black">
          <tspan font-family="Helvetica Neue" font-size="14" fill="black" x="0" y="13">16</tspan>
        </text>
      </g>
      <g id="Graphic_2961"/>
      <g id="Graphic_2958">
        <path d="M 301.66667 2955.328 L 316 2955.328 C 319.866 2955.328 323 2958.462 323 2962.328 L 323 2976.328 C 323 2980.194 319.866 2983.328 316 2983.328 L 301.66667 2983.328 C 297.80067 2983.328 294.66667 2980.194 294.66667 2976.328 L 294.66667 2962.328 C 294.66667 2958.462 297.80067 2955.328 301.66667 2955.328 Z" fill="#e5e5ff"/>
        <path d="M 301.66667 2955.328 L 316 2955.328 C 319.866 2955.328 323 2958.462 323 2962.328 L 323 2976.328 C 323 2980.194 319.866 2983.328 316 2983.328 L 301.66667 2983.328 C 297.80067 2983.328 294.66667 2980.194 294.66667 2976.328 L 294.66667 2962.328 C 294.66667 2958.462 297.80067 2955.328 301.66667 2955.328 Z" stroke="gray" stroke-linecap="round" stroke-linejoin="round" stroke-width="1"/>
        <text transform="translate(301.19356 2960.9974) rotate(1)" fill="black">
          <tspan font-family="Helvetica Neue" font-size="14" fill="black" x="0" y="13">27</tspan>
        </text>
      </g>
      <g id="Graphic_2955"/>
      <g id="Graphic_2954">
        <path d="M 245 2955.328 L 259.33333 2955.328 C 263.19933 2955.328 266.33333 2958.462 266.33333 2962.328 L 266.33333 2976.328 C 266.33333 2980.194 263.19933 2983.328 259.33333 2983.328 L 245 2983.328 C 241.134 2983.328 238 2980.194 238 2976.328 L 238 2962.328 C 238 2958.462 241.134 2955.328 245 2955.328 Z" fill="#e5e5ff"/>
        <path d="M 245 2955.328 L 259.33333 2955.328 C 263.19933 2955.328 266.33333 2958.462 266.33333 2962.328 L 266.33333 2976.328 C 266.33333 2980.194 263.19933 2983.328 259.33333 2983.328 L 245 2983.328 C 241.134 2983.328 238 2980.194 238 2976.328 L 238 2962.328 C 238 2958.462 241.134 2955.328 245 2955.328 Z" stroke="gray" stroke-linecap="round" stroke-linejoin="round" stroke-width="1"/>
        <text transform="translate(244.5269 2960.9974) rotate(1)" fill="black">
          <tspan font-family="Helvetica Neue" font-size="14" fill="black" x="0" y="13">21</tspan>
        </text>
      </g>
      <g id="Graphic_2953">
        <text transform="translate(8.631999 2691.328)" fill="black">
          <tspan font-family="Helvetica Neue" font-size="16" fill="black" x="0" y="15">Iteration 2</tspan>
        </text>
      </g>
      <g id="Graphic_2952">
        <text transform="translate(200.936 2691)" fill="black">
          <tspan font-family="Helvetica Neue" font-size="16" fill="black" x="0" y="15">Iteration 3</tspan>
        </text>
      </g>
    </g>
  </g>
</svg>
