<?xml version="1.0" encoding="UTF-8" standalone="no"?>
<!DOCTYPE svg PUBLIC "-//W3C//DTD SVG 1.1//EN" "http://www.w3.org/Graphics/SVG/1.1/DTD/svg11.dtd">
<svg xmlns:xl="http://www.w3.org/1999/xlink" xmlns:dc="http://purl.org/dc/elements/1.1/" xmlns="http://www.w3.org/2000/svg" version="1.1" viewBox="-123.5 3803.272 694.65 357.328" width="694.65" height="357.328">
  <defs/>
  <g id="Canvas_1" stroke-opacity="1" fill-opacity="1" stroke="none" stroke-dasharray="none" fill="none">
    <title>Canvas 1</title>
    <g id="Canvas_1_Layer_1">
      <title>Layer 1</title>
      <g id="Graphic_1849">
        <text transform="translate(-97.5 3903.496)" fill="black">
          <tspan font-family="Helvetica Neue" font-size="16" fill="black" x="4.512" y="15">Model Fit </tspan>
          <tspan font-family="Helvetica Neue" font-size="16" fill="black" x="17.408" y="33.448">Using</tspan>
        </text>
      </g>
      <g id="Graphic_1848">
        <text transform="translate(-118.5 4032.076)" fill="black">
          <tspan font-family="Helvetica Neue" font-size="16" fill="black" x="17.38" y="15">Estimate </tspan>
          <tspan font-family="Helvetica Neue" font-size="16" fill="black" x="2.572" y="33.448">Performance </tspan>
          <tspan font-family="Helvetica Neue" font-size="16" fill="black" x="27.908" y="51.895996">Using</tspan>
        </text>
      </g>
      <g id="Graphic_1847">
        <text transform="translate(63.828 3808.928)" fill="black">
          <tspan font-family="Helvetica Neue" font-size="16" fill="black" x="0" y="15">Iteration 1</tspan>
        </text>
      </g>
      <g id="Line_1846">
        <line x1="15.5" y1="3841.6" x2="185.5" y2="3841.6" stroke="black" stroke-linecap="round" stroke-linejoin="round" stroke-width="1.3"/>
      </g>
      <g id="Line_1845">
        <line x1="-5.5" y1="3998.496" x2="-5.5" y2="3858.496" stroke="black" stroke-linecap="round" stroke-linejoin="round" stroke-width="1.3"/>
      </g>
      <g id="Line_1844">
        <line x1="-4.5" y1="4102" x2="-5.5" y2="4017.496" stroke="black" stroke-linecap="round" stroke-linejoin="round" stroke-width="1.3"/>
      </g>
      <g id="Graphic_1843">
        <path d="M 50.833333 3914.6 L 65.16667 3914.6 C 69.03266 3914.6 72.16667 3917.734 72.16667 3921.6 L 72.16667 3935.6 C 72.16667 3939.466 69.03266 3942.6 65.16667 3942.6 L 50.833333 3942.6 C 46.96734 3942.6 43.833333 3939.466 43.833333 3935.6 L 43.833333 3921.6 C 43.833333 3917.734 46.96734 3914.6 50.833333 3914.6 Z" fill="#ffeaba"/>
        <path d="M 50.833333 3914.6 L 65.16667 3914.6 C 69.03266 3914.6 72.16667 3917.734 72.16667 3921.6 L 72.16667 3935.6 C 72.16667 3939.466 69.03266 3942.6 65.16667 3942.6 L 50.833333 3942.6 C 46.96734 3942.6 43.833333 3939.466 43.833333 3935.6 L 43.833333 3921.6 C 43.833333 3917.734 46.96734 3914.6 50.833333 3914.6 Z" stroke="gray" stroke-linecap="round" stroke-linejoin="round" stroke-width="1"/>
        <text transform="translate(50.360226 3920.2694) rotate(1)" fill="black">
          <tspan font-family="Helvetica Neue" font-size="14" fill="black" x="0" y="13">19</tspan>
        </text>
      </g>
      <g id="Graphic_1842">
        <path d="M 164.16667 3914.6 L 178.5 3914.6 C 182.366 3914.6 185.5 3917.734 185.5 3921.6 L 185.5 3935.6 C 185.5 3939.466 182.366 3942.6 178.5 3942.6 L 164.16667 3942.6 C 160.30067 3942.6 157.16667 3939.466 157.16667 3935.6 L 157.16667 3921.6 C 157.16667 3917.734 160.30067 3914.6 164.16667 3914.6 Z" fill="#ffeaba"/>
        <path d="M 164.16667 3914.6 L 178.5 3914.6 C 182.366 3914.6 185.5 3917.734 185.5 3921.6 L 185.5 3935.6 C 185.5 3939.466 182.366 3942.6 178.5 3942.6 L 164.16667 3942.6 C 160.30067 3942.6 157.16667 3939.466 157.16667 3935.6 L 157.16667 3921.6 C 157.16667 3917.734 160.30067 3914.6 164.16667 3914.6 Z" stroke="gray" stroke-linecap="round" stroke-linejoin="round" stroke-width="1"/>
        <text transform="translate(163.69356 3920.2694) rotate(1)" fill="black">
          <tspan font-family="Helvetica Neue" font-size="14" fill="black" x="0" y="13">24</tspan>
        </text>
      </g>
      <g id="Graphic_1840">
        <path d="M 135.83333 3914.6 L 150.16667 3914.6 C 154.03266 3914.6 157.16667 3917.734 157.16667 3921.6 L 157.16667 3935.6 C 157.16667 3939.466 154.03266 3942.6 150.16667 3942.6 L 135.83333 3942.6 C 131.96734 3942.6 128.83333 3939.466 128.83333 3935.6 L 128.83333 3921.6 C 128.83333 3917.734 131.96734 3914.6 135.83333 3914.6 Z" fill="#ffeaba"/>
        <path d="M 135.83333 3914.6 L 150.16667 3914.6 C 154.03266 3914.6 157.16667 3917.734 157.16667 3921.6 L 157.16667 3935.6 C 157.16667 3939.466 154.03266 3942.6 150.16667 3942.6 L 135.83333 3942.6 C 131.96734 3942.6 128.83333 3939.466 128.83333 3935.6 L 128.83333 3921.6 C 128.83333 3917.734 131.96734 3914.6 135.83333 3914.6 Z" stroke="gray" stroke-linecap="round" stroke-linejoin="round" stroke-width="1"/>
        <text transform="translate(135.36023 3920.2694) rotate(1)" fill="black">
          <tspan font-family="Helvetica Neue" font-size="14" fill="black" x="0" y="13">22</tspan>
        </text>
      </g>
      <g id="Graphic_1839">
        <path d="M 79.16667 3942.6 L 93.5 3942.6 C 97.36599 3942.6 100.5 3945.734 100.5 3949.6 L 100.5 3963.6 C 100.5 3967.466 97.36599 3970.6 93.5 3970.6 L 79.16667 3970.6 C 75.30067 3970.6 72.16667 3967.466 72.16667 3963.6 L 72.16667 3949.6 C 72.16667 3945.734 75.30067 3942.6 79.16667 3942.6 Z" fill="#ffeaba"/>
        <path d="M 79.16667 3942.6 L 93.5 3942.6 C 97.36599 3942.6 100.5 3945.734 100.5 3949.6 L 100.5 3963.6 C 100.5 3967.466 97.36599 3970.6 93.5 3970.6 L 79.16667 3970.6 C 75.30067 3970.6 72.16667 3967.466 72.16667 3963.6 L 72.16667 3949.6 C 72.16667 3945.734 75.30067 3942.6 79.16667 3942.6 Z" stroke="gray" stroke-linecap="round" stroke-linejoin="round" stroke-width="1"/>
        <text transform="translate(78.69356 3948.2694) rotate(1)" fill="black">
          <tspan font-family="Helvetica Neue" font-size="14" fill="black" x="0" y="13">27</tspan>
        </text>
      </g>
      <g id="Graphic_1837">
        <path d="M 107.5 3942.6 L 121.83333 3942.6 C 125.69933 3942.6 128.83333 3945.734 128.83333 3949.6 L 128.83333 3963.6 C 128.83333 3967.466 125.69933 3970.6 121.83333 3970.6 L 107.5 3970.6 C 103.63401 3970.6 100.5 3967.466 100.5 3963.6 L 100.5 3949.6 C 100.5 3945.734 103.63401 3942.6 107.5 3942.6 Z" fill="#ffeaba"/>
        <path d="M 107.5 3942.6 L 121.83333 3942.6 C 125.69933 3942.6 128.83333 3945.734 128.83333 3949.6 L 128.83333 3963.6 C 128.83333 3967.466 125.69933 3970.6 121.83333 3970.6 L 107.5 3970.6 C 103.63401 3970.6 100.5 3967.466 100.5 3963.6 L 100.5 3949.6 C 100.5 3945.734 103.63401 3942.6 107.5 3942.6 Z" stroke="gray" stroke-linecap="round" stroke-linejoin="round" stroke-width="1"/>
        <text transform="translate(107.02689 3948.2694) rotate(1)" fill="black">
          <tspan font-family="Helvetica Neue" font-size="14" fill="black" x="0" y="13">28</tspan>
        </text>
      </g>
      <g id="Graphic_1836">
        <path d="M 50.833333 3886.6 L 65.16667 3886.6 C 69.03266 3886.6 72.16667 3889.734 72.16667 3893.6 L 72.16667 3907.6 C 72.16667 3911.466 69.03266 3914.6 65.16667 3914.6 L 50.833333 3914.6 C 46.96734 3914.6 43.833333 3911.466 43.833333 3907.6 L 43.833333 3893.6 C 43.833333 3889.734 46.96734 3886.6 50.833333 3886.6 Z" fill="#ffeaba"/>
        <path d="M 50.833333 3886.6 L 65.16667 3886.6 C 69.03266 3886.6 72.16667 3889.734 72.16667 3893.6 L 72.16667 3907.6 C 72.16667 3911.466 69.03266 3914.6 65.16667 3914.6 L 50.833333 3914.6 C 46.96734 3914.6 43.833333 3911.466 43.833333 3907.6 L 43.833333 3893.6 C 43.833333 3889.734 46.96734 3886.6 50.833333 3886.6 Z" stroke="gray" stroke-linecap="round" stroke-linejoin="round" stroke-width="1"/>
        <text transform="translate(54.25163 3892.3374) rotate(1)" fill="black">
          <tspan font-family="Helvetica Neue" font-size="14" fill="black" x="0" y="13">9</tspan>
        </text>
      </g>
      <g id="Graphic_1835">
        <path d="M 164.16667 3858.6 L 178.5 3858.6 C 182.366 3858.6 185.5 3861.734 185.5 3865.6 L 185.5 3879.6 C 185.5 3883.466 182.366 3886.6 178.5 3886.6 L 164.16667 3886.6 C 160.30067 3886.6 157.16667 3883.466 157.16667 3879.6 L 157.16667 3865.6 C 157.16667 3861.734 160.30067 3858.6 164.16667 3858.6 Z" fill="#ffeaba"/>
        <path d="M 164.16667 3858.6 L 178.5 3858.6 C 182.366 3858.6 185.5 3861.734 185.5 3865.6 L 185.5 3879.6 C 185.5 3883.466 182.366 3886.6 178.5 3886.6 L 164.16667 3886.6 C 160.30067 3886.6 157.16667 3883.466 157.16667 3879.6 L 157.16667 3865.6 C 157.16667 3861.734 160.30067 3858.6 164.16667 3858.6 Z" stroke="gray" stroke-linecap="round" stroke-linejoin="round" stroke-width="1"/>
        <text transform="translate(167.58497 3864.3374) rotate(1)" fill="black">
          <tspan font-family="Helvetica Neue" font-size="14" fill="black" x="0" y="13">7</tspan>
        </text>
      </g>
      <g id="Graphic_1833">
        <path d="M 22.5 3858.6 L 36.833333 3858.6 C 40.699327 3858.6 43.833333 3861.734 43.833333 3865.6 L 43.833333 3879.6 C 43.833333 3883.466 40.699327 3886.6 36.833333 3886.6 L 22.5 3886.6 C 18.634007 3886.6 15.5 3883.466 15.5 3879.6 L 15.5 3865.6 C 15.5 3861.734 18.634007 3858.6 22.5 3858.6 Z" fill="#ffeaba"/>
        <path d="M 22.5 3858.6 L 36.833333 3858.6 C 40.699327 3858.6 43.833333 3861.734 43.833333 3865.6 L 43.833333 3879.6 C 43.833333 3883.466 40.699327 3886.6 36.833333 3886.6 L 22.5 3886.6 C 18.634007 3886.6 15.5 3883.466 15.5 3879.6 L 15.5 3865.6 C 15.5 3861.734 18.634007 3858.6 22.5 3858.6 Z" stroke="gray" stroke-linecap="round" stroke-linejoin="round" stroke-width="1"/>
        <text transform="translate(25.9183 3864.3374) rotate(1)" fill="black">
          <tspan font-family="Helvetica Neue" font-size="14" fill="black" x="0" y="13">1</tspan>
        </text>
      </g>
      <g id="Graphic_1832">
        <path d="M 135.83333 3942.6 L 150.16667 3942.6 C 154.03266 3942.6 157.16667 3945.734 157.16667 3949.6 L 157.16667 3963.6 C 157.16667 3967.466 154.03266 3970.6 150.16667 3970.6 L 135.83333 3970.6 C 131.96734 3970.6 128.83333 3967.466 128.83333 3963.6 L 128.83333 3949.6 C 128.83333 3945.734 131.96734 3942.6 135.83333 3942.6 Z" fill="#ffeaba"/>
        <path d="M 135.83333 3942.6 L 150.16667 3942.6 C 154.03266 3942.6 157.16667 3945.734 157.16667 3949.6 L 157.16667 3963.6 C 157.16667 3967.466 154.03266 3970.6 150.16667 3970.6 L 135.83333 3970.6 C 131.96734 3970.6 128.83333 3967.466 128.83333 3963.6 L 128.83333 3949.6 C 128.83333 3945.734 131.96734 3942.6 135.83333 3942.6 Z" stroke="gray" stroke-linecap="round" stroke-linejoin="round" stroke-width="1"/>
        <text transform="translate(135.36023 3948.2694) rotate(1)" fill="black">
          <tspan font-family="Helvetica Neue" font-size="14" fill="black" x="0" y="13">29</tspan>
        </text>
      </g>
      <g id="Graphic_1830">
        <path d="M 79.16667 3858.6 L 93.5 3858.6 C 97.36599 3858.6 100.5 3861.734 100.5 3865.6 L 100.5 3879.6 C 100.5 3883.466 97.36599 3886.6 93.5 3886.6 L 79.16667 3886.6 C 75.30067 3886.6 72.16667 3883.466 72.16667 3879.6 L 72.16667 3865.6 C 72.16667 3861.734 75.30067 3858.6 79.16667 3858.6 Z" fill="#ffeaba"/>
        <path d="M 79.16667 3858.6 L 93.5 3858.6 C 97.36599 3858.6 100.5 3861.734 100.5 3865.6 L 100.5 3879.6 C 100.5 3883.466 97.36599 3886.6 93.5 3886.6 L 79.16667 3886.6 C 75.30067 3886.6 72.16667 3883.466 72.16667 3879.6 L 72.16667 3865.6 C 72.16667 3861.734 75.30067 3858.6 79.16667 3858.6 Z" stroke="gray" stroke-linecap="round" stroke-linejoin="round" stroke-width="1"/>
        <text transform="translate(82.58497 3864.3374) rotate(1)" fill="black">
          <tspan font-family="Helvetica Neue" font-size="14" fill="black" x="0" y="13">3</tspan>
        </text>
      </g>
      <g id="Graphic_1829">
        <path d="M 50.833333 3858.6 L 65.16667 3858.6 C 69.03266 3858.6 72.16667 3861.734 72.16667 3865.6 L 72.16667 3879.6 C 72.16667 3883.466 69.03266 3886.6 65.16667 3886.6 L 50.833333 3886.6 C 46.96734 3886.6 43.833333 3883.466 43.833333 3879.6 L 43.833333 3865.6 C 43.833333 3861.734 46.96734 3858.6 50.833333 3858.6 Z" fill="#ffeaba"/>
        <path d="M 50.833333 3858.6 L 65.16667 3858.6 C 69.03266 3858.6 72.16667 3861.734 72.16667 3865.6 L 72.16667 3879.6 C 72.16667 3883.466 69.03266 3886.6 65.16667 3886.6 L 50.833333 3886.6 C 46.96734 3886.6 43.833333 3883.466 43.833333 3879.6 L 43.833333 3865.6 C 43.833333 3861.734 46.96734 3858.6 50.833333 3858.6 Z" stroke="gray" stroke-linecap="round" stroke-linejoin="round" stroke-width="1"/>
        <text transform="translate(54.25163 3864.3374) rotate(1)" fill="black">
          <tspan font-family="Helvetica Neue" font-size="14" fill="black" x="0" y="13">2</tspan>
        </text>
      </g>
      <g id="Graphic_1828">
        <path d="M 22.5 3942.6 L 36.833333 3942.6 C 40.699327 3942.6 43.833333 3945.734 43.833333 3949.6 L 43.833333 3963.6 C 43.833333 3967.466 40.699327 3970.6 36.833333 3970.6 L 22.5 3970.6 C 18.634007 3970.6 15.5 3967.466 15.5 3963.6 L 15.5 3949.6 C 15.5 3945.734 18.634007 3942.6 22.5 3942.6 Z" fill="#ffeaba"/>
        <path d="M 22.5 3942.6 L 36.833333 3942.6 C 40.699327 3942.6 43.833333 3945.734 43.833333 3949.6 L 43.833333 3963.6 C 43.833333 3967.466 40.699327 3970.6 36.833333 3970.6 L 22.5 3970.6 C 18.634007 3970.6 15.5 3967.466 15.5 3963.6 L 15.5 3949.6 C 15.5 3945.734 18.634007 3942.6 22.5 3942.6 Z" stroke="gray" stroke-linecap="round" stroke-linejoin="round" stroke-width="1"/>
        <text transform="translate(22.026892 3948.2694) rotate(1)" fill="black">
          <tspan font-family="Helvetica Neue" font-size="14" fill="black" x="0" y="13">25</tspan>
        </text>
      </g>
      <g id="Graphic_1827">
        <path d="M 135.83333 3886.6 L 150.16667 3886.6 C 154.03266 3886.6 157.16667 3889.734 157.16667 3893.6 L 157.16667 3907.6 C 157.16667 3911.466 154.03266 3914.6 150.16667 3914.6 L 135.83333 3914.6 C 131.96734 3914.6 128.83333 3911.466 128.83333 3907.6 L 128.83333 3893.6 C 128.83333 3889.734 131.96734 3886.6 135.83333 3886.6 Z" fill="#ffeaba"/>
        <path d="M 135.83333 3886.6 L 150.16667 3886.6 C 154.03266 3886.6 157.16667 3889.734 157.16667 3893.6 L 157.16667 3907.6 C 157.16667 3911.466 154.03266 3914.6 150.16667 3914.6 L 135.83333 3914.6 C 131.96734 3914.6 128.83333 3911.466 128.83333 3907.6 L 128.83333 3893.6 C 128.83333 3889.734 131.96734 3886.6 135.83333 3886.6 Z" stroke="gray" stroke-linecap="round" stroke-linejoin="round" stroke-width="1"/>
        <text transform="translate(135.36023 3892.2694) rotate(1)" fill="black">
          <tspan font-family="Helvetica Neue" font-size="14" fill="black" x="0" y="13">12</tspan>
        </text>
      </g>
      <g id="Graphic_1826">
        <path d="M 22.5 3886.6 L 36.833333 3886.6 C 40.699327 3886.6 43.833333 3889.734 43.833333 3893.6 L 43.833333 3907.6 C 43.833333 3911.466 40.699327 3914.6 36.833333 3914.6 L 22.5 3914.6 C 18.634007 3914.6 15.5 3911.466 15.5 3907.6 L 15.5 3893.6 C 15.5 3889.734 18.634007 3886.6 22.5 3886.6 Z" fill="#ffeaba"/>
        <path d="M 22.5 3886.6 L 36.833333 3886.6 C 40.699327 3886.6 43.833333 3889.734 43.833333 3893.6 L 43.833333 3907.6 C 43.833333 3911.466 40.699327 3914.6 36.833333 3914.6 L 22.5 3914.6 C 18.634007 3914.6 15.5 3911.466 15.5 3907.6 L 15.5 3893.6 C 15.5 3889.734 18.634007 3886.6 22.5 3886.6 Z" stroke="gray" stroke-linecap="round" stroke-linejoin="round" stroke-width="1"/>
        <text transform="translate(25.9183 3892.3374) rotate(1)" fill="black">
          <tspan font-family="Helvetica Neue" font-size="14" fill="black" x="0" y="13">8</tspan>
        </text>
      </g>
      <g id="Graphic_1824">
        <path d="M 164.16667 3942.6 L 178.5 3942.6 C 182.366 3942.6 185.5 3945.734 185.5 3949.6 L 185.5 3963.6 C 185.5 3967.466 182.366 3970.6 178.5 3970.6 L 164.16667 3970.6 C 160.30067 3970.6 157.16667 3967.466 157.16667 3963.6 L 157.16667 3949.6 C 157.16667 3945.734 160.30067 3942.6 164.16667 3942.6 Z" fill="#ffeaba"/>
        <path d="M 164.16667 3942.6 L 178.5 3942.6 C 182.366 3942.6 185.5 3945.734 185.5 3949.6 L 185.5 3963.6 C 185.5 3967.466 182.366 3970.6 178.5 3970.6 L 164.16667 3970.6 C 160.30067 3970.6 157.16667 3967.466 157.16667 3963.6 L 157.16667 3949.6 C 157.16667 3945.734 160.30067 3942.6 164.16667 3942.6 Z" stroke="gray" stroke-linecap="round" stroke-linejoin="round" stroke-width="1"/>
        <text transform="translate(163.69356 3948.2694) rotate(1)" fill="black">
          <tspan font-family="Helvetica Neue" font-size="14" fill="black" x="0" y="13">30</tspan>
        </text>
      </g>
      <g id="Graphic_1823">
        <path d="M 107.5 3914.6 L 121.83333 3914.6 C 125.69933 3914.6 128.83333 3917.734 128.83333 3921.6 L 128.83333 3935.6 C 128.83333 3939.466 125.69933 3942.6 121.83333 3942.6 L 107.5 3942.6 C 103.63401 3942.6 100.5 3939.466 100.5 3935.6 L 100.5 3921.6 C 100.5 3917.734 103.63401 3914.6 107.5 3914.6 Z" fill="#ffeaba"/>
        <path d="M 107.5 3914.6 L 121.83333 3914.6 C 125.69933 3914.6 128.83333 3917.734 128.83333 3921.6 L 128.83333 3935.6 C 128.83333 3939.466 125.69933 3942.6 121.83333 3942.6 L 107.5 3942.6 C 103.63401 3942.6 100.5 3939.466 100.5 3935.6 L 100.5 3921.6 C 100.5 3917.734 103.63401 3914.6 107.5 3914.6 Z" stroke="gray" stroke-linecap="round" stroke-linejoin="round" stroke-width="1"/>
        <text transform="translate(107.02689 3920.2694) rotate(1)" fill="black">
          <tspan font-family="Helvetica Neue" font-size="14" fill="black" x="0" y="13">21</tspan>
        </text>
      </g>
      <g id="Graphic_1822">
        <path d="M 79.16667 3886.6 L 93.5 3886.6 C 97.36599 3886.6 100.5 3889.734 100.5 3893.6 L 100.5 3907.6 C 100.5 3911.466 97.36599 3914.6 93.5 3914.6 L 79.16667 3914.6 C 75.30067 3914.6 72.16667 3911.466 72.16667 3907.6 L 72.16667 3893.6 C 72.16667 3889.734 75.30067 3886.6 79.16667 3886.6 Z" fill="#ffeaba"/>
        <path d="M 79.16667 3886.6 L 93.5 3886.6 C 97.36599 3886.6 100.5 3889.734 100.5 3893.6 L 100.5 3907.6 C 100.5 3911.466 97.36599 3914.6 93.5 3914.6 L 79.16667 3914.6 C 75.30067 3914.6 72.16667 3911.466 72.16667 3907.6 L 72.16667 3893.6 C 72.16667 3889.734 75.30067 3886.6 79.16667 3886.6 Z" stroke="gray" stroke-linecap="round" stroke-linejoin="round" stroke-width="1"/>
        <text transform="translate(78.69356 3892.2694) rotate(1)" fill="black">
          <tspan font-family="Helvetica Neue" font-size="14" fill="black" x="0" y="13">10</tspan>
        </text>
      </g>
      <g id="Graphic_1821">
        <path d="M 107.5 3858.6 L 121.83333 3858.6 C 125.69933 3858.6 128.83333 3861.734 128.83333 3865.6 L 128.83333 3879.6 C 128.83333 3883.466 125.69933 3886.6 121.83333 3886.6 L 107.5 3886.6 C 103.63401 3886.6 100.5 3883.466 100.5 3879.6 L 100.5 3865.6 C 100.5 3861.734 103.63401 3858.6 107.5 3858.6 Z" fill="#ffeaba"/>
        <path d="M 107.5 3858.6 L 121.83333 3858.6 C 125.69933 3858.6 128.83333 3861.734 128.83333 3865.6 L 128.83333 3879.6 C 128.83333 3883.466 125.69933 3886.6 121.83333 3886.6 L 107.5 3886.6 C 103.63401 3886.6 100.5 3883.466 100.5 3879.6 L 100.5 3865.6 C 100.5 3861.734 103.63401 3858.6 107.5 3858.6 Z" stroke="gray" stroke-linecap="round" stroke-linejoin="round" stroke-width="1"/>
        <text transform="translate(110.9183 3864.3374) rotate(1)" fill="black">
          <tspan font-family="Helvetica Neue" font-size="14" fill="black" x="0" y="13">4</tspan>
        </text>
      </g>
      <g id="Graphic_1819">
        <path d="M 50.833333 3942.6 L 65.16667 3942.6 C 69.03266 3942.6 72.16667 3945.734 72.16667 3949.6 L 72.16667 3963.6 C 72.16667 3967.466 69.03266 3970.6 65.16667 3970.6 L 50.833333 3970.6 C 46.96734 3970.6 43.833333 3967.466 43.833333 3963.6 L 43.833333 3949.6 C 43.833333 3945.734 46.96734 3942.6 50.833333 3942.6 Z" fill="#ffeaba"/>
        <path d="M 50.833333 3942.6 L 65.16667 3942.6 C 69.03266 3942.6 72.16667 3945.734 72.16667 3949.6 L 72.16667 3963.6 C 72.16667 3967.466 69.03266 3970.6 65.16667 3970.6 L 50.833333 3970.6 C 46.96734 3970.6 43.833333 3967.466 43.833333 3963.6 L 43.833333 3949.6 C 43.833333 3945.734 46.96734 3942.6 50.833333 3942.6 Z" stroke="gray" stroke-linecap="round" stroke-linejoin="round" stroke-width="1"/>
        <text transform="translate(50.360226 3948.2694) rotate(1)" fill="black">
          <tspan font-family="Helvetica Neue" font-size="14" fill="black" x="0" y="13">26</tspan>
        </text>
      </g>
      <g id="Graphic_1818">
        <path d="M 164.16667 3886.6 L 178.5 3886.6 C 182.366 3886.6 185.5 3889.734 185.5 3893.6 L 185.5 3907.6 C 185.5 3911.466 182.366 3914.6 178.5 3914.6 L 164.16667 3914.6 C 160.30067 3914.6 157.16667 3911.466 157.16667 3907.6 L 157.16667 3893.6 C 157.16667 3889.734 160.30067 3886.6 164.16667 3886.6 Z" fill="#ffeaba"/>
        <path d="M 164.16667 3886.6 L 178.5 3886.6 C 182.366 3886.6 185.5 3889.734 185.5 3893.6 L 185.5 3907.6 C 185.5 3911.466 182.366 3914.6 178.5 3914.6 L 164.16667 3914.6 C 160.30067 3914.6 157.16667 3911.466 157.16667 3907.6 L 157.16667 3893.6 C 157.16667 3889.734 160.30067 3886.6 164.16667 3886.6 Z" stroke="gray" stroke-linecap="round" stroke-linejoin="round" stroke-width="1"/>
        <text transform="translate(163.69356 3892.2694) rotate(1)" fill="black">
          <tspan font-family="Helvetica Neue" font-size="14" fill="black" x="0" y="13">14</tspan>
        </text>
      </g>
      <g id="Graphic_1817">
        <path d="M 22.5 3914.6 L 36.833333 3914.6 C 40.699327 3914.6 43.833333 3917.734 43.833333 3921.6 L 43.833333 3935.6 C 43.833333 3939.466 40.699327 3942.6 36.833333 3942.6 L 22.5 3942.6 C 18.634007 3942.6 15.5 3939.466 15.5 3935.6 L 15.5 3921.6 C 15.5 3917.734 18.634007 3914.6 22.5 3914.6 Z" fill="#ffeaba"/>
        <path d="M 22.5 3914.6 L 36.833333 3914.6 C 40.699327 3914.6 43.833333 3917.734 43.833333 3921.6 L 43.833333 3935.6 C 43.833333 3939.466 40.699327 3942.6 36.833333 3942.6 L 22.5 3942.6 C 18.634007 3942.6 15.5 3939.466 15.5 3935.6 L 15.5 3921.6 C 15.5 3917.734 18.634007 3914.6 22.5 3914.6 Z" stroke="gray" stroke-linecap="round" stroke-linejoin="round" stroke-width="1"/>
        <text transform="translate(22.026892 3920.2694) rotate(1)" fill="black">
          <tspan font-family="Helvetica Neue" font-size="14" fill="black" x="0" y="13">18</tspan>
        </text>
      </g>
      <g id="Graphic_1816">
        <path d="M 79.16667 3914.6 L 93.5 3914.6 C 97.36599 3914.6 100.5 3917.734 100.5 3921.6 L 100.5 3935.6 C 100.5 3939.466 97.36599 3942.6 93.5 3942.6 L 79.16667 3942.6 C 75.30067 3942.6 72.16667 3939.466 72.16667 3935.6 L 72.16667 3921.6 C 72.16667 3917.734 75.30067 3914.6 79.16667 3914.6 Z" fill="#ffeaba"/>
        <path d="M 79.16667 3914.6 L 93.5 3914.6 C 97.36599 3914.6 100.5 3917.734 100.5 3921.6 L 100.5 3935.6 C 100.5 3939.466 97.36599 3942.6 93.5 3942.6 L 79.16667 3942.6 C 75.30067 3942.6 72.16667 3939.466 72.16667 3935.6 L 72.16667 3921.6 C 72.16667 3917.734 75.30067 3914.6 79.16667 3914.6 Z" stroke="gray" stroke-linecap="round" stroke-linejoin="round" stroke-width="1"/>
        <text transform="translate(78.69356 3920.2694) rotate(1)" fill="black">
          <tspan font-family="Helvetica Neue" font-size="14" fill="black" x="0" y="13">20</tspan>
        </text>
      </g>
      <g id="Graphic_1815">
        <path d="M 135.83333 3858.6 L 150.16667 3858.6 C 154.03266 3858.6 157.16667 3861.734 157.16667 3865.6 L 157.16667 3879.6 C 157.16667 3883.466 154.03266 3886.6 150.16667 3886.6 L 135.83333 3886.6 C 131.96734 3886.6 128.83333 3883.466 128.83333 3879.6 L 128.83333 3865.6 C 128.83333 3861.734 131.96734 3858.6 135.83333 3858.6 Z" fill="#ffeaba"/>
        <path d="M 135.83333 3858.6 L 150.16667 3858.6 C 154.03266 3858.6 157.16667 3861.734 157.16667 3865.6 L 157.16667 3879.6 C 157.16667 3883.466 154.03266 3886.6 150.16667 3886.6 L 135.83333 3886.6 C 131.96734 3886.6 128.83333 3883.466 128.83333 3879.6 L 128.83333 3865.6 C 128.83333 3861.734 131.96734 3858.6 135.83333 3858.6 Z" stroke="gray" stroke-linecap="round" stroke-linejoin="round" stroke-width="1"/>
        <text transform="translate(139.25163 3864.3374) rotate(1)" fill="black">
          <tspan font-family="Helvetica Neue" font-size="14" fill="black" x="0" y="13">5</tspan>
        </text>
      </g>
      <g id="Graphic_1814">
        <path d="M 107.5 3886.6 L 121.83333 3886.6 C 125.69933 3886.6 128.83333 3889.734 128.83333 3893.6 L 128.83333 3907.6 C 128.83333 3911.466 125.69933 3914.6 121.83333 3914.6 L 107.5 3914.6 C 103.63401 3914.6 100.5 3911.466 100.5 3907.6 L 100.5 3893.6 C 100.5 3889.734 103.63401 3886.6 107.5 3886.6 Z" fill="#ffeaba"/>
        <path d="M 107.5 3886.6 L 121.83333 3886.6 C 125.69933 3886.6 128.83333 3889.734 128.83333 3893.6 L 128.83333 3907.6 C 128.83333 3911.466 125.69933 3914.6 121.83333 3914.6 L 107.5 3914.6 C 103.63401 3914.6 100.5 3911.466 100.5 3907.6 L 100.5 3893.6 C 100.5 3889.734 103.63401 3886.6 107.5 3886.6 Z" stroke="gray" stroke-linecap="round" stroke-linejoin="round" stroke-width="1"/>
        <text transform="translate(107.02689 3892.2694) rotate(1)" fill="black">
          <tspan font-family="Helvetica Neue" font-size="14" fill="black" x="0" y="13">11</tspan>
        </text>
      </g>
      <g id="Graphic_1810"/>
      <g id="Graphic_1807"/>
      <g id="Graphic_1806"/>
      <g id="Graphic_1805">
        <path d="M 50.833333 4048.6 L 65.16667 4048.6 C 69.03266 4048.6 72.16667 4051.734 72.16667 4055.6 L 72.16667 4069.6 C 72.16667 4073.466 69.03266 4076.6 65.16667 4076.6 L 50.833333 4076.6 C 46.96734 4076.6 43.833333 4073.466 43.833333 4069.6 L 43.833333 4055.6 C 43.833333 4051.734 46.96734 4048.6 50.833333 4048.6 Z" fill="#e4e6ff"/>
        <path d="M 50.833333 4048.6 L 65.16667 4048.6 C 69.03266 4048.6 72.16667 4051.734 72.16667 4055.6 L 72.16667 4069.6 C 72.16667 4073.466 69.03266 4076.6 65.16667 4076.6 L 50.833333 4076.6 C 46.96734 4076.6 43.833333 4073.466 43.833333 4069.6 L 43.833333 4055.6 C 43.833333 4051.734 46.96734 4048.6 50.833333 4048.6 Z" stroke="gray" stroke-linecap="round" stroke-linejoin="round" stroke-width="1"/>
        <text transform="translate(50.360226 4054.2694) rotate(1)" fill="black">
          <tspan font-family="Helvetica Neue" font-size="14" fill="black" x="0" y="13">13</tspan>
        </text>
      </g>
      <g id="Graphic_1804"/>
      <g id="Graphic_1803"/>
      <g id="Graphic_1802"/>
      <g id="Graphic_1801"/>
      <g id="Graphic_1800"/>
      <g id="Graphic_1799"/>
      <g id="Graphic_1798"/>
      <g id="Graphic_1797"/>
      <g id="Graphic_1796">
        <path d="M 135.83333 4048.6 L 150.16667 4048.6 C 154.03266 4048.6 157.16667 4051.734 157.16667 4055.6 L 157.16667 4069.6 C 157.16667 4073.466 154.03266 4076.6 150.16667 4076.6 L 135.83333 4076.6 C 131.96734 4076.6 128.83333 4073.466 128.83333 4069.6 L 128.83333 4055.6 C 128.83333 4051.734 131.96734 4048.6 135.83333 4048.6 Z" fill="#e4e6ff"/>
        <path d="M 135.83333 4048.6 L 150.16667 4048.6 C 154.03266 4048.6 157.16667 4051.734 157.16667 4055.6 L 157.16667 4069.6 C 157.16667 4073.466 154.03266 4076.6 150.16667 4076.6 L 135.83333 4076.6 C 131.96734 4076.6 128.83333 4073.466 128.83333 4069.6 L 128.83333 4055.6 C 128.83333 4051.734 131.96734 4048.6 135.83333 4048.6 Z" stroke="gray" stroke-linecap="round" stroke-linejoin="round" stroke-width="1"/>
        <text transform="translate(135.36023 4054.2694) rotate(1)" fill="black">
          <tspan font-family="Helvetica Neue" font-size="14" fill="black" x="0" y="13">17</tspan>
        </text>
      </g>
      <g id="Graphic_1795">
        <path d="M 22.5 4048.6 L 36.833333 4048.6 C 40.699327 4048.6 43.833333 4051.734 43.833333 4055.6 L 43.833333 4069.6 C 43.833333 4073.466 40.699327 4076.6 36.833333 4076.6 L 22.5 4076.6 C 18.634007 4076.6 15.5 4073.466 15.5 4069.6 L 15.5 4055.6 C 15.5 4051.734 18.634007 4048.6 22.5 4048.6 Z" fill="#e4e6ff"/>
        <path d="M 22.5 4048.6 L 36.833333 4048.6 C 40.699327 4048.6 43.833333 4051.734 43.833333 4055.6 L 43.833333 4069.6 C 43.833333 4073.466 40.699327 4076.6 36.833333 4076.6 L 22.5 4076.6 C 18.634007 4076.6 15.5 4073.466 15.5 4069.6 L 15.5 4055.6 C 15.5 4051.734 18.634007 4048.6 22.5 4048.6 Z" stroke="gray" stroke-linecap="round" stroke-linejoin="round" stroke-width="1"/>
        <text transform="translate(25.9183 4054.3374) rotate(1)" fill="black">
          <tspan font-family="Helvetica Neue" font-size="14" fill="black" x="0" y="13">6</tspan>
        </text>
      </g>
      <g id="Graphic_1794"/>
      <g id="Graphic_1793"/>
      <g id="Graphic_1791">
        <path d="M 79.16667 4048.6 L 93.5 4048.6 C 97.36599 4048.6 100.5 4051.734 100.5 4055.6 L 100.5 4069.6 C 100.5 4073.466 97.36599 4076.6 93.5 4076.6 L 79.16667 4076.6 C 75.30067 4076.6 72.16667 4073.466 72.16667 4069.6 L 72.16667 4055.6 C 72.16667 4051.734 75.30067 4048.6 79.16667 4048.6 Z" fill="#e4e6ff"/>
        <path d="M 79.16667 4048.6 L 93.5 4048.6 C 97.36599 4048.6 100.5 4051.734 100.5 4055.6 L 100.5 4069.6 C 100.5 4073.466 97.36599 4076.6 93.5 4076.6 L 79.16667 4076.6 C 75.30067 4076.6 72.16667 4073.466 72.16667 4069.6 L 72.16667 4055.6 C 72.16667 4051.734 75.30067 4048.6 79.16667 4048.6 Z" stroke="gray" stroke-linecap="round" stroke-linejoin="round" stroke-width="1"/>
        <text transform="translate(78.69356 4054.2694) rotate(1)" fill="black">
          <tspan font-family="Helvetica Neue" font-size="14" fill="black" x="0" y="13">15</tspan>
        </text>
      </g>
      <g id="Graphic_1790"/>
      <g id="Graphic_1789"/>
      <g id="Graphic_1788"/>
      <g id="Graphic_1787">
        <path d="M 164.16667 4048.6 L 178.5 4048.6 C 182.366 4048.6 185.5 4051.734 185.5 4055.6 L 185.5 4069.6 C 185.5 4073.466 182.366 4076.6 178.5 4076.6 L 164.16667 4076.6 C 160.30067 4076.6 157.16667 4073.466 157.16667 4069.6 L 157.16667 4055.6 C 157.16667 4051.734 160.30067 4048.6 164.16667 4048.6 Z" fill="#e4e6ff"/>
        <path d="M 164.16667 4048.6 L 178.5 4048.6 C 182.366 4048.6 185.5 4051.734 185.5 4055.6 L 185.5 4069.6 C 185.5 4073.466 182.366 4076.6 178.5 4076.6 L 164.16667 4076.6 C 160.30067 4076.6 157.16667 4073.466 157.16667 4069.6 L 157.16667 4055.6 C 157.16667 4051.734 160.30067 4048.6 164.16667 4048.6 Z" stroke="gray" stroke-linecap="round" stroke-linejoin="round" stroke-width="1"/>
        <text transform="translate(163.69356 4054.2694) rotate(1)" fill="black">
          <tspan font-family="Helvetica Neue" font-size="14" fill="black" x="0" y="13">23</tspan>
        </text>
      </g>
      <g id="Graphic_1784"/>
      <g id="Graphic_1783">
        <path d="M 107.5 4048.6 L 121.83333 4048.6 C 125.69933 4048.6 128.83333 4051.734 128.83333 4055.6 L 128.83333 4069.6 C 128.83333 4073.466 125.69933 4076.6 121.83333 4076.6 L 107.5 4076.6 C 103.63401 4076.6 100.5 4073.466 100.5 4069.6 L 100.5 4055.6 C 100.5 4051.734 103.63401 4048.6 107.5 4048.6 Z" fill="#e4e6ff"/>
        <path d="M 107.5 4048.6 L 121.83333 4048.6 C 125.69933 4048.6 128.83333 4051.734 128.83333 4055.6 L 128.83333 4069.6 C 128.83333 4073.466 125.69933 4076.6 121.83333 4076.6 L 107.5 4076.6 C 103.63401 4076.6 100.5 4073.466 100.5 4069.6 L 100.5 4055.6 C 100.5 4051.734 103.63401 4048.6 107.5 4048.6 Z" stroke="gray" stroke-linecap="round" stroke-linejoin="round" stroke-width="1"/>
        <text transform="translate(107.02689 4054.2694) rotate(1)" fill="black">
          <tspan font-family="Helvetica Neue" font-size="14" fill="black" x="0" y="13">16</tspan>
        </text>
      </g>
      <g id="Line_1781">
        <line x1="208.5" y1="3841.6" x2="378.5" y2="3841.6" stroke="black" stroke-linecap="round" stroke-linejoin="round" stroke-width="1.3"/>
      </g>
      <g id="Graphic_1780">
        <path d="M 243.83333 3914.6 L 258.16667 3914.6 C 262.03266 3914.6 265.16667 3917.734 265.16667 3921.6 L 265.16667 3935.6 C 265.16667 3939.466 262.03266 3942.6 258.16667 3942.6 L 243.83333 3942.6 C 239.96734 3942.6 236.83333 3939.466 236.83333 3935.6 L 236.83333 3921.6 C 236.83333 3917.734 239.96734 3914.6 243.83333 3914.6 Z" fill="#ffeaba"/>
        <path d="M 243.83333 3914.6 L 258.16667 3914.6 C 262.03266 3914.6 265.16667 3917.734 265.16667 3921.6 L 265.16667 3935.6 C 265.16667 3939.466 262.03266 3942.6 258.16667 3942.6 L 243.83333 3942.6 C 239.96734 3942.6 236.83333 3939.466 236.83333 3935.6 L 236.83333 3921.6 C 236.83333 3917.734 239.96734 3914.6 243.83333 3914.6 Z" stroke="gray" stroke-linecap="round" stroke-linejoin="round" stroke-width="1"/>
        <text transform="translate(243.36023 3920.2694) rotate(1)" fill="black">
          <tspan font-family="Helvetica Neue" font-size="14" fill="black" x="0" y="13">19</tspan>
        </text>
      </g>
      <g id="Graphic_1779">
        <path d="M 357.16667 3914.6 L 371.5 3914.6 C 375.366 3914.6 378.5 3917.734 378.5 3921.6 L 378.5 3935.6 C 378.5 3939.466 375.366 3942.6 371.5 3942.6 L 357.16667 3942.6 C 353.30067 3942.6 350.16667 3939.466 350.16667 3935.6 L 350.16667 3921.6 C 350.16667 3917.734 353.30067 3914.6 357.16667 3914.6 Z" fill="#ffeaba"/>
        <path d="M 357.16667 3914.6 L 371.5 3914.6 C 375.366 3914.6 378.5 3917.734 378.5 3921.6 L 378.5 3935.6 C 378.5 3939.466 375.366 3942.6 371.5 3942.6 L 357.16667 3942.6 C 353.30067 3942.6 350.16667 3939.466 350.16667 3935.6 L 350.16667 3921.6 C 350.16667 3917.734 353.30067 3914.6 357.16667 3914.6 Z" stroke="gray" stroke-linecap="round" stroke-linejoin="round" stroke-width="1"/>
        <text transform="translate(356.69356 3920.2694) rotate(1)" fill="black">
          <tspan font-family="Helvetica Neue" font-size="14" fill="black" x="0" y="13">23</tspan>
        </text>
      </g>
      <g id="Graphic_1777">
        <path d="M 328.83333 3914.6 L 343.16667 3914.6 C 347.03266 3914.6 350.16667 3917.734 350.16667 3921.6 L 350.16667 3935.6 C 350.16667 3939.466 347.03266 3942.6 343.16667 3942.6 L 328.83333 3942.6 C 324.96734 3942.6 321.83333 3939.466 321.83333 3935.6 L 321.83333 3921.6 C 321.83333 3917.734 324.96734 3914.6 328.83333 3914.6 Z" fill="#ffeaba"/>
        <path d="M 328.83333 3914.6 L 343.16667 3914.6 C 347.03266 3914.6 350.16667 3917.734 350.16667 3921.6 L 350.16667 3935.6 C 350.16667 3939.466 347.03266 3942.6 343.16667 3942.6 L 328.83333 3942.6 C 324.96734 3942.6 321.83333 3939.466 321.83333 3935.6 L 321.83333 3921.6 C 321.83333 3917.734 324.96734 3914.6 328.83333 3914.6 Z" stroke="gray" stroke-linecap="round" stroke-linejoin="round" stroke-width="1"/>
        <text transform="translate(328.36023 3920.2694) rotate(1)" fill="black">
          <tspan font-family="Helvetica Neue" font-size="14" fill="black" x="0" y="13">22</tspan>
        </text>
      </g>
      <g id="Graphic_1776">
        <path d="M 272.16667 3942.6 L 286.5 3942.6 C 290.366 3942.6 293.5 3945.734 293.5 3949.6 L 293.5 3963.6 C 293.5 3967.466 290.366 3970.6 286.5 3970.6 L 272.16667 3970.6 C 268.30067 3970.6 265.16667 3967.466 265.16667 3963.6 L 265.16667 3949.6 C 265.16667 3945.734 268.30067 3942.6 272.16667 3942.6 Z" fill="#ffeaba"/>
        <path d="M 272.16667 3942.6 L 286.5 3942.6 C 290.366 3942.6 293.5 3945.734 293.5 3949.6 L 293.5 3963.6 C 293.5 3967.466 290.366 3970.6 286.5 3970.6 L 272.16667 3970.6 C 268.30067 3970.6 265.16667 3967.466 265.16667 3963.6 L 265.16667 3949.6 C 265.16667 3945.734 268.30067 3942.6 272.16667 3942.6 Z" stroke="gray" stroke-linecap="round" stroke-linejoin="round" stroke-width="1"/>
        <text transform="translate(271.69356 3948.2694) rotate(1)" fill="black">
          <tspan font-family="Helvetica Neue" font-size="14" fill="black" x="0" y="13">26</tspan>
        </text>
      </g>
      <g id="Graphic_1774">
        <path d="M 300.5 3942.6 L 314.83333 3942.6 C 318.69933 3942.6 321.83333 3945.734 321.83333 3949.6 L 321.83333 3963.6 C 321.83333 3967.466 318.69933 3970.6 314.83333 3970.6 L 300.5 3970.6 C 296.634 3970.6 293.5 3967.466 293.5 3963.6 L 293.5 3949.6 C 293.5 3945.734 296.634 3942.6 300.5 3942.6 Z" fill="#ffeaba"/>
        <path d="M 300.5 3942.6 L 314.83333 3942.6 C 318.69933 3942.6 321.83333 3945.734 321.83333 3949.6 L 321.83333 3963.6 C 321.83333 3967.466 318.69933 3970.6 314.83333 3970.6 L 300.5 3970.6 C 296.634 3970.6 293.5 3967.466 293.5 3963.6 L 293.5 3949.6 C 293.5 3945.734 296.634 3942.6 300.5 3942.6 Z" stroke="gray" stroke-linecap="round" stroke-linejoin="round" stroke-width="1"/>
        <text transform="translate(300.0269 3948.2694) rotate(1)" fill="black">
          <tspan font-family="Helvetica Neue" font-size="14" fill="black" x="0" y="13">27</tspan>
        </text>
      </g>
      <g id="Graphic_1773">
        <path d="M 243.83333 3886.6 L 258.16667 3886.6 C 262.03266 3886.6 265.16667 3889.734 265.16667 3893.6 L 265.16667 3907.6 C 265.16667 3911.466 262.03266 3914.6 258.16667 3914.6 L 243.83333 3914.6 C 239.96734 3914.6 236.83333 3911.466 236.83333 3907.6 L 236.83333 3893.6 C 236.83333 3889.734 239.96734 3886.6 243.83333 3886.6 Z" fill="#ffeaba"/>
        <path d="M 243.83333 3886.6 L 258.16667 3886.6 C 262.03266 3886.6 265.16667 3889.734 265.16667 3893.6 L 265.16667 3907.6 C 265.16667 3911.466 262.03266 3914.6 258.16667 3914.6 L 243.83333 3914.6 C 239.96734 3914.6 236.83333 3911.466 236.83333 3907.6 L 236.83333 3893.6 C 236.83333 3889.734 239.96734 3886.6 243.83333 3886.6 Z" stroke="gray" stroke-linecap="round" stroke-linejoin="round" stroke-width="1"/>
        <text transform="translate(243.36023 3892.2694) rotate(1)" fill="black">
          <tspan font-family="Helvetica Neue" font-size="14" fill="black" x="0" y="13">12</tspan>
        </text>
      </g>
      <g id="Graphic_1772">
        <path d="M 357.16667 3858.6 L 371.5 3858.6 C 375.366 3858.6 378.5 3861.734 378.5 3865.6 L 378.5 3879.6 C 378.5 3883.466 375.366 3886.6 371.5 3886.6 L 357.16667 3886.6 C 353.30067 3886.6 350.16667 3883.466 350.16667 3879.6 L 350.16667 3865.6 C 350.16667 3861.734 353.30067 3858.6 357.16667 3858.6 Z" fill="#ffeaba"/>
        <path d="M 357.16667 3858.6 L 371.5 3858.6 C 375.366 3858.6 378.5 3861.734 378.5 3865.6 L 378.5 3879.6 C 378.5 3883.466 375.366 3886.6 371.5 3886.6 L 357.16667 3886.6 C 353.30067 3886.6 350.16667 3883.466 350.16667 3879.6 L 350.16667 3865.6 C 350.16667 3861.734 353.30067 3858.6 357.16667 3858.6 Z" stroke="gray" stroke-linecap="round" stroke-linejoin="round" stroke-width="1"/>
        <text transform="translate(360.58497 3864.3374) rotate(1)" fill="black">
          <tspan font-family="Helvetica Neue" font-size="14" fill="black" x="0" y="13">8</tspan>
        </text>
      </g>
      <g id="Graphic_1770">
        <path d="M 215.5 3858.6 L 229.83333 3858.6 C 233.69933 3858.6 236.83333 3861.734 236.83333 3865.6 L 236.83333 3879.6 C 236.83333 3883.466 233.69933 3886.6 229.83333 3886.6 L 215.5 3886.6 C 211.634 3886.6 208.5 3883.466 208.5 3879.6 L 208.5 3865.6 C 208.5 3861.734 211.634 3858.6 215.5 3858.6 Z" fill="#ffeaba"/>
        <path d="M 215.5 3858.6 L 229.83333 3858.6 C 233.69933 3858.6 236.83333 3861.734 236.83333 3865.6 L 236.83333 3879.6 C 236.83333 3883.466 233.69933 3886.6 229.83333 3886.6 L 215.5 3886.6 C 211.634 3886.6 208.5 3883.466 208.5 3879.6 L 208.5 3865.6 C 208.5 3861.734 211.634 3858.6 215.5 3858.6 Z" stroke="gray" stroke-linecap="round" stroke-linejoin="round" stroke-width="1"/>
        <text transform="translate(218.9183 3864.3374) rotate(1)" fill="black">
          <tspan font-family="Helvetica Neue" font-size="14" fill="black" x="0" y="13">1</tspan>
        </text>
      </g>
      <g id="Graphic_1769">
        <path d="M 328.83333 3942.6 L 343.16667 3942.6 C 347.03266 3942.6 350.16667 3945.734 350.16667 3949.6 L 350.16667 3963.6 C 350.16667 3967.466 347.03266 3970.6 343.16667 3970.6 L 328.83333 3970.6 C 324.96734 3970.6 321.83333 3967.466 321.83333 3963.6 L 321.83333 3949.6 C 321.83333 3945.734 324.96734 3942.6 328.83333 3942.6 Z" fill="#ffeaba"/>
        <path d="M 328.83333 3942.6 L 343.16667 3942.6 C 347.03266 3942.6 350.16667 3945.734 350.16667 3949.6 L 350.16667 3963.6 C 350.16667 3967.466 347.03266 3970.6 343.16667 3970.6 L 328.83333 3970.6 C 324.96734 3970.6 321.83333 3967.466 321.83333 3963.6 L 321.83333 3949.6 C 321.83333 3945.734 324.96734 3942.6 328.83333 3942.6 Z" stroke="gray" stroke-linecap="round" stroke-linejoin="round" stroke-width="1"/>
        <text transform="translate(328.36023 3948.2694) rotate(1)" fill="black">
          <tspan font-family="Helvetica Neue" font-size="14" fill="black" x="0" y="13">28</tspan>
        </text>
      </g>
      <g id="Graphic_1767">
        <path d="M 272.16667 3858.6 L 286.5 3858.6 C 290.366 3858.6 293.5 3861.734 293.5 3865.6 L 293.5 3879.6 C 293.5 3883.466 290.366 3886.6 286.5 3886.6 L 272.16667 3886.6 C 268.30067 3886.6 265.16667 3883.466 265.16667 3879.6 L 265.16667 3865.6 C 265.16667 3861.734 268.30067 3858.6 272.16667 3858.6 Z" fill="#ffeaba"/>
        <path d="M 272.16667 3858.6 L 286.5 3858.6 C 290.366 3858.6 293.5 3861.734 293.5 3865.6 L 293.5 3879.6 C 293.5 3883.466 290.366 3886.6 286.5 3886.6 L 272.16667 3886.6 C 268.30067 3886.6 265.16667 3883.466 265.16667 3879.6 L 265.16667 3865.6 C 265.16667 3861.734 268.30067 3858.6 272.16667 3858.6 Z" stroke="gray" stroke-linecap="round" stroke-linejoin="round" stroke-width="1"/>
        <text transform="translate(275.58497 3864.3374) rotate(1)" fill="black">
          <tspan font-family="Helvetica Neue" font-size="14" fill="black" x="0" y="13">5</tspan>
        </text>
      </g>
      <g id="Graphic_1766">
        <path d="M 243.83333 3858.6 L 258.16667 3858.6 C 262.03266 3858.6 265.16667 3861.734 265.16667 3865.6 L 265.16667 3879.6 C 265.16667 3883.466 262.03266 3886.6 258.16667 3886.6 L 243.83333 3886.6 C 239.96734 3886.6 236.83333 3883.466 236.83333 3879.6 L 236.83333 3865.6 C 236.83333 3861.734 239.96734 3858.6 243.83333 3858.6 Z" fill="#ffeaba"/>
        <path d="M 243.83333 3858.6 L 258.16667 3858.6 C 262.03266 3858.6 265.16667 3861.734 265.16667 3865.6 L 265.16667 3879.6 C 265.16667 3883.466 262.03266 3886.6 258.16667 3886.6 L 243.83333 3886.6 C 239.96734 3886.6 236.83333 3883.466 236.83333 3879.6 L 236.83333 3865.6 C 236.83333 3861.734 239.96734 3858.6 243.83333 3858.6 Z" stroke="gray" stroke-linecap="round" stroke-linejoin="round" stroke-width="1"/>
        <text transform="translate(247.25163 3864.3374) rotate(1)" fill="black">
          <tspan font-family="Helvetica Neue" font-size="14" fill="black" x="0" y="13">4</tspan>
        </text>
      </g>
      <g id="Graphic_1765">
        <path d="M 215.5 3942.6 L 229.83333 3942.6 C 233.69933 3942.6 236.83333 3945.734 236.83333 3949.6 L 236.83333 3963.6 C 236.83333 3967.466 233.69933 3970.6 229.83333 3970.6 L 215.5 3970.6 C 211.634 3970.6 208.5 3967.466 208.5 3963.6 L 208.5 3949.6 C 208.5 3945.734 211.634 3942.6 215.5 3942.6 Z" fill="#ffeaba"/>
        <path d="M 215.5 3942.6 L 229.83333 3942.6 C 233.69933 3942.6 236.83333 3945.734 236.83333 3949.6 L 236.83333 3963.6 C 236.83333 3967.466 233.69933 3970.6 229.83333 3970.6 L 215.5 3970.6 C 211.634 3970.6 208.5 3967.466 208.5 3963.6 L 208.5 3949.6 C 208.5 3945.734 211.634 3942.6 215.5 3942.6 Z" stroke="gray" stroke-linecap="round" stroke-linejoin="round" stroke-width="1"/>
        <text transform="translate(215.0269 3948.2694) rotate(1)" fill="black">
          <tspan font-family="Helvetica Neue" font-size="14" fill="black" x="0" y="13">24</tspan>
        </text>
      </g>
      <g id="Graphic_1764">
        <path d="M 328.83333 3886.6 L 343.16667 3886.6 C 347.03266 3886.6 350.16667 3889.734 350.16667 3893.6 L 350.16667 3907.6 C 350.16667 3911.466 347.03266 3914.6 343.16667 3914.6 L 328.83333 3914.6 C 324.96734 3914.6 321.83333 3911.466 321.83333 3907.6 L 321.83333 3893.6 C 321.83333 3889.734 324.96734 3886.6 328.83333 3886.6 Z" fill="#ffeaba"/>
        <path d="M 328.83333 3886.6 L 343.16667 3886.6 C 347.03266 3886.6 350.16667 3889.734 350.16667 3893.6 L 350.16667 3907.6 C 350.16667 3911.466 347.03266 3914.6 343.16667 3914.6 L 328.83333 3914.6 C 324.96734 3914.6 321.83333 3911.466 321.83333 3907.6 L 321.83333 3893.6 C 321.83333 3889.734 324.96734 3886.6 328.83333 3886.6 Z" stroke="gray" stroke-linecap="round" stroke-linejoin="round" stroke-width="1"/>
        <text transform="translate(328.36023 3892.2694) rotate(1)" fill="black">
          <tspan font-family="Helvetica Neue" font-size="14" fill="black" x="0" y="13">15</tspan>
        </text>
      </g>
      <g id="Graphic_1763">
        <path d="M 215.5 3886.6 L 229.83333 3886.6 C 233.69933 3886.6 236.83333 3889.734 236.83333 3893.6 L 236.83333 3907.6 C 236.83333 3911.466 233.69933 3914.6 229.83333 3914.6 L 215.5 3914.6 C 211.634 3914.6 208.5 3911.466 208.5 3907.6 L 208.5 3893.6 C 208.5 3889.734 211.634 3886.6 215.5 3886.6 Z" fill="#ffeaba"/>
        <path d="M 215.5 3886.6 L 229.83333 3886.6 C 233.69933 3886.6 236.83333 3889.734 236.83333 3893.6 L 236.83333 3907.6 C 236.83333 3911.466 233.69933 3914.6 229.83333 3914.6 L 215.5 3914.6 C 211.634 3914.6 208.5 3911.466 208.5 3907.6 L 208.5 3893.6 C 208.5 3889.734 211.634 3886.6 215.5 3886.6 Z" stroke="gray" stroke-linecap="round" stroke-linejoin="round" stroke-width="1"/>
        <text transform="translate(218.9183 3892.3374) rotate(1)" fill="black">
          <tspan font-family="Helvetica Neue" font-size="14" fill="black" x="0" y="13">9</tspan>
        </text>
      </g>
      <g id="Graphic_1761">
        <path d="M 357.16667 3942.6 L 371.5 3942.6 C 375.366 3942.6 378.5 3945.734 378.5 3949.6 L 378.5 3963.6 C 378.5 3967.466 375.366 3970.6 371.5 3970.6 L 357.16667 3970.6 C 353.30067 3970.6 350.16667 3967.466 350.16667 3963.6 L 350.16667 3949.6 C 350.16667 3945.734 353.30067 3942.6 357.16667 3942.6 Z" fill="#ffeaba"/>
        <path d="M 357.16667 3942.6 L 371.5 3942.6 C 375.366 3942.6 378.5 3945.734 378.5 3949.6 L 378.5 3963.6 C 378.5 3967.466 375.366 3970.6 371.5 3970.6 L 357.16667 3970.6 C 353.30067 3970.6 350.16667 3967.466 350.16667 3963.6 L 350.16667 3949.6 C 350.16667 3945.734 353.30067 3942.6 357.16667 3942.6 Z" stroke="gray" stroke-linecap="round" stroke-linejoin="round" stroke-width="1"/>
        <text transform="translate(356.69356 3948.2694) rotate(1)" fill="black">
          <tspan font-family="Helvetica Neue" font-size="14" fill="black" x="0" y="13">29</tspan>
        </text>
      </g>
      <g id="Graphic_1760">
        <path d="M 300.5 3914.6 L 314.83333 3914.6 C 318.69933 3914.6 321.83333 3917.734 321.83333 3921.6 L 321.83333 3935.6 C 321.83333 3939.466 318.69933 3942.6 314.83333 3942.6 L 300.5 3942.6 C 296.634 3942.6 293.5 3939.466 293.5 3935.6 L 293.5 3921.6 C 293.5 3917.734 296.634 3914.6 300.5 3914.6 Z" fill="#ffeaba"/>
        <path d="M 300.5 3914.6 L 314.83333 3914.6 C 318.69933 3914.6 321.83333 3917.734 321.83333 3921.6 L 321.83333 3935.6 C 321.83333 3939.466 318.69933 3942.6 314.83333 3942.6 L 300.5 3942.6 C 296.634 3942.6 293.5 3939.466 293.5 3935.6 L 293.5 3921.6 C 293.5 3917.734 296.634 3914.6 300.5 3914.6 Z" stroke="gray" stroke-linecap="round" stroke-linejoin="round" stroke-width="1"/>
        <text transform="translate(300.0269 3920.2694) rotate(1)" fill="black">
          <tspan font-family="Helvetica Neue" font-size="14" fill="black" x="0" y="13">21</tspan>
        </text>
      </g>
      <g id="Graphic_1759">
        <path d="M 272.16667 3886.6 L 286.5 3886.6 C 290.366 3886.6 293.5 3889.734 293.5 3893.6 L 293.5 3907.6 C 293.5 3911.466 290.366 3914.6 286.5 3914.6 L 272.16667 3914.6 C 268.30067 3914.6 265.16667 3911.466 265.16667 3907.6 L 265.16667 3893.6 C 265.16667 3889.734 268.30067 3886.6 272.16667 3886.6 Z" fill="#ffeaba"/>
        <path d="M 272.16667 3886.6 L 286.5 3886.6 C 290.366 3886.6 293.5 3889.734 293.5 3893.6 L 293.5 3907.6 C 293.5 3911.466 290.366 3914.6 286.5 3914.6 L 272.16667 3914.6 C 268.30067 3914.6 265.16667 3911.466 265.16667 3907.6 L 265.16667 3893.6 C 265.16667 3889.734 268.30067 3886.6 272.16667 3886.6 Z" stroke="gray" stroke-linecap="round" stroke-linejoin="round" stroke-width="1"/>
        <text transform="translate(271.69356 3892.2694) rotate(1)" fill="black">
          <tspan font-family="Helvetica Neue" font-size="14" fill="black" x="0" y="13">13</tspan>
        </text>
      </g>
      <g id="Graphic_1758">
        <path d="M 300.5 3858.6 L 314.83333 3858.6 C 318.69933 3858.6 321.83333 3861.734 321.83333 3865.6 L 321.83333 3879.6 C 321.83333 3883.466 318.69933 3886.6 314.83333 3886.6 L 300.5 3886.6 C 296.634 3886.6 293.5 3883.466 293.5 3879.6 L 293.5 3865.6 C 293.5 3861.734 296.634 3858.6 300.5 3858.6 Z" fill="#ffeaba"/>
        <path d="M 300.5 3858.6 L 314.83333 3858.6 C 318.69933 3858.6 321.83333 3861.734 321.83333 3865.6 L 321.83333 3879.6 C 321.83333 3883.466 318.69933 3886.6 314.83333 3886.6 L 300.5 3886.6 C 296.634 3886.6 293.5 3883.466 293.5 3879.6 L 293.5 3865.6 C 293.5 3861.734 296.634 3858.6 300.5 3858.6 Z" stroke="gray" stroke-linecap="round" stroke-linejoin="round" stroke-width="1"/>
        <text transform="translate(303.9183 3864.3374) rotate(1)" fill="black">
          <tspan font-family="Helvetica Neue" font-size="14" fill="black" x="0" y="13">6</tspan>
        </text>
      </g>
      <g id="Graphic_1756">
        <path d="M 243.83333 3942.6 L 258.16667 3942.6 C 262.03266 3942.6 265.16667 3945.734 265.16667 3949.6 L 265.16667 3963.6 C 265.16667 3967.466 262.03266 3970.6 258.16667 3970.6 L 243.83333 3970.6 C 239.96734 3970.6 236.83333 3967.466 236.83333 3963.6 L 236.83333 3949.6 C 236.83333 3945.734 239.96734 3942.6 243.83333 3942.6 Z" fill="#ffeaba"/>
        <path d="M 243.83333 3942.6 L 258.16667 3942.6 C 262.03266 3942.6 265.16667 3945.734 265.16667 3949.6 L 265.16667 3963.6 C 265.16667 3967.466 262.03266 3970.6 258.16667 3970.6 L 243.83333 3970.6 C 239.96734 3970.6 236.83333 3967.466 236.83333 3963.6 L 236.83333 3949.6 C 236.83333 3945.734 239.96734 3942.6 243.83333 3942.6 Z" stroke="gray" stroke-linecap="round" stroke-linejoin="round" stroke-width="1"/>
        <text transform="translate(243.36023 3948.2694) rotate(1)" fill="black">
          <tspan font-family="Helvetica Neue" font-size="14" fill="black" x="0" y="13">25</tspan>
        </text>
      </g>
      <g id="Graphic_1755">
        <path d="M 357.16667 3886.6 L 371.5 3886.6 C 375.366 3886.6 378.5 3889.734 378.5 3893.6 L 378.5 3907.6 C 378.5 3911.466 375.366 3914.6 371.5 3914.6 L 357.16667 3914.6 C 353.30067 3914.6 350.16667 3911.466 350.16667 3907.6 L 350.16667 3893.6 C 350.16667 3889.734 353.30067 3886.6 357.16667 3886.6 Z" fill="#ffeaba"/>
        <path d="M 357.16667 3886.6 L 371.5 3886.6 C 375.366 3886.6 378.5 3889.734 378.5 3893.6 L 378.5 3907.6 C 378.5 3911.466 375.366 3914.6 371.5 3914.6 L 357.16667 3914.6 C 353.30067 3914.6 350.16667 3911.466 350.16667 3907.6 L 350.16667 3893.6 C 350.16667 3889.734 353.30067 3886.6 357.16667 3886.6 Z" stroke="gray" stroke-linecap="round" stroke-linejoin="round" stroke-width="1"/>
        <text transform="translate(356.69356 3892.2694) rotate(1)" fill="black">
          <tspan font-family="Helvetica Neue" font-size="14" fill="black" x="0" y="13">16</tspan>
        </text>
      </g>
      <g id="Graphic_1754">
        <path d="M 215.5 3914.6 L 229.83333 3914.6 C 233.69933 3914.6 236.83333 3917.734 236.83333 3921.6 L 236.83333 3935.6 C 236.83333 3939.466 233.69933 3942.6 229.83333 3942.6 L 215.5 3942.6 C 211.634 3942.6 208.5 3939.466 208.5 3935.6 L 208.5 3921.6 C 208.5 3917.734 211.634 3914.6 215.5 3914.6 Z" fill="#ffeaba"/>
        <path d="M 215.5 3914.6 L 229.83333 3914.6 C 233.69933 3914.6 236.83333 3917.734 236.83333 3921.6 L 236.83333 3935.6 C 236.83333 3939.466 233.69933 3942.6 229.83333 3942.6 L 215.5 3942.6 C 211.634 3942.6 208.5 3939.466 208.5 3935.6 L 208.5 3921.6 C 208.5 3917.734 211.634 3914.6 215.5 3914.6 Z" stroke="gray" stroke-linecap="round" stroke-linejoin="round" stroke-width="1"/>
        <text transform="translate(215.0269 3920.2694) rotate(1)" fill="black">
          <tspan font-family="Helvetica Neue" font-size="14" fill="black" x="0" y="13">18</tspan>
        </text>
      </g>
      <g id="Graphic_1753">
        <path d="M 272.16667 3914.6 L 286.5 3914.6 C 290.366 3914.6 293.5 3917.734 293.5 3921.6 L 293.5 3935.6 C 293.5 3939.466 290.366 3942.6 286.5 3942.6 L 272.16667 3942.6 C 268.30067 3942.6 265.16667 3939.466 265.16667 3935.6 L 265.16667 3921.6 C 265.16667 3917.734 268.30067 3914.6 272.16667 3914.6 Z" fill="#ffeaba"/>
        <path d="M 272.16667 3914.6 L 286.5 3914.6 C 290.366 3914.6 293.5 3917.734 293.5 3921.6 L 293.5 3935.6 C 293.5 3939.466 290.366 3942.6 286.5 3942.6 L 272.16667 3942.6 C 268.30067 3942.6 265.16667 3939.466 265.16667 3935.6 L 265.16667 3921.6 C 265.16667 3917.734 268.30067 3914.6 272.16667 3914.6 Z" stroke="gray" stroke-linecap="round" stroke-linejoin="round" stroke-width="1"/>
        <text transform="translate(271.69356 3920.2694) rotate(1)" fill="black">
          <tspan font-family="Helvetica Neue" font-size="14" fill="black" x="0" y="13">20</tspan>
        </text>
      </g>
      <g id="Graphic_1752">
        <path d="M 328.83333 3858.6 L 343.16667 3858.6 C 347.03266 3858.6 350.16667 3861.734 350.16667 3865.6 L 350.16667 3879.6 C 350.16667 3883.466 347.03266 3886.6 343.16667 3886.6 L 328.83333 3886.6 C 324.96734 3886.6 321.83333 3883.466 321.83333 3879.6 L 321.83333 3865.6 C 321.83333 3861.734 324.96734 3858.6 328.83333 3858.6 Z" fill="#ffeaba"/>
        <path d="M 328.83333 3858.6 L 343.16667 3858.6 C 347.03266 3858.6 350.16667 3861.734 350.16667 3865.6 L 350.16667 3879.6 C 350.16667 3883.466 347.03266 3886.6 343.16667 3886.6 L 328.83333 3886.6 C 324.96734 3886.6 321.83333 3883.466 321.83333 3879.6 L 321.83333 3865.6 C 321.83333 3861.734 324.96734 3858.6 328.83333 3858.6 Z" stroke="gray" stroke-linecap="round" stroke-linejoin="round" stroke-width="1"/>
        <text transform="translate(332.25163 3864.3374) rotate(1)" fill="black">
          <tspan font-family="Helvetica Neue" font-size="14" fill="black" x="0" y="13">7</tspan>
        </text>
      </g>
      <g id="Graphic_1751">
        <path d="M 300.5 3886.6 L 314.83333 3886.6 C 318.69933 3886.6 321.83333 3889.734 321.83333 3893.6 L 321.83333 3907.6 C 321.83333 3911.466 318.69933 3914.6 314.83333 3914.6 L 300.5 3914.6 C 296.634 3914.6 293.5 3911.466 293.5 3907.6 L 293.5 3893.6 C 293.5 3889.734 296.634 3886.6 300.5 3886.6 Z" fill="#ffeaba"/>
        <path d="M 300.5 3886.6 L 314.83333 3886.6 C 318.69933 3886.6 321.83333 3889.734 321.83333 3893.6 L 321.83333 3907.6 C 321.83333 3911.466 318.69933 3914.6 314.83333 3914.6 L 300.5 3914.6 C 296.634 3914.6 293.5 3911.466 293.5 3907.6 L 293.5 3893.6 C 293.5 3889.734 296.634 3886.6 300.5 3886.6 Z" stroke="gray" stroke-linecap="round" stroke-linejoin="round" stroke-width="1"/>
        <text transform="translate(300.0269 3892.2694) rotate(1)" fill="black">
          <tspan font-family="Helvetica Neue" font-size="14" fill="black" x="0" y="13">14</tspan>
        </text>
      </g>
      <g id="Graphic_1748"/>
      <g id="Graphic_1747"/>
      <g id="Graphic_1745"/>
      <g id="Graphic_1744"/>
      <g id="Graphic_1743"/>
      <g id="Graphic_1742">
        <path d="M 243.83333 4048.6 L 258.16667 4048.6 C 262.03266 4048.6 265.16667 4051.734 265.16667 4055.6 L 265.16667 4069.6 C 265.16667 4073.466 262.03266 4076.6 258.16667 4076.6 L 243.83333 4076.6 C 239.96734 4076.6 236.83333 4073.466 236.83333 4069.6 L 236.83333 4055.6 C 236.83333 4051.734 239.96734 4048.6 243.83333 4048.6 Z" fill="#e4e6ff"/>
        <path d="M 243.83333 4048.6 L 258.16667 4048.6 C 262.03266 4048.6 265.16667 4051.734 265.16667 4055.6 L 265.16667 4069.6 C 265.16667 4073.466 262.03266 4076.6 258.16667 4076.6 L 243.83333 4076.6 C 239.96734 4076.6 236.83333 4073.466 236.83333 4069.6 L 236.83333 4055.6 C 236.83333 4051.734 239.96734 4048.6 243.83333 4048.6 Z" stroke="gray" stroke-linecap="round" stroke-linejoin="round" stroke-width="1"/>
        <text transform="translate(247.25163 4054.3374) rotate(1)" fill="black">
          <tspan font-family="Helvetica Neue" font-size="14" fill="black" x="0" y="13">3</tspan>
        </text>
      </g>
      <g id="Graphic_1741"/>
      <g id="Graphic_1740"/>
      <g id="Graphic_1739"/>
      <g id="Graphic_1738"/>
      <g id="Graphic_1737"/>
      <g id="Graphic_1736"/>
      <g id="Graphic_1735"/>
      <g id="Graphic_1734"/>
      <g id="Graphic_1733">
        <path d="M 328.83333 4048.6 L 343.16667 4048.6 C 347.03266 4048.6 350.16667 4051.734 350.16667 4055.6 L 350.16667 4069.6 C 350.16667 4073.466 347.03266 4076.6 343.16667 4076.6 L 328.83333 4076.6 C 324.96734 4076.6 321.83333 4073.466 321.83333 4069.6 L 321.83333 4055.6 C 321.83333 4051.734 324.96734 4048.6 328.83333 4048.6 Z" fill="#e4e6ff"/>
        <path d="M 328.83333 4048.6 L 343.16667 4048.6 C 347.03266 4048.6 350.16667 4051.734 350.16667 4055.6 L 350.16667 4069.6 C 350.16667 4073.466 347.03266 4076.6 343.16667 4076.6 L 328.83333 4076.6 C 324.96734 4076.6 321.83333 4073.466 321.83333 4069.6 L 321.83333 4055.6 C 321.83333 4051.734 324.96734 4048.6 328.83333 4048.6 Z" stroke="gray" stroke-linecap="round" stroke-linejoin="round" stroke-width="1"/>
        <text transform="translate(328.36023 4054.2694) rotate(1)" fill="black">
          <tspan font-family="Helvetica Neue" font-size="14" fill="black" x="0" y="13">17</tspan>
        </text>
      </g>
      <g id="Graphic_1732">
        <path d="M 215.5 4048.6 L 229.83333 4048.6 C 233.69933 4048.6 236.83333 4051.734 236.83333 4055.6 L 236.83333 4069.6 C 236.83333 4073.466 233.69933 4076.6 229.83333 4076.6 L 215.5 4076.6 C 211.634 4076.6 208.5 4073.466 208.5 4069.6 L 208.5 4055.6 C 208.5 4051.734 211.634 4048.6 215.5 4048.6 Z" fill="#e4e6ff"/>
        <path d="M 215.5 4048.6 L 229.83333 4048.6 C 233.69933 4048.6 236.83333 4051.734 236.83333 4055.6 L 236.83333 4069.6 C 236.83333 4073.466 233.69933 4076.6 229.83333 4076.6 L 215.5 4076.6 C 211.634 4076.6 208.5 4073.466 208.5 4069.6 L 208.5 4055.6 C 208.5 4051.734 211.634 4048.6 215.5 4048.6 Z" stroke="gray" stroke-linecap="round" stroke-linejoin="round" stroke-width="1"/>
        <text transform="translate(218.9183 4054.3374) rotate(1)" fill="black">
          <tspan font-family="Helvetica Neue" font-size="14" fill="black" x="0" y="13">2</tspan>
        </text>
      </g>
      <g id="Graphic_1731"/>
      <g id="Graphic_1730"/>
      <g id="Graphic_1728">
        <path d="M 272.16667 4048.6 L 286.5 4048.6 C 290.366 4048.6 293.5 4051.734 293.5 4055.6 L 293.5 4069.6 C 293.5 4073.466 290.366 4076.6 286.5 4076.6 L 272.16667 4076.6 C 268.30067 4076.6 265.16667 4073.466 265.16667 4069.6 L 265.16667 4055.6 C 265.16667 4051.734 268.30067 4048.6 272.16667 4048.6 Z" fill="#e4e6ff"/>
        <path d="M 272.16667 4048.6 L 286.5 4048.6 C 290.366 4048.6 293.5 4051.734 293.5 4055.6 L 293.5 4069.6 C 293.5 4073.466 290.366 4076.6 286.5 4076.6 L 272.16667 4076.6 C 268.30067 4076.6 265.16667 4073.466 265.16667 4069.6 L 265.16667 4055.6 C 265.16667 4051.734 268.30067 4048.6 272.16667 4048.6 Z" stroke="gray" stroke-linecap="round" stroke-linejoin="round" stroke-width="1"/>
        <text transform="translate(271.69356 4054.2694) rotate(1)" fill="black">
          <tspan font-family="Helvetica Neue" font-size="14" fill="black" x="0" y="13">10</tspan>
        </text>
      </g>
      <g id="Graphic_1727"/>
      <g id="Graphic_1726"/>
      <g id="Graphic_1725"/>
      <g id="Graphic_1724">
        <path d="M 357.16667 4048.6 L 371.5 4048.6 C 375.366 4048.6 378.5 4051.734 378.5 4055.6 L 378.5 4069.6 C 378.5 4073.466 375.366 4076.6 371.5 4076.6 L 357.16667 4076.6 C 353.30067 4076.6 350.16667 4073.466 350.16667 4069.6 L 350.16667 4055.6 C 350.16667 4051.734 353.30067 4048.6 357.16667 4048.6 Z" fill="#e4e6ff"/>
        <path d="M 357.16667 4048.6 L 371.5 4048.6 C 375.366 4048.6 378.5 4051.734 378.5 4055.6 L 378.5 4069.6 C 378.5 4073.466 375.366 4076.6 371.5 4076.6 L 357.16667 4076.6 C 353.30067 4076.6 350.16667 4073.466 350.16667 4069.6 L 350.16667 4055.6 C 350.16667 4051.734 353.30067 4048.6 357.16667 4048.6 Z" stroke="gray" stroke-linecap="round" stroke-linejoin="round" stroke-width="1"/>
        <text transform="translate(356.69356 4054.2694) rotate(1)" fill="black">
          <tspan font-family="Helvetica Neue" font-size="14" fill="black" x="0" y="13">30</tspan>
        </text>
      </g>
      <g id="Graphic_1721"/>
      <g id="Graphic_1720">
        <path d="M 300.5 4048.6 L 314.83333 4048.6 C 318.69933 4048.6 321.83333 4051.734 321.83333 4055.6 L 321.83333 4069.6 C 321.83333 4073.466 318.69933 4076.6 314.83333 4076.6 L 300.5 4076.6 C 296.634 4076.6 293.5 4073.466 293.5 4069.6 L 293.5 4055.6 C 293.5 4051.734 296.634 4048.6 300.5 4048.6 Z" fill="#e4e6ff"/>
        <path d="M 300.5 4048.6 L 314.83333 4048.6 C 318.69933 4048.6 321.83333 4051.734 321.83333 4055.6 L 321.83333 4069.6 C 321.83333 4073.466 318.69933 4076.6 314.83333 4076.6 L 300.5 4076.6 C 296.634 4076.6 293.5 4073.466 293.5 4069.6 L 293.5 4055.6 C 293.5 4051.734 296.634 4048.6 300.5 4048.6 Z" stroke="gray" stroke-linecap="round" stroke-linejoin="round" stroke-width="1"/>
        <text transform="translate(300.0269 4054.2694) rotate(1)" fill="black">
          <tspan font-family="Helvetica Neue" font-size="14" fill="black" x="0" y="13">11</tspan>
        </text>
      </g>
      <g id="Line_1718">
        <line x1="400.5" y1="3841.6" x2="570.5" y2="3841.6" stroke="black" stroke-linecap="round" stroke-linejoin="round" stroke-width="1.3"/>
      </g>
      <g id="Graphic_1717">
        <path d="M 435.83333 3914.6 L 450.16667 3914.6 C 454.03266 3914.6 457.16667 3917.734 457.16667 3921.6 L 457.16667 3935.6 C 457.16667 3939.466 454.03266 3942.6 450.16667 3942.6 L 435.83333 3942.6 C 431.96734 3942.6 428.83333 3939.466 428.83333 3935.6 L 428.83333 3921.6 C 428.83333 3917.734 431.96734 3914.6 435.83333 3914.6 Z" fill="#ffeaba"/>
        <path d="M 435.83333 3914.6 L 450.16667 3914.6 C 454.03266 3914.6 457.16667 3917.734 457.16667 3921.6 L 457.16667 3935.6 C 457.16667 3939.466 454.03266 3942.6 450.16667 3942.6 L 435.83333 3942.6 C 431.96734 3942.6 428.83333 3939.466 428.83333 3935.6 L 428.83333 3921.6 C 428.83333 3917.734 431.96734 3914.6 435.83333 3914.6 Z" stroke="gray" stroke-linecap="round" stroke-linejoin="round" stroke-width="1"/>
        <text transform="translate(435.3602 3920.2694) rotate(1)" fill="black">
          <tspan font-family="Helvetica Neue" font-size="14" fill="black" x="0" y="13">17</tspan>
        </text>
      </g>
      <g id="Graphic_1716">
        <path d="M 549.16667 3914.6 L 563.5 3914.6 C 567.366 3914.6 570.5 3917.734 570.5 3921.6 L 570.5 3935.6 C 570.5 3939.466 567.366 3942.6 563.5 3942.6 L 549.16667 3942.6 C 545.3007 3942.6 542.16667 3939.466 542.16667 3935.6 L 542.16667 3921.6 C 542.16667 3917.734 545.3007 3914.6 549.16667 3914.6 Z" fill="#ffeaba"/>
        <path d="M 549.16667 3914.6 L 563.5 3914.6 C 567.366 3914.6 570.5 3917.734 570.5 3921.6 L 570.5 3935.6 C 570.5 3939.466 567.366 3942.6 563.5 3942.6 L 549.16667 3942.6 C 545.3007 3942.6 542.16667 3939.466 542.16667 3935.6 L 542.16667 3921.6 C 542.16667 3917.734 545.3007 3914.6 549.16667 3914.6 Z" stroke="gray" stroke-linecap="round" stroke-linejoin="round" stroke-width="1"/>
        <text transform="translate(548.69356 3920.2694) rotate(1)" fill="black">
          <tspan font-family="Helvetica Neue" font-size="14" fill="black" x="0" y="13">22</tspan>
        </text>
      </g>
      <g id="Graphic_1714">
        <path d="M 520.83333 3914.6 L 535.16667 3914.6 C 539.03266 3914.6 542.16667 3917.734 542.16667 3921.6 L 542.16667 3935.6 C 542.16667 3939.466 539.03266 3942.6 535.16667 3942.6 L 520.83333 3942.6 C 516.96734 3942.6 513.83333 3939.466 513.83333 3935.6 L 513.83333 3921.6 C 513.83333 3917.734 516.96734 3914.6 520.83333 3914.6 Z" fill="#ffeaba"/>
        <path d="M 520.83333 3914.6 L 535.16667 3914.6 C 539.03266 3914.6 542.16667 3917.734 542.16667 3921.6 L 542.16667 3935.6 C 542.16667 3939.466 539.03266 3942.6 535.16667 3942.6 L 520.83333 3942.6 C 516.96734 3942.6 513.83333 3939.466 513.83333 3935.6 L 513.83333 3921.6 C 513.83333 3917.734 516.96734 3914.6 520.83333 3914.6 Z" stroke="gray" stroke-linecap="round" stroke-linejoin="round" stroke-width="1"/>
        <text transform="translate(520.3602 3920.2694) rotate(1)" fill="black">
          <tspan font-family="Helvetica Neue" font-size="14" fill="black" x="0" y="13">20</tspan>
        </text>
      </g>
      <g id="Graphic_1713">
        <path d="M 464.16667 3942.6 L 478.5 3942.6 C 482.366 3942.6 485.5 3945.734 485.5 3949.6 L 485.5 3963.6 C 485.5 3967.466 482.366 3970.6 478.5 3970.6 L 464.16667 3970.6 C 460.3007 3970.6 457.16667 3967.466 457.16667 3963.6 L 457.16667 3949.6 C 457.16667 3945.734 460.3007 3942.6 464.16667 3942.6 Z" fill="#ffeaba"/>
        <path d="M 464.16667 3942.6 L 478.5 3942.6 C 482.366 3942.6 485.5 3945.734 485.5 3949.6 L 485.5 3963.6 C 485.5 3967.466 482.366 3970.6 478.5 3970.6 L 464.16667 3970.6 C 460.3007 3970.6 457.16667 3967.466 457.16667 3963.6 L 457.16667 3949.6 C 457.16667 3945.734 460.3007 3942.6 464.16667 3942.6 Z" stroke="gray" stroke-linecap="round" stroke-linejoin="round" stroke-width="1"/>
        <text transform="translate(463.69356 3948.2694) rotate(1)" fill="black">
          <tspan font-family="Helvetica Neue" font-size="14" fill="black" x="0" y="13">26</tspan>
        </text>
      </g>
      <g id="Graphic_1711">
        <path d="M 492.5 3942.6 L 506.83333 3942.6 C 510.6993 3942.6 513.83333 3945.734 513.83333 3949.6 L 513.83333 3963.6 C 513.83333 3967.466 510.6993 3970.6 506.83333 3970.6 L 492.5 3970.6 C 488.634 3970.6 485.5 3967.466 485.5 3963.6 L 485.5 3949.6 C 485.5 3945.734 488.634 3942.6 492.5 3942.6 Z" fill="#ffeaba"/>
        <path d="M 492.5 3942.6 L 506.83333 3942.6 C 510.6993 3942.6 513.83333 3945.734 513.83333 3949.6 L 513.83333 3963.6 C 513.83333 3967.466 510.6993 3970.6 506.83333 3970.6 L 492.5 3970.6 C 488.634 3970.6 485.5 3967.466 485.5 3963.6 L 485.5 3949.6 C 485.5 3945.734 488.634 3942.6 492.5 3942.6 Z" stroke="gray" stroke-linecap="round" stroke-linejoin="round" stroke-width="1"/>
        <text transform="translate(492.0269 3948.2694) rotate(1)" fill="black">
          <tspan font-family="Helvetica Neue" font-size="14" fill="black" x="0" y="13">28</tspan>
        </text>
      </g>
      <g id="Graphic_1710">
        <path d="M 435.83333 3886.6 L 450.16667 3886.6 C 454.03266 3886.6 457.16667 3889.734 457.16667 3893.6 L 457.16667 3907.6 C 457.16667 3911.466 454.03266 3914.6 450.16667 3914.6 L 435.83333 3914.6 C 431.96734 3914.6 428.83333 3911.466 428.83333 3907.6 L 428.83333 3893.6 C 428.83333 3889.734 431.96734 3886.6 435.83333 3886.6 Z" fill="#ffeaba"/>
        <path d="M 435.83333 3886.6 L 450.16667 3886.6 C 454.03266 3886.6 457.16667 3889.734 457.16667 3893.6 L 457.16667 3907.6 C 457.16667 3911.466 454.03266 3914.6 450.16667 3914.6 L 435.83333 3914.6 C 431.96734 3914.6 428.83333 3911.466 428.83333 3907.6 L 428.83333 3893.6 C 428.83333 3889.734 431.96734 3886.6 435.83333 3886.6 Z" stroke="gray" stroke-linecap="round" stroke-linejoin="round" stroke-width="1"/>
        <text transform="translate(439.25163 3892.3374) rotate(1)" fill="black">
          <tspan font-family="Helvetica Neue" font-size="14" fill="black" x="0" y="13">9</tspan>
        </text>
      </g>
      <g id="Graphic_1709">
        <path d="M 549.16667 3858.6 L 563.5 3858.6 C 567.366 3858.6 570.5 3861.734 570.5 3865.6 L 570.5 3879.6 C 570.5 3883.466 567.366 3886.6 563.5 3886.6 L 549.16667 3886.6 C 545.3007 3886.6 542.16667 3883.466 542.16667 3879.6 L 542.16667 3865.6 C 542.16667 3861.734 545.3007 3858.6 549.16667 3858.6 Z" fill="#ffeaba"/>
        <path d="M 549.16667 3858.6 L 563.5 3858.6 C 567.366 3858.6 570.5 3861.734 570.5 3865.6 L 570.5 3879.6 C 570.5 3883.466 567.366 3886.6 563.5 3886.6 L 549.16667 3886.6 C 545.3007 3886.6 542.16667 3883.466 542.16667 3879.6 L 542.16667 3865.6 C 542.16667 3861.734 545.3007 3858.6 549.16667 3858.6 Z" stroke="gray" stroke-linecap="round" stroke-linejoin="round" stroke-width="1"/>
        <text transform="translate(552.58497 3864.3374) rotate(1)" fill="black">
          <tspan font-family="Helvetica Neue" font-size="14" fill="black" x="0" y="13">7</tspan>
        </text>
      </g>
      <g id="Graphic_1707">
        <path d="M 407.5 3858.6 L 421.83333 3858.6 C 425.69933 3858.6 428.83333 3861.734 428.83333 3865.6 L 428.83333 3879.6 C 428.83333 3883.466 425.69933 3886.6 421.83333 3886.6 L 407.5 3886.6 C 403.634 3886.6 400.5 3883.466 400.5 3879.6 L 400.5 3865.6 C 400.5 3861.734 403.634 3858.6 407.5 3858.6 Z" fill="#ffeaba"/>
        <path d="M 407.5 3858.6 L 421.83333 3858.6 C 425.69933 3858.6 428.83333 3861.734 428.83333 3865.6 L 428.83333 3879.6 C 428.83333 3883.466 425.69933 3886.6 421.83333 3886.6 L 407.5 3886.6 C 403.634 3886.6 400.5 3883.466 400.5 3879.6 L 400.5 3865.6 C 400.5 3861.734 403.634 3858.6 407.5 3858.6 Z" stroke="gray" stroke-linecap="round" stroke-linejoin="round" stroke-width="1"/>
        <text transform="translate(410.9183 3864.3374) rotate(1)" fill="black">
          <tspan font-family="Helvetica Neue" font-size="14" fill="black" x="0" y="13">2</tspan>
        </text>
      </g>
      <g id="Graphic_1706">
        <path d="M 520.83333 3942.6 L 535.16667 3942.6 C 539.03266 3942.6 542.16667 3945.734 542.16667 3949.6 L 542.16667 3963.6 C 542.16667 3967.466 539.03266 3970.6 535.16667 3970.6 L 520.83333 3970.6 C 516.96734 3970.6 513.83333 3967.466 513.83333 3963.6 L 513.83333 3949.6 C 513.83333 3945.734 516.96734 3942.6 520.83333 3942.6 Z" fill="#ffeaba"/>
        <path d="M 520.83333 3942.6 L 535.16667 3942.6 C 539.03266 3942.6 542.16667 3945.734 542.16667 3949.6 L 542.16667 3963.6 C 542.16667 3967.466 539.03266 3970.6 535.16667 3970.6 L 520.83333 3970.6 C 516.96734 3970.6 513.83333 3967.466 513.83333 3963.6 L 513.83333 3949.6 C 513.83333 3945.734 516.96734 3942.6 520.83333 3942.6 Z" stroke="gray" stroke-linecap="round" stroke-linejoin="round" stroke-width="1"/>
        <text transform="translate(520.3602 3948.2694) rotate(1)" fill="black">
          <tspan font-family="Helvetica Neue" font-size="14" fill="black" x="0" y="13">29</tspan>
        </text>
      </g>
      <g id="Graphic_1704">
        <path d="M 464.16667 3858.6 L 478.5 3858.6 C 482.366 3858.6 485.5 3861.734 485.5 3865.6 L 485.5 3879.6 C 485.5 3883.466 482.366 3886.6 478.5 3886.6 L 464.16667 3886.6 C 460.3007 3886.6 457.16667 3883.466 457.16667 3879.6 L 457.16667 3865.6 C 457.16667 3861.734 460.3007 3858.6 464.16667 3858.6 Z" fill="#ffeaba"/>
        <path d="M 464.16667 3858.6 L 478.5 3858.6 C 482.366 3858.6 485.5 3861.734 485.5 3865.6 L 485.5 3879.6 C 485.5 3883.466 482.366 3886.6 478.5 3886.6 L 464.16667 3886.6 C 460.3007 3886.6 457.16667 3883.466 457.16667 3879.6 L 457.16667 3865.6 C 457.16667 3861.734 460.3007 3858.6 464.16667 3858.6 Z" stroke="gray" stroke-linecap="round" stroke-linejoin="round" stroke-width="1"/>
        <text transform="translate(467.58497 3864.3374) rotate(1)" fill="black">
          <tspan font-family="Helvetica Neue" font-size="14" fill="black" x="0" y="13">4</tspan>
        </text>
      </g>
      <g id="Graphic_1703">
        <path d="M 435.83333 3858.6 L 450.16667 3858.6 C 454.03266 3858.6 457.16667 3861.734 457.16667 3865.6 L 457.16667 3879.6 C 457.16667 3883.466 454.03266 3886.6 450.16667 3886.6 L 435.83333 3886.6 C 431.96734 3886.6 428.83333 3883.466 428.83333 3879.6 L 428.83333 3865.6 C 428.83333 3861.734 431.96734 3858.6 435.83333 3858.6 Z" fill="#ffeaba"/>
        <path d="M 435.83333 3858.6 L 450.16667 3858.6 C 454.03266 3858.6 457.16667 3861.734 457.16667 3865.6 L 457.16667 3879.6 C 457.16667 3883.466 454.03266 3886.6 450.16667 3886.6 L 435.83333 3886.6 C 431.96734 3886.6 428.83333 3883.466 428.83333 3879.6 L 428.83333 3865.6 C 428.83333 3861.734 431.96734 3858.6 435.83333 3858.6 Z" stroke="gray" stroke-linecap="round" stroke-linejoin="round" stroke-width="1"/>
        <text transform="translate(439.25163 3864.3374) rotate(1)" fill="black">
          <tspan font-family="Helvetica Neue" font-size="14" fill="black" x="0" y="13">3</tspan>
        </text>
      </g>
      <g id="Graphic_1702">
        <path d="M 407.5 3942.6 L 421.83333 3942.6 C 425.69933 3942.6 428.83333 3945.734 428.83333 3949.6 L 428.83333 3963.6 C 428.83333 3967.466 425.69933 3970.6 421.83333 3970.6 L 407.5 3970.6 C 403.634 3970.6 400.5 3967.466 400.5 3963.6 L 400.5 3949.6 C 400.5 3945.734 403.634 3942.6 407.5 3942.6 Z" fill="#ffeaba"/>
        <path d="M 407.5 3942.6 L 421.83333 3942.6 C 425.69933 3942.6 428.83333 3945.734 428.83333 3949.6 L 428.83333 3963.6 C 428.83333 3967.466 425.69933 3970.6 421.83333 3970.6 L 407.5 3970.6 C 403.634 3970.6 400.5 3967.466 400.5 3963.6 L 400.5 3949.6 C 400.5 3945.734 403.634 3942.6 407.5 3942.6 Z" stroke="gray" stroke-linecap="round" stroke-linejoin="round" stroke-width="1"/>
        <text transform="translate(407.0269 3948.2694) rotate(1)" fill="black">
          <tspan font-family="Helvetica Neue" font-size="14" fill="black" x="0" y="13">23</tspan>
        </text>
      </g>
      <g id="Graphic_1701">
        <path d="M 520.83333 3886.6 L 535.16667 3886.6 C 539.03266 3886.6 542.16667 3889.734 542.16667 3893.6 L 542.16667 3907.6 C 542.16667 3911.466 539.03266 3914.6 535.16667 3914.6 L 520.83333 3914.6 C 516.96734 3914.6 513.83333 3911.466 513.83333 3907.6 L 513.83333 3893.6 C 513.83333 3889.734 516.96734 3886.6 520.83333 3886.6 Z" fill="#ffeaba"/>
        <path d="M 520.83333 3886.6 L 535.16667 3886.6 C 539.03266 3886.6 542.16667 3889.734 542.16667 3893.6 L 542.16667 3907.6 C 542.16667 3911.466 539.03266 3914.6 535.16667 3914.6 L 520.83333 3914.6 C 516.96734 3914.6 513.83333 3911.466 513.83333 3907.6 L 513.83333 3893.6 C 513.83333 3889.734 516.96734 3886.6 520.83333 3886.6 Z" stroke="gray" stroke-linecap="round" stroke-linejoin="round" stroke-width="1"/>
        <text transform="translate(520.3602 3892.2694) rotate(1)" fill="black">
          <tspan font-family="Helvetica Neue" font-size="14" fill="black" x="0" y="13">12</tspan>
        </text>
      </g>
      <g id="Graphic_1700">
        <path d="M 407.5 3886.6 L 421.83333 3886.6 C 425.69933 3886.6 428.83333 3889.734 428.83333 3893.6 L 428.83333 3907.6 C 428.83333 3911.466 425.69933 3914.6 421.83333 3914.6 L 407.5 3914.6 C 403.634 3914.6 400.5 3911.466 400.5 3907.6 L 400.5 3893.6 C 400.5 3889.734 403.634 3886.6 407.5 3886.6 Z" fill="#ffeaba"/>
        <path d="M 407.5 3886.6 L 421.83333 3886.6 C 425.69933 3886.6 428.83333 3889.734 428.83333 3893.6 L 428.83333 3907.6 C 428.83333 3911.466 425.69933 3914.6 421.83333 3914.6 L 407.5 3914.6 C 403.634 3914.6 400.5 3911.466 400.5 3907.6 L 400.5 3893.6 C 400.5 3889.734 403.634 3886.6 407.5 3886.6 Z" stroke="gray" stroke-linecap="round" stroke-linejoin="round" stroke-width="1"/>
        <text transform="translate(410.9183 3892.3374) rotate(1)" fill="black">
          <tspan font-family="Helvetica Neue" font-size="14" fill="black" x="0" y="13">8</tspan>
        </text>
      </g>
      <g id="Graphic_1698">
        <path d="M 549.16667 3942.6 L 563.5 3942.6 C 567.366 3942.6 570.5 3945.734 570.5 3949.6 L 570.5 3963.6 C 570.5 3967.466 567.366 3970.6 563.5 3970.6 L 549.16667 3970.6 C 545.3007 3970.6 542.16667 3967.466 542.16667 3963.6 L 542.16667 3949.6 C 542.16667 3945.734 545.3007 3942.6 549.16667 3942.6 Z" fill="#ffeaba"/>
        <path d="M 549.16667 3942.6 L 563.5 3942.6 C 567.366 3942.6 570.5 3945.734 570.5 3949.6 L 570.5 3963.6 C 570.5 3967.466 567.366 3970.6 563.5 3970.6 L 549.16667 3970.6 C 545.3007 3970.6 542.16667 3967.466 542.16667 3963.6 L 542.16667 3949.6 C 542.16667 3945.734 545.3007 3942.6 549.16667 3942.6 Z" stroke="gray" stroke-linecap="round" stroke-linejoin="round" stroke-width="1"/>
        <text transform="translate(548.69356 3948.2694) rotate(1)" fill="black">
          <tspan font-family="Helvetica Neue" font-size="14" fill="black" x="0" y="13">30</tspan>
        </text>
      </g>
      <g id="Graphic_1697">
        <path d="M 492.5 3914.6 L 506.83333 3914.6 C 510.6993 3914.6 513.83333 3917.734 513.83333 3921.6 L 513.83333 3935.6 C 513.83333 3939.466 510.6993 3942.6 506.83333 3942.6 L 492.5 3942.6 C 488.634 3942.6 485.5 3939.466 485.5 3935.6 L 485.5 3921.6 C 485.5 3917.734 488.634 3914.6 492.5 3914.6 Z" fill="#ffeaba"/>
        <path d="M 492.5 3914.6 L 506.83333 3914.6 C 510.6993 3914.6 513.83333 3917.734 513.83333 3921.6 L 513.83333 3935.6 C 513.83333 3939.466 510.6993 3942.6 506.83333 3942.6 L 492.5 3942.6 C 488.634 3942.6 485.5 3939.466 485.5 3935.6 L 485.5 3921.6 C 485.5 3917.734 488.634 3914.6 492.5 3914.6 Z" stroke="gray" stroke-linecap="round" stroke-linejoin="round" stroke-width="1"/>
        <text transform="translate(492.0269 3920.2694) rotate(1)" fill="black">
          <tspan font-family="Helvetica Neue" font-size="14" fill="black" x="0" y="13">19</tspan>
        </text>
      </g>
      <g id="Graphic_1696">
        <path d="M 464.16667 3886.6 L 478.5 3886.6 C 482.366 3886.6 485.5 3889.734 485.5 3893.6 L 485.5 3907.6 C 485.5 3911.466 482.366 3914.6 478.5 3914.6 L 464.16667 3914.6 C 460.3007 3914.6 457.16667 3911.466 457.16667 3907.6 L 457.16667 3893.6 C 457.16667 3889.734 460.3007 3886.6 464.16667 3886.6 Z" fill="#ffeaba"/>
        <path d="M 464.16667 3886.6 L 478.5 3886.6 C 482.366 3886.6 485.5 3889.734 485.5 3893.6 L 485.5 3907.6 C 485.5 3911.466 482.366 3914.6 478.5 3914.6 L 464.16667 3914.6 C 460.3007 3914.6 457.16667 3911.466 457.16667 3907.6 L 457.16667 3893.6 C 457.16667 3889.734 460.3007 3886.6 464.16667 3886.6 Z" stroke="gray" stroke-linecap="round" stroke-linejoin="round" stroke-width="1"/>
        <text transform="translate(463.69356 3892.2694) rotate(1)" fill="black">
          <tspan font-family="Helvetica Neue" font-size="14" fill="black" x="0" y="13">10</tspan>
        </text>
      </g>
      <g id="Graphic_1695">
        <path d="M 492.5 3858.6 L 506.83333 3858.6 C 510.6993 3858.6 513.83333 3861.734 513.83333 3865.6 L 513.83333 3879.6 C 513.83333 3883.466 510.6993 3886.6 506.83333 3886.6 L 492.5 3886.6 C 488.634 3886.6 485.5 3883.466 485.5 3879.6 L 485.5 3865.6 C 485.5 3861.734 488.634 3858.6 492.5 3858.6 Z" fill="#ffeaba"/>
        <path d="M 492.5 3858.6 L 506.83333 3858.6 C 510.6993 3858.6 513.83333 3861.734 513.83333 3865.6 L 513.83333 3879.6 C 513.83333 3883.466 510.6993 3886.6 506.83333 3886.6 L 492.5 3886.6 C 488.634 3886.6 485.5 3883.466 485.5 3879.6 L 485.5 3865.6 C 485.5 3861.734 488.634 3858.6 492.5 3858.6 Z" stroke="gray" stroke-linecap="round" stroke-linejoin="round" stroke-width="1"/>
        <text transform="translate(495.9183 3864.3374) rotate(1)" fill="black">
          <tspan font-family="Helvetica Neue" font-size="14" fill="black" x="0" y="13">5</tspan>
        </text>
      </g>
      <g id="Graphic_1693">
        <path d="M 435.83333 3942.6 L 450.16667 3942.6 C 454.03266 3942.6 457.16667 3945.734 457.16667 3949.6 L 457.16667 3963.6 C 457.16667 3967.466 454.03266 3970.6 450.16667 3970.6 L 435.83333 3970.6 C 431.96734 3970.6 428.83333 3967.466 428.83333 3963.6 L 428.83333 3949.6 C 428.83333 3945.734 431.96734 3942.6 435.83333 3942.6 Z" fill="#ffeaba"/>
        <path d="M 435.83333 3942.6 L 450.16667 3942.6 C 454.03266 3942.6 457.16667 3945.734 457.16667 3949.6 L 457.16667 3963.6 C 457.16667 3967.466 454.03266 3970.6 450.16667 3970.6 L 435.83333 3970.6 C 431.96734 3970.6 428.83333 3967.466 428.83333 3963.6 L 428.83333 3949.6 C 428.83333 3945.734 431.96734 3942.6 435.83333 3942.6 Z" stroke="gray" stroke-linecap="round" stroke-linejoin="round" stroke-width="1"/>
        <text transform="translate(435.3602 3948.2694) rotate(1)" fill="black">
          <tspan font-family="Helvetica Neue" font-size="14" fill="black" x="0" y="13">24</tspan>
        </text>
      </g>
      <g id="Graphic_1692">
        <path d="M 549.16667 3886.6 L 563.5 3886.6 C 567.366 3886.6 570.5 3889.734 570.5 3893.6 L 570.5 3907.6 C 570.5 3911.466 567.366 3914.6 563.5 3914.6 L 549.16667 3914.6 C 545.3007 3914.6 542.16667 3911.466 542.16667 3907.6 L 542.16667 3893.6 C 542.16667 3889.734 545.3007 3886.6 549.16667 3886.6 Z" fill="#ffeaba"/>
        <path d="M 549.16667 3886.6 L 563.5 3886.6 C 567.366 3886.6 570.5 3889.734 570.5 3893.6 L 570.5 3907.6 C 570.5 3911.466 567.366 3914.6 563.5 3914.6 L 549.16667 3914.6 C 545.3007 3914.6 542.16667 3911.466 542.16667 3907.6 L 542.16667 3893.6 C 542.16667 3889.734 545.3007 3886.6 549.16667 3886.6 Z" stroke="gray" stroke-linecap="round" stroke-linejoin="round" stroke-width="1"/>
        <text transform="translate(548.69356 3892.2694) rotate(1)" fill="black">
          <tspan font-family="Helvetica Neue" font-size="14" fill="black" x="0" y="13">13</tspan>
        </text>
      </g>
      <g id="Graphic_1691">
        <path d="M 407.5 3914.6 L 421.83333 3914.6 C 425.69933 3914.6 428.83333 3917.734 428.83333 3921.6 L 428.83333 3935.6 C 428.83333 3939.466 425.69933 3942.6 421.83333 3942.6 L 407.5 3942.6 C 403.634 3942.6 400.5 3939.466 400.5 3935.6 L 400.5 3921.6 C 400.5 3917.734 403.634 3914.6 407.5 3914.6 Z" fill="#ffeaba"/>
        <path d="M 407.5 3914.6 L 421.83333 3914.6 C 425.69933 3914.6 428.83333 3917.734 428.83333 3921.6 L 428.83333 3935.6 C 428.83333 3939.466 425.69933 3942.6 421.83333 3942.6 L 407.5 3942.6 C 403.634 3942.6 400.5 3939.466 400.5 3935.6 L 400.5 3921.6 C 400.5 3917.734 403.634 3914.6 407.5 3914.6 Z" stroke="gray" stroke-linecap="round" stroke-linejoin="round" stroke-width="1"/>
        <text transform="translate(407.0269 3920.2694) rotate(1)" fill="black">
          <tspan font-family="Helvetica Neue" font-size="14" fill="black" x="0" y="13">15</tspan>
        </text>
      </g>
      <g id="Graphic_1690">
        <path d="M 464.16667 3914.6 L 478.5 3914.6 C 482.366 3914.6 485.5 3917.734 485.5 3921.6 L 485.5 3935.6 C 485.5 3939.466 482.366 3942.6 478.5 3942.6 L 464.16667 3942.6 C 460.3007 3942.6 457.16667 3939.466 457.16667 3935.6 L 457.16667 3921.6 C 457.16667 3917.734 460.3007 3914.6 464.16667 3914.6 Z" fill="#ffeaba"/>
        <path d="M 464.16667 3914.6 L 478.5 3914.6 C 482.366 3914.6 485.5 3917.734 485.5 3921.6 L 485.5 3935.6 C 485.5 3939.466 482.366 3942.6 478.5 3942.6 L 464.16667 3942.6 C 460.3007 3942.6 457.16667 3939.466 457.16667 3935.6 L 457.16667 3921.6 C 457.16667 3917.734 460.3007 3914.6 464.16667 3914.6 Z" stroke="gray" stroke-linecap="round" stroke-linejoin="round" stroke-width="1"/>
        <text transform="translate(463.69356 3920.2694) rotate(1)" fill="black">
          <tspan font-family="Helvetica Neue" font-size="14" fill="black" x="0" y="13">18</tspan>
        </text>
      </g>
      <g id="Graphic_1689">
        <path d="M 520.83333 3858.6 L 535.16667 3858.6 C 539.03266 3858.6 542.16667 3861.734 542.16667 3865.6 L 542.16667 3879.6 C 542.16667 3883.466 539.03266 3886.6 535.16667 3886.6 L 520.83333 3886.6 C 516.96734 3886.6 513.83333 3883.466 513.83333 3879.6 L 513.83333 3865.6 C 513.83333 3861.734 516.96734 3858.6 520.83333 3858.6 Z" fill="#ffeaba"/>
        <path d="M 520.83333 3858.6 L 535.16667 3858.6 C 539.03266 3858.6 542.16667 3861.734 542.16667 3865.6 L 542.16667 3879.6 C 542.16667 3883.466 539.03266 3886.6 535.16667 3886.6 L 520.83333 3886.6 C 516.96734 3886.6 513.83333 3883.466 513.83333 3879.6 L 513.83333 3865.6 C 513.83333 3861.734 516.96734 3858.6 520.83333 3858.6 Z" stroke="gray" stroke-linecap="round" stroke-linejoin="round" stroke-width="1"/>
        <text transform="translate(524.25163 3864.3374) rotate(1)" fill="black">
          <tspan font-family="Helvetica Neue" font-size="14" fill="black" x="0" y="13">6</tspan>
        </text>
      </g>
      <g id="Graphic_1688">
        <path d="M 492.5 3886.6 L 506.83333 3886.6 C 510.6993 3886.6 513.83333 3889.734 513.83333 3893.6 L 513.83333 3907.6 C 513.83333 3911.466 510.6993 3914.6 506.83333 3914.6 L 492.5 3914.6 C 488.634 3914.6 485.5 3911.466 485.5 3907.6 L 485.5 3893.6 C 485.5 3889.734 488.634 3886.6 492.5 3886.6 Z" fill="#ffeaba"/>
        <path d="M 492.5 3886.6 L 506.83333 3886.6 C 510.6993 3886.6 513.83333 3889.734 513.83333 3893.6 L 513.83333 3907.6 C 513.83333 3911.466 510.6993 3914.6 506.83333 3914.6 L 492.5 3914.6 C 488.634 3914.6 485.5 3911.466 485.5 3907.6 L 485.5 3893.6 C 485.5 3889.734 488.634 3886.6 492.5 3886.6 Z" stroke="gray" stroke-linecap="round" stroke-linejoin="round" stroke-width="1"/>
        <text transform="translate(492.0269 3892.2694) rotate(1)" fill="black">
          <tspan font-family="Helvetica Neue" font-size="14" fill="black" x="0" y="13">11</tspan>
        </text>
      </g>
      <g id="Graphic_1684"/>
      <g id="Graphic_1682"/>
      <g id="Graphic_1681"/>
      <g id="Graphic_1680"/>
      <g id="Graphic_1679">
        <path d="M 435.83333 4048.6 L 450.16667 4048.6 C 454.03266 4048.6 457.16667 4051.734 457.16667 4055.6 L 457.16667 4069.6 C 457.16667 4073.466 454.03266 4076.6 450.16667 4076.6 L 435.83333 4076.6 C 431.96734 4076.6 428.83333 4073.466 428.83333 4069.6 L 428.83333 4055.6 C 428.83333 4051.734 431.96734 4048.6 435.83333 4048.6 Z" fill="#e4e6ff"/>
        <path d="M 435.83333 4048.6 L 450.16667 4048.6 C 454.03266 4048.6 457.16667 4051.734 457.16667 4055.6 L 457.16667 4069.6 C 457.16667 4073.466 454.03266 4076.6 450.16667 4076.6 L 435.83333 4076.6 C 431.96734 4076.6 428.83333 4073.466 428.83333 4069.6 L 428.83333 4055.6 C 428.83333 4051.734 431.96734 4048.6 435.83333 4048.6 Z" stroke="gray" stroke-linecap="round" stroke-linejoin="round" stroke-width="1"/>
        <text transform="translate(435.3602 4054.2694) rotate(1)" fill="black">
          <tspan font-family="Helvetica Neue" font-size="14" fill="black" x="0" y="13">14</tspan>
        </text>
      </g>
      <g id="Graphic_1678"/>
      <g id="Graphic_1677"/>
      <g id="Graphic_1676"/>
      <g id="Graphic_1675"/>
      <g id="Graphic_1674"/>
      <g id="Graphic_1673"/>
      <g id="Graphic_1672"/>
      <g id="Graphic_1671"/>
      <g id="Graphic_1670">
        <path d="M 520.83333 4048.6 L 535.16667 4048.6 C 539.03266 4048.6 542.16667 4051.734 542.16667 4055.6 L 542.16667 4069.6 C 542.16667 4073.466 539.03266 4076.6 535.16667 4076.6 L 520.83333 4076.6 C 516.96734 4076.6 513.83333 4073.466 513.83333 4069.6 L 513.83333 4055.6 C 513.83333 4051.734 516.96734 4048.6 520.83333 4048.6 Z" fill="#e4e6ff"/>
        <path d="M 520.83333 4048.6 L 535.16667 4048.6 C 539.03266 4048.6 542.16667 4051.734 542.16667 4055.6 L 542.16667 4069.6 C 542.16667 4073.466 539.03266 4076.6 535.16667 4076.6 L 520.83333 4076.6 C 516.96734 4076.6 513.83333 4073.466 513.83333 4069.6 L 513.83333 4055.6 C 513.83333 4051.734 516.96734 4048.6 520.83333 4048.6 Z" stroke="gray" stroke-linecap="round" stroke-linejoin="round" stroke-width="1"/>
        <text transform="translate(520.3602 4054.2694) rotate(1)" fill="black">
          <tspan font-family="Helvetica Neue" font-size="14" fill="black" x="0" y="13">25</tspan>
        </text>
      </g>
      <g id="Graphic_1669">
        <path d="M 407.5 4048.6 L 421.83333 4048.6 C 425.69933 4048.6 428.83333 4051.734 428.83333 4055.6 L 428.83333 4069.6 C 428.83333 4073.466 425.69933 4076.6 421.83333 4076.6 L 407.5 4076.6 C 403.634 4076.6 400.5 4073.466 400.5 4069.6 L 400.5 4055.6 C 400.5 4051.734 403.634 4048.6 407.5 4048.6 Z" fill="#e4e6ff"/>
        <path d="M 407.5 4048.6 L 421.83333 4048.6 C 425.69933 4048.6 428.83333 4051.734 428.83333 4055.6 L 428.83333 4069.6 C 428.83333 4073.466 425.69933 4076.6 421.83333 4076.6 L 407.5 4076.6 C 403.634 4076.6 400.5 4073.466 400.5 4069.6 L 400.5 4055.6 C 400.5 4051.734 403.634 4048.6 407.5 4048.6 Z" stroke="gray" stroke-linecap="round" stroke-linejoin="round" stroke-width="1"/>
        <text transform="translate(410.9183 4054.3374) rotate(1)" fill="black">
          <tspan font-family="Helvetica Neue" font-size="14" fill="black" x="0" y="13">1</tspan>
        </text>
      </g>
      <g id="Graphic_1668"/>
      <g id="Graphic_1667"/>
      <g id="Graphic_1665">
        <path d="M 464.16667 4048.6 L 478.5 4048.6 C 482.366 4048.6 485.5 4051.734 485.5 4055.6 L 485.5 4069.6 C 485.5 4073.466 482.366 4076.6 478.5 4076.6 L 464.16667 4076.6 C 460.3007 4076.6 457.16667 4073.466 457.16667 4069.6 L 457.16667 4055.6 C 457.16667 4051.734 460.3007 4048.6 464.16667 4048.6 Z" fill="#e4e6ff"/>
        <path d="M 464.16667 4048.6 L 478.5 4048.6 C 482.366 4048.6 485.5 4051.734 485.5 4055.6 L 485.5 4069.6 C 485.5 4073.466 482.366 4076.6 478.5 4076.6 L 464.16667 4076.6 C 460.3007 4076.6 457.16667 4073.466 457.16667 4069.6 L 457.16667 4055.6 C 457.16667 4051.734 460.3007 4048.6 464.16667 4048.6 Z" stroke="gray" stroke-linecap="round" stroke-linejoin="round" stroke-width="1"/>
        <text transform="translate(463.69356 4054.2694) rotate(1)" fill="black">
          <tspan font-family="Helvetica Neue" font-size="14" fill="black" x="0" y="13">16</tspan>
        </text>
      </g>
      <g id="Graphic_1664"/>
      <g id="Graphic_1663"/>
      <g id="Graphic_1662"/>
      <g id="Graphic_1661">
        <path d="M 549.16667 4048.6 L 563.5 4048.6 C 567.366 4048.6 570.5 4051.734 570.5 4055.6 L 570.5 4069.6 C 570.5 4073.466 567.366 4076.6 563.5 4076.6 L 549.16667 4076.6 C 545.3007 4076.6 542.16667 4073.466 542.16667 4069.6 L 542.16667 4055.6 C 542.16667 4051.734 545.3007 4048.6 549.16667 4048.6 Z" fill="#e4e6ff"/>
        <path d="M 549.16667 4048.6 L 563.5 4048.6 C 567.366 4048.6 570.5 4051.734 570.5 4055.6 L 570.5 4069.6 C 570.5 4073.466 567.366 4076.6 563.5 4076.6 L 549.16667 4076.6 C 545.3007 4076.6 542.16667 4073.466 542.16667 4069.6 L 542.16667 4055.6 C 542.16667 4051.734 545.3007 4048.6 549.16667 4048.6 Z" stroke="gray" stroke-linecap="round" stroke-linejoin="round" stroke-width="1"/>
        <text transform="translate(548.69356 4054.2694) rotate(1)" fill="black">
          <tspan font-family="Helvetica Neue" font-size="14" fill="black" x="0" y="13">27</tspan>
        </text>
      </g>
      <g id="Graphic_1658"/>
      <g id="Graphic_1657">
        <path d="M 492.5 4048.6 L 506.83333 4048.6 C 510.6993 4048.6 513.83333 4051.734 513.83333 4055.6 L 513.83333 4069.6 C 513.83333 4073.466 510.6993 4076.6 506.83333 4076.6 L 492.5 4076.6 C 488.634 4076.6 485.5 4073.466 485.5 4069.6 L 485.5 4055.6 C 485.5 4051.734 488.634 4048.6 492.5 4048.6 Z" fill="#e4e6ff"/>
        <path d="M 492.5 4048.6 L 506.83333 4048.6 C 510.6993 4048.6 513.83333 4051.734 513.83333 4055.6 L 513.83333 4069.6 C 513.83333 4073.466 510.6993 4076.6 506.83333 4076.6 L 492.5 4076.6 C 488.634 4076.6 485.5 4073.466 485.5 4069.6 L 485.5 4055.6 C 485.5 4051.734 488.634 4048.6 492.5 4048.6 Z" stroke="gray" stroke-linecap="round" stroke-linejoin="round" stroke-width="1"/>
        <text transform="translate(492.0269 4054.2694) rotate(1)" fill="black">
          <tspan font-family="Helvetica Neue" font-size="14" fill="black" x="0" y="13">21</tspan>
        </text>
      </g>
      <g id="Graphic_1655">
        <text transform="translate(256.132 3808.6)" fill="black">
          <tspan font-family="Helvetica Neue" font-size="16" fill="black" x="0" y="15">Iteration 2</tspan>
        </text>
      </g>
      <g id="Graphic_1654">
        <text transform="translate(448.436 3808.272)" fill="black">
          <tspan font-family="Helvetica Neue" font-size="16" fill="black" x="0" y="15">Iteration 3</tspan>
        </text>
      </g>
    </g>
  </g>
</svg>
