<?xml version="1.0" encoding="UTF-8" standalone="no"?>
<!DOCTYPE svg PUBLIC "-//W3C//DTD SVG 1.1//EN" "http://www.w3.org/Graphics/SVG/1.1/DTD/svg11.dtd">
<svg xmlns:xl="http://www.w3.org/1999/xlink" xmlns:dc="http://purl.org/dc/elements/1.1/" xmlns="http://www.w3.org/2000/svg" version="1.1" viewBox="1412.5 3883 694.65 357.328" width="694.65" height="357.328">
  <defs/>
  <g id="Canvas_1" stroke-opacity="1" fill-opacity="1" stroke="none" stroke-dasharray="none" fill="none">
    <title>Canvas 1</title>
    <g id="Canvas_1_Layer_1">
      <title>Layer 1</title>
      <g id="Graphic_2003">
        <text transform="translate(1438.5 3983.224)" fill="#ebebeb">
          <tspan font-family="Helvetica Neue" font-size="16" fill="#ebebeb" x="4.512" y="15">Model Fit </tspan>
          <tspan font-family="Helvetica Neue" font-size="16" fill="#ebebeb" x="17.408" y="33.448">Using</tspan>
        </text>
      </g>
      <g id="Graphic_2002">
        <text transform="translate(1417.5 4111.804)" fill="#ebebeb">
          <tspan font-family="Helvetica Neue" font-size="16" fill="#ebebeb" x="17.38" y="15">Estimate </tspan>
          <tspan font-family="Helvetica Neue" font-size="16" fill="#ebebeb" x="2.572" y="33.448">Performance </tspan>
          <tspan font-family="Helvetica Neue" font-size="16" fill="#ebebeb" x="27.908" y="51.895996">Using</tspan>
        </text>
      </g>
      <g id="Graphic_2001">
        <text transform="translate(1599.828 3888.656)" fill="#ebebeb">
          <tspan font-family="Helvetica Neue" font-size="16" fill="#ebebeb" x="0" y="15">Iteration 1</tspan>
        </text>
      </g>
      <g id="Line_2000">
        <line x1="1551.5" y1="3921.328" x2="1721.5" y2="3921.328" stroke="#ebebeb" stroke-linecap="round" stroke-linejoin="round" stroke-width="1.3"/>
      </g>
      <g id="Line_1999">
        <line x1="1530.5" y1="4078.224" x2="1530.5" y2="3938.224" stroke="#ebebeb" stroke-linecap="round" stroke-linejoin="round" stroke-width="1.3"/>
      </g>
      <g id="Line_1998">
        <line x1="1531.5" y1="4181.728" x2="1530.5" y2="4097.224" stroke="#ebebeb" stroke-linecap="round" stroke-linejoin="round" stroke-width="1.3"/>
      </g>
      <g id="Graphic_1997">
        <path d="M 1586.8333 3994.328 L 1601.1667 3994.328 C 1605.0327 3994.328 1608.1667 3997.462 1608.1667 4001.328 L 1608.1667 4015.328 C 1608.1667 4019.194 1605.0327 4022.328 1601.1667 4022.328 L 1586.8333 4022.328 C 1582.9673 4022.328 1579.8333 4019.194 1579.8333 4015.328 L 1579.8333 4001.328 C 1579.8333 3997.462 1582.9673 3994.328 1586.8333 3994.328 Z" fill="#ffeaba"/>
        <path d="M 1586.8333 3994.328 L 1601.1667 3994.328 C 1605.0327 3994.328 1608.1667 3997.462 1608.1667 4001.328 L 1608.1667 4015.328 C 1608.1667 4019.194 1605.0327 4022.328 1601.1667 4022.328 L 1586.8333 4022.328 C 1582.9673 4022.328 1579.8333 4019.194 1579.8333 4015.328 L 1579.8333 4001.328 C 1579.8333 3997.462 1582.9673 3994.328 1586.8333 3994.328 Z" stroke="gray" stroke-linecap="round" stroke-linejoin="round" stroke-width="1"/>
        <text transform="translate(1586.3602 3999.9974) rotate(1)" fill="black">
          <tspan font-family="Helvetica Neue" font-size="14" fill="black" x="0" y="13">19</tspan>
        </text>
      </g>
      <g id="Graphic_1996">
        <path d="M 1700.1667 3994.328 L 1714.5 3994.328 C 1718.366 3994.328 1721.5 3997.462 1721.5 4001.328 L 1721.5 4015.328 C 1721.5 4019.194 1718.366 4022.328 1714.5 4022.328 L 1700.1667 4022.328 C 1696.3007 4022.328 1693.1667 4019.194 1693.1667 4015.328 L 1693.1667 4001.328 C 1693.1667 3997.462 1696.3007 3994.328 1700.1667 3994.328 Z" fill="#ffeaba"/>
        <path d="M 1700.1667 3994.328 L 1714.5 3994.328 C 1718.366 3994.328 1721.5 3997.462 1721.5 4001.328 L 1721.5 4015.328 C 1721.5 4019.194 1718.366 4022.328 1714.5 4022.328 L 1700.1667 4022.328 C 1696.3007 4022.328 1693.1667 4019.194 1693.1667 4015.328 L 1693.1667 4001.328 C 1693.1667 3997.462 1696.3007 3994.328 1700.1667 3994.328 Z" stroke="gray" stroke-linecap="round" stroke-linejoin="round" stroke-width="1"/>
        <text transform="translate(1699.6936 3999.9974) rotate(1)" fill="black">
          <tspan font-family="Helvetica Neue" font-size="14" fill="black" x="0" y="13">24</tspan>
        </text>
      </g>
      <g id="Graphic_1995">
        <path d="M 1671.8333 3994.328 L 1686.1667 3994.328 C 1690.0327 3994.328 1693.1667 3997.462 1693.1667 4001.328 L 1693.1667 4015.328 C 1693.1667 4019.194 1690.0327 4022.328 1686.1667 4022.328 L 1671.8333 4022.328 C 1667.9673 4022.328 1664.8333 4019.194 1664.8333 4015.328 L 1664.8333 4001.328 C 1664.8333 3997.462 1667.9673 3994.328 1671.8333 3994.328 Z" fill="#ffeaba"/>
        <path d="M 1671.8333 3994.328 L 1686.1667 3994.328 C 1690.0327 3994.328 1693.1667 3997.462 1693.1667 4001.328 L 1693.1667 4015.328 C 1693.1667 4019.194 1690.0327 4022.328 1686.1667 4022.328 L 1671.8333 4022.328 C 1667.9673 4022.328 1664.8333 4019.194 1664.8333 4015.328 L 1664.8333 4001.328 C 1664.8333 3997.462 1667.9673 3994.328 1671.8333 3994.328 Z" stroke="gray" stroke-linecap="round" stroke-linejoin="round" stroke-width="1"/>
        <text transform="translate(1671.3602 3999.9974) rotate(1)" fill="black">
          <tspan font-family="Helvetica Neue" font-size="14" fill="black" x="0" y="13">22</tspan>
        </text>
      </g>
      <g id="Graphic_1994">
        <path d="M 1615.1667 4022.328 L 1629.5 4022.328 C 1633.366 4022.328 1636.5 4025.462 1636.5 4029.328 L 1636.5 4043.328 C 1636.5 4047.194 1633.366 4050.328 1629.5 4050.328 L 1615.1667 4050.328 C 1611.3007 4050.328 1608.1667 4047.194 1608.1667 4043.328 L 1608.1667 4029.328 C 1608.1667 4025.462 1611.3007 4022.328 1615.1667 4022.328 Z" fill="#ffeaba"/>
        <path d="M 1615.1667 4022.328 L 1629.5 4022.328 C 1633.366 4022.328 1636.5 4025.462 1636.5 4029.328 L 1636.5 4043.328 C 1636.5 4047.194 1633.366 4050.328 1629.5 4050.328 L 1615.1667 4050.328 C 1611.3007 4050.328 1608.1667 4047.194 1608.1667 4043.328 L 1608.1667 4029.328 C 1608.1667 4025.462 1611.3007 4022.328 1615.1667 4022.328 Z" stroke="gray" stroke-linecap="round" stroke-linejoin="round" stroke-width="1"/>
        <text transform="translate(1614.6936 4027.9974) rotate(1)" fill="black">
          <tspan font-family="Helvetica Neue" font-size="14" fill="black" x="0" y="13">27</tspan>
        </text>
      </g>
      <g id="Graphic_1993">
        <path d="M 1643.5 4022.328 L 1657.8333 4022.328 C 1661.6993 4022.328 1664.8333 4025.462 1664.8333 4029.328 L 1664.8333 4043.328 C 1664.8333 4047.194 1661.6993 4050.328 1657.8333 4050.328 L 1643.5 4050.328 C 1639.634 4050.328 1636.5 4047.194 1636.5 4043.328 L 1636.5 4029.328 C 1636.5 4025.462 1639.634 4022.328 1643.5 4022.328 Z" fill="#ffeaba"/>
        <path d="M 1643.5 4022.328 L 1657.8333 4022.328 C 1661.6993 4022.328 1664.8333 4025.462 1664.8333 4029.328 L 1664.8333 4043.328 C 1664.8333 4047.194 1661.6993 4050.328 1657.8333 4050.328 L 1643.5 4050.328 C 1639.634 4050.328 1636.5 4047.194 1636.5 4043.328 L 1636.5 4029.328 C 1636.5 4025.462 1639.634 4022.328 1643.5 4022.328 Z" stroke="gray" stroke-linecap="round" stroke-linejoin="round" stroke-width="1"/>
        <text transform="translate(1643.0269 4027.9974) rotate(1)" fill="black">
          <tspan font-family="Helvetica Neue" font-size="14" fill="black" x="0" y="13">28</tspan>
        </text>
      </g>
      <g id="Graphic_1992">
        <path d="M 1586.8333 3966.328 L 1601.1667 3966.328 C 1605.0327 3966.328 1608.1667 3969.462 1608.1667 3973.328 L 1608.1667 3987.328 C 1608.1667 3991.194 1605.0327 3994.328 1601.1667 3994.328 L 1586.8333 3994.328 C 1582.9673 3994.328 1579.8333 3991.194 1579.8333 3987.328 L 1579.8333 3973.328 C 1579.8333 3969.462 1582.9673 3966.328 1586.8333 3966.328 Z" fill="#ffeaba"/>
        <path d="M 1586.8333 3966.328 L 1601.1667 3966.328 C 1605.0327 3966.328 1608.1667 3969.462 1608.1667 3973.328 L 1608.1667 3987.328 C 1608.1667 3991.194 1605.0327 3994.328 1601.1667 3994.328 L 1586.8333 3994.328 C 1582.9673 3994.328 1579.8333 3991.194 1579.8333 3987.328 L 1579.8333 3973.328 C 1579.8333 3969.462 1582.9673 3966.328 1586.8333 3966.328 Z" stroke="gray" stroke-linecap="round" stroke-linejoin="round" stroke-width="1"/>
        <text transform="translate(1590.2516 3972.0653) rotate(1)" fill="black">
          <tspan font-family="Helvetica Neue" font-size="14" fill="black" x="0" y="13">9</tspan>
        </text>
      </g>
      <g id="Graphic_1991">
        <path d="M 1700.1667 3938.328 L 1714.5 3938.328 C 1718.366 3938.328 1721.5 3941.462 1721.5 3945.328 L 1721.5 3959.328 C 1721.5 3963.194 1718.366 3966.328 1714.5 3966.328 L 1700.1667 3966.328 C 1696.3007 3966.328 1693.1667 3963.194 1693.1667 3959.328 L 1693.1667 3945.328 C 1693.1667 3941.462 1696.3007 3938.328 1700.1667 3938.328 Z" fill="#ffeaba"/>
        <path d="M 1700.1667 3938.328 L 1714.5 3938.328 C 1718.366 3938.328 1721.5 3941.462 1721.5 3945.328 L 1721.5 3959.328 C 1721.5 3963.194 1718.366 3966.328 1714.5 3966.328 L 1700.1667 3966.328 C 1696.3007 3966.328 1693.1667 3963.194 1693.1667 3959.328 L 1693.1667 3945.328 C 1693.1667 3941.462 1696.3007 3938.328 1700.1667 3938.328 Z" stroke="gray" stroke-linecap="round" stroke-linejoin="round" stroke-width="1"/>
        <text transform="translate(1703.585 3944.0653) rotate(1)" fill="black">
          <tspan font-family="Helvetica Neue" font-size="14" fill="black" x="0" y="13">7</tspan>
        </text>
      </g>
      <g id="Graphic_1990">
        <path d="M 1558.5 3938.328 L 1572.8333 3938.328 C 1576.6993 3938.328 1579.8333 3941.462 1579.8333 3945.328 L 1579.8333 3959.328 C 1579.8333 3963.194 1576.6993 3966.328 1572.8333 3966.328 L 1558.5 3966.328 C 1554.634 3966.328 1551.5 3963.194 1551.5 3959.328 L 1551.5 3945.328 C 1551.5 3941.462 1554.634 3938.328 1558.5 3938.328 Z" fill="#ffeaba"/>
        <path d="M 1558.5 3938.328 L 1572.8333 3938.328 C 1576.6993 3938.328 1579.8333 3941.462 1579.8333 3945.328 L 1579.8333 3959.328 C 1579.8333 3963.194 1576.6993 3966.328 1572.8333 3966.328 L 1558.5 3966.328 C 1554.634 3966.328 1551.5 3963.194 1551.5 3959.328 L 1551.5 3945.328 C 1551.5 3941.462 1554.634 3938.328 1558.5 3938.328 Z" stroke="gray" stroke-linecap="round" stroke-linejoin="round" stroke-width="1"/>
        <text transform="translate(1561.9183 3944.0653) rotate(1)" fill="black">
          <tspan font-family="Helvetica Neue" font-size="14" fill="black" x="0" y="13">1</tspan>
        </text>
      </g>
      <g id="Graphic_1989">
        <path d="M 1671.8333 4022.328 L 1686.1667 4022.328 C 1690.0327 4022.328 1693.1667 4025.462 1693.1667 4029.328 L 1693.1667 4043.328 C 1693.1667 4047.194 1690.0327 4050.328 1686.1667 4050.328 L 1671.8333 4050.328 C 1667.9673 4050.328 1664.8333 4047.194 1664.8333 4043.328 L 1664.8333 4029.328 C 1664.8333 4025.462 1667.9673 4022.328 1671.8333 4022.328 Z" fill="#ffeaba"/>
        <path d="M 1671.8333 4022.328 L 1686.1667 4022.328 C 1690.0327 4022.328 1693.1667 4025.462 1693.1667 4029.328 L 1693.1667 4043.328 C 1693.1667 4047.194 1690.0327 4050.328 1686.1667 4050.328 L 1671.8333 4050.328 C 1667.9673 4050.328 1664.8333 4047.194 1664.8333 4043.328 L 1664.8333 4029.328 C 1664.8333 4025.462 1667.9673 4022.328 1671.8333 4022.328 Z" stroke="gray" stroke-linecap="round" stroke-linejoin="round" stroke-width="1"/>
        <text transform="translate(1671.3602 4027.9974) rotate(1)" fill="black">
          <tspan font-family="Helvetica Neue" font-size="14" fill="black" x="0" y="13">29</tspan>
        </text>
      </g>
      <g id="Graphic_1988">
        <path d="M 1615.1667 3938.328 L 1629.5 3938.328 C 1633.366 3938.328 1636.5 3941.462 1636.5 3945.328 L 1636.5 3959.328 C 1636.5 3963.194 1633.366 3966.328 1629.5 3966.328 L 1615.1667 3966.328 C 1611.3007 3966.328 1608.1667 3963.194 1608.1667 3959.328 L 1608.1667 3945.328 C 1608.1667 3941.462 1611.3007 3938.328 1615.1667 3938.328 Z" fill="#ffeaba"/>
        <path d="M 1615.1667 3938.328 L 1629.5 3938.328 C 1633.366 3938.328 1636.5 3941.462 1636.5 3945.328 L 1636.5 3959.328 C 1636.5 3963.194 1633.366 3966.328 1629.5 3966.328 L 1615.1667 3966.328 C 1611.3007 3966.328 1608.1667 3963.194 1608.1667 3959.328 L 1608.1667 3945.328 C 1608.1667 3941.462 1611.3007 3938.328 1615.1667 3938.328 Z" stroke="gray" stroke-linecap="round" stroke-linejoin="round" stroke-width="1"/>
        <text transform="translate(1618.585 3944.0653) rotate(1)" fill="black">
          <tspan font-family="Helvetica Neue" font-size="14" fill="black" x="0" y="13">3</tspan>
        </text>
      </g>
      <g id="Graphic_1987">
        <path d="M 1586.8333 3938.328 L 1601.1667 3938.328 C 1605.0327 3938.328 1608.1667 3941.462 1608.1667 3945.328 L 1608.1667 3959.328 C 1608.1667 3963.194 1605.0327 3966.328 1601.1667 3966.328 L 1586.8333 3966.328 C 1582.9673 3966.328 1579.8333 3963.194 1579.8333 3959.328 L 1579.8333 3945.328 C 1579.8333 3941.462 1582.9673 3938.328 1586.8333 3938.328 Z" fill="#ffeaba"/>
        <path d="M 1586.8333 3938.328 L 1601.1667 3938.328 C 1605.0327 3938.328 1608.1667 3941.462 1608.1667 3945.328 L 1608.1667 3959.328 C 1608.1667 3963.194 1605.0327 3966.328 1601.1667 3966.328 L 1586.8333 3966.328 C 1582.9673 3966.328 1579.8333 3963.194 1579.8333 3959.328 L 1579.8333 3945.328 C 1579.8333 3941.462 1582.9673 3938.328 1586.8333 3938.328 Z" stroke="gray" stroke-linecap="round" stroke-linejoin="round" stroke-width="1"/>
        <text transform="translate(1590.2516 3944.0653) rotate(1)" fill="black">
          <tspan font-family="Helvetica Neue" font-size="14" fill="black" x="0" y="13">2</tspan>
        </text>
      </g>
      <g id="Graphic_1986">
        <path d="M 1558.5 4022.328 L 1572.8333 4022.328 C 1576.6993 4022.328 1579.8333 4025.462 1579.8333 4029.328 L 1579.8333 4043.328 C 1579.8333 4047.194 1576.6993 4050.328 1572.8333 4050.328 L 1558.5 4050.328 C 1554.634 4050.328 1551.5 4047.194 1551.5 4043.328 L 1551.5 4029.328 C 1551.5 4025.462 1554.634 4022.328 1558.5 4022.328 Z" fill="#ffeaba"/>
        <path d="M 1558.5 4022.328 L 1572.8333 4022.328 C 1576.6993 4022.328 1579.8333 4025.462 1579.8333 4029.328 L 1579.8333 4043.328 C 1579.8333 4047.194 1576.6993 4050.328 1572.8333 4050.328 L 1558.5 4050.328 C 1554.634 4050.328 1551.5 4047.194 1551.5 4043.328 L 1551.5 4029.328 C 1551.5 4025.462 1554.634 4022.328 1558.5 4022.328 Z" stroke="gray" stroke-linecap="round" stroke-linejoin="round" stroke-width="1"/>
        <text transform="translate(1558.0269 4027.9974) rotate(1)" fill="black">
          <tspan font-family="Helvetica Neue" font-size="14" fill="black" x="0" y="13">25</tspan>
        </text>
      </g>
      <g id="Graphic_1985">
        <path d="M 1671.8333 3966.328 L 1686.1667 3966.328 C 1690.0327 3966.328 1693.1667 3969.462 1693.1667 3973.328 L 1693.1667 3987.328 C 1693.1667 3991.194 1690.0327 3994.328 1686.1667 3994.328 L 1671.8333 3994.328 C 1667.9673 3994.328 1664.8333 3991.194 1664.8333 3987.328 L 1664.8333 3973.328 C 1664.8333 3969.462 1667.9673 3966.328 1671.8333 3966.328 Z" fill="#ffeaba"/>
        <path d="M 1671.8333 3966.328 L 1686.1667 3966.328 C 1690.0327 3966.328 1693.1667 3969.462 1693.1667 3973.328 L 1693.1667 3987.328 C 1693.1667 3991.194 1690.0327 3994.328 1686.1667 3994.328 L 1671.8333 3994.328 C 1667.9673 3994.328 1664.8333 3991.194 1664.8333 3987.328 L 1664.8333 3973.328 C 1664.8333 3969.462 1667.9673 3966.328 1671.8333 3966.328 Z" stroke="gray" stroke-linecap="round" stroke-linejoin="round" stroke-width="1"/>
        <text transform="translate(1671.3602 3971.9974) rotate(1)" fill="black">
          <tspan font-family="Helvetica Neue" font-size="14" fill="black" x="0" y="13">12</tspan>
        </text>
      </g>
      <g id="Graphic_1984">
        <path d="M 1558.5 3966.328 L 1572.8333 3966.328 C 1576.6993 3966.328 1579.8333 3969.462 1579.8333 3973.328 L 1579.8333 3987.328 C 1579.8333 3991.194 1576.6993 3994.328 1572.8333 3994.328 L 1558.5 3994.328 C 1554.634 3994.328 1551.5 3991.194 1551.5 3987.328 L 1551.5 3973.328 C 1551.5 3969.462 1554.634 3966.328 1558.5 3966.328 Z" fill="#ffeaba"/>
        <path d="M 1558.5 3966.328 L 1572.8333 3966.328 C 1576.6993 3966.328 1579.8333 3969.462 1579.8333 3973.328 L 1579.8333 3987.328 C 1579.8333 3991.194 1576.6993 3994.328 1572.8333 3994.328 L 1558.5 3994.328 C 1554.634 3994.328 1551.5 3991.194 1551.5 3987.328 L 1551.5 3973.328 C 1551.5 3969.462 1554.634 3966.328 1558.5 3966.328 Z" stroke="gray" stroke-linecap="round" stroke-linejoin="round" stroke-width="1"/>
        <text transform="translate(1561.9183 3972.0653) rotate(1)" fill="black">
          <tspan font-family="Helvetica Neue" font-size="14" fill="black" x="0" y="13">8</tspan>
        </text>
      </g>
      <g id="Graphic_1983">
        <path d="M 1700.1667 4022.328 L 1714.5 4022.328 C 1718.366 4022.328 1721.5 4025.462 1721.5 4029.328 L 1721.5 4043.328 C 1721.5 4047.194 1718.366 4050.328 1714.5 4050.328 L 1700.1667 4050.328 C 1696.3007 4050.328 1693.1667 4047.194 1693.1667 4043.328 L 1693.1667 4029.328 C 1693.1667 4025.462 1696.3007 4022.328 1700.1667 4022.328 Z" fill="#ffeaba"/>
        <path d="M 1700.1667 4022.328 L 1714.5 4022.328 C 1718.366 4022.328 1721.5 4025.462 1721.5 4029.328 L 1721.5 4043.328 C 1721.5 4047.194 1718.366 4050.328 1714.5 4050.328 L 1700.1667 4050.328 C 1696.3007 4050.328 1693.1667 4047.194 1693.1667 4043.328 L 1693.1667 4029.328 C 1693.1667 4025.462 1696.3007 4022.328 1700.1667 4022.328 Z" stroke="gray" stroke-linecap="round" stroke-linejoin="round" stroke-width="1"/>
        <text transform="translate(1699.6936 4027.9974) rotate(1)" fill="black">
          <tspan font-family="Helvetica Neue" font-size="14" fill="black" x="0" y="13">30</tspan>
        </text>
      </g>
      <g id="Graphic_1982">
        <path d="M 1643.5 3994.328 L 1657.8333 3994.328 C 1661.6993 3994.328 1664.8333 3997.462 1664.8333 4001.328 L 1664.8333 4015.328 C 1664.8333 4019.194 1661.6993 4022.328 1657.8333 4022.328 L 1643.5 4022.328 C 1639.634 4022.328 1636.5 4019.194 1636.5 4015.328 L 1636.5 4001.328 C 1636.5 3997.462 1639.634 3994.328 1643.5 3994.328 Z" fill="#ffeaba"/>
        <path d="M 1643.5 3994.328 L 1657.8333 3994.328 C 1661.6993 3994.328 1664.8333 3997.462 1664.8333 4001.328 L 1664.8333 4015.328 C 1664.8333 4019.194 1661.6993 4022.328 1657.8333 4022.328 L 1643.5 4022.328 C 1639.634 4022.328 1636.5 4019.194 1636.5 4015.328 L 1636.5 4001.328 C 1636.5 3997.462 1639.634 3994.328 1643.5 3994.328 Z" stroke="gray" stroke-linecap="round" stroke-linejoin="round" stroke-width="1"/>
        <text transform="translate(1643.0269 3999.9974) rotate(1)" fill="black">
          <tspan font-family="Helvetica Neue" font-size="14" fill="black" x="0" y="13">21</tspan>
        </text>
      </g>
      <g id="Graphic_1981">
        <path d="M 1615.1667 3966.328 L 1629.5 3966.328 C 1633.366 3966.328 1636.5 3969.462 1636.5 3973.328 L 1636.5 3987.328 C 1636.5 3991.194 1633.366 3994.328 1629.5 3994.328 L 1615.1667 3994.328 C 1611.3007 3994.328 1608.1667 3991.194 1608.1667 3987.328 L 1608.1667 3973.328 C 1608.1667 3969.462 1611.3007 3966.328 1615.1667 3966.328 Z" fill="#ffeaba"/>
        <path d="M 1615.1667 3966.328 L 1629.5 3966.328 C 1633.366 3966.328 1636.5 3969.462 1636.5 3973.328 L 1636.5 3987.328 C 1636.5 3991.194 1633.366 3994.328 1629.5 3994.328 L 1615.1667 3994.328 C 1611.3007 3994.328 1608.1667 3991.194 1608.1667 3987.328 L 1608.1667 3973.328 C 1608.1667 3969.462 1611.3007 3966.328 1615.1667 3966.328 Z" stroke="gray" stroke-linecap="round" stroke-linejoin="round" stroke-width="1"/>
        <text transform="translate(1614.6936 3971.9974) rotate(1)" fill="black">
          <tspan font-family="Helvetica Neue" font-size="14" fill="black" x="0" y="13">10</tspan>
        </text>
      </g>
      <g id="Graphic_1980">
        <path d="M 1643.5 3938.328 L 1657.8333 3938.328 C 1661.6993 3938.328 1664.8333 3941.462 1664.8333 3945.328 L 1664.8333 3959.328 C 1664.8333 3963.194 1661.6993 3966.328 1657.8333 3966.328 L 1643.5 3966.328 C 1639.634 3966.328 1636.5 3963.194 1636.5 3959.328 L 1636.5 3945.328 C 1636.5 3941.462 1639.634 3938.328 1643.5 3938.328 Z" fill="#ffeaba"/>
        <path d="M 1643.5 3938.328 L 1657.8333 3938.328 C 1661.6993 3938.328 1664.8333 3941.462 1664.8333 3945.328 L 1664.8333 3959.328 C 1664.8333 3963.194 1661.6993 3966.328 1657.8333 3966.328 L 1643.5 3966.328 C 1639.634 3966.328 1636.5 3963.194 1636.5 3959.328 L 1636.5 3945.328 C 1636.5 3941.462 1639.634 3938.328 1643.5 3938.328 Z" stroke="gray" stroke-linecap="round" stroke-linejoin="round" stroke-width="1"/>
        <text transform="translate(1646.9183 3944.0653) rotate(1)" fill="black">
          <tspan font-family="Helvetica Neue" font-size="14" fill="black" x="0" y="13">4</tspan>
        </text>
      </g>
      <g id="Graphic_1979">
        <path d="M 1586.8333 4022.328 L 1601.1667 4022.328 C 1605.0327 4022.328 1608.1667 4025.462 1608.1667 4029.328 L 1608.1667 4043.328 C 1608.1667 4047.194 1605.0327 4050.328 1601.1667 4050.328 L 1586.8333 4050.328 C 1582.9673 4050.328 1579.8333 4047.194 1579.8333 4043.328 L 1579.8333 4029.328 C 1579.8333 4025.462 1582.9673 4022.328 1586.8333 4022.328 Z" fill="#ffeaba"/>
        <path d="M 1586.8333 4022.328 L 1601.1667 4022.328 C 1605.0327 4022.328 1608.1667 4025.462 1608.1667 4029.328 L 1608.1667 4043.328 C 1608.1667 4047.194 1605.0327 4050.328 1601.1667 4050.328 L 1586.8333 4050.328 C 1582.9673 4050.328 1579.8333 4047.194 1579.8333 4043.328 L 1579.8333 4029.328 C 1579.8333 4025.462 1582.9673 4022.328 1586.8333 4022.328 Z" stroke="gray" stroke-linecap="round" stroke-linejoin="round" stroke-width="1"/>
        <text transform="translate(1586.3602 4027.9974) rotate(1)" fill="black">
          <tspan font-family="Helvetica Neue" font-size="14" fill="black" x="0" y="13">26</tspan>
        </text>
      </g>
      <g id="Graphic_1978">
        <path d="M 1700.1667 3966.328 L 1714.5 3966.328 C 1718.366 3966.328 1721.5 3969.462 1721.5 3973.328 L 1721.5 3987.328 C 1721.5 3991.194 1718.366 3994.328 1714.5 3994.328 L 1700.1667 3994.328 C 1696.3007 3994.328 1693.1667 3991.194 1693.1667 3987.328 L 1693.1667 3973.328 C 1693.1667 3969.462 1696.3007 3966.328 1700.1667 3966.328 Z" fill="#ffeaba"/>
        <path d="M 1700.1667 3966.328 L 1714.5 3966.328 C 1718.366 3966.328 1721.5 3969.462 1721.5 3973.328 L 1721.5 3987.328 C 1721.5 3991.194 1718.366 3994.328 1714.5 3994.328 L 1700.1667 3994.328 C 1696.3007 3994.328 1693.1667 3991.194 1693.1667 3987.328 L 1693.1667 3973.328 C 1693.1667 3969.462 1696.3007 3966.328 1700.1667 3966.328 Z" stroke="gray" stroke-linecap="round" stroke-linejoin="round" stroke-width="1"/>
        <text transform="translate(1699.6936 3971.9974) rotate(1)" fill="black">
          <tspan font-family="Helvetica Neue" font-size="14" fill="black" x="0" y="13">14</tspan>
        </text>
      </g>
      <g id="Graphic_1977">
        <path d="M 1558.5 3994.328 L 1572.8333 3994.328 C 1576.6993 3994.328 1579.8333 3997.462 1579.8333 4001.328 L 1579.8333 4015.328 C 1579.8333 4019.194 1576.6993 4022.328 1572.8333 4022.328 L 1558.5 4022.328 C 1554.634 4022.328 1551.5 4019.194 1551.5 4015.328 L 1551.5 4001.328 C 1551.5 3997.462 1554.634 3994.328 1558.5 3994.328 Z" fill="#ffeaba"/>
        <path d="M 1558.5 3994.328 L 1572.8333 3994.328 C 1576.6993 3994.328 1579.8333 3997.462 1579.8333 4001.328 L 1579.8333 4015.328 C 1579.8333 4019.194 1576.6993 4022.328 1572.8333 4022.328 L 1558.5 4022.328 C 1554.634 4022.328 1551.5 4019.194 1551.5 4015.328 L 1551.5 4001.328 C 1551.5 3997.462 1554.634 3994.328 1558.5 3994.328 Z" stroke="gray" stroke-linecap="round" stroke-linejoin="round" stroke-width="1"/>
        <text transform="translate(1558.0269 3999.9974) rotate(1)" fill="black">
          <tspan font-family="Helvetica Neue" font-size="14" fill="black" x="0" y="13">18</tspan>
        </text>
      </g>
      <g id="Graphic_1976">
        <path d="M 1615.1667 3994.328 L 1629.5 3994.328 C 1633.366 3994.328 1636.5 3997.462 1636.5 4001.328 L 1636.5 4015.328 C 1636.5 4019.194 1633.366 4022.328 1629.5 4022.328 L 1615.1667 4022.328 C 1611.3007 4022.328 1608.1667 4019.194 1608.1667 4015.328 L 1608.1667 4001.328 C 1608.1667 3997.462 1611.3007 3994.328 1615.1667 3994.328 Z" fill="#ffeaba"/>
        <path d="M 1615.1667 3994.328 L 1629.5 3994.328 C 1633.366 3994.328 1636.5 3997.462 1636.5 4001.328 L 1636.5 4015.328 C 1636.5 4019.194 1633.366 4022.328 1629.5 4022.328 L 1615.1667 4022.328 C 1611.3007 4022.328 1608.1667 4019.194 1608.1667 4015.328 L 1608.1667 4001.328 C 1608.1667 3997.462 1611.3007 3994.328 1615.1667 3994.328 Z" stroke="gray" stroke-linecap="round" stroke-linejoin="round" stroke-width="1"/>
        <text transform="translate(1614.6936 3999.9974) rotate(1)" fill="black">
          <tspan font-family="Helvetica Neue" font-size="14" fill="black" x="0" y="13">20</tspan>
        </text>
      </g>
      <g id="Graphic_1975">
        <path d="M 1671.8333 3938.328 L 1686.1667 3938.328 C 1690.0327 3938.328 1693.1667 3941.462 1693.1667 3945.328 L 1693.1667 3959.328 C 1693.1667 3963.194 1690.0327 3966.328 1686.1667 3966.328 L 1671.8333 3966.328 C 1667.9673 3966.328 1664.8333 3963.194 1664.8333 3959.328 L 1664.8333 3945.328 C 1664.8333 3941.462 1667.9673 3938.328 1671.8333 3938.328 Z" fill="#ffeaba"/>
        <path d="M 1671.8333 3938.328 L 1686.1667 3938.328 C 1690.0327 3938.328 1693.1667 3941.462 1693.1667 3945.328 L 1693.1667 3959.328 C 1693.1667 3963.194 1690.0327 3966.328 1686.1667 3966.328 L 1671.8333 3966.328 C 1667.9673 3966.328 1664.8333 3963.194 1664.8333 3959.328 L 1664.8333 3945.328 C 1664.8333 3941.462 1667.9673 3938.328 1671.8333 3938.328 Z" stroke="gray" stroke-linecap="round" stroke-linejoin="round" stroke-width="1"/>
        <text transform="translate(1675.2516 3944.0653) rotate(1)" fill="black">
          <tspan font-family="Helvetica Neue" font-size="14" fill="black" x="0" y="13">5</tspan>
        </text>
      </g>
      <g id="Graphic_1974">
        <path d="M 1643.5 3966.328 L 1657.8333 3966.328 C 1661.6993 3966.328 1664.8333 3969.462 1664.8333 3973.328 L 1664.8333 3987.328 C 1664.8333 3991.194 1661.6993 3994.328 1657.8333 3994.328 L 1643.5 3994.328 C 1639.634 3994.328 1636.5 3991.194 1636.5 3987.328 L 1636.5 3973.328 C 1636.5 3969.462 1639.634 3966.328 1643.5 3966.328 Z" fill="#ffeaba"/>
        <path d="M 1643.5 3966.328 L 1657.8333 3966.328 C 1661.6993 3966.328 1664.8333 3969.462 1664.8333 3973.328 L 1664.8333 3987.328 C 1664.8333 3991.194 1661.6993 3994.328 1657.8333 3994.328 L 1643.5 3994.328 C 1639.634 3994.328 1636.5 3991.194 1636.5 3987.328 L 1636.5 3973.328 C 1636.5 3969.462 1639.634 3966.328 1643.5 3966.328 Z" stroke="gray" stroke-linecap="round" stroke-linejoin="round" stroke-width="1"/>
        <text transform="translate(1643.0269 3971.9974) rotate(1)" fill="black">
          <tspan font-family="Helvetica Neue" font-size="14" fill="black" x="0" y="13">11</tspan>
        </text>
      </g>
      <g id="Graphic_1973"/>
      <g id="Graphic_1972"/>
      <g id="Graphic_1971"/>
      <g id="Graphic_1970">
        <path d="M 1586.8333 4128.328 L 1601.1667 4128.328 C 1605.0327 4128.328 1608.1667 4131.462 1608.1667 4135.328 L 1608.1667 4149.328 C 1608.1667 4153.194 1605.0327 4156.328 1601.1667 4156.328 L 1586.8333 4156.328 C 1582.9673 4156.328 1579.8333 4153.194 1579.8333 4149.328 L 1579.8333 4135.328 C 1579.8333 4131.462 1582.9673 4128.328 1586.8333 4128.328 Z" fill="#e4e6ff"/>
        <path d="M 1586.8333 4128.328 L 1601.1667 4128.328 C 1605.0327 4128.328 1608.1667 4131.462 1608.1667 4135.328 L 1608.1667 4149.328 C 1608.1667 4153.194 1605.0327 4156.328 1601.1667 4156.328 L 1586.8333 4156.328 C 1582.9673 4156.328 1579.8333 4153.194 1579.8333 4149.328 L 1579.8333 4135.328 C 1579.8333 4131.462 1582.9673 4128.328 1586.8333 4128.328 Z" stroke="gray" stroke-linecap="round" stroke-linejoin="round" stroke-width="1"/>
        <text transform="translate(1586.3602 4133.9974) rotate(1)" fill="black">
          <tspan font-family="Helvetica Neue" font-size="14" fill="black" x="0" y="13">13</tspan>
        </text>
      </g>
      <g id="Graphic_1969"/>
      <g id="Graphic_1968"/>
      <g id="Graphic_1967"/>
      <g id="Graphic_1966"/>
      <g id="Graphic_1965"/>
      <g id="Graphic_1964"/>
      <g id="Graphic_1963"/>
      <g id="Graphic_1962"/>
      <g id="Graphic_1961">
        <path d="M 1671.8333 4128.328 L 1686.1667 4128.328 C 1690.0327 4128.328 1693.1667 4131.462 1693.1667 4135.328 L 1693.1667 4149.328 C 1693.1667 4153.194 1690.0327 4156.328 1686.1667 4156.328 L 1671.8333 4156.328 C 1667.9673 4156.328 1664.8333 4153.194 1664.8333 4149.328 L 1664.8333 4135.328 C 1664.8333 4131.462 1667.9673 4128.328 1671.8333 4128.328 Z" fill="#e4e6ff"/>
        <path d="M 1671.8333 4128.328 L 1686.1667 4128.328 C 1690.0327 4128.328 1693.1667 4131.462 1693.1667 4135.328 L 1693.1667 4149.328 C 1693.1667 4153.194 1690.0327 4156.328 1686.1667 4156.328 L 1671.8333 4156.328 C 1667.9673 4156.328 1664.8333 4153.194 1664.8333 4149.328 L 1664.8333 4135.328 C 1664.8333 4131.462 1667.9673 4128.328 1671.8333 4128.328 Z" stroke="gray" stroke-linecap="round" stroke-linejoin="round" stroke-width="1"/>
        <text transform="translate(1671.3602 4133.9974) rotate(1)" fill="black">
          <tspan font-family="Helvetica Neue" font-size="14" fill="black" x="0" y="13">17</tspan>
        </text>
      </g>
      <g id="Graphic_1960">
        <path d="M 1558.5 4128.328 L 1572.8333 4128.328 C 1576.6993 4128.328 1579.8333 4131.462 1579.8333 4135.328 L 1579.8333 4149.328 C 1579.8333 4153.194 1576.6993 4156.328 1572.8333 4156.328 L 1558.5 4156.328 C 1554.634 4156.328 1551.5 4153.194 1551.5 4149.328 L 1551.5 4135.328 C 1551.5 4131.462 1554.634 4128.328 1558.5 4128.328 Z" fill="#e4e6ff"/>
        <path d="M 1558.5 4128.328 L 1572.8333 4128.328 C 1576.6993 4128.328 1579.8333 4131.462 1579.8333 4135.328 L 1579.8333 4149.328 C 1579.8333 4153.194 1576.6993 4156.328 1572.8333 4156.328 L 1558.5 4156.328 C 1554.634 4156.328 1551.5 4153.194 1551.5 4149.328 L 1551.5 4135.328 C 1551.5 4131.462 1554.634 4128.328 1558.5 4128.328 Z" stroke="gray" stroke-linecap="round" stroke-linejoin="round" stroke-width="1"/>
        <text transform="translate(1561.9183 4134.0653) rotate(1)" fill="black">
          <tspan font-family="Helvetica Neue" font-size="14" fill="black" x="0" y="13">6</tspan>
        </text>
      </g>
      <g id="Graphic_1959"/>
      <g id="Graphic_1958"/>
      <g id="Graphic_1957">
        <path d="M 1615.1667 4128.328 L 1629.5 4128.328 C 1633.366 4128.328 1636.5 4131.462 1636.5 4135.328 L 1636.5 4149.328 C 1636.5 4153.194 1633.366 4156.328 1629.5 4156.328 L 1615.1667 4156.328 C 1611.3007 4156.328 1608.1667 4153.194 1608.1667 4149.328 L 1608.1667 4135.328 C 1608.1667 4131.462 1611.3007 4128.328 1615.1667 4128.328 Z" fill="#e4e6ff"/>
        <path d="M 1615.1667 4128.328 L 1629.5 4128.328 C 1633.366 4128.328 1636.5 4131.462 1636.5 4135.328 L 1636.5 4149.328 C 1636.5 4153.194 1633.366 4156.328 1629.5 4156.328 L 1615.1667 4156.328 C 1611.3007 4156.328 1608.1667 4153.194 1608.1667 4149.328 L 1608.1667 4135.328 C 1608.1667 4131.462 1611.3007 4128.328 1615.1667 4128.328 Z" stroke="gray" stroke-linecap="round" stroke-linejoin="round" stroke-width="1"/>
        <text transform="translate(1614.6936 4133.9974) rotate(1)" fill="black">
          <tspan font-family="Helvetica Neue" font-size="14" fill="black" x="0" y="13">15</tspan>
        </text>
      </g>
      <g id="Graphic_1956"/>
      <g id="Graphic_1955"/>
      <g id="Graphic_1954"/>
      <g id="Graphic_1953">
        <path d="M 1700.1667 4128.328 L 1714.5 4128.328 C 1718.366 4128.328 1721.5 4131.462 1721.5 4135.328 L 1721.5 4149.328 C 1721.5 4153.194 1718.366 4156.328 1714.5 4156.328 L 1700.1667 4156.328 C 1696.3007 4156.328 1693.1667 4153.194 1693.1667 4149.328 L 1693.1667 4135.328 C 1693.1667 4131.462 1696.3007 4128.328 1700.1667 4128.328 Z" fill="#e4e6ff"/>
        <path d="M 1700.1667 4128.328 L 1714.5 4128.328 C 1718.366 4128.328 1721.5 4131.462 1721.5 4135.328 L 1721.5 4149.328 C 1721.5 4153.194 1718.366 4156.328 1714.5 4156.328 L 1700.1667 4156.328 C 1696.3007 4156.328 1693.1667 4153.194 1693.1667 4149.328 L 1693.1667 4135.328 C 1693.1667 4131.462 1696.3007 4128.328 1700.1667 4128.328 Z" stroke="gray" stroke-linecap="round" stroke-linejoin="round" stroke-width="1"/>
        <text transform="translate(1699.6936 4133.9974) rotate(1)" fill="black">
          <tspan font-family="Helvetica Neue" font-size="14" fill="black" x="0" y="13">23</tspan>
        </text>
      </g>
      <g id="Graphic_1952"/>
      <g id="Graphic_1951">
        <path d="M 1643.5 4128.328 L 1657.8333 4128.328 C 1661.6993 4128.328 1664.8333 4131.462 1664.8333 4135.328 L 1664.8333 4149.328 C 1664.8333 4153.194 1661.6993 4156.328 1657.8333 4156.328 L 1643.5 4156.328 C 1639.634 4156.328 1636.5 4153.194 1636.5 4149.328 L 1636.5 4135.328 C 1636.5 4131.462 1639.634 4128.328 1643.5 4128.328 Z" fill="#e4e6ff"/>
        <path d="M 1643.5 4128.328 L 1657.8333 4128.328 C 1661.6993 4128.328 1664.8333 4131.462 1664.8333 4135.328 L 1664.8333 4149.328 C 1664.8333 4153.194 1661.6993 4156.328 1657.8333 4156.328 L 1643.5 4156.328 C 1639.634 4156.328 1636.5 4153.194 1636.5 4149.328 L 1636.5 4135.328 C 1636.5 4131.462 1639.634 4128.328 1643.5 4128.328 Z" stroke="gray" stroke-linecap="round" stroke-linejoin="round" stroke-width="1"/>
        <text transform="translate(1643.0269 4133.9974) rotate(1)" fill="black">
          <tspan font-family="Helvetica Neue" font-size="14" fill="black" x="0" y="13">16</tspan>
        </text>
      </g>
      <g id="Line_1950">
        <line x1="1744.5" y1="3921.328" x2="1914.5" y2="3921.328" stroke="#ebebeb" stroke-linecap="round" stroke-linejoin="round" stroke-width="1.3"/>
      </g>
      <g id="Graphic_1949">
        <path d="M 1779.8333 3994.328 L 1794.1667 3994.328 C 1798.0327 3994.328 1801.1667 3997.462 1801.1667 4001.328 L 1801.1667 4015.328 C 1801.1667 4019.194 1798.0327 4022.328 1794.1667 4022.328 L 1779.8333 4022.328 C 1775.9673 4022.328 1772.8333 4019.194 1772.8333 4015.328 L 1772.8333 4001.328 C 1772.8333 3997.462 1775.9673 3994.328 1779.8333 3994.328 Z" fill="#ffeaba"/>
        <path d="M 1779.8333 3994.328 L 1794.1667 3994.328 C 1798.0327 3994.328 1801.1667 3997.462 1801.1667 4001.328 L 1801.1667 4015.328 C 1801.1667 4019.194 1798.0327 4022.328 1794.1667 4022.328 L 1779.8333 4022.328 C 1775.9673 4022.328 1772.8333 4019.194 1772.8333 4015.328 L 1772.8333 4001.328 C 1772.8333 3997.462 1775.9673 3994.328 1779.8333 3994.328 Z" stroke="gray" stroke-linecap="round" stroke-linejoin="round" stroke-width="1"/>
        <text transform="translate(1779.3602 3999.9974) rotate(1)" fill="black">
          <tspan font-family="Helvetica Neue" font-size="14" fill="black" x="0" y="13">19</tspan>
        </text>
      </g>
      <g id="Graphic_1948">
        <path d="M 1893.1667 3994.328 L 1907.5 3994.328 C 1911.366 3994.328 1914.5 3997.462 1914.5 4001.328 L 1914.5 4015.328 C 1914.5 4019.194 1911.366 4022.328 1907.5 4022.328 L 1893.1667 4022.328 C 1889.3007 4022.328 1886.1667 4019.194 1886.1667 4015.328 L 1886.1667 4001.328 C 1886.1667 3997.462 1889.3007 3994.328 1893.1667 3994.328 Z" fill="#ffeaba"/>
        <path d="M 1893.1667 3994.328 L 1907.5 3994.328 C 1911.366 3994.328 1914.5 3997.462 1914.5 4001.328 L 1914.5 4015.328 C 1914.5 4019.194 1911.366 4022.328 1907.5 4022.328 L 1893.1667 4022.328 C 1889.3007 4022.328 1886.1667 4019.194 1886.1667 4015.328 L 1886.1667 4001.328 C 1886.1667 3997.462 1889.3007 3994.328 1893.1667 3994.328 Z" stroke="gray" stroke-linecap="round" stroke-linejoin="round" stroke-width="1"/>
        <text transform="translate(1892.6936 3999.9974) rotate(1)" fill="black">
          <tspan font-family="Helvetica Neue" font-size="14" fill="black" x="0" y="13">23</tspan>
        </text>
      </g>
      <g id="Graphic_1947">
        <path d="M 1864.8333 3994.328 L 1879.1667 3994.328 C 1883.0327 3994.328 1886.1667 3997.462 1886.1667 4001.328 L 1886.1667 4015.328 C 1886.1667 4019.194 1883.0327 4022.328 1879.1667 4022.328 L 1864.8333 4022.328 C 1860.9673 4022.328 1857.8333 4019.194 1857.8333 4015.328 L 1857.8333 4001.328 C 1857.8333 3997.462 1860.9673 3994.328 1864.8333 3994.328 Z" fill="#ffeaba"/>
        <path d="M 1864.8333 3994.328 L 1879.1667 3994.328 C 1883.0327 3994.328 1886.1667 3997.462 1886.1667 4001.328 L 1886.1667 4015.328 C 1886.1667 4019.194 1883.0327 4022.328 1879.1667 4022.328 L 1864.8333 4022.328 C 1860.9673 4022.328 1857.8333 4019.194 1857.8333 4015.328 L 1857.8333 4001.328 C 1857.8333 3997.462 1860.9673 3994.328 1864.8333 3994.328 Z" stroke="gray" stroke-linecap="round" stroke-linejoin="round" stroke-width="1"/>
        <text transform="translate(1864.3602 3999.9974) rotate(1)" fill="black">
          <tspan font-family="Helvetica Neue" font-size="14" fill="black" x="0" y="13">22</tspan>
        </text>
      </g>
      <g id="Graphic_1946">
        <path d="M 1808.1667 4022.328 L 1822.5 4022.328 C 1826.366 4022.328 1829.5 4025.462 1829.5 4029.328 L 1829.5 4043.328 C 1829.5 4047.194 1826.366 4050.328 1822.5 4050.328 L 1808.1667 4050.328 C 1804.3007 4050.328 1801.1667 4047.194 1801.1667 4043.328 L 1801.1667 4029.328 C 1801.1667 4025.462 1804.3007 4022.328 1808.1667 4022.328 Z" fill="#ffeaba"/>
        <path d="M 1808.1667 4022.328 L 1822.5 4022.328 C 1826.366 4022.328 1829.5 4025.462 1829.5 4029.328 L 1829.5 4043.328 C 1829.5 4047.194 1826.366 4050.328 1822.5 4050.328 L 1808.1667 4050.328 C 1804.3007 4050.328 1801.1667 4047.194 1801.1667 4043.328 L 1801.1667 4029.328 C 1801.1667 4025.462 1804.3007 4022.328 1808.1667 4022.328 Z" stroke="gray" stroke-linecap="round" stroke-linejoin="round" stroke-width="1"/>
        <text transform="translate(1807.6936 4027.9974) rotate(1)" fill="black">
          <tspan font-family="Helvetica Neue" font-size="14" fill="black" x="0" y="13">26</tspan>
        </text>
      </g>
      <g id="Graphic_1945">
        <path d="M 1836.5 4022.328 L 1850.8333 4022.328 C 1854.6993 4022.328 1857.8333 4025.462 1857.8333 4029.328 L 1857.8333 4043.328 C 1857.8333 4047.194 1854.6993 4050.328 1850.8333 4050.328 L 1836.5 4050.328 C 1832.634 4050.328 1829.5 4047.194 1829.5 4043.328 L 1829.5 4029.328 C 1829.5 4025.462 1832.634 4022.328 1836.5 4022.328 Z" fill="#ffeaba"/>
        <path d="M 1836.5 4022.328 L 1850.8333 4022.328 C 1854.6993 4022.328 1857.8333 4025.462 1857.8333 4029.328 L 1857.8333 4043.328 C 1857.8333 4047.194 1854.6993 4050.328 1850.8333 4050.328 L 1836.5 4050.328 C 1832.634 4050.328 1829.5 4047.194 1829.5 4043.328 L 1829.5 4029.328 C 1829.5 4025.462 1832.634 4022.328 1836.5 4022.328 Z" stroke="gray" stroke-linecap="round" stroke-linejoin="round" stroke-width="1"/>
        <text transform="translate(1836.027 4027.9974) rotate(1)" fill="black">
          <tspan font-family="Helvetica Neue" font-size="14" fill="black" x="0" y="13">27</tspan>
        </text>
      </g>
      <g id="Graphic_1944">
        <path d="M 1779.8333 3966.328 L 1794.1667 3966.328 C 1798.0327 3966.328 1801.1667 3969.462 1801.1667 3973.328 L 1801.1667 3987.328 C 1801.1667 3991.194 1798.0327 3994.328 1794.1667 3994.328 L 1779.8333 3994.328 C 1775.9673 3994.328 1772.8333 3991.194 1772.8333 3987.328 L 1772.8333 3973.328 C 1772.8333 3969.462 1775.9673 3966.328 1779.8333 3966.328 Z" fill="#ffeaba"/>
        <path d="M 1779.8333 3966.328 L 1794.1667 3966.328 C 1798.0327 3966.328 1801.1667 3969.462 1801.1667 3973.328 L 1801.1667 3987.328 C 1801.1667 3991.194 1798.0327 3994.328 1794.1667 3994.328 L 1779.8333 3994.328 C 1775.9673 3994.328 1772.8333 3991.194 1772.8333 3987.328 L 1772.8333 3973.328 C 1772.8333 3969.462 1775.9673 3966.328 1779.8333 3966.328 Z" stroke="gray" stroke-linecap="round" stroke-linejoin="round" stroke-width="1"/>
        <text transform="translate(1779.3602 3971.9974) rotate(1)" fill="black">
          <tspan font-family="Helvetica Neue" font-size="14" fill="black" x="0" y="13">12</tspan>
        </text>
      </g>
      <g id="Graphic_1943">
        <path d="M 1893.1667 3938.328 L 1907.5 3938.328 C 1911.366 3938.328 1914.5 3941.462 1914.5 3945.328 L 1914.5 3959.328 C 1914.5 3963.194 1911.366 3966.328 1907.5 3966.328 L 1893.1667 3966.328 C 1889.3007 3966.328 1886.1667 3963.194 1886.1667 3959.328 L 1886.1667 3945.328 C 1886.1667 3941.462 1889.3007 3938.328 1893.1667 3938.328 Z" fill="#ffeaba"/>
        <path d="M 1893.1667 3938.328 L 1907.5 3938.328 C 1911.366 3938.328 1914.5 3941.462 1914.5 3945.328 L 1914.5 3959.328 C 1914.5 3963.194 1911.366 3966.328 1907.5 3966.328 L 1893.1667 3966.328 C 1889.3007 3966.328 1886.1667 3963.194 1886.1667 3959.328 L 1886.1667 3945.328 C 1886.1667 3941.462 1889.3007 3938.328 1893.1667 3938.328 Z" stroke="gray" stroke-linecap="round" stroke-linejoin="round" stroke-width="1"/>
        <text transform="translate(1896.585 3944.0653) rotate(1)" fill="black">
          <tspan font-family="Helvetica Neue" font-size="14" fill="black" x="0" y="13">8</tspan>
        </text>
      </g>
      <g id="Graphic_1942">
        <path d="M 1751.5 3938.328 L 1765.8333 3938.328 C 1769.6993 3938.328 1772.8333 3941.462 1772.8333 3945.328 L 1772.8333 3959.328 C 1772.8333 3963.194 1769.6993 3966.328 1765.8333 3966.328 L 1751.5 3966.328 C 1747.634 3966.328 1744.5 3963.194 1744.5 3959.328 L 1744.5 3945.328 C 1744.5 3941.462 1747.634 3938.328 1751.5 3938.328 Z" fill="#ffeaba"/>
        <path d="M 1751.5 3938.328 L 1765.8333 3938.328 C 1769.6993 3938.328 1772.8333 3941.462 1772.8333 3945.328 L 1772.8333 3959.328 C 1772.8333 3963.194 1769.6993 3966.328 1765.8333 3966.328 L 1751.5 3966.328 C 1747.634 3966.328 1744.5 3963.194 1744.5 3959.328 L 1744.5 3945.328 C 1744.5 3941.462 1747.634 3938.328 1751.5 3938.328 Z" stroke="gray" stroke-linecap="round" stroke-linejoin="round" stroke-width="1"/>
        <text transform="translate(1754.9183 3944.0653) rotate(1)" fill="black">
          <tspan font-family="Helvetica Neue" font-size="14" fill="black" x="0" y="13">1</tspan>
        </text>
      </g>
      <g id="Graphic_1941">
        <path d="M 1864.8333 4022.328 L 1879.1667 4022.328 C 1883.0327 4022.328 1886.1667 4025.462 1886.1667 4029.328 L 1886.1667 4043.328 C 1886.1667 4047.194 1883.0327 4050.328 1879.1667 4050.328 L 1864.8333 4050.328 C 1860.9673 4050.328 1857.8333 4047.194 1857.8333 4043.328 L 1857.8333 4029.328 C 1857.8333 4025.462 1860.9673 4022.328 1864.8333 4022.328 Z" fill="#ffeaba"/>
        <path d="M 1864.8333 4022.328 L 1879.1667 4022.328 C 1883.0327 4022.328 1886.1667 4025.462 1886.1667 4029.328 L 1886.1667 4043.328 C 1886.1667 4047.194 1883.0327 4050.328 1879.1667 4050.328 L 1864.8333 4050.328 C 1860.9673 4050.328 1857.8333 4047.194 1857.8333 4043.328 L 1857.8333 4029.328 C 1857.8333 4025.462 1860.9673 4022.328 1864.8333 4022.328 Z" stroke="gray" stroke-linecap="round" stroke-linejoin="round" stroke-width="1"/>
        <text transform="translate(1864.3602 4027.9974) rotate(1)" fill="black">
          <tspan font-family="Helvetica Neue" font-size="14" fill="black" x="0" y="13">28</tspan>
        </text>
      </g>
      <g id="Graphic_1940">
        <path d="M 1808.1667 3938.328 L 1822.5 3938.328 C 1826.366 3938.328 1829.5 3941.462 1829.5 3945.328 L 1829.5 3959.328 C 1829.5 3963.194 1826.366 3966.328 1822.5 3966.328 L 1808.1667 3966.328 C 1804.3007 3966.328 1801.1667 3963.194 1801.1667 3959.328 L 1801.1667 3945.328 C 1801.1667 3941.462 1804.3007 3938.328 1808.1667 3938.328 Z" fill="#ffeaba"/>
        <path d="M 1808.1667 3938.328 L 1822.5 3938.328 C 1826.366 3938.328 1829.5 3941.462 1829.5 3945.328 L 1829.5 3959.328 C 1829.5 3963.194 1826.366 3966.328 1822.5 3966.328 L 1808.1667 3966.328 C 1804.3007 3966.328 1801.1667 3963.194 1801.1667 3959.328 L 1801.1667 3945.328 C 1801.1667 3941.462 1804.3007 3938.328 1808.1667 3938.328 Z" stroke="gray" stroke-linecap="round" stroke-linejoin="round" stroke-width="1"/>
        <text transform="translate(1811.585 3944.0653) rotate(1)" fill="black">
          <tspan font-family="Helvetica Neue" font-size="14" fill="black" x="0" y="13">5</tspan>
        </text>
      </g>
      <g id="Graphic_1939">
        <path d="M 1779.8333 3938.328 L 1794.1667 3938.328 C 1798.0327 3938.328 1801.1667 3941.462 1801.1667 3945.328 L 1801.1667 3959.328 C 1801.1667 3963.194 1798.0327 3966.328 1794.1667 3966.328 L 1779.8333 3966.328 C 1775.9673 3966.328 1772.8333 3963.194 1772.8333 3959.328 L 1772.8333 3945.328 C 1772.8333 3941.462 1775.9673 3938.328 1779.8333 3938.328 Z" fill="#ffeaba"/>
        <path d="M 1779.8333 3938.328 L 1794.1667 3938.328 C 1798.0327 3938.328 1801.1667 3941.462 1801.1667 3945.328 L 1801.1667 3959.328 C 1801.1667 3963.194 1798.0327 3966.328 1794.1667 3966.328 L 1779.8333 3966.328 C 1775.9673 3966.328 1772.8333 3963.194 1772.8333 3959.328 L 1772.8333 3945.328 C 1772.8333 3941.462 1775.9673 3938.328 1779.8333 3938.328 Z" stroke="gray" stroke-linecap="round" stroke-linejoin="round" stroke-width="1"/>
        <text transform="translate(1783.2516 3944.0653) rotate(1)" fill="black">
          <tspan font-family="Helvetica Neue" font-size="14" fill="black" x="0" y="13">4</tspan>
        </text>
      </g>
      <g id="Graphic_1938">
        <path d="M 1751.5 4022.328 L 1765.8333 4022.328 C 1769.6993 4022.328 1772.8333 4025.462 1772.8333 4029.328 L 1772.8333 4043.328 C 1772.8333 4047.194 1769.6993 4050.328 1765.8333 4050.328 L 1751.5 4050.328 C 1747.634 4050.328 1744.5 4047.194 1744.5 4043.328 L 1744.5 4029.328 C 1744.5 4025.462 1747.634 4022.328 1751.5 4022.328 Z" fill="#ffeaba"/>
        <path d="M 1751.5 4022.328 L 1765.8333 4022.328 C 1769.6993 4022.328 1772.8333 4025.462 1772.8333 4029.328 L 1772.8333 4043.328 C 1772.8333 4047.194 1769.6993 4050.328 1765.8333 4050.328 L 1751.5 4050.328 C 1747.634 4050.328 1744.5 4047.194 1744.5 4043.328 L 1744.5 4029.328 C 1744.5 4025.462 1747.634 4022.328 1751.5 4022.328 Z" stroke="gray" stroke-linecap="round" stroke-linejoin="round" stroke-width="1"/>
        <text transform="translate(1751.0269 4027.9974) rotate(1)" fill="black">
          <tspan font-family="Helvetica Neue" font-size="14" fill="black" x="0" y="13">24</tspan>
        </text>
      </g>
      <g id="Graphic_1937">
        <path d="M 1864.8333 3966.328 L 1879.1667 3966.328 C 1883.0327 3966.328 1886.1667 3969.462 1886.1667 3973.328 L 1886.1667 3987.328 C 1886.1667 3991.194 1883.0327 3994.328 1879.1667 3994.328 L 1864.8333 3994.328 C 1860.9673 3994.328 1857.8333 3991.194 1857.8333 3987.328 L 1857.8333 3973.328 C 1857.8333 3969.462 1860.9673 3966.328 1864.8333 3966.328 Z" fill="#ffeaba"/>
        <path d="M 1864.8333 3966.328 L 1879.1667 3966.328 C 1883.0327 3966.328 1886.1667 3969.462 1886.1667 3973.328 L 1886.1667 3987.328 C 1886.1667 3991.194 1883.0327 3994.328 1879.1667 3994.328 L 1864.8333 3994.328 C 1860.9673 3994.328 1857.8333 3991.194 1857.8333 3987.328 L 1857.8333 3973.328 C 1857.8333 3969.462 1860.9673 3966.328 1864.8333 3966.328 Z" stroke="gray" stroke-linecap="round" stroke-linejoin="round" stroke-width="1"/>
        <text transform="translate(1864.3602 3971.9974) rotate(1)" fill="black">
          <tspan font-family="Helvetica Neue" font-size="14" fill="black" x="0" y="13">15</tspan>
        </text>
      </g>
      <g id="Graphic_1936">
        <path d="M 1751.5 3966.328 L 1765.8333 3966.328 C 1769.6993 3966.328 1772.8333 3969.462 1772.8333 3973.328 L 1772.8333 3987.328 C 1772.8333 3991.194 1769.6993 3994.328 1765.8333 3994.328 L 1751.5 3994.328 C 1747.634 3994.328 1744.5 3991.194 1744.5 3987.328 L 1744.5 3973.328 C 1744.5 3969.462 1747.634 3966.328 1751.5 3966.328 Z" fill="#ffeaba"/>
        <path d="M 1751.5 3966.328 L 1765.8333 3966.328 C 1769.6993 3966.328 1772.8333 3969.462 1772.8333 3973.328 L 1772.8333 3987.328 C 1772.8333 3991.194 1769.6993 3994.328 1765.8333 3994.328 L 1751.5 3994.328 C 1747.634 3994.328 1744.5 3991.194 1744.5 3987.328 L 1744.5 3973.328 C 1744.5 3969.462 1747.634 3966.328 1751.5 3966.328 Z" stroke="gray" stroke-linecap="round" stroke-linejoin="round" stroke-width="1"/>
        <text transform="translate(1754.9183 3972.0653) rotate(1)" fill="black">
          <tspan font-family="Helvetica Neue" font-size="14" fill="black" x="0" y="13">9</tspan>
        </text>
      </g>
      <g id="Graphic_1935">
        <path d="M 1893.1667 4022.328 L 1907.5 4022.328 C 1911.366 4022.328 1914.5 4025.462 1914.5 4029.328 L 1914.5 4043.328 C 1914.5 4047.194 1911.366 4050.328 1907.5 4050.328 L 1893.1667 4050.328 C 1889.3007 4050.328 1886.1667 4047.194 1886.1667 4043.328 L 1886.1667 4029.328 C 1886.1667 4025.462 1889.3007 4022.328 1893.1667 4022.328 Z" fill="#ffeaba"/>
        <path d="M 1893.1667 4022.328 L 1907.5 4022.328 C 1911.366 4022.328 1914.5 4025.462 1914.5 4029.328 L 1914.5 4043.328 C 1914.5 4047.194 1911.366 4050.328 1907.5 4050.328 L 1893.1667 4050.328 C 1889.3007 4050.328 1886.1667 4047.194 1886.1667 4043.328 L 1886.1667 4029.328 C 1886.1667 4025.462 1889.3007 4022.328 1893.1667 4022.328 Z" stroke="gray" stroke-linecap="round" stroke-linejoin="round" stroke-width="1"/>
        <text transform="translate(1892.6936 4027.9974) rotate(1)" fill="black">
          <tspan font-family="Helvetica Neue" font-size="14" fill="black" x="0" y="13">29</tspan>
        </text>
      </g>
      <g id="Graphic_1934">
        <path d="M 1836.5 3994.328 L 1850.8333 3994.328 C 1854.6993 3994.328 1857.8333 3997.462 1857.8333 4001.328 L 1857.8333 4015.328 C 1857.8333 4019.194 1854.6993 4022.328 1850.8333 4022.328 L 1836.5 4022.328 C 1832.634 4022.328 1829.5 4019.194 1829.5 4015.328 L 1829.5 4001.328 C 1829.5 3997.462 1832.634 3994.328 1836.5 3994.328 Z" fill="#ffeaba"/>
        <path d="M 1836.5 3994.328 L 1850.8333 3994.328 C 1854.6993 3994.328 1857.8333 3997.462 1857.8333 4001.328 L 1857.8333 4015.328 C 1857.8333 4019.194 1854.6993 4022.328 1850.8333 4022.328 L 1836.5 4022.328 C 1832.634 4022.328 1829.5 4019.194 1829.5 4015.328 L 1829.5 4001.328 C 1829.5 3997.462 1832.634 3994.328 1836.5 3994.328 Z" stroke="gray" stroke-linecap="round" stroke-linejoin="round" stroke-width="1"/>
        <text transform="translate(1836.027 3999.9974) rotate(1)" fill="black">
          <tspan font-family="Helvetica Neue" font-size="14" fill="black" x="0" y="13">21</tspan>
        </text>
      </g>
      <g id="Graphic_1933">
        <path d="M 1808.1667 3966.328 L 1822.5 3966.328 C 1826.366 3966.328 1829.5 3969.462 1829.5 3973.328 L 1829.5 3987.328 C 1829.5 3991.194 1826.366 3994.328 1822.5 3994.328 L 1808.1667 3994.328 C 1804.3007 3994.328 1801.1667 3991.194 1801.1667 3987.328 L 1801.1667 3973.328 C 1801.1667 3969.462 1804.3007 3966.328 1808.1667 3966.328 Z" fill="#ffeaba"/>
        <path d="M 1808.1667 3966.328 L 1822.5 3966.328 C 1826.366 3966.328 1829.5 3969.462 1829.5 3973.328 L 1829.5 3987.328 C 1829.5 3991.194 1826.366 3994.328 1822.5 3994.328 L 1808.1667 3994.328 C 1804.3007 3994.328 1801.1667 3991.194 1801.1667 3987.328 L 1801.1667 3973.328 C 1801.1667 3969.462 1804.3007 3966.328 1808.1667 3966.328 Z" stroke="gray" stroke-linecap="round" stroke-linejoin="round" stroke-width="1"/>
        <text transform="translate(1807.6936 3971.9974) rotate(1)" fill="black">
          <tspan font-family="Helvetica Neue" font-size="14" fill="black" x="0" y="13">13</tspan>
        </text>
      </g>
      <g id="Graphic_1932">
        <path d="M 1836.5 3938.328 L 1850.8333 3938.328 C 1854.6993 3938.328 1857.8333 3941.462 1857.8333 3945.328 L 1857.8333 3959.328 C 1857.8333 3963.194 1854.6993 3966.328 1850.8333 3966.328 L 1836.5 3966.328 C 1832.634 3966.328 1829.5 3963.194 1829.5 3959.328 L 1829.5 3945.328 C 1829.5 3941.462 1832.634 3938.328 1836.5 3938.328 Z" fill="#ffeaba"/>
        <path d="M 1836.5 3938.328 L 1850.8333 3938.328 C 1854.6993 3938.328 1857.8333 3941.462 1857.8333 3945.328 L 1857.8333 3959.328 C 1857.8333 3963.194 1854.6993 3966.328 1850.8333 3966.328 L 1836.5 3966.328 C 1832.634 3966.328 1829.5 3963.194 1829.5 3959.328 L 1829.5 3945.328 C 1829.5 3941.462 1832.634 3938.328 1836.5 3938.328 Z" stroke="gray" stroke-linecap="round" stroke-linejoin="round" stroke-width="1"/>
        <text transform="translate(1839.9183 3944.0653) rotate(1)" fill="black">
          <tspan font-family="Helvetica Neue" font-size="14" fill="black" x="0" y="13">6</tspan>
        </text>
      </g>
      <g id="Graphic_1931">
        <path d="M 1779.8333 4022.328 L 1794.1667 4022.328 C 1798.0327 4022.328 1801.1667 4025.462 1801.1667 4029.328 L 1801.1667 4043.328 C 1801.1667 4047.194 1798.0327 4050.328 1794.1667 4050.328 L 1779.8333 4050.328 C 1775.9673 4050.328 1772.8333 4047.194 1772.8333 4043.328 L 1772.8333 4029.328 C 1772.8333 4025.462 1775.9673 4022.328 1779.8333 4022.328 Z" fill="#ffeaba"/>
        <path d="M 1779.8333 4022.328 L 1794.1667 4022.328 C 1798.0327 4022.328 1801.1667 4025.462 1801.1667 4029.328 L 1801.1667 4043.328 C 1801.1667 4047.194 1798.0327 4050.328 1794.1667 4050.328 L 1779.8333 4050.328 C 1775.9673 4050.328 1772.8333 4047.194 1772.8333 4043.328 L 1772.8333 4029.328 C 1772.8333 4025.462 1775.9673 4022.328 1779.8333 4022.328 Z" stroke="gray" stroke-linecap="round" stroke-linejoin="round" stroke-width="1"/>
        <text transform="translate(1779.3602 4027.9974) rotate(1)" fill="black">
          <tspan font-family="Helvetica Neue" font-size="14" fill="black" x="0" y="13">25</tspan>
        </text>
      </g>
      <g id="Graphic_1930">
        <path d="M 1893.1667 3966.328 L 1907.5 3966.328 C 1911.366 3966.328 1914.5 3969.462 1914.5 3973.328 L 1914.5 3987.328 C 1914.5 3991.194 1911.366 3994.328 1907.5 3994.328 L 1893.1667 3994.328 C 1889.3007 3994.328 1886.1667 3991.194 1886.1667 3987.328 L 1886.1667 3973.328 C 1886.1667 3969.462 1889.3007 3966.328 1893.1667 3966.328 Z" fill="#ffeaba"/>
        <path d="M 1893.1667 3966.328 L 1907.5 3966.328 C 1911.366 3966.328 1914.5 3969.462 1914.5 3973.328 L 1914.5 3987.328 C 1914.5 3991.194 1911.366 3994.328 1907.5 3994.328 L 1893.1667 3994.328 C 1889.3007 3994.328 1886.1667 3991.194 1886.1667 3987.328 L 1886.1667 3973.328 C 1886.1667 3969.462 1889.3007 3966.328 1893.1667 3966.328 Z" stroke="gray" stroke-linecap="round" stroke-linejoin="round" stroke-width="1"/>
        <text transform="translate(1892.6936 3971.9974) rotate(1)" fill="black">
          <tspan font-family="Helvetica Neue" font-size="14" fill="black" x="0" y="13">16</tspan>
        </text>
      </g>
      <g id="Graphic_1929">
        <path d="M 1751.5 3994.328 L 1765.8333 3994.328 C 1769.6993 3994.328 1772.8333 3997.462 1772.8333 4001.328 L 1772.8333 4015.328 C 1772.8333 4019.194 1769.6993 4022.328 1765.8333 4022.328 L 1751.5 4022.328 C 1747.634 4022.328 1744.5 4019.194 1744.5 4015.328 L 1744.5 4001.328 C 1744.5 3997.462 1747.634 3994.328 1751.5 3994.328 Z" fill="#ffeaba"/>
        <path d="M 1751.5 3994.328 L 1765.8333 3994.328 C 1769.6993 3994.328 1772.8333 3997.462 1772.8333 4001.328 L 1772.8333 4015.328 C 1772.8333 4019.194 1769.6993 4022.328 1765.8333 4022.328 L 1751.5 4022.328 C 1747.634 4022.328 1744.5 4019.194 1744.5 4015.328 L 1744.5 4001.328 C 1744.5 3997.462 1747.634 3994.328 1751.5 3994.328 Z" stroke="gray" stroke-linecap="round" stroke-linejoin="round" stroke-width="1"/>
        <text transform="translate(1751.0269 3999.9974) rotate(1)" fill="black">
          <tspan font-family="Helvetica Neue" font-size="14" fill="black" x="0" y="13">18</tspan>
        </text>
      </g>
      <g id="Graphic_1928">
        <path d="M 1808.1667 3994.328 L 1822.5 3994.328 C 1826.366 3994.328 1829.5 3997.462 1829.5 4001.328 L 1829.5 4015.328 C 1829.5 4019.194 1826.366 4022.328 1822.5 4022.328 L 1808.1667 4022.328 C 1804.3007 4022.328 1801.1667 4019.194 1801.1667 4015.328 L 1801.1667 4001.328 C 1801.1667 3997.462 1804.3007 3994.328 1808.1667 3994.328 Z" fill="#ffeaba"/>
        <path d="M 1808.1667 3994.328 L 1822.5 3994.328 C 1826.366 3994.328 1829.5 3997.462 1829.5 4001.328 L 1829.5 4015.328 C 1829.5 4019.194 1826.366 4022.328 1822.5 4022.328 L 1808.1667 4022.328 C 1804.3007 4022.328 1801.1667 4019.194 1801.1667 4015.328 L 1801.1667 4001.328 C 1801.1667 3997.462 1804.3007 3994.328 1808.1667 3994.328 Z" stroke="gray" stroke-linecap="round" stroke-linejoin="round" stroke-width="1"/>
        <text transform="translate(1807.6936 3999.9974) rotate(1)" fill="black">
          <tspan font-family="Helvetica Neue" font-size="14" fill="black" x="0" y="13">20</tspan>
        </text>
      </g>
      <g id="Graphic_1927">
        <path d="M 1864.8333 3938.328 L 1879.1667 3938.328 C 1883.0327 3938.328 1886.1667 3941.462 1886.1667 3945.328 L 1886.1667 3959.328 C 1886.1667 3963.194 1883.0327 3966.328 1879.1667 3966.328 L 1864.8333 3966.328 C 1860.9673 3966.328 1857.8333 3963.194 1857.8333 3959.328 L 1857.8333 3945.328 C 1857.8333 3941.462 1860.9673 3938.328 1864.8333 3938.328 Z" fill="#ffeaba"/>
        <path d="M 1864.8333 3938.328 L 1879.1667 3938.328 C 1883.0327 3938.328 1886.1667 3941.462 1886.1667 3945.328 L 1886.1667 3959.328 C 1886.1667 3963.194 1883.0327 3966.328 1879.1667 3966.328 L 1864.8333 3966.328 C 1860.9673 3966.328 1857.8333 3963.194 1857.8333 3959.328 L 1857.8333 3945.328 C 1857.8333 3941.462 1860.9673 3938.328 1864.8333 3938.328 Z" stroke="gray" stroke-linecap="round" stroke-linejoin="round" stroke-width="1"/>
        <text transform="translate(1868.2516 3944.0653) rotate(1)" fill="black">
          <tspan font-family="Helvetica Neue" font-size="14" fill="black" x="0" y="13">7</tspan>
        </text>
      </g>
      <g id="Graphic_1926">
        <path d="M 1836.5 3966.328 L 1850.8333 3966.328 C 1854.6993 3966.328 1857.8333 3969.462 1857.8333 3973.328 L 1857.8333 3987.328 C 1857.8333 3991.194 1854.6993 3994.328 1850.8333 3994.328 L 1836.5 3994.328 C 1832.634 3994.328 1829.5 3991.194 1829.5 3987.328 L 1829.5 3973.328 C 1829.5 3969.462 1832.634 3966.328 1836.5 3966.328 Z" fill="#ffeaba"/>
        <path d="M 1836.5 3966.328 L 1850.8333 3966.328 C 1854.6993 3966.328 1857.8333 3969.462 1857.8333 3973.328 L 1857.8333 3987.328 C 1857.8333 3991.194 1854.6993 3994.328 1850.8333 3994.328 L 1836.5 3994.328 C 1832.634 3994.328 1829.5 3991.194 1829.5 3987.328 L 1829.5 3973.328 C 1829.5 3969.462 1832.634 3966.328 1836.5 3966.328 Z" stroke="gray" stroke-linecap="round" stroke-linejoin="round" stroke-width="1"/>
        <text transform="translate(1836.027 3971.9974) rotate(1)" fill="black">
          <tspan font-family="Helvetica Neue" font-size="14" fill="black" x="0" y="13">14</tspan>
        </text>
      </g>
      <g id="Graphic_1925"/>
      <g id="Graphic_1924"/>
      <g id="Graphic_1923"/>
      <g id="Graphic_1922"/>
      <g id="Graphic_1921"/>
      <g id="Graphic_1920">
        <path d="M 1779.8333 4128.328 L 1794.1667 4128.328 C 1798.0327 4128.328 1801.1667 4131.462 1801.1667 4135.328 L 1801.1667 4149.328 C 1801.1667 4153.194 1798.0327 4156.328 1794.1667 4156.328 L 1779.8333 4156.328 C 1775.9673 4156.328 1772.8333 4153.194 1772.8333 4149.328 L 1772.8333 4135.328 C 1772.8333 4131.462 1775.9673 4128.328 1779.8333 4128.328 Z" fill="#e4e6ff"/>
        <path d="M 1779.8333 4128.328 L 1794.1667 4128.328 C 1798.0327 4128.328 1801.1667 4131.462 1801.1667 4135.328 L 1801.1667 4149.328 C 1801.1667 4153.194 1798.0327 4156.328 1794.1667 4156.328 L 1779.8333 4156.328 C 1775.9673 4156.328 1772.8333 4153.194 1772.8333 4149.328 L 1772.8333 4135.328 C 1772.8333 4131.462 1775.9673 4128.328 1779.8333 4128.328 Z" stroke="gray" stroke-linecap="round" stroke-linejoin="round" stroke-width="1"/>
        <text transform="translate(1783.2516 4134.0653) rotate(1)" fill="black">
          <tspan font-family="Helvetica Neue" font-size="14" fill="black" x="0" y="13">3</tspan>
        </text>
      </g>
      <g id="Graphic_1919"/>
      <g id="Graphic_1918"/>
      <g id="Graphic_1917"/>
      <g id="Graphic_1916"/>
      <g id="Graphic_1915"/>
      <g id="Graphic_1914"/>
      <g id="Graphic_1913"/>
      <g id="Graphic_1912"/>
      <g id="Graphic_1911">
        <path d="M 1864.8333 4128.328 L 1879.1667 4128.328 C 1883.0327 4128.328 1886.1667 4131.462 1886.1667 4135.328 L 1886.1667 4149.328 C 1886.1667 4153.194 1883.0327 4156.328 1879.1667 4156.328 L 1864.8333 4156.328 C 1860.9673 4156.328 1857.8333 4153.194 1857.8333 4149.328 L 1857.8333 4135.328 C 1857.8333 4131.462 1860.9673 4128.328 1864.8333 4128.328 Z" fill="#e4e6ff"/>
        <path d="M 1864.8333 4128.328 L 1879.1667 4128.328 C 1883.0327 4128.328 1886.1667 4131.462 1886.1667 4135.328 L 1886.1667 4149.328 C 1886.1667 4153.194 1883.0327 4156.328 1879.1667 4156.328 L 1864.8333 4156.328 C 1860.9673 4156.328 1857.8333 4153.194 1857.8333 4149.328 L 1857.8333 4135.328 C 1857.8333 4131.462 1860.9673 4128.328 1864.8333 4128.328 Z" stroke="gray" stroke-linecap="round" stroke-linejoin="round" stroke-width="1"/>
        <text transform="translate(1864.3602 4133.9974) rotate(1)" fill="black">
          <tspan font-family="Helvetica Neue" font-size="14" fill="black" x="0" y="13">17</tspan>
        </text>
      </g>
      <g id="Graphic_1910">
        <path d="M 1751.5 4128.328 L 1765.8333 4128.328 C 1769.6993 4128.328 1772.8333 4131.462 1772.8333 4135.328 L 1772.8333 4149.328 C 1772.8333 4153.194 1769.6993 4156.328 1765.8333 4156.328 L 1751.5 4156.328 C 1747.634 4156.328 1744.5 4153.194 1744.5 4149.328 L 1744.5 4135.328 C 1744.5 4131.462 1747.634 4128.328 1751.5 4128.328 Z" fill="#e4e6ff"/>
        <path d="M 1751.5 4128.328 L 1765.8333 4128.328 C 1769.6993 4128.328 1772.8333 4131.462 1772.8333 4135.328 L 1772.8333 4149.328 C 1772.8333 4153.194 1769.6993 4156.328 1765.8333 4156.328 L 1751.5 4156.328 C 1747.634 4156.328 1744.5 4153.194 1744.5 4149.328 L 1744.5 4135.328 C 1744.5 4131.462 1747.634 4128.328 1751.5 4128.328 Z" stroke="gray" stroke-linecap="round" stroke-linejoin="round" stroke-width="1"/>
        <text transform="translate(1754.9183 4134.0653) rotate(1)" fill="black">
          <tspan font-family="Helvetica Neue" font-size="14" fill="black" x="0" y="13">2</tspan>
        </text>
      </g>
      <g id="Graphic_1909"/>
      <g id="Graphic_1908"/>
      <g id="Graphic_1907">
        <path d="M 1808.1667 4128.328 L 1822.5 4128.328 C 1826.366 4128.328 1829.5 4131.462 1829.5 4135.328 L 1829.5 4149.328 C 1829.5 4153.194 1826.366 4156.328 1822.5 4156.328 L 1808.1667 4156.328 C 1804.3007 4156.328 1801.1667 4153.194 1801.1667 4149.328 L 1801.1667 4135.328 C 1801.1667 4131.462 1804.3007 4128.328 1808.1667 4128.328 Z" fill="#e4e6ff"/>
        <path d="M 1808.1667 4128.328 L 1822.5 4128.328 C 1826.366 4128.328 1829.5 4131.462 1829.5 4135.328 L 1829.5 4149.328 C 1829.5 4153.194 1826.366 4156.328 1822.5 4156.328 L 1808.1667 4156.328 C 1804.3007 4156.328 1801.1667 4153.194 1801.1667 4149.328 L 1801.1667 4135.328 C 1801.1667 4131.462 1804.3007 4128.328 1808.1667 4128.328 Z" stroke="gray" stroke-linecap="round" stroke-linejoin="round" stroke-width="1"/>
        <text transform="translate(1807.6936 4133.9974) rotate(1)" fill="black">
          <tspan font-family="Helvetica Neue" font-size="14" fill="black" x="0" y="13">10</tspan>
        </text>
      </g>
      <g id="Graphic_1906"/>
      <g id="Graphic_1905"/>
      <g id="Graphic_1904"/>
      <g id="Graphic_1903">
        <path d="M 1893.1667 4128.328 L 1907.5 4128.328 C 1911.366 4128.328 1914.5 4131.462 1914.5 4135.328 L 1914.5 4149.328 C 1914.5 4153.194 1911.366 4156.328 1907.5 4156.328 L 1893.1667 4156.328 C 1889.3007 4156.328 1886.1667 4153.194 1886.1667 4149.328 L 1886.1667 4135.328 C 1886.1667 4131.462 1889.3007 4128.328 1893.1667 4128.328 Z" fill="#e4e6ff"/>
        <path d="M 1893.1667 4128.328 L 1907.5 4128.328 C 1911.366 4128.328 1914.5 4131.462 1914.5 4135.328 L 1914.5 4149.328 C 1914.5 4153.194 1911.366 4156.328 1907.5 4156.328 L 1893.1667 4156.328 C 1889.3007 4156.328 1886.1667 4153.194 1886.1667 4149.328 L 1886.1667 4135.328 C 1886.1667 4131.462 1889.3007 4128.328 1893.1667 4128.328 Z" stroke="gray" stroke-linecap="round" stroke-linejoin="round" stroke-width="1"/>
        <text transform="translate(1892.6936 4133.9974) rotate(1)" fill="black">
          <tspan font-family="Helvetica Neue" font-size="14" fill="black" x="0" y="13">30</tspan>
        </text>
      </g>
      <g id="Graphic_1902"/>
      <g id="Graphic_1901">
        <path d="M 1836.5 4128.328 L 1850.8333 4128.328 C 1854.6993 4128.328 1857.8333 4131.462 1857.8333 4135.328 L 1857.8333 4149.328 C 1857.8333 4153.194 1854.6993 4156.328 1850.8333 4156.328 L 1836.5 4156.328 C 1832.634 4156.328 1829.5 4153.194 1829.5 4149.328 L 1829.5 4135.328 C 1829.5 4131.462 1832.634 4128.328 1836.5 4128.328 Z" fill="#e4e6ff"/>
        <path d="M 1836.5 4128.328 L 1850.8333 4128.328 C 1854.6993 4128.328 1857.8333 4131.462 1857.8333 4135.328 L 1857.8333 4149.328 C 1857.8333 4153.194 1854.6993 4156.328 1850.8333 4156.328 L 1836.5 4156.328 C 1832.634 4156.328 1829.5 4153.194 1829.5 4149.328 L 1829.5 4135.328 C 1829.5 4131.462 1832.634 4128.328 1836.5 4128.328 Z" stroke="gray" stroke-linecap="round" stroke-linejoin="round" stroke-width="1"/>
        <text transform="translate(1836.027 4133.9974) rotate(1)" fill="black">
          <tspan font-family="Helvetica Neue" font-size="14" fill="black" x="0" y="13">11</tspan>
        </text>
      </g>
      <g id="Line_1900">
        <line x1="1936.5" y1="3921.328" x2="2106.5" y2="3921.328" stroke="#ebebeb" stroke-linecap="round" stroke-linejoin="round" stroke-width="1.3"/>
      </g>
      <g id="Graphic_1899">
        <path d="M 1971.8333 3994.328 L 1986.1667 3994.328 C 1990.0327 3994.328 1993.1667 3997.462 1993.1667 4001.328 L 1993.1667 4015.328 C 1993.1667 4019.194 1990.0327 4022.328 1986.1667 4022.328 L 1971.8333 4022.328 C 1967.9673 4022.328 1964.8333 4019.194 1964.8333 4015.328 L 1964.8333 4001.328 C 1964.8333 3997.462 1967.9673 3994.328 1971.8333 3994.328 Z" fill="#ffeaba"/>
        <path d="M 1971.8333 3994.328 L 1986.1667 3994.328 C 1990.0327 3994.328 1993.1667 3997.462 1993.1667 4001.328 L 1993.1667 4015.328 C 1993.1667 4019.194 1990.0327 4022.328 1986.1667 4022.328 L 1971.8333 4022.328 C 1967.9673 4022.328 1964.8333 4019.194 1964.8333 4015.328 L 1964.8333 4001.328 C 1964.8333 3997.462 1967.9673 3994.328 1971.8333 3994.328 Z" stroke="gray" stroke-linecap="round" stroke-linejoin="round" stroke-width="1"/>
        <text transform="translate(1971.3602 3999.9974) rotate(1)" fill="black">
          <tspan font-family="Helvetica Neue" font-size="14" fill="black" x="0" y="13">17</tspan>
        </text>
      </g>
      <g id="Graphic_1898">
        <path d="M 2085.1667 3994.328 L 2099.5 3994.328 C 2103.366 3994.328 2106.5 3997.462 2106.5 4001.328 L 2106.5 4015.328 C 2106.5 4019.194 2103.366 4022.328 2099.5 4022.328 L 2085.1667 4022.328 C 2081.3007 4022.328 2078.1667 4019.194 2078.1667 4015.328 L 2078.1667 4001.328 C 2078.1667 3997.462 2081.3007 3994.328 2085.1667 3994.328 Z" fill="#ffeaba"/>
        <path d="M 2085.1667 3994.328 L 2099.5 3994.328 C 2103.366 3994.328 2106.5 3997.462 2106.5 4001.328 L 2106.5 4015.328 C 2106.5 4019.194 2103.366 4022.328 2099.5 4022.328 L 2085.1667 4022.328 C 2081.3007 4022.328 2078.1667 4019.194 2078.1667 4015.328 L 2078.1667 4001.328 C 2078.1667 3997.462 2081.3007 3994.328 2085.1667 3994.328 Z" stroke="gray" stroke-linecap="round" stroke-linejoin="round" stroke-width="1"/>
        <text transform="translate(2084.6936 3999.9974) rotate(1)" fill="black">
          <tspan font-family="Helvetica Neue" font-size="14" fill="black" x="0" y="13">22</tspan>
        </text>
      </g>
      <g id="Graphic_1897">
        <path d="M 2056.8333 3994.328 L 2071.1667 3994.328 C 2075.0327 3994.328 2078.1667 3997.462 2078.1667 4001.328 L 2078.1667 4015.328 C 2078.1667 4019.194 2075.0327 4022.328 2071.1667 4022.328 L 2056.8333 4022.328 C 2052.9673 4022.328 2049.8333 4019.194 2049.8333 4015.328 L 2049.8333 4001.328 C 2049.8333 3997.462 2052.9673 3994.328 2056.8333 3994.328 Z" fill="#ffeaba"/>
        <path d="M 2056.8333 3994.328 L 2071.1667 3994.328 C 2075.0327 3994.328 2078.1667 3997.462 2078.1667 4001.328 L 2078.1667 4015.328 C 2078.1667 4019.194 2075.0327 4022.328 2071.1667 4022.328 L 2056.8333 4022.328 C 2052.9673 4022.328 2049.8333 4019.194 2049.8333 4015.328 L 2049.8333 4001.328 C 2049.8333 3997.462 2052.9673 3994.328 2056.8333 3994.328 Z" stroke="gray" stroke-linecap="round" stroke-linejoin="round" stroke-width="1"/>
        <text transform="translate(2056.3602 3999.9974) rotate(1)" fill="black">
          <tspan font-family="Helvetica Neue" font-size="14" fill="black" x="0" y="13">20</tspan>
        </text>
      </g>
      <g id="Graphic_1896">
        <path d="M 2000.1667 4022.328 L 2014.5 4022.328 C 2018.366 4022.328 2021.5 4025.462 2021.5 4029.328 L 2021.5 4043.328 C 2021.5 4047.194 2018.366 4050.328 2014.5 4050.328 L 2000.1667 4050.328 C 1996.3007 4050.328 1993.1667 4047.194 1993.1667 4043.328 L 1993.1667 4029.328 C 1993.1667 4025.462 1996.3007 4022.328 2000.1667 4022.328 Z" fill="#ffeaba"/>
        <path d="M 2000.1667 4022.328 L 2014.5 4022.328 C 2018.366 4022.328 2021.5 4025.462 2021.5 4029.328 L 2021.5 4043.328 C 2021.5 4047.194 2018.366 4050.328 2014.5 4050.328 L 2000.1667 4050.328 C 1996.3007 4050.328 1993.1667 4047.194 1993.1667 4043.328 L 1993.1667 4029.328 C 1993.1667 4025.462 1996.3007 4022.328 2000.1667 4022.328 Z" stroke="gray" stroke-linecap="round" stroke-linejoin="round" stroke-width="1"/>
        <text transform="translate(1999.6936 4027.9974) rotate(1)" fill="black">
          <tspan font-family="Helvetica Neue" font-size="14" fill="black" x="0" y="13">26</tspan>
        </text>
      </g>
      <g id="Graphic_1895">
        <path d="M 2028.5 4022.328 L 2042.8333 4022.328 C 2046.6993 4022.328 2049.8333 4025.462 2049.8333 4029.328 L 2049.8333 4043.328 C 2049.8333 4047.194 2046.6993 4050.328 2042.8333 4050.328 L 2028.5 4050.328 C 2024.634 4050.328 2021.5 4047.194 2021.5 4043.328 L 2021.5 4029.328 C 2021.5 4025.462 2024.634 4022.328 2028.5 4022.328 Z" fill="#ffeaba"/>
        <path d="M 2028.5 4022.328 L 2042.8333 4022.328 C 2046.6993 4022.328 2049.8333 4025.462 2049.8333 4029.328 L 2049.8333 4043.328 C 2049.8333 4047.194 2046.6993 4050.328 2042.8333 4050.328 L 2028.5 4050.328 C 2024.634 4050.328 2021.5 4047.194 2021.5 4043.328 L 2021.5 4029.328 C 2021.5 4025.462 2024.634 4022.328 2028.5 4022.328 Z" stroke="gray" stroke-linecap="round" stroke-linejoin="round" stroke-width="1"/>
        <text transform="translate(2028.027 4027.9974) rotate(1)" fill="black">
          <tspan font-family="Helvetica Neue" font-size="14" fill="black" x="0" y="13">28</tspan>
        </text>
      </g>
      <g id="Graphic_1894">
        <path d="M 1971.8333 3966.328 L 1986.1667 3966.328 C 1990.0327 3966.328 1993.1667 3969.462 1993.1667 3973.328 L 1993.1667 3987.328 C 1993.1667 3991.194 1990.0327 3994.328 1986.1667 3994.328 L 1971.8333 3994.328 C 1967.9673 3994.328 1964.8333 3991.194 1964.8333 3987.328 L 1964.8333 3973.328 C 1964.8333 3969.462 1967.9673 3966.328 1971.8333 3966.328 Z" fill="#ffeaba"/>
        <path d="M 1971.8333 3966.328 L 1986.1667 3966.328 C 1990.0327 3966.328 1993.1667 3969.462 1993.1667 3973.328 L 1993.1667 3987.328 C 1993.1667 3991.194 1990.0327 3994.328 1986.1667 3994.328 L 1971.8333 3994.328 C 1967.9673 3994.328 1964.8333 3991.194 1964.8333 3987.328 L 1964.8333 3973.328 C 1964.8333 3969.462 1967.9673 3966.328 1971.8333 3966.328 Z" stroke="gray" stroke-linecap="round" stroke-linejoin="round" stroke-width="1"/>
        <text transform="translate(1975.2516 3972.0653) rotate(1)" fill="black">
          <tspan font-family="Helvetica Neue" font-size="14" fill="black" x="0" y="13">9</tspan>
        </text>
      </g>
      <g id="Graphic_1893">
        <path d="M 2085.1667 3938.328 L 2099.5 3938.328 C 2103.366 3938.328 2106.5 3941.462 2106.5 3945.328 L 2106.5 3959.328 C 2106.5 3963.194 2103.366 3966.328 2099.5 3966.328 L 2085.1667 3966.328 C 2081.3007 3966.328 2078.1667 3963.194 2078.1667 3959.328 L 2078.1667 3945.328 C 2078.1667 3941.462 2081.3007 3938.328 2085.1667 3938.328 Z" fill="#ffeaba"/>
        <path d="M 2085.1667 3938.328 L 2099.5 3938.328 C 2103.366 3938.328 2106.5 3941.462 2106.5 3945.328 L 2106.5 3959.328 C 2106.5 3963.194 2103.366 3966.328 2099.5 3966.328 L 2085.1667 3966.328 C 2081.3007 3966.328 2078.1667 3963.194 2078.1667 3959.328 L 2078.1667 3945.328 C 2078.1667 3941.462 2081.3007 3938.328 2085.1667 3938.328 Z" stroke="gray" stroke-linecap="round" stroke-linejoin="round" stroke-width="1"/>
        <text transform="translate(2088.585 3944.0653) rotate(1)" fill="black">
          <tspan font-family="Helvetica Neue" font-size="14" fill="black" x="0" y="13">7</tspan>
        </text>
      </g>
      <g id="Graphic_1892">
        <path d="M 1943.5 3938.328 L 1957.8333 3938.328 C 1961.6993 3938.328 1964.8333 3941.462 1964.8333 3945.328 L 1964.8333 3959.328 C 1964.8333 3963.194 1961.6993 3966.328 1957.8333 3966.328 L 1943.5 3966.328 C 1939.634 3966.328 1936.5 3963.194 1936.5 3959.328 L 1936.5 3945.328 C 1936.5 3941.462 1939.634 3938.328 1943.5 3938.328 Z" fill="#ffeaba"/>
        <path d="M 1943.5 3938.328 L 1957.8333 3938.328 C 1961.6993 3938.328 1964.8333 3941.462 1964.8333 3945.328 L 1964.8333 3959.328 C 1964.8333 3963.194 1961.6993 3966.328 1957.8333 3966.328 L 1943.5 3966.328 C 1939.634 3966.328 1936.5 3963.194 1936.5 3959.328 L 1936.5 3945.328 C 1936.5 3941.462 1939.634 3938.328 1943.5 3938.328 Z" stroke="gray" stroke-linecap="round" stroke-linejoin="round" stroke-width="1"/>
        <text transform="translate(1946.9183 3944.0653) rotate(1)" fill="black">
          <tspan font-family="Helvetica Neue" font-size="14" fill="black" x="0" y="13">2</tspan>
        </text>
      </g>
      <g id="Graphic_1891">
        <path d="M 2056.8333 4022.328 L 2071.1667 4022.328 C 2075.0327 4022.328 2078.1667 4025.462 2078.1667 4029.328 L 2078.1667 4043.328 C 2078.1667 4047.194 2075.0327 4050.328 2071.1667 4050.328 L 2056.8333 4050.328 C 2052.9673 4050.328 2049.8333 4047.194 2049.8333 4043.328 L 2049.8333 4029.328 C 2049.8333 4025.462 2052.9673 4022.328 2056.8333 4022.328 Z" fill="#ffeaba"/>
        <path d="M 2056.8333 4022.328 L 2071.1667 4022.328 C 2075.0327 4022.328 2078.1667 4025.462 2078.1667 4029.328 L 2078.1667 4043.328 C 2078.1667 4047.194 2075.0327 4050.328 2071.1667 4050.328 L 2056.8333 4050.328 C 2052.9673 4050.328 2049.8333 4047.194 2049.8333 4043.328 L 2049.8333 4029.328 C 2049.8333 4025.462 2052.9673 4022.328 2056.8333 4022.328 Z" stroke="gray" stroke-linecap="round" stroke-linejoin="round" stroke-width="1"/>
        <text transform="translate(2056.3602 4027.9974) rotate(1)" fill="black">
          <tspan font-family="Helvetica Neue" font-size="14" fill="black" x="0" y="13">29</tspan>
        </text>
      </g>
      <g id="Graphic_1890">
        <path d="M 2000.1667 3938.328 L 2014.5 3938.328 C 2018.366 3938.328 2021.5 3941.462 2021.5 3945.328 L 2021.5 3959.328 C 2021.5 3963.194 2018.366 3966.328 2014.5 3966.328 L 2000.1667 3966.328 C 1996.3007 3966.328 1993.1667 3963.194 1993.1667 3959.328 L 1993.1667 3945.328 C 1993.1667 3941.462 1996.3007 3938.328 2000.1667 3938.328 Z" fill="#ffeaba"/>
        <path d="M 2000.1667 3938.328 L 2014.5 3938.328 C 2018.366 3938.328 2021.5 3941.462 2021.5 3945.328 L 2021.5 3959.328 C 2021.5 3963.194 2018.366 3966.328 2014.5 3966.328 L 2000.1667 3966.328 C 1996.3007 3966.328 1993.1667 3963.194 1993.1667 3959.328 L 1993.1667 3945.328 C 1993.1667 3941.462 1996.3007 3938.328 2000.1667 3938.328 Z" stroke="gray" stroke-linecap="round" stroke-linejoin="round" stroke-width="1"/>
        <text transform="translate(2003.585 3944.0653) rotate(1)" fill="black">
          <tspan font-family="Helvetica Neue" font-size="14" fill="black" x="0" y="13">4</tspan>
        </text>
      </g>
      <g id="Graphic_1889">
        <path d="M 1971.8333 3938.328 L 1986.1667 3938.328 C 1990.0327 3938.328 1993.1667 3941.462 1993.1667 3945.328 L 1993.1667 3959.328 C 1993.1667 3963.194 1990.0327 3966.328 1986.1667 3966.328 L 1971.8333 3966.328 C 1967.9673 3966.328 1964.8333 3963.194 1964.8333 3959.328 L 1964.8333 3945.328 C 1964.8333 3941.462 1967.9673 3938.328 1971.8333 3938.328 Z" fill="#ffeaba"/>
        <path d="M 1971.8333 3938.328 L 1986.1667 3938.328 C 1990.0327 3938.328 1993.1667 3941.462 1993.1667 3945.328 L 1993.1667 3959.328 C 1993.1667 3963.194 1990.0327 3966.328 1986.1667 3966.328 L 1971.8333 3966.328 C 1967.9673 3966.328 1964.8333 3963.194 1964.8333 3959.328 L 1964.8333 3945.328 C 1964.8333 3941.462 1967.9673 3938.328 1971.8333 3938.328 Z" stroke="gray" stroke-linecap="round" stroke-linejoin="round" stroke-width="1"/>
        <text transform="translate(1975.2516 3944.0653) rotate(1)" fill="black">
          <tspan font-family="Helvetica Neue" font-size="14" fill="black" x="0" y="13">3</tspan>
        </text>
      </g>
      <g id="Graphic_1888">
        <path d="M 1943.5 4022.328 L 1957.8333 4022.328 C 1961.6993 4022.328 1964.8333 4025.462 1964.8333 4029.328 L 1964.8333 4043.328 C 1964.8333 4047.194 1961.6993 4050.328 1957.8333 4050.328 L 1943.5 4050.328 C 1939.634 4050.328 1936.5 4047.194 1936.5 4043.328 L 1936.5 4029.328 C 1936.5 4025.462 1939.634 4022.328 1943.5 4022.328 Z" fill="#ffeaba"/>
        <path d="M 1943.5 4022.328 L 1957.8333 4022.328 C 1961.6993 4022.328 1964.8333 4025.462 1964.8333 4029.328 L 1964.8333 4043.328 C 1964.8333 4047.194 1961.6993 4050.328 1957.8333 4050.328 L 1943.5 4050.328 C 1939.634 4050.328 1936.5 4047.194 1936.5 4043.328 L 1936.5 4029.328 C 1936.5 4025.462 1939.634 4022.328 1943.5 4022.328 Z" stroke="gray" stroke-linecap="round" stroke-linejoin="round" stroke-width="1"/>
        <text transform="translate(1943.027 4027.9974) rotate(1)" fill="black">
          <tspan font-family="Helvetica Neue" font-size="14" fill="black" x="0" y="13">23</tspan>
        </text>
      </g>
      <g id="Graphic_1887">
        <path d="M 2056.8333 3966.328 L 2071.1667 3966.328 C 2075.0327 3966.328 2078.1667 3969.462 2078.1667 3973.328 L 2078.1667 3987.328 C 2078.1667 3991.194 2075.0327 3994.328 2071.1667 3994.328 L 2056.8333 3994.328 C 2052.9673 3994.328 2049.8333 3991.194 2049.8333 3987.328 L 2049.8333 3973.328 C 2049.8333 3969.462 2052.9673 3966.328 2056.8333 3966.328 Z" fill="#ffeaba"/>
        <path d="M 2056.8333 3966.328 L 2071.1667 3966.328 C 2075.0327 3966.328 2078.1667 3969.462 2078.1667 3973.328 L 2078.1667 3987.328 C 2078.1667 3991.194 2075.0327 3994.328 2071.1667 3994.328 L 2056.8333 3994.328 C 2052.9673 3994.328 2049.8333 3991.194 2049.8333 3987.328 L 2049.8333 3973.328 C 2049.8333 3969.462 2052.9673 3966.328 2056.8333 3966.328 Z" stroke="gray" stroke-linecap="round" stroke-linejoin="round" stroke-width="1"/>
        <text transform="translate(2056.3602 3971.9974) rotate(1)" fill="black">
          <tspan font-family="Helvetica Neue" font-size="14" fill="black" x="0" y="13">12</tspan>
        </text>
      </g>
      <g id="Graphic_1886">
        <path d="M 1943.5 3966.328 L 1957.8333 3966.328 C 1961.6993 3966.328 1964.8333 3969.462 1964.8333 3973.328 L 1964.8333 3987.328 C 1964.8333 3991.194 1961.6993 3994.328 1957.8333 3994.328 L 1943.5 3994.328 C 1939.634 3994.328 1936.5 3991.194 1936.5 3987.328 L 1936.5 3973.328 C 1936.5 3969.462 1939.634 3966.328 1943.5 3966.328 Z" fill="#ffeaba"/>
        <path d="M 1943.5 3966.328 L 1957.8333 3966.328 C 1961.6993 3966.328 1964.8333 3969.462 1964.8333 3973.328 L 1964.8333 3987.328 C 1964.8333 3991.194 1961.6993 3994.328 1957.8333 3994.328 L 1943.5 3994.328 C 1939.634 3994.328 1936.5 3991.194 1936.5 3987.328 L 1936.5 3973.328 C 1936.5 3969.462 1939.634 3966.328 1943.5 3966.328 Z" stroke="gray" stroke-linecap="round" stroke-linejoin="round" stroke-width="1"/>
        <text transform="translate(1946.9183 3972.0653) rotate(1)" fill="black">
          <tspan font-family="Helvetica Neue" font-size="14" fill="black" x="0" y="13">8</tspan>
        </text>
      </g>
      <g id="Graphic_1885">
        <path d="M 2085.1667 4022.328 L 2099.5 4022.328 C 2103.366 4022.328 2106.5 4025.462 2106.5 4029.328 L 2106.5 4043.328 C 2106.5 4047.194 2103.366 4050.328 2099.5 4050.328 L 2085.1667 4050.328 C 2081.3007 4050.328 2078.1667 4047.194 2078.1667 4043.328 L 2078.1667 4029.328 C 2078.1667 4025.462 2081.3007 4022.328 2085.1667 4022.328 Z" fill="#ffeaba"/>
        <path d="M 2085.1667 4022.328 L 2099.5 4022.328 C 2103.366 4022.328 2106.5 4025.462 2106.5 4029.328 L 2106.5 4043.328 C 2106.5 4047.194 2103.366 4050.328 2099.5 4050.328 L 2085.1667 4050.328 C 2081.3007 4050.328 2078.1667 4047.194 2078.1667 4043.328 L 2078.1667 4029.328 C 2078.1667 4025.462 2081.3007 4022.328 2085.1667 4022.328 Z" stroke="gray" stroke-linecap="round" stroke-linejoin="round" stroke-width="1"/>
        <text transform="translate(2084.6936 4027.9974) rotate(1)" fill="black">
          <tspan font-family="Helvetica Neue" font-size="14" fill="black" x="0" y="13">30</tspan>
        </text>
      </g>
      <g id="Graphic_1884">
        <path d="M 2028.5 3994.328 L 2042.8333 3994.328 C 2046.6993 3994.328 2049.8333 3997.462 2049.8333 4001.328 L 2049.8333 4015.328 C 2049.8333 4019.194 2046.6993 4022.328 2042.8333 4022.328 L 2028.5 4022.328 C 2024.634 4022.328 2021.5 4019.194 2021.5 4015.328 L 2021.5 4001.328 C 2021.5 3997.462 2024.634 3994.328 2028.5 3994.328 Z" fill="#ffeaba"/>
        <path d="M 2028.5 3994.328 L 2042.8333 3994.328 C 2046.6993 3994.328 2049.8333 3997.462 2049.8333 4001.328 L 2049.8333 4015.328 C 2049.8333 4019.194 2046.6993 4022.328 2042.8333 4022.328 L 2028.5 4022.328 C 2024.634 4022.328 2021.5 4019.194 2021.5 4015.328 L 2021.5 4001.328 C 2021.5 3997.462 2024.634 3994.328 2028.5 3994.328 Z" stroke="gray" stroke-linecap="round" stroke-linejoin="round" stroke-width="1"/>
        <text transform="translate(2028.027 3999.9974) rotate(1)" fill="black">
          <tspan font-family="Helvetica Neue" font-size="14" fill="black" x="0" y="13">19</tspan>
        </text>
      </g>
      <g id="Graphic_1883">
        <path d="M 2000.1667 3966.328 L 2014.5 3966.328 C 2018.366 3966.328 2021.5 3969.462 2021.5 3973.328 L 2021.5 3987.328 C 2021.5 3991.194 2018.366 3994.328 2014.5 3994.328 L 2000.1667 3994.328 C 1996.3007 3994.328 1993.1667 3991.194 1993.1667 3987.328 L 1993.1667 3973.328 C 1993.1667 3969.462 1996.3007 3966.328 2000.1667 3966.328 Z" fill="#ffeaba"/>
        <path d="M 2000.1667 3966.328 L 2014.5 3966.328 C 2018.366 3966.328 2021.5 3969.462 2021.5 3973.328 L 2021.5 3987.328 C 2021.5 3991.194 2018.366 3994.328 2014.5 3994.328 L 2000.1667 3994.328 C 1996.3007 3994.328 1993.1667 3991.194 1993.1667 3987.328 L 1993.1667 3973.328 C 1993.1667 3969.462 1996.3007 3966.328 2000.1667 3966.328 Z" stroke="gray" stroke-linecap="round" stroke-linejoin="round" stroke-width="1"/>
        <text transform="translate(1999.6936 3971.9974) rotate(1)" fill="black">
          <tspan font-family="Helvetica Neue" font-size="14" fill="black" x="0" y="13">10</tspan>
        </text>
      </g>
      <g id="Graphic_1882">
        <path d="M 2028.5 3938.328 L 2042.8333 3938.328 C 2046.6993 3938.328 2049.8333 3941.462 2049.8333 3945.328 L 2049.8333 3959.328 C 2049.8333 3963.194 2046.6993 3966.328 2042.8333 3966.328 L 2028.5 3966.328 C 2024.634 3966.328 2021.5 3963.194 2021.5 3959.328 L 2021.5 3945.328 C 2021.5 3941.462 2024.634 3938.328 2028.5 3938.328 Z" fill="#ffeaba"/>
        <path d="M 2028.5 3938.328 L 2042.8333 3938.328 C 2046.6993 3938.328 2049.8333 3941.462 2049.8333 3945.328 L 2049.8333 3959.328 C 2049.8333 3963.194 2046.6993 3966.328 2042.8333 3966.328 L 2028.5 3966.328 C 2024.634 3966.328 2021.5 3963.194 2021.5 3959.328 L 2021.5 3945.328 C 2021.5 3941.462 2024.634 3938.328 2028.5 3938.328 Z" stroke="gray" stroke-linecap="round" stroke-linejoin="round" stroke-width="1"/>
        <text transform="translate(2031.9183 3944.0653) rotate(1)" fill="black">
          <tspan font-family="Helvetica Neue" font-size="14" fill="black" x="0" y="13">5</tspan>
        </text>
      </g>
      <g id="Graphic_1881">
        <path d="M 1971.8333 4022.328 L 1986.1667 4022.328 C 1990.0327 4022.328 1993.1667 4025.462 1993.1667 4029.328 L 1993.1667 4043.328 C 1993.1667 4047.194 1990.0327 4050.328 1986.1667 4050.328 L 1971.8333 4050.328 C 1967.9673 4050.328 1964.8333 4047.194 1964.8333 4043.328 L 1964.8333 4029.328 C 1964.8333 4025.462 1967.9673 4022.328 1971.8333 4022.328 Z" fill="#ffeaba"/>
        <path d="M 1971.8333 4022.328 L 1986.1667 4022.328 C 1990.0327 4022.328 1993.1667 4025.462 1993.1667 4029.328 L 1993.1667 4043.328 C 1993.1667 4047.194 1990.0327 4050.328 1986.1667 4050.328 L 1971.8333 4050.328 C 1967.9673 4050.328 1964.8333 4047.194 1964.8333 4043.328 L 1964.8333 4029.328 C 1964.8333 4025.462 1967.9673 4022.328 1971.8333 4022.328 Z" stroke="gray" stroke-linecap="round" stroke-linejoin="round" stroke-width="1"/>
        <text transform="translate(1971.3602 4027.9974) rotate(1)" fill="black">
          <tspan font-family="Helvetica Neue" font-size="14" fill="black" x="0" y="13">24</tspan>
        </text>
      </g>
      <g id="Graphic_1880">
        <path d="M 2085.1667 3966.328 L 2099.5 3966.328 C 2103.366 3966.328 2106.5 3969.462 2106.5 3973.328 L 2106.5 3987.328 C 2106.5 3991.194 2103.366 3994.328 2099.5 3994.328 L 2085.1667 3994.328 C 2081.3007 3994.328 2078.1667 3991.194 2078.1667 3987.328 L 2078.1667 3973.328 C 2078.1667 3969.462 2081.3007 3966.328 2085.1667 3966.328 Z" fill="#ffeaba"/>
        <path d="M 2085.1667 3966.328 L 2099.5 3966.328 C 2103.366 3966.328 2106.5 3969.462 2106.5 3973.328 L 2106.5 3987.328 C 2106.5 3991.194 2103.366 3994.328 2099.5 3994.328 L 2085.1667 3994.328 C 2081.3007 3994.328 2078.1667 3991.194 2078.1667 3987.328 L 2078.1667 3973.328 C 2078.1667 3969.462 2081.3007 3966.328 2085.1667 3966.328 Z" stroke="gray" stroke-linecap="round" stroke-linejoin="round" stroke-width="1"/>
        <text transform="translate(2084.6936 3971.9974) rotate(1)" fill="black">
          <tspan font-family="Helvetica Neue" font-size="14" fill="black" x="0" y="13">13</tspan>
        </text>
      </g>
      <g id="Graphic_1879">
        <path d="M 1943.5 3994.328 L 1957.8333 3994.328 C 1961.6993 3994.328 1964.8333 3997.462 1964.8333 4001.328 L 1964.8333 4015.328 C 1964.8333 4019.194 1961.6993 4022.328 1957.8333 4022.328 L 1943.5 4022.328 C 1939.634 4022.328 1936.5 4019.194 1936.5 4015.328 L 1936.5 4001.328 C 1936.5 3997.462 1939.634 3994.328 1943.5 3994.328 Z" fill="#ffeaba"/>
        <path d="M 1943.5 3994.328 L 1957.8333 3994.328 C 1961.6993 3994.328 1964.8333 3997.462 1964.8333 4001.328 L 1964.8333 4015.328 C 1964.8333 4019.194 1961.6993 4022.328 1957.8333 4022.328 L 1943.5 4022.328 C 1939.634 4022.328 1936.5 4019.194 1936.5 4015.328 L 1936.5 4001.328 C 1936.5 3997.462 1939.634 3994.328 1943.5 3994.328 Z" stroke="gray" stroke-linecap="round" stroke-linejoin="round" stroke-width="1"/>
        <text transform="translate(1943.027 3999.9974) rotate(1)" fill="black">
          <tspan font-family="Helvetica Neue" font-size="14" fill="black" x="0" y="13">15</tspan>
        </text>
      </g>
      <g id="Graphic_1878">
        <path d="M 2000.1667 3994.328 L 2014.5 3994.328 C 2018.366 3994.328 2021.5 3997.462 2021.5 4001.328 L 2021.5 4015.328 C 2021.5 4019.194 2018.366 4022.328 2014.5 4022.328 L 2000.1667 4022.328 C 1996.3007 4022.328 1993.1667 4019.194 1993.1667 4015.328 L 1993.1667 4001.328 C 1993.1667 3997.462 1996.3007 3994.328 2000.1667 3994.328 Z" fill="#ffeaba"/>
        <path d="M 2000.1667 3994.328 L 2014.5 3994.328 C 2018.366 3994.328 2021.5 3997.462 2021.5 4001.328 L 2021.5 4015.328 C 2021.5 4019.194 2018.366 4022.328 2014.5 4022.328 L 2000.1667 4022.328 C 1996.3007 4022.328 1993.1667 4019.194 1993.1667 4015.328 L 1993.1667 4001.328 C 1993.1667 3997.462 1996.3007 3994.328 2000.1667 3994.328 Z" stroke="gray" stroke-linecap="round" stroke-linejoin="round" stroke-width="1"/>
        <text transform="translate(1999.6936 3999.9974) rotate(1)" fill="black">
          <tspan font-family="Helvetica Neue" font-size="14" fill="black" x="0" y="13">18</tspan>
        </text>
      </g>
      <g id="Graphic_1877">
        <path d="M 2056.8333 3938.328 L 2071.1667 3938.328 C 2075.0327 3938.328 2078.1667 3941.462 2078.1667 3945.328 L 2078.1667 3959.328 C 2078.1667 3963.194 2075.0327 3966.328 2071.1667 3966.328 L 2056.8333 3966.328 C 2052.9673 3966.328 2049.8333 3963.194 2049.8333 3959.328 L 2049.8333 3945.328 C 2049.8333 3941.462 2052.9673 3938.328 2056.8333 3938.328 Z" fill="#ffeaba"/>
        <path d="M 2056.8333 3938.328 L 2071.1667 3938.328 C 2075.0327 3938.328 2078.1667 3941.462 2078.1667 3945.328 L 2078.1667 3959.328 C 2078.1667 3963.194 2075.0327 3966.328 2071.1667 3966.328 L 2056.8333 3966.328 C 2052.9673 3966.328 2049.8333 3963.194 2049.8333 3959.328 L 2049.8333 3945.328 C 2049.8333 3941.462 2052.9673 3938.328 2056.8333 3938.328 Z" stroke="gray" stroke-linecap="round" stroke-linejoin="round" stroke-width="1"/>
        <text transform="translate(2060.2516 3944.0653) rotate(1)" fill="black">
          <tspan font-family="Helvetica Neue" font-size="14" fill="black" x="0" y="13">6</tspan>
        </text>
      </g>
      <g id="Graphic_1876">
        <path d="M 2028.5 3966.328 L 2042.8333 3966.328 C 2046.6993 3966.328 2049.8333 3969.462 2049.8333 3973.328 L 2049.8333 3987.328 C 2049.8333 3991.194 2046.6993 3994.328 2042.8333 3994.328 L 2028.5 3994.328 C 2024.634 3994.328 2021.5 3991.194 2021.5 3987.328 L 2021.5 3973.328 C 2021.5 3969.462 2024.634 3966.328 2028.5 3966.328 Z" fill="#ffeaba"/>
        <path d="M 2028.5 3966.328 L 2042.8333 3966.328 C 2046.6993 3966.328 2049.8333 3969.462 2049.8333 3973.328 L 2049.8333 3987.328 C 2049.8333 3991.194 2046.6993 3994.328 2042.8333 3994.328 L 2028.5 3994.328 C 2024.634 3994.328 2021.5 3991.194 2021.5 3987.328 L 2021.5 3973.328 C 2021.5 3969.462 2024.634 3966.328 2028.5 3966.328 Z" stroke="gray" stroke-linecap="round" stroke-linejoin="round" stroke-width="1"/>
        <text transform="translate(2028.027 3971.9974) rotate(1)" fill="black">
          <tspan font-family="Helvetica Neue" font-size="14" fill="black" x="0" y="13">11</tspan>
        </text>
      </g>
      <g id="Graphic_1875"/>
      <g id="Graphic_1874"/>
      <g id="Graphic_1873"/>
      <g id="Graphic_1872"/>
      <g id="Graphic_1871">
        <path d="M 1971.8333 4128.328 L 1986.1667 4128.328 C 1990.0327 4128.328 1993.1667 4131.462 1993.1667 4135.328 L 1993.1667 4149.328 C 1993.1667 4153.194 1990.0327 4156.328 1986.1667 4156.328 L 1971.8333 4156.328 C 1967.9673 4156.328 1964.8333 4153.194 1964.8333 4149.328 L 1964.8333 4135.328 C 1964.8333 4131.462 1967.9673 4128.328 1971.8333 4128.328 Z" fill="#e4e6ff"/>
        <path d="M 1971.8333 4128.328 L 1986.1667 4128.328 C 1990.0327 4128.328 1993.1667 4131.462 1993.1667 4135.328 L 1993.1667 4149.328 C 1993.1667 4153.194 1990.0327 4156.328 1986.1667 4156.328 L 1971.8333 4156.328 C 1967.9673 4156.328 1964.8333 4153.194 1964.8333 4149.328 L 1964.8333 4135.328 C 1964.8333 4131.462 1967.9673 4128.328 1971.8333 4128.328 Z" stroke="gray" stroke-linecap="round" stroke-linejoin="round" stroke-width="1"/>
        <text transform="translate(1971.3602 4133.9974) rotate(1)" fill="black">
          <tspan font-family="Helvetica Neue" font-size="14" fill="black" x="0" y="13">14</tspan>
        </text>
      </g>
      <g id="Graphic_1870"/>
      <g id="Graphic_1869"/>
      <g id="Graphic_1868"/>
      <g id="Graphic_1867"/>
      <g id="Graphic_1866"/>
      <g id="Graphic_1865"/>
      <g id="Graphic_1864"/>
      <g id="Graphic_1863"/>
      <g id="Graphic_1862">
        <path d="M 2056.8333 4128.328 L 2071.1667 4128.328 C 2075.0327 4128.328 2078.1667 4131.462 2078.1667 4135.328 L 2078.1667 4149.328 C 2078.1667 4153.194 2075.0327 4156.328 2071.1667 4156.328 L 2056.8333 4156.328 C 2052.9673 4156.328 2049.8333 4153.194 2049.8333 4149.328 L 2049.8333 4135.328 C 2049.8333 4131.462 2052.9673 4128.328 2056.8333 4128.328 Z" fill="#e4e6ff"/>
        <path d="M 2056.8333 4128.328 L 2071.1667 4128.328 C 2075.0327 4128.328 2078.1667 4131.462 2078.1667 4135.328 L 2078.1667 4149.328 C 2078.1667 4153.194 2075.0327 4156.328 2071.1667 4156.328 L 2056.8333 4156.328 C 2052.9673 4156.328 2049.8333 4153.194 2049.8333 4149.328 L 2049.8333 4135.328 C 2049.8333 4131.462 2052.9673 4128.328 2056.8333 4128.328 Z" stroke="gray" stroke-linecap="round" stroke-linejoin="round" stroke-width="1"/>
        <text transform="translate(2056.3602 4133.9974) rotate(1)" fill="black">
          <tspan font-family="Helvetica Neue" font-size="14" fill="black" x="0" y="13">25</tspan>
        </text>
      </g>
      <g id="Graphic_1861">
        <path d="M 1943.5 4128.328 L 1957.8333 4128.328 C 1961.6993 4128.328 1964.8333 4131.462 1964.8333 4135.328 L 1964.8333 4149.328 C 1964.8333 4153.194 1961.6993 4156.328 1957.8333 4156.328 L 1943.5 4156.328 C 1939.634 4156.328 1936.5 4153.194 1936.5 4149.328 L 1936.5 4135.328 C 1936.5 4131.462 1939.634 4128.328 1943.5 4128.328 Z" fill="#e4e6ff"/>
        <path d="M 1943.5 4128.328 L 1957.8333 4128.328 C 1961.6993 4128.328 1964.8333 4131.462 1964.8333 4135.328 L 1964.8333 4149.328 C 1964.8333 4153.194 1961.6993 4156.328 1957.8333 4156.328 L 1943.5 4156.328 C 1939.634 4156.328 1936.5 4153.194 1936.5 4149.328 L 1936.5 4135.328 C 1936.5 4131.462 1939.634 4128.328 1943.5 4128.328 Z" stroke="gray" stroke-linecap="round" stroke-linejoin="round" stroke-width="1"/>
        <text transform="translate(1946.9183 4134.0653) rotate(1)" fill="black">
          <tspan font-family="Helvetica Neue" font-size="14" fill="black" x="0" y="13">1</tspan>
        </text>
      </g>
      <g id="Graphic_1860"/>
      <g id="Graphic_1859"/>
      <g id="Graphic_1858">
        <path d="M 2000.1667 4128.328 L 2014.5 4128.328 C 2018.366 4128.328 2021.5 4131.462 2021.5 4135.328 L 2021.5 4149.328 C 2021.5 4153.194 2018.366 4156.328 2014.5 4156.328 L 2000.1667 4156.328 C 1996.3007 4156.328 1993.1667 4153.194 1993.1667 4149.328 L 1993.1667 4135.328 C 1993.1667 4131.462 1996.3007 4128.328 2000.1667 4128.328 Z" fill="#e4e6ff"/>
        <path d="M 2000.1667 4128.328 L 2014.5 4128.328 C 2018.366 4128.328 2021.5 4131.462 2021.5 4135.328 L 2021.5 4149.328 C 2021.5 4153.194 2018.366 4156.328 2014.5 4156.328 L 2000.1667 4156.328 C 1996.3007 4156.328 1993.1667 4153.194 1993.1667 4149.328 L 1993.1667 4135.328 C 1993.1667 4131.462 1996.3007 4128.328 2000.1667 4128.328 Z" stroke="gray" stroke-linecap="round" stroke-linejoin="round" stroke-width="1"/>
        <text transform="translate(1999.6936 4133.9974) rotate(1)" fill="black">
          <tspan font-family="Helvetica Neue" font-size="14" fill="black" x="0" y="13">16</tspan>
        </text>
      </g>
      <g id="Graphic_1857"/>
      <g id="Graphic_1856"/>
      <g id="Graphic_1855"/>
      <g id="Graphic_1854">
        <path d="M 2085.1667 4128.328 L 2099.5 4128.328 C 2103.366 4128.328 2106.5 4131.462 2106.5 4135.328 L 2106.5 4149.328 C 2106.5 4153.194 2103.366 4156.328 2099.5 4156.328 L 2085.1667 4156.328 C 2081.3007 4156.328 2078.1667 4153.194 2078.1667 4149.328 L 2078.1667 4135.328 C 2078.1667 4131.462 2081.3007 4128.328 2085.1667 4128.328 Z" fill="#e4e6ff"/>
        <path d="M 2085.1667 4128.328 L 2099.5 4128.328 C 2103.366 4128.328 2106.5 4131.462 2106.5 4135.328 L 2106.5 4149.328 C 2106.5 4153.194 2103.366 4156.328 2099.5 4156.328 L 2085.1667 4156.328 C 2081.3007 4156.328 2078.1667 4153.194 2078.1667 4149.328 L 2078.1667 4135.328 C 2078.1667 4131.462 2081.3007 4128.328 2085.1667 4128.328 Z" stroke="gray" stroke-linecap="round" stroke-linejoin="round" stroke-width="1"/>
        <text transform="translate(2084.6936 4133.9974) rotate(1)" fill="black">
          <tspan font-family="Helvetica Neue" font-size="14" fill="black" x="0" y="13">27</tspan>
        </text>
      </g>
      <g id="Graphic_1853"/>
      <g id="Graphic_1852">
        <path d="M 2028.5 4128.328 L 2042.8333 4128.328 C 2046.6993 4128.328 2049.8333 4131.462 2049.8333 4135.328 L 2049.8333 4149.328 C 2049.8333 4153.194 2046.6993 4156.328 2042.8333 4156.328 L 2028.5 4156.328 C 2024.634 4156.328 2021.5 4153.194 2021.5 4149.328 L 2021.5 4135.328 C 2021.5 4131.462 2024.634 4128.328 2028.5 4128.328 Z" fill="#e4e6ff"/>
        <path d="M 2028.5 4128.328 L 2042.8333 4128.328 C 2046.6993 4128.328 2049.8333 4131.462 2049.8333 4135.328 L 2049.8333 4149.328 C 2049.8333 4153.194 2046.6993 4156.328 2042.8333 4156.328 L 2028.5 4156.328 C 2024.634 4156.328 2021.5 4153.194 2021.5 4149.328 L 2021.5 4135.328 C 2021.5 4131.462 2024.634 4128.328 2028.5 4128.328 Z" stroke="gray" stroke-linecap="round" stroke-linejoin="round" stroke-width="1"/>
        <text transform="translate(2028.027 4133.9974) rotate(1)" fill="black">
          <tspan font-family="Helvetica Neue" font-size="14" fill="black" x="0" y="13">21</tspan>
        </text>
      </g>
      <g id="Graphic_1851">
        <text transform="translate(1792.132 3888.328)" fill="#ebebeb">
          <tspan font-family="Helvetica Neue" font-size="16" fill="#ebebeb" x="0" y="15">Iteration 2</tspan>
        </text>
      </g>
      <g id="Graphic_1850">
        <text transform="translate(1984.436 3888)" fill="#ebebeb">
          <tspan font-family="Helvetica Neue" font-size="16" fill="#ebebeb" x="0" y="15">Iteration 3</tspan>
        </text>
      </g>
    </g>
  </g>
</svg>
