<?xml version="1.0" encoding="UTF-8" standalone="no"?>
<!-- Created with Inkscape (http://www.inkscape.org/) -->

<svg
   version="1.1"
   id="svg1"
   width="359.22934"
   height="346.75732"
   viewBox="0 0 359.22934 346.75732"
   xmlns="http://www.w3.org/2000/svg"
   xmlns:svg="http://www.w3.org/2000/svg">
  <defs
     id="defs1" />
  <g
     id="g1">
    <path
       id="path1"
       d="m 15.102,45.35509 c 0,8.3407 -6.7613,15.102 -15.102,15.102 -8.3407,0 -15.102,-6.7613 -15.102,-15.102 0,-8.34072 6.7613,-15.10202 15.102,-15.10202 8.3407,0 15.102,6.7613 15.102,15.10202 z"
       style="fill:#bfe6bf;fill-opacity:1;fill-rule:nonzero;stroke:#002e00;stroke-width:0.79701;stroke-linecap:butt;stroke-linejoin:miter;stroke-miterlimit:10;stroke-dasharray:none;stroke-opacity:1"
       transform="matrix(1.3333333,0,0,-1.3333333,24.652,118.95333)" />
    <path
       id="path2"
       d="m 1.759,-4.4055 -1.39453125,0.1171875 v 0.3046875 c 0.65625005,0 0.73828125,0.058594 0.73828125,0.5507813 v 2.67187495 c 0,0.45703125 -0.10546875,0.45703125 -0.7734375,0.45703125 V 7.5e-4 c 0.31640625,-0.01171875 0.8554688,-0.03515625 1.1015625,-0.03515625 0.3398438,0 0.6914063,0.0234375 1.03125,0.03515625 V -0.3039375 C 1.805875,-0.3039375 1.759,-0.3625313 1.759,-0.74925 Z m 0.046875,-1.734375 c 0,-0.3164062 -0.2460937,-0.5273437 -0.5273437,-0.5273437 -0.3164063,0 -0.5273438,0.2695312 -0.5273438,0.5273437 0,0.2695313 0.2109375,0.5273438 0.5273438,0.5273438 0.28125,0 0.5273437,-0.1992188 0.5273437,-0.5273438 z m 2.0625,2.71875 v 2.66015625 c 0,0.45703125 -0.1171875,0.45703125 -0.7851562,0.45703125 V 7.5e-4 c 0.3515625,-0.01171875 0.8554687,-0.03515625 1.125,-0.03515625 0.2578125,0 0.7851562,0.0234375 1.1132812,0.03515625 v -0.3046875 c -0.65625,0 -0.7734375,0 -0.7734375,-0.45703125 V -2.5890937 c 0,-1.03125 0.7148438,-1.59375 1.3476563,-1.59375 0.6210937,0 0.7382812,0.5390625 0.7382812,1.1015625 v 2.32031245 c 0,0.45703125 -0.1171875,0.45703125 -0.7734375,0.45703125 V 7.5e-4 c 0.3398438,-0.01171875 0.8554688,-0.03515625 1.125,-0.03515625 0.2578125,0 0.7734375,0.0234375 1.1132813,0.03515625 v -0.3046875 c -0.515625,0 -0.7734375,0 -0.7851563,-0.3046875 v -1.8984375 c 0,-0.8554687 0,-1.171875 -0.3046875,-1.5234375 -0.140625,-0.1757812 -0.46875,-0.375 -1.0429687,-0.375 -0.7265625,0 -1.1953125,0.4335938 -1.4765625,1.0546875 V -4.4055 l -1.40625,0.1171875 v 0.3046875 c 0.703125,0 0.7851562,0.070312 0.7851562,0.5625 z M 10.014859,-3.74925 V -4.4055 l -1.4296871,0.1171875 v 0.3046875 c 0.703125,0 0.7734375,0.058594 0.7734375,0.4921875 V 1.172625 c 0,0.4570313 -0.1054688,0.4570313 -0.7734375,0.4570313 v 0.3046875 c 0.3398437,-0.011719 0.8554687,-0.035156 1.1132812,-0.035156 0.2695313,0 0.7734379,0.023437 1.1249999,0.035156 V 1.6296563 c -0.667969,0 -0.773437,0 -0.773437,-0.4570313 v -1.7578125 c 0.04687,0.15234375 0.46875,0.69140625 1.21875,0.69140625 1.183593,0 2.226562,-0.97265625 2.226562,-2.26171875 0,-1.265625 -0.972656,-2.25 -2.085937,-2.25 -0.773438,0 -1.195313,0.4453125 -1.394532,0.65625 z m 0.03516,2.6132813 v -2.2148438 c 0.28125,-0.515625 0.773437,-0.796875 1.277343,-0.796875 0.726563,0 1.335938,0.8671875 1.335938,1.9921875 0,1.20703125 -0.691406,2.05078125 -1.429688,2.05078125 -0.398437,0 -0.773437,-0.19921875 -1.042968,-0.609375 C 10.050016,-0.92503125 10.050016,-0.93675 10.050016,-1.1359687 Z m 7.678711,0.35156245 v 0.890625 L 19.170133,7.5e-4 v -0.3046875 c -0.703125,0 -0.785156,-0.0703125 -0.785156,-0.5625 V -4.4055 l -1.453125,0.1171875 v 0.3046875 c 0.691406,0 0.773437,0.070312 0.773437,0.5625 v 1.7695313 c 0,0.86718745 -0.480469,1.54687495 -1.207031,1.54687495 -0.832031,0 -0.878906,-0.46875 -0.878906,-0.99609375 V -4.4055 l -1.464844,0.1171875 v 0.3046875 c 0.785156,0 0.785156,0.035156 0.785156,0.9140625 v 1.5 c 0,0.7734375 0,1.67578125 1.511719,1.67578125 0.550781,0 0.996094,-0.26953125 1.277344,-0.890625 z M 21.094938,-3.983625 h 1.429687 v -0.3046875 h -1.429687 v -1.8398437 h -0.246094 c -0.01172,0.8203125 -0.316406,1.8867187 -1.289063,1.921875 v 0.2226562 h 0.84375 v 2.7539063 c 0,1.21874995 0.925782,1.33593745 1.289063,1.33593745 0.703125,0 0.984375,-0.703125 0.984375,-1.33593745 v -0.5742188 h -0.246094 v 0.5507813 c 0,0.7382812 -0.304687,1.1132812 -0.667969,1.1132812 -0.667968,0 -0.667968,-0.9023437 -0.667968,-1.078125 z m 0,0"
       style="fill:#003300;fill-opacity:1;fill-rule:nonzero;stroke:none"
       aria-label="input"
       transform="matrix(1.3333333,0,0,1.3333333,9.1546667,61.624)" />
    <path
       id="path3"
       d="M 15.102,0 C 15.102,8.3407 8.3407,15.102 0,15.102 -8.3407,15.102 -15.102,8.3407 -15.102,0 c 0,-8.3407 6.7613,-15.102 15.102,-15.102 8.3407,0 15.102,6.7613 15.102,15.102 z"
       style="fill:#bfe6bf;fill-opacity:1;fill-rule:nonzero;stroke:#002e00;stroke-width:0.79701;stroke-linecap:butt;stroke-linejoin:miter;stroke-miterlimit:10;stroke-dasharray:none;stroke-opacity:1"
       transform="matrix(1.3333333,0,0,-1.3333333,24.652,118.95333)" />
    <path
       id="path4"
       d="m 1.759,-4.4060078 -1.39453125,0.1171875 v 0.3046875 c 0.65625005,0 0.73828125,0.058594 0.73828125,0.5507812 v 2.67187504 c 0,0.45703125 -0.10546875,0.45703125 -0.7734375,0.45703125 V 2.421875e-4 C 0.64571875,-0.01147656 1.1847813,-0.03491406 1.430875,-0.03491406 c 0.3398438,0 0.6914063,0.0234375 1.03125,0.0351562475 V -0.30444531 c -0.65625,0 -0.703125,-0.0585938 -0.703125,-0.4453125 z m 0.046875,-1.734375 c 0,-0.3164063 -0.2460937,-0.5273438 -0.5273437,-0.5273438 -0.3164063,0 -0.5273438,0.2695313 -0.5273438,0.5273438 0,0.2695312 0.2109375,0.5273437 0.5273438,0.5273437 0.28125,0 0.5273437,-0.1992187 0.5273437,-0.5273437 z m 2.0625,2.71875 v 2.66015624 c 0,0.45703125 -0.1171875,0.45703125 -0.7851562,0.45703125 V 2.421875e-4 c 0.3515625,-0.0117187475 0.8554687,-0.0351562475 1.125,-0.0351562475 0.2578125,0 0.7851562,0.0234375 1.1132812,0.0351562475 V -0.30444531 c -0.65625,0 -0.7734375,0 -0.7734375,-0.45703125 V -2.5896016 c 0,-1.03125 0.7148438,-1.59375 1.3476563,-1.59375 0.6210937,0 0.7382812,0.5390625 0.7382812,1.1015625 v 2.32031254 c 0,0.45703125 -0.1171875,0.45703125 -0.7734375,0.45703125 V 2.421875e-4 c 0.3398438,-0.0117187475 0.8554688,-0.0351562475 1.125,-0.0351562475 0.2578125,0 0.7734375,0.0234375 1.1132813,0.0351562475 V -0.30444531 c -0.515625,0 -0.7734375,0 -0.7851563,-0.3046875 V -2.5075703 c 0,-0.8554688 0,-1.171875 -0.3046875,-1.5234375 -0.140625,-0.1757813 -0.46875,-0.375 -1.0429687,-0.375 -0.7265625,0 -1.1953125,0.4335937 -1.4765625,1.0546875 v -1.0546875 l -1.40625,0.1171875 v 0.3046875 c 0.703125,0 0.7851562,0.070312 0.7851562,0.5625 z m 6.146484,-0.328125 v -0.65625 l -1.4296871,0.1171875 v 0.3046875 c 0.703125,0 0.7734375,0.058594 0.7734375,0.4921875 v 4.6640625 c 0,0.4570312 -0.1054688,0.4570312 -0.7734375,0.4570312 v 0.3046875 c 0.3398437,-0.011719 0.8554687,-0.035156 1.1132812,-0.035156 0.2695313,0 0.7734379,0.023437 1.1249999,0.035156 V 1.6291484 c -0.667969,0 -0.773437,0 -0.773437,-0.4570312 v -1.75781251 c 0.04687,0.15234375 0.46875,0.69140625 1.21875,0.69140625 1.183593,0 2.226562,-0.97265625 2.226562,-2.26171874 0,-1.265625 -0.972656,-2.25 -2.085937,-2.25 -0.773438,0 -1.195313,0.4453125 -1.394532,0.65625 z m 0.03516,2.6132812 v -2.2148437 c 0.28125,-0.515625 0.773437,-0.796875 1.277343,-0.796875 0.726563,0 1.335938,0.8671875 1.335938,1.9921875 0,1.20703124 -0.691406,2.05078124 -1.429688,2.05078124 -0.398437,0 -0.773437,-0.19921875 -1.042968,-0.609375 -0.140625,-0.2109375 -0.140625,-0.22265625 -0.140625,-0.42187504 z m 7.678711,0.35156254 v 0.890625 L 19.170133,2.421875e-4 V -0.30444531 c -0.703125,0 -0.785156,-0.0703125 -0.785156,-0.5625 V -4.4060078 l -1.453125,0.1171875 v 0.3046875 c 0.691406,0 0.773437,0.070312 0.773437,0.5625 v 1.7695312 c 0,0.86718754 -0.480469,1.54687504 -1.207031,1.54687504 -0.832031,0 -0.878906,-0.46875 -0.878906,-0.99609374 v -3.3046875 l -1.464844,0.1171875 v 0.3046875 c 0.785156,0 0.785156,0.035156 0.785156,0.9140625 v 1.5 c 0,0.77343749 0,1.67578124 1.511719,1.67578124 0.550781,0 0.996094,-0.26953125 1.277344,-0.890625 z m 3.366211,-3.19921874 h 1.429687 v -0.3046875 h -1.429687 v -1.8398438 h -0.246094 c -0.01172,0.8203125 -0.316406,1.8867188 -1.289063,1.921875 v 0.2226563 h 0.84375 v 2.7539062 c 0,1.21875004 0.925782,1.33593754 1.289063,1.33593754 0.703125,0 0.984375,-0.703125 0.984375,-1.33593754 v -0.5742187 h -0.246094 v 0.5507812 c 0,0.73828129 -0.304687,1.11328129 -0.667969,1.11328129 -0.667968,0 -0.667968,-0.90234379 -0.667968,-1.07812499 z m 0,0"
       style="fill:#003300;fill-opacity:1;fill-rule:nonzero;stroke:none"
       aria-label="input"
       transform="matrix(1.3333333,0,0,1.3333333,9.1546667,122.09733)" />
    <path
       id="path5"
       d="m 15.102,-45.35509 c 0,8.34072 -6.7613,15.10202 -15.102,15.10202 -8.3407,0 -15.102,-6.7613 -15.102,-15.10202 0,-8.3407 6.7613,-15.102 15.102,-15.102 8.3407,0 15.102,6.7613 15.102,15.102 z"
       style="fill:#bfe6bf;fill-opacity:1;fill-rule:nonzero;stroke:#002e00;stroke-width:0.79701;stroke-linecap:butt;stroke-linejoin:miter;stroke-miterlimit:10;stroke-dasharray:none;stroke-opacity:1"
       transform="matrix(1.3333333,0,0,-1.3333333,24.652,118.95333)" />
    <path
       id="path6"
       d="m 1.759,-4.4055156 -1.39453125,0.1171875 v 0.3046875 c 0.65625005,0 0.73828125,0.058594 0.73828125,0.5507812 v 2.67187503 c 0,0.45703125 -0.10546875,0.45703125 -0.7734375,0.45703125 V 7.34375e-4 C 0.64571875,-0.01098437 1.1847813,-0.03442187 1.430875,-0.03442187 c 0.3398438,0 0.6914063,0.0234375 1.03125,0.035156245 V -0.30395312 c -0.65625,0 -0.703125,-0.0585938 -0.703125,-0.4453125 z m 0.046875,-1.734375 c 0,-0.3164063 -0.2460937,-0.5273438 -0.5273437,-0.5273438 -0.3164063,0 -0.5273438,0.2695313 -0.5273438,0.5273438 0,0.2695312 0.2109375,0.5273437 0.5273438,0.5273437 0.28125,0 0.5273437,-0.1992187 0.5273437,-0.5273437 z m 2.0625,2.71875 v 2.66015623 c 0,0.45703125 -0.1171875,0.45703125 -0.7851562,0.45703125 V 7.34375e-4 c 0.3515625,-0.011718745 0.8554687,-0.035156245 1.125,-0.035156245 0.2578125,0 0.7851562,0.0234375 1.1132812,0.035156245 V -0.30395312 c -0.65625,0 -0.7734375,0 -0.7734375,-0.45703125 V -2.5891094 c 0,-1.03125 0.7148438,-1.59375 1.3476563,-1.59375 0.6210937,0 0.7382812,0.5390625 0.7382812,1.1015625 v 2.32031253 c 0,0.45703125 -0.1171875,0.45703125 -0.7734375,0.45703125 V 7.34375e-4 c 0.3398438,-0.011718745 0.8554688,-0.035156245 1.125,-0.035156245 0.2578125,0 0.7734375,0.0234375 1.1132813,0.035156245 V -0.30395312 c -0.515625,0 -0.7734375,0 -0.7851563,-0.3046875 V -2.5070781 c 0,-0.8554688 0,-1.171875 -0.3046875,-1.5234375 -0.140625,-0.1757813 -0.46875,-0.375 -1.0429687,-0.375 -0.7265625,0 -1.1953125,0.4335937 -1.4765625,1.0546875 v -1.0546875 l -1.40625,0.1171875 v 0.3046875 c 0.703125,0 0.7851562,0.070312 0.7851562,0.5625 z m 6.146484,-0.328125 v -0.65625 l -1.4296871,0.1171875 v 0.3046875 c 0.703125,0 0.7734375,0.058594 0.7734375,0.4921875 v 4.6640625 c 0,0.4570312 -0.1054688,0.4570312 -0.7734375,0.4570312 v 0.3046875 c 0.3398437,-0.011719 0.8554687,-0.035156 1.1132812,-0.035156 0.2695313,0 0.7734379,0.023437 1.1249999,0.035156 V 1.6296406 c -0.667969,0 -0.773437,0 -0.773437,-0.4570312 v -1.75781252 c 0.04687,0.15234375 0.46875,0.69140625 1.21875,0.69140625 1.183593,0 2.226562,-0.97265625 2.226562,-2.26171873 0,-1.265625 -0.972656,-2.25 -2.085937,-2.25 -0.773438,0 -1.195313,0.4453125 -1.394532,0.65625 z m 0.03516,2.6132812 v -2.2148437 c 0.28125,-0.515625 0.773437,-0.796875 1.277343,-0.796875 0.726563,0 1.335938,0.8671875 1.335938,1.9921875 0,1.20703123 -0.691406,2.05078123 -1.429688,2.05078123 -0.398437,0 -0.773437,-0.19921875 -1.042968,-0.609375 -0.140625,-0.2109375 -0.140625,-0.22265625 -0.140625,-0.42187503 z m 7.678711,0.35156253 v 0.890625 L 19.170133,7.34375e-4 V -0.30395312 c -0.703125,0 -0.785156,-0.0703125 -0.785156,-0.5625 V -4.4055156 l -1.453125,0.1171875 v 0.3046875 c 0.691406,0 0.773437,0.070312 0.773437,0.5625 v 1.7695312 c 0,0.86718753 -0.480469,1.54687503 -1.207031,1.54687503 -0.832031,0 -0.878906,-0.46875 -0.878906,-0.99609373 v -3.3046875 l -1.464844,0.1171875 v 0.3046875 c 0.785156,0 0.785156,0.035156 0.785156,0.9140625 v 1.5 c 0,0.77343748 0,1.67578123 1.511719,1.67578123 0.550781,0 0.996094,-0.26953125 1.277344,-0.890625 z m 3.366211,-3.19921873 h 1.429687 v -0.3046875 h -1.429687 v -1.8398438 h -0.246094 c -0.01172,0.8203125 -0.316406,1.8867188 -1.289063,1.921875 v 0.2226563 h 0.84375 v 2.7539062 c 0,1.21875003 0.925782,1.33593753 1.289063,1.33593753 0.703125,0 0.984375,-0.703125 0.984375,-1.33593753 v -0.5742187 h -0.246094 v 0.5507812 c 0,0.73828128 -0.304687,1.11328128 -0.667969,1.11328128 -0.667968,0 -0.667968,-0.90234378 -0.667968,-1.07812498 z m 0,0"
       style="fill:#003300;fill-opacity:1;fill-rule:nonzero;stroke:none"
       aria-label="input"
       transform="matrix(1.3333333,0,0,1.3333333,9.1546667,182.56933)" />
    <path
       id="path7"
       d="m 15.102,-126.99437 c 0,8.3407 -6.7613,15.10201 -15.102,15.10201 -8.3407,0 -15.102,-6.76131 -15.102,-15.10201 0,-8.3407 6.7613,-15.102 15.102,-15.102 8.3407,0 15.102,6.7613 15.102,15.102 z"
       style="fill:#bfe6bf;fill-opacity:1;fill-rule:nonzero;stroke:#002e00;stroke-width:0.79701;stroke-linecap:butt;stroke-linejoin:miter;stroke-miterlimit:10;stroke-dasharray:none;stroke-opacity:1"
       transform="matrix(1.3333333,0,0,-1.3333333,24.652,118.95333)" />
    <path
       id="path8"
       d="m 1.759,-4.4058438 -1.39453125,0.1171875 v 0.3046875 c 0.65625005,0 0.73828125,0.058594 0.73828125,0.5507813 v 2.671875 c 0,0.45703125 -0.10546875,0.45703125 -0.7734375,0.45703125 V 4.0625e-4 C 0.64571875,-0.0113125 1.1847813,-0.03475 1.430875,-0.03475 c 0.3398438,0 0.6914063,0.0234375 1.03125,0.03515625 v -0.3046875 c -0.65625,0 -0.703125,-0.0585938 -0.703125,-0.4453125 z m 0.046875,-1.734375 c 0,-0.3164062 -0.2460937,-0.5273437 -0.5273437,-0.5273437 -0.3164063,0 -0.5273438,0.2695312 -0.5273438,0.5273437 0,0.2695313 0.2109375,0.5273438 0.5273438,0.5273438 0.28125,0 0.5273437,-0.1992188 0.5273437,-0.5273438 z m 2.0625,2.71875 v 2.6601563 c 0,0.45703125 -0.1171875,0.45703125 -0.7851562,0.45703125 V 4.0625e-4 C 3.4347813,-0.0113125 3.9386875,-0.03475 4.2082188,-0.03475 c 0.2578125,0 0.7851562,0.0234375 1.1132812,0.03515625 v -0.3046875 c -0.65625,0 -0.7734375,0 -0.7734375,-0.45703125 v -1.828125 c 0,-1.03125 0.7148438,-1.59375 1.3476563,-1.59375 0.6210937,0 0.7382812,0.5390625 0.7382812,1.1015625 v 2.3203125 c 0,0.45703125 -0.1171875,0.45703125 -0.7734375,0.45703125 V 4.0625e-4 C 6.2004063,-0.0113125 6.7160313,-0.03475 6.9855625,-0.03475 c 0.2578125,0 0.7734375,0.0234375 1.1132813,0.03515625 v -0.3046875 c -0.515625,0 -0.7734375,0 -0.7851563,-0.3046875 V -2.5074063 c 0,-0.8554687 0,-1.171875 -0.3046875,-1.5234375 -0.140625,-0.1757812 -0.46875,-0.375 -1.0429687,-0.375 -0.7265625,0 -1.1953125,0.4335938 -1.4765625,1.0546875 v -1.0546875 l -1.40625,0.1171875 v 0.3046875 c 0.703125,0 0.7851562,0.070312 0.7851562,0.5625 z m 6.146484,-0.328125 v -0.65625 l -1.4296871,0.1171875 v 0.3046875 c 0.703125,0 0.7734375,0.058594 0.7734375,0.4921875 v 4.6640625 c 0,0.4570313 -0.1054688,0.4570313 -0.7734375,0.4570313 V 1.934 C 8.9250156,1.922281 9.4406406,1.898844 9.6984531,1.898844 c 0.2695313,0 0.7734379,0.023437 1.1249999,0.035156 V 1.6293125 c -0.667969,0 -0.773437,0 -0.773437,-0.4570313 v -1.75781245 c 0.04687,0.15234375 0.46875,0.69140625 1.21875,0.69140625 1.183593,0 2.226562,-0.97265625 2.226562,-2.2617188 0,-1.265625 -0.972656,-2.25 -2.085937,-2.25 -0.773438,0 -1.195313,0.4453125 -1.394532,0.65625 z m 0.03516,2.6132813 v -2.2148438 c 0.28125,-0.515625 0.773437,-0.796875 1.277343,-0.796875 0.726563,0 1.335938,0.8671875 1.335938,1.9921875 0,1.2070313 -0.691406,2.0507813 -1.429688,2.0507813 -0.398437,0 -0.773437,-0.19921875 -1.042968,-0.609375 -0.140625,-0.2109375 -0.140625,-0.22265625 -0.140625,-0.421875 z M 17.728727,-0.78475 V 0.105875 L 19.170133,4.0625e-4 v -0.3046875 c -0.703125,0 -0.785156,-0.0703125 -0.785156,-0.5625 V -4.4058438 l -1.453125,0.1171875 v 0.3046875 c 0.691406,0 0.773437,0.070312 0.773437,0.5625 v 1.7695313 c 0,0.8671875 -0.480469,1.546875 -1.207031,1.546875 -0.832031,0 -0.878906,-0.46875 -0.878906,-0.9960938 v -3.3046875 l -1.464844,0.1171875 v 0.3046875 c 0.785156,0 0.785156,0.035156 0.785156,0.9140625 v 1.5 c 0,0.77343755 0,1.6757813 1.511719,1.6757813 0.550781,0 0.996094,-0.26953125 1.277344,-0.890625 z m 3.366211,-3.1992188 h 1.429687 V -4.2886563 H 21.094938 V -6.1285 h -0.246094 c -0.01172,0.8203125 -0.316406,1.8867187 -1.289063,1.921875 v 0.2226562 h 0.84375 v 2.7539063 c 0,1.21875 0.925782,1.3359375 1.289063,1.3359375 0.703125,0 0.984375,-0.703125 0.984375,-1.3359375 V -1.8042813 H 22.430875 V -1.2535 c 0,0.73828125 -0.304687,1.11328125 -0.667969,1.11328125 -0.667968,0 -0.667968,-0.90234375 -0.667968,-1.07812505 z m 0,0"
       style="fill:#003300;fill-opacity:1;fill-rule:nonzero;stroke:none"
       aria-label="input"
       transform="matrix(1.3333333,0,0,1.3333333,9.1546667,291.42133)" />
    <path
       id="path9"
       d="m 132.60075,-149.6719 c 0,9.82873 -7.96755,17.79627 -17.79628,17.79627 -9.82873,0 -17.79629,-7.96754 -17.79629,-17.79627 0,-9.82874 7.96756,-17.7963 17.79629,-17.7963 9.82873,0 17.79628,7.96756 17.79628,17.7963 z"
       style="fill:#ccccf5;fill-opacity:1;fill-rule:nonzero;stroke:#00003d;stroke-width:0.79701;stroke-linecap:butt;stroke-linejoin:miter;stroke-miterlimit:10;stroke-dasharray:none;stroke-opacity:1"
       transform="matrix(1.3333333,0,0,-1.3333333,24.652,118.95333)" />
    <path
       id="path10"
       d="m 1.1025391,-0.76196875 c 0,0.45703125 -0.11718754,0.45703125 -0.78515629,0.45703125 V -2.5e-4 c 0.3515625,-0.01171875 0.85546879,-0.03515625 1.12499999,-0.03515625 0.2578125,0 0.7851563,0.0234375 1.1132813,0.03515625 v -0.3046875 c -0.65625,0 -0.7734375,0 -0.7734375,-0.45703125 V -2.5900937 c 0,-1.03125 0.7148437,-1.59375 1.3476562,-1.59375 0.6210938,0 0.7382813,0.5390625 0.7382813,1.1015625 v 2.32031245 c 0,0.45703125 -0.1171875,0.45703125 -0.7734375,0.45703125 V -2.5e-4 c 0.3398437,-0.01171875 0.8554687,-0.03515625 1.125,-0.03515625 0.2578125,0 0.7734375,0.0234375 1.1132812,0.03515625 v -0.3046875 c -0.515625,0 -0.7734375,0 -0.7851562,-0.3046875 v -1.8984375 c 0,-0.8554687 0,-1.171875 -0.3046875,-1.5234375 -0.140625,-0.1757812 -0.46875,-0.375 -1.0429688,-0.375 -0.84375,0 -1.2773437,0.5976563 -1.4414062,0.984375 v -3.4921875 l -1.44140629,0.1054688 v 0.3164062 c 0.70312499,0 0.78515629,0.070312 0.78515629,0.5507813 z M 7.2929688,-4.4065 5.8984375,-4.2893125 v 0.3046875 c 0.65625,0 0.7382813,0.058594 0.7382813,0.5507813 v 2.67187495 c 0,0.45703125 -0.1054688,0.45703125 -0.7734375,0.45703125 V -2.5e-4 c 0.3164062,-0.01171875 0.8554687,-0.03515625 1.1015625,-0.03515625 0.3398437,0 0.6914062,0.0234375 1.03125,0.03515625 v -0.3046875 c -0.65625,0 -0.703125,-0.0585938 -0.703125,-0.4453125 z m 0.046875,-1.734375 c 0,-0.3164062 -0.2460938,-0.5273437 -0.5273438,-0.5273437 -0.3164062,0 -0.5273437,0.2695312 -0.5273437,0.5273437 0,0.2695313 0.2109375,0.5273438 0.5273437,0.5273438 0.28125,0 0.5273438,-0.1992188 0.5273438,-0.5273438 z m 4.7490232,5.58984375 v 0.65625 L 13.553711,-2.5e-4 v -0.3046875 c -0.703125,0 -0.773438,-0.0703125 -0.773438,-0.5625 v -6.046875 l -1.441406,0.1054688 v 0.3164062 c 0.703125,0 0.785156,0.070312 0.785156,0.5507813 v 2.15625 C 11.831055,-4.1486875 11.397461,-4.4065 10.858398,-4.4065 c -1.1718746,0 -2.2148433,0.984375 -2.2148433,2.2617188 0,1.26562495 0.9726562,2.24999995 2.1093753,2.24999995 0.644531,0 1.089843,-0.33984375 1.335937,-0.65625 z m 0,-2.67187495 v 2.0507812 c 0,0.17578125 0,0.19921875 -0.105469,0.36328125 -0.304687,0.48046875 -0.75,0.703125 -1.183593,0.703125 -0.445313,0 -0.796875,-0.2578125 -1.0429691,-0.64453125 -0.2578125,-0.4101562 -0.2929687,-0.9726562 -0.2929687,-1.3828125 0,-0.3632812 0.023437,-0.9609375 0.3164062,-1.4179687 0.2109375,-0.3046875 0.5859376,-0.6328125 1.1249996,-0.6328125 0.351563,0 0.761719,0.1523437 1.078125,0.5976562 0.105469,0.1640625 0.105469,0.1875 0.105469,0.3632813 z m 5.53418,2.67187495 v 0.65625 L 19.087891,-2.5e-4 v -0.3046875 c -0.703125,0 -0.773438,-0.0703125 -0.773438,-0.5625 v -6.046875 l -1.441406,0.1054688 v 0.3164062 c 0.703125,0 0.785156,0.070312 0.785156,0.5507813 v 2.15625 C 17.365234,-4.1486875 16.931641,-4.4065 16.392578,-4.4065 c -1.171875,0 -2.214844,0.984375 -2.214844,2.2617188 0,1.26562495 0.972657,2.24999995 2.109375,2.24999995 0.644532,0 1.089844,-0.33984375 1.335938,-0.65625 z m 0,-2.67187495 v 2.0507812 c 0,0.17578125 0,0.19921875 -0.105469,0.36328125 -0.304687,0.48046875 -0.75,0.703125 -1.183594,0.703125 -0.445312,0 -0.796875,-0.2578125 -1.042968,-0.64453125 -0.257813,-0.4101562 -0.292969,-0.9726562 -0.292969,-1.3828125 0,-0.3632812 0.02344,-0.9609375 0.316406,-1.4179687 0.210938,-0.3046875 0.585938,-0.6328125 1.125,-0.6328125 0.351563,0 0.761719,0.1523437 1.078125,0.5976562 0.105469,0.1640625 0.105469,0.1875 0.105469,0.3632813 z m 2.862305,0.7148437 c 0.05859,-1.4882812 0.902343,-1.734375 1.242187,-1.734375 1.019531,0 1.125,1.3476563 1.125,1.734375 z m -0.01172,0.2109375 h 2.789062 c 0.210938,0 0.246094,0 0.246094,-0.2109375 0,-0.984375 -0.539062,-1.9570312 -1.78125,-1.9570312 -1.160156,0 -2.074219,1.03125 -2.074219,2.2734375 0,1.33593745 1.042969,2.29687495 2.191407,2.29687495 1.21875,0 1.664062,-1.1015625 1.664062,-1.28906245 0,-0.1054688 -0.08203,-0.1171875 -0.128906,-0.1171875 -0.09375,0 -0.117188,0.058594 -0.128906,0.140625 -0.351563,1.0195312 -1.253907,1.0195312 -1.347657,1.0195312 -0.503906,0 -0.902343,-0.29296875 -1.125,-0.66796875 C 20.473633,-1.2893125 20.473633,-1.9455625 20.473633,-2.297125 Z m 4.429687,-1.125 v 2.66015625 c 0,0.45703125 -0.117187,0.45703125 -0.785156,0.45703125 V -2.5e-4 c 0.351563,-0.01171875 0.855469,-0.03515625 1.125,-0.03515625 0.257813,0 0.785156,0.0234375 1.113281,0.03515625 v -0.3046875 c -0.65625,0 -0.773437,0 -0.773437,-0.45703125 V -2.5900937 c 0,-1.03125 0.714844,-1.59375 1.347656,-1.59375 0.621094,0 0.738281,0.5390625 0.738281,1.1015625 v 2.32031245 c 0,0.45703125 -0.117187,0.45703125 -0.773437,0.45703125 V -2.5e-4 c 0.339844,-0.01171875 0.855469,-0.03515625 1.125,-0.03515625 0.257812,0 0.773437,0.0234375 1.113281,0.03515625 v -0.3046875 c -0.515625,0 -0.773437,0 -0.785156,-0.3046875 v -1.8984375 c 0,-0.8554687 0,-1.171875 -0.304688,-1.5234375 -0.140625,-0.1757812 -0.46875,-0.375 -1.042968,-0.375 -0.726563,0 -1.195313,0.4335938 -1.476563,1.0546875 V -4.4065 l -1.40625,0.1171875 v 0.3046875 c 0.703125,0 0.785156,0.070312 0.785156,0.5625 z m 0,0"
       style="fill:#000033;fill-opacity:1;fill-rule:nonzero;stroke:none"
       aria-label="hidden"
       transform="matrix(1.3333333,0,0,1.3333333,158.16667,323.12533)" />
    <path
       id="path11"
       d="m 7.96367,31.82596 97.51047,-165.64697"
       style="fill:#d9d9d9;fill-opacity:1;fill-rule:nonzero;stroke:#d9d9d9;stroke-width:0.09962;stroke-linecap:butt;stroke-linejoin:miter;stroke-miterlimit:10;stroke-dasharray:none;stroke-opacity:1"
       transform="matrix(1.3333333,0,0,-1.3333333,24.652,118.95333)" />
    <path
       id="path12"
       d="m 7.96367,31.82596 97.51047,-165.64697"
       style="fill:#d9d9d9;fill-opacity:1;fill-rule:nonzero;stroke:#d9d9d9;stroke-width:0.79701;stroke-linecap:butt;stroke-linejoin:miter;stroke-miterlimit:10;stroke-dasharray:none;stroke-opacity:1"
       transform="matrix(1.3333333,0,0,-1.3333333,24.652,118.95333)" />
    <path
       id="path13"
       d="m 9.55458,-12.45662 94.0556,-122.62096"
       style="fill:#d9d9d9;fill-opacity:1;fill-rule:nonzero;stroke:#d9d9d9;stroke-width:0.09962;stroke-linecap:butt;stroke-linejoin:miter;stroke-miterlimit:10;stroke-dasharray:none;stroke-opacity:1"
       transform="matrix(1.3333333,0,0,-1.3333333,24.652,118.95333)" />
    <path
       id="path14"
       d="m 9.55458,-12.45662 94.0556,-122.62096"
       style="fill:#d9d9d9;fill-opacity:1;fill-rule:nonzero;stroke:#d9d9d9;stroke-width:0.79701;stroke-linecap:butt;stroke-linejoin:miter;stroke-miterlimit:10;stroke-dasharray:none;stroke-opacity:1"
       transform="matrix(1.3333333,0,0,-1.3333333,24.652,118.95333)" />
    <path
       id="path15"
       d="m 11.61887,-55.91248 89.57277,-81.39025"
       style="fill:#d9d9d9;fill-opacity:1;fill-rule:nonzero;stroke:#d9d9d9;stroke-width:0.09962;stroke-linecap:butt;stroke-linejoin:miter;stroke-miterlimit:10;stroke-dasharray:none;stroke-opacity:1"
       transform="matrix(1.3333333,0,0,-1.3333333,24.652,118.95333)" />
    <path
       id="path16"
       d="m 11.61887,-55.91248 89.57277,-81.39025"
       style="fill:#d9d9d9;fill-opacity:1;fill-rule:nonzero;stroke:#d9d9d9;stroke-width:0.79701;stroke-linecap:butt;stroke-linejoin:miter;stroke-miterlimit:10;stroke-dasharray:none;stroke-opacity:1"
       transform="matrix(1.3333333,0,0,-1.3333333,24.652,118.95333)" />
    <path
       id="path17"
       d="m 15.4015,-130.03653 81.35807,-16.07143"
       style="fill:#d9d9d9;fill-opacity:1;fill-rule:nonzero;stroke:#d9d9d9;stroke-width:0.09962;stroke-linecap:butt;stroke-linejoin:miter;stroke-miterlimit:10;stroke-dasharray:none;stroke-opacity:1"
       transform="matrix(1.3333333,0,0,-1.3333333,24.652,118.95333)" />
    <path
       id="path18"
       d="m 15.4015,-130.03653 81.35807,-16.07143"
       style="fill:#d9d9d9;fill-opacity:1;fill-rule:nonzero;stroke:#d9d9d9;stroke-width:0.79701;stroke-linecap:butt;stroke-linejoin:miter;stroke-miterlimit:10;stroke-dasharray:none;stroke-opacity:1"
       transform="matrix(1.3333333,0,0,-1.3333333,24.652,118.95333)" />
    <path
       id="path19"
       d="m 132.60075,-68.03262 c 0,9.82873 -7.96755,17.79629 -17.79628,17.79629 -9.82873,0 -17.79629,-7.96756 -17.79629,-17.79629 0,-9.82872 7.96756,-17.79628 17.79629,-17.79628 9.82873,0 17.79628,7.96756 17.79628,17.79628 z"
       style="fill:#ccccf5;fill-opacity:1;fill-rule:nonzero;stroke:#00003d;stroke-width:0.79701;stroke-linecap:butt;stroke-linejoin:miter;stroke-miterlimit:10;stroke-dasharray:none;stroke-opacity:1"
       transform="matrix(1.3333333,0,0,-1.3333333,24.652,118.95333)" />
    <path
       id="path20"
       d="m 1.1025391,-0.76264062 c 0,0.45703125 -0.11718754,0.45703125 -0.78515629,0.45703125 V -9.21875e-4 C 0.66894531,-0.01264062 1.1728516,-0.03607812 1.4423828,-0.03607812 c 0.2578125,0 0.7851563,0.0234375 1.1132813,0.035156245 V -0.30560937 c -0.65625,0 -0.7734375,0 -0.7734375,-0.45703125 V -2.5907656 c 0,-1.03125 0.7148437,-1.59375 1.3476562,-1.59375 0.6210938,0 0.7382813,0.5390625 0.7382813,1.1015625 v 2.32031248 c 0,0.45703125 -0.1171875,0.45703125 -0.7734375,0.45703125 v 0.304687495 c 0.3398437,-0.011718745 0.8554687,-0.035156245 1.125,-0.035156245 0.2578125,0 0.7734375,0.0234375 1.1132812,0.035156245 V -0.30560937 c -0.515625,0 -0.7734375,0 -0.7851562,-0.3046875 V -2.5087344 c 0,-0.8554687 0,-1.171875 -0.3046875,-1.5234375 -0.140625,-0.1757812 -0.46875,-0.375 -1.0429688,-0.375 -0.84375,0 -1.2773437,0.5976563 -1.4414062,0.984375 v -3.4921875 l -1.44140629,0.1054688 v 0.3164062 c 0.70312499,0 0.78515629,0.070312 0.78515629,0.5507813 z M 7.2929688,-4.4071719 5.8984375,-4.2899844 v 0.3046875 c 0.65625,0 0.7382813,0.058594 0.7382813,0.5507813 v 2.67187498 c 0,0.45703125 -0.1054688,0.45703125 -0.7734375,0.45703125 V -9.21875e-4 C 6.1796875,-0.01264062 6.71875,-0.03607812 6.9648438,-0.03607812 c 0.3398437,0 0.6914062,0.0234375 1.03125,0.035156245 V -0.30560937 c -0.65625,0 -0.703125,-0.0585938 -0.703125,-0.4453125 z m 0.046875,-1.734375 c 0,-0.3164062 -0.2460938,-0.5273437 -0.5273438,-0.5273437 -0.3164062,0 -0.5273437,0.2695312 -0.5273437,0.5273437 0,0.2695313 0.2109375,0.5273438 0.5273437,0.5273438 0.28125,0 0.5273438,-0.1992188 0.5273438,-0.5273438 z m 4.7490232,5.58984378 v 0.65625 L 13.553711,-9.21875e-4 V -0.30560937 c -0.703125,0 -0.773438,-0.0703125 -0.773438,-0.5625 V -6.9149844 l -1.441406,0.1054688 v 0.3164062 c 0.703125,0 0.785156,0.070312 0.785156,0.5507813 v 2.15625 c -0.292968,-0.3632813 -0.726562,-0.6210938 -1.265625,-0.6210938 -1.1718746,0 -2.2148433,0.984375 -2.2148433,2.2617188 0,1.26562498 0.9726562,2.24999998 2.1093753,2.24999998 0.644531,0 1.089843,-0.33984375 1.335937,-0.65625 z m 0,-2.67187498 v 2.0507812 c 0,0.17578128 0,0.19921878 -0.105469,0.36328128 -0.304687,0.48046875 -0.75,0.703125 -1.183593,0.703125 -0.445313,0 -0.796875,-0.2578125 -1.0429691,-0.64453125 C 9.4990234,-1.1610781 9.4638672,-1.7235781 9.4638672,-2.1337344 c 0,-0.3632812 0.023437,-0.9609375 0.3164062,-1.4179687 0.2109375,-0.3046875 0.5859376,-0.6328125 1.1249996,-0.6328125 0.351563,0 0.761719,0.1523437 1.078125,0.5976562 0.105469,0.1640625 0.105469,0.1875 0.105469,0.3632813 z m 5.53418,2.67187498 v 0.65625 L 19.087891,-9.21875e-4 V -0.30560937 c -0.703125,0 -0.773438,-0.0703125 -0.773438,-0.5625 V -6.9149844 l -1.441406,0.1054688 v 0.3164062 c 0.703125,0 0.785156,0.070312 0.785156,0.5507813 v 2.15625 c -0.292969,-0.3632813 -0.726562,-0.6210938 -1.265625,-0.6210938 -1.171875,0 -2.214844,0.984375 -2.214844,2.2617188 0,1.26562498 0.972657,2.24999998 2.109375,2.24999998 0.644532,0 1.089844,-0.33984375 1.335938,-0.65625 z m 0,-2.67187498 v 2.0507812 c 0,0.17578128 0,0.19921878 -0.105469,0.36328128 -0.304687,0.48046875 -0.75,0.703125 -1.183594,0.703125 -0.445312,0 -0.796875,-0.2578125 -1.042968,-0.64453125 -0.257813,-0.41015623 -0.292969,-0.97265623 -0.292969,-1.38281253 0,-0.3632812 0.02344,-0.9609375 0.316406,-1.4179687 0.210938,-0.3046875 0.585938,-0.6328125 1.125,-0.6328125 0.351563,0 0.761719,0.1523437 1.078125,0.5976562 0.105469,0.1640625 0.105469,0.1875 0.105469,0.3632813 z m 2.862305,0.7148437 c 0.05859,-1.4882812 0.902343,-1.734375 1.242187,-1.734375 1.019531,0 1.125,1.3476563 1.125,1.734375 z m -0.01172,0.2109375 h 2.789062 c 0.210938,0 0.246094,0 0.246094,-0.2109375 0,-0.984375 -0.539062,-1.9570312 -1.78125,-1.9570312 -1.160156,0 -2.074219,1.03125 -2.074219,2.2734375 0,1.33593748 1.042969,2.29687498 2.191407,2.29687498 1.21875,0 1.664062,-1.1015625 1.664062,-1.28906248 0,-0.1054688 -0.08203,-0.1171875 -0.128906,-0.1171875 -0.09375,0 -0.117188,0.058594 -0.128906,0.140625 -0.351563,1.01953123 -1.253907,1.01953123 -1.347657,1.01953123 -0.503906,0 -0.902343,-0.29296875 -1.125,-0.66796875 C 20.473633,-1.2899844 20.473633,-1.9462344 20.473633,-2.2977969 Z m 4.429687,-1.125 v 2.66015628 c 0,0.45703125 -0.117187,0.45703125 -0.785156,0.45703125 v 0.304687495 c 0.351563,-0.011718745 0.855469,-0.035156245 1.125,-0.035156245 0.257813,0 0.785156,0.0234375 1.113281,0.035156245 V -0.30560937 c -0.65625,0 -0.773437,0 -0.773437,-0.45703125 V -2.5907656 c 0,-1.03125 0.714844,-1.59375 1.347656,-1.59375 0.621094,0 0.738281,0.5390625 0.738281,1.1015625 v 2.32031248 c 0,0.45703125 -0.117187,0.45703125 -0.773437,0.45703125 v 0.304687495 c 0.339844,-0.011718745 0.855469,-0.035156245 1.125,-0.035156245 0.257812,0 0.773437,0.0234375 1.113281,0.035156245 V -0.30560937 c -0.515625,0 -0.773437,0 -0.785156,-0.3046875 V -2.5087344 c 0,-0.8554687 0,-1.171875 -0.304688,-1.5234375 -0.140625,-0.1757812 -0.46875,-0.375 -1.042968,-0.375 -0.726563,0 -1.195313,0.4335938 -1.476563,1.0546875 v -1.0546875 l -1.40625,0.1171875 v 0.3046875 c 0.703125,0 0.785156,0.070312 0.785156,0.5625 z m 0,0"
       style="fill:#000033;fill-opacity:1;fill-rule:nonzero;stroke:none"
       aria-label="hidden"
       transform="matrix(1.3333333,0,0,1.3333333,158.16667,214.27467)" />
    <path
       id="path21"
       d="m 11.1697,34.32336 90.54821,-89.43109"
       style="fill:#d9d9d9;fill-opacity:1;fill-rule:nonzero;stroke:#d9d9d9;stroke-width:0.09962;stroke-linecap:butt;stroke-linejoin:miter;stroke-miterlimit:10;stroke-dasharray:none;stroke-opacity:1"
       transform="matrix(1.3333333,0,0,-1.3333333,24.652,118.95333)" />
    <path
       id="path22"
       d="m 11.1697,34.32336 90.54821,-89.43109"
       style="fill:#d9d9d9;fill-opacity:1;fill-rule:nonzero;stroke:#d9d9d9;stroke-width:0.79701;stroke-linecap:butt;stroke-linejoin:miter;stroke-miterlimit:10;stroke-dasharray:none;stroke-opacity:1"
       transform="matrix(1.3333333,0,0,-1.3333333,24.652,118.95333)" />
    <path
       id="path23"
       d="M 13.50565,-8.00343 98.98108,-58.65569"
       style="fill:#d9d9d9;fill-opacity:1;fill-rule:nonzero;stroke:#d9d9d9;stroke-width:0.09962;stroke-linecap:butt;stroke-linejoin:miter;stroke-miterlimit:10;stroke-dasharray:none;stroke-opacity:1"
       transform="matrix(1.3333333,0,0,-1.3333333,24.652,118.95333)" />
    <path
       id="path24"
       d="M 13.50565,-8.00343 98.98108,-58.65569"
       style="fill:#d9d9d9;fill-opacity:1;fill-rule:nonzero;stroke:#d9d9d9;stroke-width:0.79701;stroke-linecap:butt;stroke-linejoin:miter;stroke-miterlimit:10;stroke-dasharray:none;stroke-opacity:1"
       transform="matrix(1.3333333,0,0,-1.3333333,24.652,118.95333)" />
    <path
       id="path25"
       d="M 15.4015,-48.39723 96.75957,-64.46866"
       style="fill:#d9d9d9;fill-opacity:1;fill-rule:nonzero;stroke:#d9d9d9;stroke-width:0.09962;stroke-linecap:butt;stroke-linejoin:miter;stroke-miterlimit:10;stroke-dasharray:none;stroke-opacity:1"
       transform="matrix(1.3333333,0,0,-1.3333333,24.652,118.95333)" />
    <path
       id="path26"
       d="M 15.4015,-48.39723 96.75957,-64.46866"
       style="fill:#d9d9d9;fill-opacity:1;fill-rule:nonzero;stroke:#d9d9d9;stroke-width:0.79701;stroke-linecap:butt;stroke-linejoin:miter;stroke-miterlimit:10;stroke-dasharray:none;stroke-opacity:1"
       transform="matrix(1.3333333,0,0,-1.3333333,24.652,118.95333)" />
    <path
       id="path27"
       d="m 13.96512,-119.8222 84.47764,43.38658"
       style="fill:#d9d9d9;fill-opacity:1;fill-rule:nonzero;stroke:#d9d9d9;stroke-width:0.09962;stroke-linecap:butt;stroke-linejoin:miter;stroke-miterlimit:10;stroke-dasharray:none;stroke-opacity:1"
       transform="matrix(1.3333333,0,0,-1.3333333,24.652,118.95333)" />
    <path
       id="path28"
       d="m 13.96512,-119.8222 84.47764,43.38658"
       style="fill:#d9d9d9;fill-opacity:1;fill-rule:nonzero;stroke:#d9d9d9;stroke-width:0.79701;stroke-linecap:butt;stroke-linejoin:miter;stroke-miterlimit:10;stroke-dasharray:none;stroke-opacity:1"
       transform="matrix(1.3333333,0,0,-1.3333333,24.652,118.95333)" />
    <path
       id="path29"
       d="m 132.60075,-22.67754 c 0,9.82874 -7.96755,17.7963 -17.79628,17.7963 -9.82873,0 -17.79629,-7.96756 -17.79629,-17.7963 0,-9.82872 7.96756,-17.79628 17.79629,-17.79628 9.82873,0 17.79628,7.96756 17.79628,17.79628 z"
       style="fill:#ccccf5;fill-opacity:1;fill-rule:nonzero;stroke:#00003d;stroke-width:0.79701;stroke-linecap:butt;stroke-linejoin:miter;stroke-miterlimit:10;stroke-dasharray:none;stroke-opacity:1"
       transform="matrix(1.3333333,0,0,-1.3333333,24.652,118.95333)" />
    <path
       id="path30"
       d="m 1.1025391,-0.76213281 c 0,0.45703125 -0.11718754,0.45703125 -0.78515629,0.45703125 V -4.140625e-4 C 0.66894531,-0.01213281 1.1728516,-0.03557031 1.4423828,-0.03557031 c 0.2578125,0 0.7851563,0.0234375 1.1132813,0.0351562475 V -0.30510156 c -0.65625,0 -0.7734375,0 -0.7734375,-0.45703125 V -2.5902578 c 0,-1.03125 0.7148437,-1.59375 1.3476562,-1.59375 0.6210938,0 0.7382813,0.5390625 0.7382813,1.1015625 v 2.32031249 c 0,0.45703125 -0.1171875,0.45703125 -0.7734375,0.45703125 v 0.3046874975 c 0.3398437,-0.0117187475 0.8554687,-0.0351562475 1.125,-0.0351562475 0.2578125,0 0.7734375,0.0234375 1.1132812,0.0351562475 V -0.30510156 c -0.515625,0 -0.7734375,0 -0.7851562,-0.3046875 V -2.5082266 c 0,-0.8554687 0,-1.171875 -0.3046875,-1.5234375 -0.140625,-0.1757812 -0.46875,-0.375 -1.0429688,-0.375 -0.84375,0 -1.2773437,0.5976563 -1.4414062,0.984375 v -3.4921875 l -1.44140629,0.1054688 v 0.3164062 c 0.70312499,0 0.78515629,0.070312 0.78515629,0.5507813 z M 7.2929688,-4.4066641 5.8984375,-4.2894766 v 0.3046875 c 0.65625,0 0.7382813,0.058594 0.7382813,0.5507813 v 2.67187499 c 0,0.45703125 -0.1054688,0.45703125 -0.7734375,0.45703125 V -4.140625e-4 C 6.1796875,-0.01213281 6.71875,-0.03557031 6.9648438,-0.03557031 c 0.3398437,0 0.6914062,0.0234375 1.03125,0.0351562475 V -0.30510156 c -0.65625,0 -0.703125,-0.0585938 -0.703125,-0.4453125 z m 0.046875,-1.734375 c 0,-0.3164062 -0.2460938,-0.5273437 -0.5273438,-0.5273437 -0.3164062,0 -0.5273437,0.2695312 -0.5273437,0.5273437 0,0.2695313 0.2109375,0.5273438 0.5273437,0.5273438 0.28125,0 0.5273438,-0.1992188 0.5273438,-0.5273438 z m 4.7490232,5.58984379 v 0.65625 L 13.553711,-4.140625e-4 V -0.30510156 c -0.703125,0 -0.773438,-0.0703125 -0.773438,-0.5625 V -6.9144766 l -1.441406,0.1054688 v 0.3164062 c 0.703125,0 0.785156,0.070312 0.785156,0.5507813 v 2.15625 c -0.292968,-0.3632813 -0.726562,-0.6210938 -1.265625,-0.6210938 -1.1718746,0 -2.2148433,0.984375 -2.2148433,2.2617188 0,1.26562499 0.9726562,2.24999999 2.1093753,2.24999999 0.644531,0 1.089843,-0.33984375 1.335937,-0.65625 z m 0,-2.67187499 v 2.0507812 c 0,0.17578129 0,0.19921879 -0.105469,0.36328129 -0.304687,0.48046875 -0.75,0.703125 -1.183593,0.703125 -0.445313,0 -0.796875,-0.2578125 -1.0429691,-0.64453125 C 9.4990234,-1.1605703 9.4638672,-1.7230703 9.4638672,-2.1332266 c 0,-0.3632812 0.023437,-0.9609375 0.3164062,-1.4179687 0.2109375,-0.3046875 0.5859376,-0.6328125 1.1249996,-0.6328125 0.351563,0 0.761719,0.1523437 1.078125,0.5976562 0.105469,0.1640625 0.105469,0.1875 0.105469,0.3632813 z m 5.53418,2.67187499 v 0.65625 L 19.087891,-4.140625e-4 V -0.30510156 c -0.703125,0 -0.773438,-0.0703125 -0.773438,-0.5625 V -6.9144766 l -1.441406,0.1054688 v 0.3164062 c 0.703125,0 0.785156,0.070312 0.785156,0.5507813 v 2.15625 c -0.292969,-0.3632813 -0.726562,-0.6210938 -1.265625,-0.6210938 -1.171875,0 -2.214844,0.984375 -2.214844,2.2617188 0,1.26562499 0.972657,2.24999999 2.109375,2.24999999 0.644532,0 1.089844,-0.33984375 1.335938,-0.65625 z m 0,-2.67187499 v 2.0507812 c 0,0.17578129 0,0.19921879 -0.105469,0.36328129 -0.304687,0.48046875 -0.75,0.703125 -1.183594,0.703125 -0.445312,0 -0.796875,-0.2578125 -1.042968,-0.64453125 -0.257813,-0.41015624 -0.292969,-0.97265624 -0.292969,-1.38281254 0,-0.3632812 0.02344,-0.9609375 0.316406,-1.4179687 0.210938,-0.3046875 0.585938,-0.6328125 1.125,-0.6328125 0.351563,0 0.761719,0.1523437 1.078125,0.5976562 0.105469,0.1640625 0.105469,0.1875 0.105469,0.3632813 z m 2.862305,0.7148437 c 0.05859,-1.4882812 0.902343,-1.734375 1.242187,-1.734375 1.019531,0 1.125,1.3476563 1.125,1.734375 z m -0.01172,0.2109375 h 2.789062 c 0.210938,0 0.246094,0 0.246094,-0.2109375 0,-0.984375 -0.539062,-1.9570312 -1.78125,-1.9570312 -1.160156,0 -2.074219,1.03125 -2.074219,2.2734375 0,1.33593749 1.042969,2.29687499 2.191407,2.29687499 1.21875,0 1.664062,-1.1015625 1.664062,-1.28906249 0,-0.1054688 -0.08203,-0.1171875 -0.128906,-0.1171875 -0.09375,0 -0.117188,0.058594 -0.128906,0.140625 -0.351563,1.01953124 -1.253907,1.01953124 -1.347657,1.01953124 -0.503906,0 -0.902343,-0.29296875 -1.125,-0.66796875 C 20.473633,-1.2894766 20.473633,-1.9457266 20.473633,-2.2972891 Z m 4.429687,-1.125 v 2.66015629 c 0,0.45703125 -0.117187,0.45703125 -0.785156,0.45703125 v 0.3046874975 c 0.351563,-0.0117187475 0.855469,-0.0351562475 1.125,-0.0351562475 0.257813,0 0.785156,0.0234375 1.113281,0.0351562475 V -0.30510156 c -0.65625,0 -0.773437,0 -0.773437,-0.45703125 V -2.5902578 c 0,-1.03125 0.714844,-1.59375 1.347656,-1.59375 0.621094,0 0.738281,0.5390625 0.738281,1.1015625 v 2.32031249 c 0,0.45703125 -0.117187,0.45703125 -0.773437,0.45703125 v 0.3046874975 c 0.339844,-0.0117187475 0.855469,-0.0351562475 1.125,-0.0351562475 0.257812,0 0.773437,0.0234375 1.113281,0.0351562475 V -0.30510156 c -0.515625,0 -0.773437,0 -0.785156,-0.3046875 V -2.5082266 c 0,-0.8554687 0,-1.171875 -0.304688,-1.5234375 -0.140625,-0.1757812 -0.46875,-0.375 -1.042968,-0.375 -0.726563,0 -1.195313,0.4335938 -1.476563,1.0546875 v -1.0546875 l -1.40625,0.1171875 v 0.3046875 c 0.703125,0 0.785156,0.070312 0.785156,0.5625 z m 0,0"
       style="fill:#000033;fill-opacity:1;fill-rule:nonzero;stroke:none"
       aria-label="hidden"
       transform="matrix(1.3333333,0,0,1.3333333,158.16667,153.80133)" />
    <path
       id="path31"
       d="M 13.50565,37.35164 98.98108,-13.3006"
       style="fill:#d9d9d9;fill-opacity:1;fill-rule:nonzero;stroke:#d9d9d9;stroke-width:0.09962;stroke-linecap:butt;stroke-linejoin:miter;stroke-miterlimit:10;stroke-dasharray:none;stroke-opacity:1"
       transform="matrix(1.3333333,0,0,-1.3333333,24.652,118.95333)" />
    <path
       id="path32"
       d="M 13.50565,37.35164 98.98108,-13.3006"
       style="fill:#d9d9d9;fill-opacity:1;fill-rule:nonzero;stroke:#d9d9d9;stroke-width:0.79701;stroke-linecap:butt;stroke-linejoin:miter;stroke-miterlimit:10;stroke-dasharray:none;stroke-opacity:1"
       transform="matrix(1.3333333,0,0,-1.3333333,24.652,118.95333)" />
    <path
       id="path33"
       d="M 15.4015,-3.04214 96.75957,-19.11357"
       style="fill:#d9d9d9;fill-opacity:1;fill-rule:nonzero;stroke:#d9d9d9;stroke-width:0.09962;stroke-linecap:butt;stroke-linejoin:miter;stroke-miterlimit:10;stroke-dasharray:none;stroke-opacity:1"
       transform="matrix(1.3333333,0,0,-1.3333333,24.652,118.95333)" />
    <path
       id="path34"
       d="M 15.4015,-3.04214 96.75957,-19.11357"
       style="fill:#d9d9d9;fill-opacity:1;fill-rule:nonzero;stroke:#d9d9d9;stroke-width:0.79701;stroke-linecap:butt;stroke-linejoin:miter;stroke-miterlimit:10;stroke-dasharray:none;stroke-opacity:1"
       transform="matrix(1.3333333,0,0,-1.3333333,24.652,118.95333)" />
    <path
       id="path35"
       d="m 15.4015,-42.31293 81.35836,16.07115"
       style="fill:#d9d9d9;fill-opacity:1;fill-rule:nonzero;stroke:#d9d9d9;stroke-width:0.09962;stroke-linecap:butt;stroke-linejoin:miter;stroke-miterlimit:10;stroke-dasharray:none;stroke-opacity:1"
       transform="matrix(1.3333333,0,0,-1.3333333,24.652,118.95333)" />
    <path
       id="path36"
       d="m 15.4015,-42.31293 81.35836,16.07115"
       style="fill:#d9d9d9;fill-opacity:1;fill-rule:nonzero;stroke:#d9d9d9;stroke-width:0.79701;stroke-linecap:butt;stroke-linejoin:miter;stroke-miterlimit:10;stroke-dasharray:none;stroke-opacity:1"
       transform="matrix(1.3333333,0,0,-1.3333333,24.652,118.95333)" />
    <path
       id="path37"
       d="m 11.61887,-116.43698 89.57277,81.39029"
       style="fill:#d9d9d9;fill-opacity:1;fill-rule:nonzero;stroke:#d9d9d9;stroke-width:0.09962;stroke-linecap:butt;stroke-linejoin:miter;stroke-miterlimit:10;stroke-dasharray:none;stroke-opacity:1"
       transform="matrix(1.3333333,0,0,-1.3333333,24.652,118.95333)" />
    <path
       id="path38"
       d="m 11.61887,-116.43698 89.57277,81.39029"
       style="fill:#d9d9d9;fill-opacity:1;fill-rule:nonzero;stroke:#d9d9d9;stroke-width:0.79701;stroke-linecap:butt;stroke-linejoin:miter;stroke-miterlimit:10;stroke-dasharray:none;stroke-opacity:1"
       transform="matrix(1.3333333,0,0,-1.3333333,24.652,118.95333)" />
    <path
       id="path39"
       d="m 132.60075,22.67754 c 0,9.82872 -7.96755,17.79628 -17.79628,17.79628 -9.82873,0 -17.79629,-7.96756 -17.79629,-17.79628 0,-9.82874 7.96756,-17.7963 17.79629,-17.7963 9.82873,0 17.79628,7.96756 17.79628,17.7963 z"
       style="fill:#ccccf5;fill-opacity:1;fill-rule:nonzero;stroke:#00003d;stroke-width:0.79701;stroke-linecap:butt;stroke-linejoin:miter;stroke-miterlimit:10;stroke-dasharray:none;stroke-opacity:1"
       transform="matrix(1.3333333,0,0,-1.3333333,24.652,118.95333)" />
    <path
       id="path40"
       d="m 1.1025391,-0.762625 c 0,0.45703125 -0.11718754,0.45703125 -0.78515629,0.45703125 v 0.3046875 C 0.66894531,-0.012625 1.1728516,-0.0360625 1.4423828,-0.0360625 c 0.2578125,0 0.7851563,0.0234375 1.1132813,0.03515625 v -0.3046875 c -0.65625,0 -0.7734375,0 -0.7734375,-0.45703125 V -2.59075 c 0,-1.03125 0.7148437,-1.59375 1.3476562,-1.59375 0.6210938,0 0.7382813,0.5390625 0.7382813,1.1015625 v 2.3203125 c 0,0.45703125 -0.1171875,0.45703125 -0.7734375,0.45703125 v 0.3046875 c 0.3398437,-0.01171875 0.8554687,-0.03515625 1.125,-0.03515625 0.2578125,0 0.7734375,0.0234375 1.1132812,0.03515625 v -0.3046875 c -0.515625,0 -0.7734375,0 -0.7851562,-0.3046875 V -2.5087187 c 0,-0.8554688 0,-1.171875 -0.3046875,-1.5234375 -0.140625,-0.1757813 -0.46875,-0.375 -1.0429688,-0.375 -0.84375,0 -1.2773437,0.5976562 -1.4414062,0.984375 V -6.9149687 L 0.31738281,-6.8095 v 0.3164063 c 0.70312499,0 0.78515629,0.070312 0.78515629,0.5507812 z m 6.1904297,-3.6445312 -1.3945313,0.1171875 v 0.3046875 c 0.65625,0 0.7382813,0.058594 0.7382813,0.5507812 v 2.671875 c 0,0.45703125 -0.1054688,0.45703125 -0.7734375,0.45703125 v 0.3046875 C 6.1796875,-0.012625 6.71875,-0.0360625 6.9648438,-0.0360625 c 0.3398437,0 0.6914062,0.0234375 1.03125,0.03515625 v -0.3046875 c -0.65625,0 -0.703125,-0.0585938 -0.703125,-0.4453125 z m 0.046875,-1.734375 c 0,-0.3164063 -0.2460938,-0.5273438 -0.5273438,-0.5273438 -0.3164062,0 -0.5273437,0.2695313 -0.5273437,0.5273438 0,0.2695312 0.2109375,0.5273437 0.5273437,0.5273437 0.28125,0 0.5273438,-0.1992187 0.5273438,-0.5273437 z m 4.7490232,5.5898437 v 0.65625 l 1.464844,-0.10546875 v -0.3046875 c -0.703125,0 -0.773438,-0.0703125 -0.773438,-0.5625 V -6.9149687 L 11.338867,-6.8095 v 0.3164063 c 0.703125,0 0.785156,0.070312 0.785156,0.5507812 v 2.15625 c -0.292968,-0.3632812 -0.726562,-0.6210937 -1.265625,-0.6210937 -1.1718746,0 -2.2148433,0.984375 -2.2148433,2.2617187 0,1.265625 0.9726562,2.25 2.1093753,2.25 0.644531,0 1.089843,-0.33984375 1.335937,-0.65625 z m 0,-2.671875 v 2.0507813 c 0,0.1757812 0,0.1992187 -0.105469,0.3632812 -0.304687,0.48046875 -0.75,0.703125 -1.183593,0.703125 -0.445313,0 -0.796875,-0.2578125 -1.0429691,-0.64453125 C 9.4990234,-1.1610625 9.4638672,-1.7235625 9.4638672,-2.1337187 c 0,-0.3632813 0.023437,-0.9609375 0.3164062,-1.4179688 C 9.9912109,-3.856375 10.366211,-4.1845 10.905273,-4.1845 c 0.351563,0 0.761719,0.1523438 1.078125,0.5976563 0.105469,0.1640625 0.105469,0.1875 0.105469,0.3632812 z m 5.53418,2.671875 v 0.65625 l 1.464844,-0.10546875 v -0.3046875 c -0.703125,0 -0.773438,-0.0703125 -0.773438,-0.5625 V -6.9149687 L 16.873047,-6.8095 v 0.3164063 c 0.703125,0 0.785156,0.070312 0.785156,0.5507812 v 2.15625 c -0.292969,-0.3632812 -0.726562,-0.6210937 -1.265625,-0.6210937 -1.171875,0 -2.214844,0.984375 -2.214844,2.2617187 0,1.265625 0.972657,2.25 2.109375,2.25 0.644532,0 1.089844,-0.33984375 1.335938,-0.65625 z m 0,-2.671875 v 2.0507813 c 0,0.1757812 0,0.1992187 -0.105469,0.3632812 -0.304687,0.48046875 -0.75,0.703125 -1.183594,0.703125 -0.445312,0 -0.796875,-0.2578125 -1.042968,-0.64453125 -0.257813,-0.41015625 -0.292969,-0.97265625 -0.292969,-1.38281245 0,-0.3632813 0.02344,-0.9609375 0.316406,-1.4179688 0.210938,-0.3046875 0.585938,-0.6328125 1.125,-0.6328125 0.351563,0 0.761719,0.1523438 1.078125,0.5976563 0.105469,0.1640625 0.105469,0.1875 0.105469,0.3632812 z m 2.862305,0.7148438 c 0.05859,-1.4882813 0.902343,-1.734375 1.242187,-1.734375 1.019531,0 1.125,1.3476562 1.125,1.734375 z m -0.01172,0.2109375 h 2.789062 c 0.210938,0 0.246094,0 0.246094,-0.2109375 0,-0.984375 -0.539062,-1.9570313 -1.78125,-1.9570313 -1.160156,0 -2.074219,1.03125 -2.074219,2.2734375 0,1.3359375 1.042969,2.296875 2.191407,2.296875 1.21875,0 1.664062,-1.1015625 1.664062,-1.2890625 0,-0.1054687 -0.08203,-0.1171875 -0.128906,-0.1171875 -0.09375,0 -0.117188,0.058594 -0.128906,0.140625 -0.351563,1.01953125 -1.253907,1.01953125 -1.347657,1.01953125 -0.503906,0 -0.902343,-0.29296875 -1.125,-0.66796875 -0.304687,-0.4804687 -0.304687,-1.1367187 -0.304687,-1.4882812 z m 4.429687,-1.125 v 2.6601562 c 0,0.45703125 -0.117187,0.45703125 -0.785156,0.45703125 v 0.3046875 c 0.351563,-0.01171875 0.855469,-0.03515625 1.125,-0.03515625 0.257813,0 0.785156,0.0234375 1.113281,0.03515625 v -0.3046875 c -0.65625,0 -0.773437,0 -0.773437,-0.45703125 V -2.59075 c 0,-1.03125 0.714844,-1.59375 1.347656,-1.59375 0.621094,0 0.738281,0.5390625 0.738281,1.1015625 v 2.3203125 c 0,0.45703125 -0.117187,0.45703125 -0.773437,0.45703125 v 0.3046875 c 0.339844,-0.01171875 0.855469,-0.03515625 1.125,-0.03515625 0.257812,0 0.773437,0.0234375 1.113281,0.03515625 v -0.3046875 c -0.515625,0 -0.773437,0 -0.785156,-0.3046875 V -2.5087187 c 0,-0.8554688 0,-1.171875 -0.304688,-1.5234375 -0.140625,-0.1757813 -0.46875,-0.375 -1.042968,-0.375 -0.726563,0 -1.195313,0.4335937 -1.476563,1.0546875 v -1.0546875 l -1.40625,0.1171875 v 0.3046875 c 0.703125,0 0.785156,0.070312 0.785156,0.5625 z m 0,0"
       style="fill:#000033;fill-opacity:1;fill-rule:nonzero;stroke:none"
       aria-label="hidden"
       transform="matrix(1.3333333,0,0,1.3333333,158.16667,93.329333)" />
    <path
       id="path41"
       d="M 15.4015,42.31293 96.75986,26.24178"
       style="fill:#d9d9d9;fill-opacity:1;fill-rule:nonzero;stroke:#d9d9d9;stroke-width:0.09962;stroke-linecap:butt;stroke-linejoin:miter;stroke-miterlimit:10;stroke-dasharray:none;stroke-opacity:1"
       transform="matrix(1.3333333,0,0,-1.3333333,24.652,118.95333)" />
    <path
       id="path42"
       d="M 15.4015,42.31293 96.75986,26.24178"
       style="fill:#d9d9d9;fill-opacity:1;fill-rule:nonzero;stroke:#d9d9d9;stroke-width:0.79701;stroke-linecap:butt;stroke-linejoin:miter;stroke-miterlimit:10;stroke-dasharray:none;stroke-opacity:1"
       transform="matrix(1.3333333,0,0,-1.3333333,24.652,118.95333)" />
    <path
       id="path43"
       d="M 15.4015,3.04214 96.75957,19.11357"
       style="fill:#d9d9d9;fill-opacity:1;fill-rule:nonzero;stroke:#d9d9d9;stroke-width:0.09962;stroke-linecap:butt;stroke-linejoin:miter;stroke-miterlimit:10;stroke-dasharray:none;stroke-opacity:1"
       transform="matrix(1.3333333,0,0,-1.3333333,24.652,118.95333)" />
    <path
       id="path44"
       d="M 15.4015,3.04214 96.75957,19.11357"
       style="fill:#d9d9d9;fill-opacity:1;fill-rule:nonzero;stroke:#d9d9d9;stroke-width:0.79701;stroke-linecap:butt;stroke-linejoin:miter;stroke-miterlimit:10;stroke-dasharray:none;stroke-opacity:1"
       transform="matrix(1.3333333,0,0,-1.3333333,24.652,118.95333)" />
    <path
       id="path45"
       d="M 13.50565,-37.35164 98.98108,13.3006"
       style="fill:#d9d9d9;fill-opacity:1;fill-rule:nonzero;stroke:#d9d9d9;stroke-width:0.09962;stroke-linecap:butt;stroke-linejoin:miter;stroke-miterlimit:10;stroke-dasharray:none;stroke-opacity:1"
       transform="matrix(1.3333333,0,0,-1.3333333,24.652,118.95333)" />
    <path
       id="path46"
       d="M 13.50565,-37.35164 98.98108,13.3006"
       style="fill:#d9d9d9;fill-opacity:1;fill-rule:nonzero;stroke:#d9d9d9;stroke-width:0.79701;stroke-linecap:butt;stroke-linejoin:miter;stroke-miterlimit:10;stroke-dasharray:none;stroke-opacity:1"
       transform="matrix(1.3333333,0,0,-1.3333333,24.652,118.95333)" />
    <path
       id="path47"
       d="M 9.55458,-114.53775 103.61018,8.0832"
       style="fill:#d9d9d9;fill-opacity:1;fill-rule:nonzero;stroke:#d9d9d9;stroke-width:0.09962;stroke-linecap:butt;stroke-linejoin:miter;stroke-miterlimit:10;stroke-dasharray:none;stroke-opacity:1"
       transform="matrix(1.3333333,0,0,-1.3333333,24.652,118.95333)" />
    <path
       id="path48"
       d="M 9.55458,-114.53775 103.61018,8.0832"
       style="fill:#d9d9d9;fill-opacity:1;fill-rule:nonzero;stroke:#d9d9d9;stroke-width:0.79701;stroke-linecap:butt;stroke-linejoin:miter;stroke-miterlimit:10;stroke-dasharray:none;stroke-opacity:1"
       transform="matrix(1.3333333,0,0,-1.3333333,24.652,118.95333)" />
    <path
       id="path49"
       d="m 132.60075,68.03262 c 0,9.82872 -7.96755,17.79628 -17.79628,17.79628 -9.82873,0 -17.79629,-7.96756 -17.79629,-17.79628 0,-9.82873 7.96756,-17.79629 17.79629,-17.79629 9.82873,0 17.79628,7.96756 17.79628,17.79629 z"
       style="fill:#ccccf5;fill-opacity:1;fill-rule:nonzero;stroke:#00003d;stroke-width:0.79701;stroke-linecap:butt;stroke-linejoin:miter;stroke-miterlimit:10;stroke-dasharray:none;stroke-opacity:1"
       transform="matrix(1.3333333,0,0,-1.3333333,24.652,118.95333)" />
    <path
       id="path50"
       d="m 1.1025391,-0.76211719 c 0,0.45703125 -0.11718754,0.45703125 -0.78515629,0.45703125 V -3.984375e-4 C 0.66894531,-0.01211719 1.1728516,-0.03555469 1.4423828,-0.03555469 c 0.2578125,0 0.7851563,0.0234375 1.1132813,0.0351562525 V -0.30508594 c -0.65625,0 -0.7734375,0 -0.7734375,-0.45703125 V -2.5902422 c 0,-1.03125 0.7148437,-1.59375 1.3476562,-1.59375 0.6210938,0 0.7382813,0.5390625 0.7382813,1.1015625 v 2.32031251 c 0,0.45703125 -0.1171875,0.45703125 -0.7734375,0.45703125 v 0.3046875025 c 0.3398437,-0.0117187525 0.8554687,-0.0351562525 1.125,-0.0351562525 0.2578125,0 0.7734375,0.0234375 1.1132812,0.0351562525 V -0.30508594 c -0.515625,0 -0.7734375,0 -0.7851562,-0.3046875 V -2.5082109 c 0,-0.8554688 0,-1.171875 -0.3046875,-1.5234375 -0.140625,-0.1757813 -0.46875,-0.375 -1.0429688,-0.375 -0.84375,0 -1.2773437,0.5976562 -1.4414062,0.984375 v -3.4921875 l -1.44140629,0.1054687 v 0.3164063 c 0.70312499,0 0.78515629,0.070312 0.78515629,0.5507812 z M 7.2929688,-4.4066484 5.8984375,-4.2894609 v 0.3046875 c 0.65625,0 0.7382813,0.058594 0.7382813,0.5507812 v 2.67187501 c 0,0.45703125 -0.1054688,0.45703125 -0.7734375,0.45703125 V -3.984375e-4 C 6.1796875,-0.01211719 6.71875,-0.03555469 6.9648438,-0.03555469 c 0.3398437,0 0.6914062,0.0234375 1.03125,0.0351562525 V -0.30508594 c -0.65625,0 -0.703125,-0.0585938 -0.703125,-0.4453125 z m 0.046875,-1.734375 c 0,-0.3164063 -0.2460938,-0.5273438 -0.5273438,-0.5273438 -0.3164062,0 -0.5273437,0.2695313 -0.5273437,0.5273438 0,0.2695312 0.2109375,0.5273437 0.5273437,0.5273437 0.28125,0 0.5273438,-0.1992187 0.5273438,-0.5273437 z m 4.7490232,5.58984371 v 0.65625 L 13.553711,-3.984375e-4 V -0.30508594 c -0.703125,0 -0.773438,-0.0703125 -0.773438,-0.5625 V -6.9144609 l -1.441406,0.1054687 v 0.3164063 c 0.703125,0 0.785156,0.070312 0.785156,0.5507812 v 2.15625 c -0.292968,-0.3632812 -0.726562,-0.6210937 -1.265625,-0.6210937 -1.1718746,0 -2.2148433,0.984375 -2.2148433,2.2617187 0,1.26562501 0.9726562,2.25000001 2.1093753,2.25000001 0.644531,0 1.089843,-0.33984375 1.335937,-0.65625 z m 0,-2.67187501 v 2.0507813 c 0,0.17578121 0,0.19921871 -0.105469,0.36328121 -0.304687,0.48046875 -0.75,0.703125 -1.183593,0.703125 -0.445313,0 -0.796875,-0.2578125 -1.0429691,-0.64453125 C 9.4990234,-1.1605547 9.4638672,-1.7230547 9.4638672,-2.1332109 c 0,-0.3632813 0.023437,-0.9609375 0.3164062,-1.4179688 0.2109375,-0.3046875 0.5859376,-0.6328125 1.1249996,-0.6328125 0.351563,0 0.761719,0.1523438 1.078125,0.5976563 0.105469,0.1640625 0.105469,0.1875 0.105469,0.3632812 z m 5.53418,2.67187501 v 0.65625 L 19.087891,-3.984375e-4 V -0.30508594 c -0.703125,0 -0.773438,-0.0703125 -0.773438,-0.5625 V -6.9144609 l -1.441406,0.1054687 v 0.3164063 c 0.703125,0 0.785156,0.070312 0.785156,0.5507812 v 2.15625 c -0.292969,-0.3632812 -0.726562,-0.6210937 -1.265625,-0.6210937 -1.171875,0 -2.214844,0.984375 -2.214844,2.2617187 0,1.26562501 0.972657,2.25000001 2.109375,2.25000001 0.644532,0 1.089844,-0.33984375 1.335938,-0.65625 z m 0,-2.67187501 v 2.0507813 c 0,0.17578121 0,0.19921871 -0.105469,0.36328121 -0.304687,0.48046875 -0.75,0.703125 -1.183594,0.703125 -0.445312,0 -0.796875,-0.2578125 -1.042968,-0.64453125 -0.257813,-0.41015626 -0.292969,-0.97265626 -0.292969,-1.38281246 0,-0.3632813 0.02344,-0.9609375 0.316406,-1.4179688 0.210938,-0.3046875 0.585938,-0.6328125 1.125,-0.6328125 0.351563,0 0.761719,0.1523438 1.078125,0.5976563 0.105469,0.1640625 0.105469,0.1875 0.105469,0.3632812 z m 2.862305,0.7148438 c 0.05859,-1.4882813 0.902343,-1.734375 1.242187,-1.734375 1.019531,0 1.125,1.3476562 1.125,1.734375 z m -0.01172,0.2109375 h 2.789062 c 0.210938,0 0.246094,0 0.246094,-0.2109375 0,-0.984375 -0.539062,-1.9570313 -1.78125,-1.9570313 -1.160156,0 -2.074219,1.03125 -2.074219,2.2734375 0,1.33593751 1.042969,2.29687501 2.191407,2.29687501 1.21875,0 1.664062,-1.1015625 1.664062,-1.28906251 0,-0.1054687 -0.08203,-0.1171875 -0.128906,-0.1171875 -0.09375,0 -0.117188,0.058594 -0.128906,0.140625 -0.351563,1.01953126 -1.253907,1.01953126 -1.347657,1.01953126 -0.503906,0 -0.902343,-0.29296875 -1.125,-0.66796875 C 20.473633,-1.2894609 20.473633,-1.9457109 20.473633,-2.2972734 Z m 4.429687,-1.125 v 2.66015621 c 0,0.45703125 -0.117187,0.45703125 -0.785156,0.45703125 v 0.3046875025 c 0.351563,-0.0117187525 0.855469,-0.0351562525 1.125,-0.0351562525 0.257813,0 0.785156,0.0234375 1.113281,0.0351562525 V -0.30508594 c -0.65625,0 -0.773437,0 -0.773437,-0.45703125 V -2.5902422 c 0,-1.03125 0.714844,-1.59375 1.347656,-1.59375 0.621094,0 0.738281,0.5390625 0.738281,1.1015625 v 2.32031251 c 0,0.45703125 -0.117187,0.45703125 -0.773437,0.45703125 v 0.3046875025 c 0.339844,-0.0117187525 0.855469,-0.0351562525 1.125,-0.0351562525 0.257812,0 0.773437,0.0234375 1.113281,0.0351562525 V -0.30508594 c -0.515625,0 -0.773437,0 -0.785156,-0.3046875 V -2.5082109 c 0,-0.8554688 0,-1.171875 -0.304688,-1.5234375 -0.140625,-0.1757813 -0.46875,-0.375 -1.042968,-0.375 -0.726563,0 -1.195313,0.4335937 -1.476563,1.0546875 v -1.0546875 l -1.40625,0.1171875 v 0.3046875 c 0.703125,0 0.785156,0.070312 0.785156,0.5625 z m 0,0"
       style="fill:#000033;fill-opacity:1;fill-rule:nonzero;stroke:none"
       aria-label="hidden"
       transform="matrix(1.3333333,0,0,1.3333333,158.16667,32.856)" />
    <path
       id="path51"
       d="M 15.4015,48.39723 96.75957,64.46866"
       style="fill:#d9d9d9;fill-opacity:1;fill-rule:nonzero;stroke:#d9d9d9;stroke-width:0.09962;stroke-linecap:butt;stroke-linejoin:miter;stroke-miterlimit:10;stroke-dasharray:none;stroke-opacity:1"
       transform="matrix(1.3333333,0,0,-1.3333333,24.652,118.95333)" />
    <path
       id="path52"
       d="M 15.4015,48.39723 96.75957,64.46866"
       style="fill:#d9d9d9;fill-opacity:1;fill-rule:nonzero;stroke:#d9d9d9;stroke-width:0.79701;stroke-linecap:butt;stroke-linejoin:miter;stroke-miterlimit:10;stroke-dasharray:none;stroke-opacity:1"
       transform="matrix(1.3333333,0,0,-1.3333333,24.652,118.95333)" />
    <path
       id="path53"
       d="M 13.50565,8.00343 98.98108,58.65569"
       style="fill:#d9d9d9;fill-opacity:1;fill-rule:nonzero;stroke:#d9d9d9;stroke-width:0.09962;stroke-linecap:butt;stroke-linejoin:miter;stroke-miterlimit:10;stroke-dasharray:none;stroke-opacity:1"
       transform="matrix(1.3333333,0,0,-1.3333333,24.652,118.95333)" />
    <path
       id="path54"
       d="M 13.50565,8.00343 98.98108,58.65569"
       style="fill:#d9d9d9;fill-opacity:1;fill-rule:nonzero;stroke:#d9d9d9;stroke-width:0.79701;stroke-linecap:butt;stroke-linejoin:miter;stroke-miterlimit:10;stroke-dasharray:none;stroke-opacity:1"
       transform="matrix(1.3333333,0,0,-1.3333333,24.652,118.95333)" />
    <path
       id="path55"
       d="m 11.1697,-34.32336 90.54821,89.43109"
       style="fill:#d9d9d9;fill-opacity:1;fill-rule:nonzero;stroke:#d9d9d9;stroke-width:0.09962;stroke-linecap:butt;stroke-linejoin:miter;stroke-miterlimit:10;stroke-dasharray:none;stroke-opacity:1"
       transform="matrix(1.3333333,0,0,-1.3333333,24.652,118.95333)" />
    <path
       id="path56"
       d="m 11.1697,-34.32336 90.54821,89.43109"
       style="fill:#d9d9d9;fill-opacity:1;fill-rule:nonzero;stroke:#d9d9d9;stroke-width:0.79701;stroke-linecap:butt;stroke-linejoin:miter;stroke-miterlimit:10;stroke-dasharray:none;stroke-opacity:1"
       transform="matrix(1.3333333,0,0,-1.3333333,24.652,118.95333)" />
    <path
       id="path57"
       d="M 7.96367,-113.46526 105.47414,52.18173"
       style="fill:#d9d9d9;fill-opacity:1;fill-rule:nonzero;stroke:#d9d9d9;stroke-width:0.09962;stroke-linecap:butt;stroke-linejoin:miter;stroke-miterlimit:10;stroke-dasharray:none;stroke-opacity:1"
       transform="matrix(1.3333333,0,0,-1.3333333,24.652,118.95333)" />
    <path
       id="path58"
       d="M 7.96367,-113.46526 105.47414,52.18173"
       style="fill:#d9d9d9;fill-opacity:1;fill-rule:nonzero;stroke:#d9d9d9;stroke-width:0.79701;stroke-linecap:butt;stroke-linejoin:miter;stroke-miterlimit:10;stroke-dasharray:none;stroke-opacity:1"
       transform="matrix(1.3333333,0,0,-1.3333333,24.652,118.95333)" />
    <path
       id="path59"
       d="m 247.54875,-104.31682 c 0,9.90799 -8.0318,17.93979 -17.93979,17.93979 -9.908,0 -17.9398,-8.0318 -17.9398,-17.93979 0,-9.90799 8.0318,-17.93978 17.9398,-17.93978 9.90799,0 17.93979,8.03179 17.93979,17.93978 z"
       style="fill:#f5cccc;fill-opacity:1;fill-rule:nonzero;stroke:#3d0000;stroke-width:0.79701;stroke-linecap:butt;stroke-linejoin:miter;stroke-miterlimit:10;stroke-dasharray:none;stroke-opacity:1"
       transform="matrix(1.3333333,0,0,-1.3333333,24.652,118.95333)" />
    <path
       id="path60"
       d="m 4.6882109,-2.1318594 c 0,-1.2773437 -0.9960937,-2.3320312 -2.1914062,-2.3320312 -1.2539063,0 -2.21484376,1.0898437 -2.21484376,2.3320312 0,1.28906253 1.03124996,2.23828128 2.20312496,2.23828128 1.2070313,0 2.203125,-0.97265625 2.203125,-2.23828128 z m -2.1914062,1.99218753 c -0.4335938,0 -0.8671875,-0.2109375 -1.1367188,-0.66796875 C 1.1022734,-1.2412344 1.1022734,-1.8506094 1.1022734,-2.2138906 c 0,-0.3867188 0,-0.9257813 0.2460938,-1.359375 0.2695312,-0.4570313 0.7382812,-0.6679688 1.1367187,-0.6679688 0.4335938,0 0.8671875,0.2226563 1.125,0.6445313 0.2578125,0.4335937 0.2578125,1.0078125 0.2578125,1.3828125 0,0.3632812 0,0.9023437 -0.2226562,1.33593748 -0.2226563,0.4453125 -0.65625,0.73828125 -1.1484375,0.73828125 z m 6.375,-0.64453125 v 0.890625 L 10.313211,9.53125e-4 V -0.30373437 c -0.7031251,0 -0.7851563,-0.0703125 -0.7851563,-0.5625 V -4.4052969 l -1.453125,0.1171875 v 0.3046875 c 0.6914062,0 0.7734375,0.070312 0.7734375,0.5625 v 1.7695313 c 0,0.86718748 -0.4804688,1.54687498 -1.2070313,1.54687498 -0.8320312,0 -0.8789062,-0.46875 -0.8789062,-0.99609378 v -3.3046875 l -1.4648438,0.1171875 v 0.3046875 c 0.7851563,0 0.7851563,0.035156 0.7851563,0.9140625 v 1.5 c 0,0.77343753 0,1.67578128 1.5117187,1.67578128 0.5507813,0 0.9960938,-0.26953125 1.2773438,-0.890625 z M 12.238016,-3.9834219 h 1.429687 v -0.3046875 h -1.429687 v -1.8398437 h -0.246094 c -0.01172,0.8203125 -0.316406,1.8867187 -1.289063,1.921875 v 0.2226562 h 0.84375 v 2.7539063 c 0,1.21874998 0.925782,1.33593748 1.289063,1.33593748 0.703125,0 0.984375,-0.703125 0.984375,-1.33593748 v -0.5742188 h -0.246094 v 0.5507813 c 0,0.73828123 -0.304687,1.11328123 -0.667969,1.11328123 -0.667968,0 -0.667968,-0.90234373 -0.667968,-1.07812503 z m 3.864257,0.234375 v -0.65625 l -1.429687,0.1171875 v 0.3046875 c 0.703125,0 0.773437,0.058594 0.773437,0.4921875 v 4.6640625 c 0,0.4570313 -0.105468,0.4570313 -0.773437,0.4570313 v 0.3046875 c 0.339844,-0.011719 0.855469,-0.035156 1.113281,-0.035156 0.269531,0 0.773438,0.023437 1.125,0.035156 V 1.6298594 c -0.667969,0 -0.773437,0 -0.773437,-0.4570313 v -1.75781247 c 0.04687,0.15234375 0.46875,0.69140625 1.21875,0.69140625 1.183593,0 2.226562,-0.97265625 2.226562,-2.26171878 0,-1.265625 -0.972656,-2.25 -2.085937,-2.25 -0.773438,0 -1.195313,0.4453125 -1.394532,0.65625 z m 0.03516,2.6132813 v -2.2148438 c 0.28125,-0.515625 0.773437,-0.796875 1.277343,-0.796875 0.726563,0 1.335938,0.8671875 1.335938,1.9921875 0,1.20703128 -0.691406,2.05078128 -1.429688,2.05078128 -0.398437,0 -0.773437,-0.19921875 -1.042968,-0.609375 C 16.13743,-0.92482812 16.13743,-0.93654687 16.13743,-1.1357656 Z m 7.678711,0.35156248 v 0.890625 L 25.257547,9.53125e-4 V -0.30373437 c -0.703125,0 -0.785156,-0.0703125 -0.785156,-0.5625 V -4.4052969 l -1.453125,0.1171875 v 0.3046875 c 0.691406,0 0.773437,0.070312 0.773437,0.5625 v 1.7695313 c 0,0.86718748 -0.480469,1.54687498 -1.207031,1.54687498 -0.832031,0 -0.878906,-0.46875 -0.878906,-0.99609378 v -3.3046875 l -1.464844,0.1171875 v 0.3046875 c 0.785156,0 0.785156,0.035156 0.785156,0.9140625 v 1.5 c 0,0.77343753 0,1.67578128 1.511719,1.67578128 0.550781,0 0.996094,-0.26953125 1.277344,-0.890625 z m 3.36914,-3.19921878 h 1.429688 V -4.2881094 H 27.185284 V -6.1279531 H 26.93919 c -0.01172,0.8203125 -0.316406,1.8867187 -1.289062,1.921875 v 0.2226562 h 0.84375 v 2.7539063 c 0,1.21874998 0.925781,1.33593748 1.289062,1.33593748 0.703125,0 0.984375,-0.703125 0.984375,-1.33593748 v -0.5742188 h -0.246093 v 0.5507813 c 0,0.73828123 -0.304688,1.11328123 -0.667969,1.11328123 -0.667969,0 -0.667969,-0.90234373 -0.667969,-1.07812503 z m 0,0"
       style="fill:#330000;fill-opacity:1;fill-rule:nonzero;stroke:none"
       aria-label="output"
       transform="matrix(1.3333333,0,0,1.3333333,311.23733,260.83467)" />
    <path
       id="path61"
       d="M 125.00096,52.72455 219.33263,-88.88959"
       style="fill:none;stroke:#d9d9d9;stroke-width:0.09962;stroke-linecap:butt;stroke-linejoin:miter;stroke-miterlimit:10;stroke-dasharray:none;stroke-opacity:1"
       transform="matrix(1.3333333,0,0,-1.3333333,24.652,118.95333)" />
    <path
       id="path62"
       d="M 125.00096,52.72455 219.33263,-88.88959"
       style="fill:none;stroke:#d9d9d9;stroke-width:0.79701;stroke-linecap:butt;stroke-linejoin:miter;stroke-miterlimit:10;stroke-dasharray:none;stroke-opacity:1"
       transform="matrix(1.3333333,0,0,-1.3333333,24.652,118.95333)" />
    <path
       id="path63"
       d="m 127.13911,9.03299 90.03898,-99.59882"
       style="fill:none;stroke:#d9d9d9;stroke-width:0.09962;stroke-linecap:butt;stroke-linejoin:miter;stroke-miterlimit:10;stroke-dasharray:none;stroke-opacity:1"
       transform="matrix(1.3333333,0,0,-1.3333333,24.652,118.95333)" />
    <path
       id="path64"
       d="m 127.13911,9.03299 90.03898,-99.59882"
       style="fill:none;stroke:#d9d9d9;stroke-width:0.79701;stroke-linecap:butt;stroke-linejoin:miter;stroke-miterlimit:10;stroke-dasharray:none;stroke-opacity:1"
       transform="matrix(1.3333333,0,0,-1.3333333,24.652,118.95333)" />
    <path
       id="path65"
       d="m 129.79398,-33.33656 84.7088,-60.23778"
       style="fill:none;stroke:#d9d9d9;stroke-width:0.09962;stroke-linecap:butt;stroke-linejoin:miter;stroke-miterlimit:10;stroke-dasharray:none;stroke-opacity:1"
       transform="matrix(1.3333333,0,0,-1.3333333,24.652,118.95333)" />
    <path
       id="path66"
       d="m 129.79398,-33.33656 84.7088,-60.23778"
       style="fill:none;stroke:#d9d9d9;stroke-width:0.79701;stroke-linecap:butt;stroke-linejoin:miter;stroke-miterlimit:10;stroke-dasharray:none;stroke-opacity:1"
       transform="matrix(1.3333333,0,0,-1.3333333,24.652,118.95333)" />
    <path
       id="path67"
       d="m 132.34247,-73.5753 79.59164,-25.1556"
       style="fill:none;stroke:#d9d9d9;stroke-width:0.09962;stroke-linecap:butt;stroke-linejoin:miter;stroke-miterlimit:10;stroke-dasharray:none;stroke-opacity:1"
       transform="matrix(1.3333333,0,0,-1.3333333,24.652,118.95333)" />
    <path
       id="path68"
       d="m 132.34247,-73.5753 79.59164,-25.1556"
       style="fill:none;stroke:#d9d9d9;stroke-width:0.79701;stroke-linecap:butt;stroke-linejoin:miter;stroke-miterlimit:10;stroke-dasharray:none;stroke-opacity:1"
       transform="matrix(1.3333333,0,0,-1.3333333,24.652,118.95333)" />
    <path
       id="path69"
       d="m 131.9108,-142.91364 80.45837,31.78582"
       style="fill:none;stroke:#d9d9d9;stroke-width:0.09962;stroke-linecap:butt;stroke-linejoin:miter;stroke-miterlimit:10;stroke-dasharray:none;stroke-opacity:1"
       transform="matrix(1.3333333,0,0,-1.3333333,24.652,118.95333)" />
    <path
       id="path70"
       d="m 131.9108,-142.91364 80.45837,31.78582"
       style="fill:none;stroke:#d9d9d9;stroke-width:0.79701;stroke-linecap:butt;stroke-linejoin:miter;stroke-miterlimit:10;stroke-dasharray:none;stroke-opacity:1"
       transform="matrix(1.3333333,0,0,-1.3333333,24.652,118.95333)" />
    <path
       id="path71"
       d="m 247.54875,-22.67754 c 0,9.90801 -8.0318,17.93981 -17.93979,17.93981 -9.908,0 -17.9398,-8.0318 -17.9398,-17.93981 0,-9.90799 8.0318,-17.93978 17.9398,-17.93978 9.90799,0 17.93979,8.03179 17.93979,17.93978 z"
       style="fill:#f5cccc;fill-opacity:1;fill-rule:nonzero;stroke:#3d0000;stroke-width:0.79701;stroke-linecap:butt;stroke-linejoin:miter;stroke-miterlimit:10;stroke-dasharray:none;stroke-opacity:1"
       transform="matrix(1.3333333,0,0,-1.3333333,24.652,118.95333)" />
    <path
       id="path72"
       d="m 4.6882109,-2.1315312 c 0,-1.2773438 -0.9960937,-2.3320313 -2.1914062,-2.3320313 -1.2539063,0 -2.21484376,1.0898438 -2.21484376,2.3320313 0,1.28906245 1.03124996,2.2382812 2.20312496,2.2382812 1.2070313,0 2.203125,-0.97265625 2.203125,-2.2382812 z m -2.1914062,1.99218745 c -0.4335938,0 -0.8671875,-0.2109375 -1.1367188,-0.66796875 -0.2578125,-0.4335937 -0.2578125,-1.0429687 -0.2578125,-1.40625 0,-0.3867187 0,-0.9257812 0.2460938,-1.359375 0.2695312,-0.4570312 0.7382812,-0.6679687 1.1367187,-0.6679687 0.4335938,0 0.8671875,0.2226562 1.125,0.6445312 0.2578125,0.4335938 0.2578125,1.0078125 0.2578125,1.3828125 0,0.3632813 0,0.9023438 -0.2226562,1.3359375 -0.2226563,0.4453125 -0.65625,0.73828125 -1.1484375,0.73828125 z m 6.375,-0.64453125 V 0.10675 L 10.313211,0.00128125 v -0.3046875 c -0.7031251,0 -0.7851563,-0.0703125 -0.7851563,-0.5625 V -4.4049687 l -1.453125,0.1171875 v 0.3046875 c 0.6914062,0 0.7734375,0.070312 0.7734375,0.5625 v 1.7695312 c 0,0.8671875 -0.4804688,1.546875 -1.2070313,1.546875 -0.8320312,0 -0.8789062,-0.46875 -0.8789062,-0.9960937 v -3.3046875 l -1.4648438,0.1171875 v 0.3046875 c 0.7851563,0 0.7851563,0.035156 0.7851563,0.9140625 v 1.5 c 0,0.77343745 0,1.6757812 1.5117187,1.6757812 0.5507813,0 0.9960938,-0.26953125 1.2773438,-0.890625 z m 3.3662113,-3.1992187 h 1.429687 V -4.2877812 H 12.238016 V -6.127625 h -0.246094 c -0.01172,0.8203125 -0.316406,1.8867188 -1.289063,1.921875 v 0.2226563 h 0.84375 v 2.7539062 c 0,1.21875 0.925782,1.3359375 1.289063,1.3359375 0.703125,0 0.984375,-0.703125 0.984375,-1.3359375 v -0.5742187 h -0.246094 v 0.5507812 c 0,0.73828125 -0.304687,1.11328125 -0.667969,1.11328125 -0.667968,0 -0.667968,-0.90234375 -0.667968,-1.07812495 z m 3.864257,0.234375 v -0.65625 l -1.429687,0.1171875 v 0.3046875 c 0.703125,0 0.773437,0.058594 0.773437,0.4921875 v 4.6640625 c 0,0.4570312 -0.105468,0.4570312 -0.773437,0.4570312 V 1.934875 c 0.339844,-0.011719 0.855469,-0.035156 1.113281,-0.035156 0.269531,0 0.773438,0.023437 1.125,0.035156 V 1.6301875 c -0.667969,0 -0.773437,0 -0.773437,-0.4570312 V -0.58465625 C 16.1843,-0.4323125 16.60618,0.10675 17.35618,0.10675 c 1.183593,0 2.226562,-0.97265625 2.226562,-2.2617187 0,-1.265625 -0.972656,-2.25 -2.085937,-2.25 -0.773438,0 -1.195313,0.4453125 -1.394532,0.65625 z m 0.03516,2.6132812 v -2.2148437 c 0.28125,-0.515625 0.773437,-0.796875 1.277343,-0.796875 0.726563,0 1.335938,0.8671875 1.335938,1.9921875 0,1.2070312 -0.691406,2.0507812 -1.429688,2.0507812 -0.398437,0 -0.773437,-0.19921875 -1.042968,-0.609375 C 16.13743,-0.9245 16.13743,-0.93621875 16.13743,-1.1354375 Z m 7.678711,0.3515625 V 0.10675 L 25.25755,0.00128125 v -0.3046875 c -0.703125,0 -0.785156,-0.0703125 -0.785156,-0.5625 V -4.4049687 l -1.453125,0.1171875 v 0.3046875 c 0.691406,0 0.773437,0.070312 0.773437,0.5625 v 1.7695312 c 0,0.8671875 -0.480469,1.546875 -1.207031,1.546875 -0.832031,0 -0.878906,-0.46875 -0.878906,-0.9960937 v -3.3046875 l -1.464844,0.1171875 v 0.3046875 c 0.785156,0 0.785156,0.035156 0.785156,0.9140625 v 1.5 c 0,0.77343745 0,1.6757812 1.511719,1.6757812 0.550781,0 0.996094,-0.26953125 1.277344,-0.890625 z m 3.36914,-3.1992187 h 1.429688 V -4.2877812 H 27.185281 V -6.127625 h -0.246094 c -0.01172,0.8203125 -0.316406,1.8867188 -1.289062,1.921875 v 0.2226563 h 0.84375 v 2.7539062 c 0,1.21875 0.925781,1.3359375 1.289062,1.3359375 0.703125,0 0.984375,-0.703125 0.984375,-1.3359375 v -0.5742187 h -0.246093 v 0.5507812 c 0,0.73828125 -0.304688,1.11328125 -0.667969,1.11328125 -0.667969,0 -0.667969,-0.90234375 -0.667969,-1.07812495 z m 0,0"
       style="fill:#330000;fill-opacity:1;fill-rule:nonzero;stroke:none"
       aria-label="output"
       transform="matrix(1.3333333,0,0,1.3333333,311.23733,151.98267)" />
    <path
       id="path73"
       d="m 129.23628,56.62979 85.82826,-67.81554"
       style="fill:none;stroke:#d9d9d9;stroke-width:0.09962;stroke-linecap:butt;stroke-linejoin:miter;stroke-miterlimit:10;stroke-dasharray:none;stroke-opacity:1"
       transform="matrix(1.3333333,0,0,-1.3333333,24.652,118.95333)" />
    <path
       id="path74"
       d="m 129.23628,56.62979 85.82826,-67.81554"
       style="fill:none;stroke:#d9d9d9;stroke-width:0.79701;stroke-linecap:butt;stroke-linejoin:miter;stroke-miterlimit:10;stroke-dasharray:none;stroke-opacity:1"
       transform="matrix(1.3333333,0,0,-1.3333333,24.652,118.95333)" />
    <path
       id="path75"
       d="m 131.9108,15.91927 80.45837,-31.7858"
       style="fill:none;stroke:#d9d9d9;stroke-width:0.09962;stroke-linecap:butt;stroke-linejoin:miter;stroke-miterlimit:10;stroke-dasharray:none;stroke-opacity:1"
       transform="matrix(1.3333333,0,0,-1.3333333,24.652,118.95333)" />
    <path
       id="path76"
       d="m 131.9108,15.91927 80.45837,-31.7858"
       style="fill:none;stroke:#d9d9d9;stroke-width:0.79701;stroke-linecap:butt;stroke-linejoin:miter;stroke-miterlimit:10;stroke-dasharray:none;stroke-opacity:1"
       transform="matrix(1.3333333,0,0,-1.3333333,24.652,118.95333)" />
    <path
       id="path77"
       d="M 133.19853,-22.67754 H 211.0714"
       style="fill:none;stroke:#d9d9d9;stroke-width:0.09962;stroke-linecap:butt;stroke-linejoin:miter;stroke-miterlimit:10;stroke-dasharray:none;stroke-opacity:1"
       transform="matrix(1.3333333,0,0,-1.3333333,24.652,118.95333)" />
    <path
       id="path78"
       d="M 133.19853,-22.67754 H 211.0714"
       style="fill:none;stroke:#d9d9d9;stroke-width:0.79701;stroke-linecap:butt;stroke-linejoin:miter;stroke-miterlimit:10;stroke-dasharray:none;stroke-opacity:1"
       transform="matrix(1.3333333,0,0,-1.3333333,24.652,118.95333)" />
    <path
       id="path79"
       d="m 131.9108,-61.27435 80.45837,31.78582"
       style="fill:none;stroke:#d9d9d9;stroke-width:0.09962;stroke-linecap:butt;stroke-linejoin:miter;stroke-miterlimit:10;stroke-dasharray:none;stroke-opacity:1"
       transform="matrix(1.3333333,0,0,-1.3333333,24.652,118.95333)" />
    <path
       id="path80"
       d="m 131.9108,-61.27435 80.45837,31.78582"
       style="fill:none;stroke:#d9d9d9;stroke-width:0.79701;stroke-linecap:butt;stroke-linejoin:miter;stroke-miterlimit:10;stroke-dasharray:none;stroke-opacity:1"
       transform="matrix(1.3333333,0,0,-1.3333333,24.652,118.95333)" />
    <path
       id="path81"
       d="m 127.13911,-136.02737 90.03898,99.59884"
       style="fill:none;stroke:#d9d9d9;stroke-width:0.09962;stroke-linecap:butt;stroke-linejoin:miter;stroke-miterlimit:10;stroke-dasharray:none;stroke-opacity:1"
       transform="matrix(1.3333333,0,0,-1.3333333,24.652,118.95333)" />
    <path
       id="path82"
       d="m 127.13911,-136.02737 90.03898,99.59884"
       style="fill:none;stroke:#d9d9d9;stroke-width:0.79701;stroke-linecap:butt;stroke-linejoin:miter;stroke-miterlimit:10;stroke-dasharray:none;stroke-opacity:1"
       transform="matrix(1.3333333,0,0,-1.3333333,24.652,118.95333)" />
    <path
       id="path83"
       d="m 247.54875,22.67754 c 0,9.90799 -8.0318,17.93978 -17.93979,17.93978 -9.908,0 -17.9398,-8.03179 -17.9398,-17.93978 0,-9.90801 8.0318,-17.93981 17.9398,-17.93981 9.90799,0 17.93979,8.0318 17.93979,17.93981 z"
       style="fill:#f5cccc;fill-opacity:1;fill-rule:nonzero;stroke:#3d0000;stroke-width:0.79701;stroke-linecap:butt;stroke-linejoin:miter;stroke-miterlimit:10;stroke-dasharray:none;stroke-opacity:1"
       transform="matrix(1.3333333,0,0,-1.3333333,24.652,118.95333)" />
    <path
       id="path84"
       d="m 4.6882109,-2.1320234 c 0,-1.2773438 -0.9960937,-2.3320313 -2.1914062,-2.3320313 -1.2539063,0 -2.21484376,1.0898438 -2.21484376,2.3320313 0,1.28906246 1.03124996,2.23828121 2.20312496,2.23828121 1.2070313,0 2.203125,-0.97265625 2.203125,-2.23828121 z m -2.1914062,1.99218746 c -0.4335938,0 -0.8671875,-0.2109375 -1.1367188,-0.66796875 C 1.1022734,-1.2413984 1.1022734,-1.8507734 1.1022734,-2.2140547 c 0,-0.3867187 0,-0.9257812 0.2460938,-1.359375 0.2695312,-0.4570312 0.7382812,-0.6679687 1.1367187,-0.6679687 0.4335938,0 0.8671875,0.2226562 1.125,0.6445312 0.2578125,0.4335938 0.2578125,1.0078125 0.2578125,1.3828125 0,0.3632813 0,0.9023438 -0.2226562,1.33593751 -0.2226563,0.4453125 -0.65625,0.73828125 -1.1484375,0.73828125 z m 6.375,-0.64453125 v 0.890625 L 10.313211,7.890625e-4 V -0.30389844 c -0.7031251,0 -0.7851563,-0.0703125 -0.7851563,-0.5625 V -4.4054609 l -1.453125,0.1171875 v 0.3046875 c 0.6914062,0 0.7734375,0.070312 0.7734375,0.5625 v 1.7695312 c 0,0.86718751 -0.4804688,1.54687501 -1.2070313,1.54687501 -0.8320312,0 -0.8789062,-0.46875 -0.8789062,-0.99609371 v -3.3046875 l -1.4648438,0.1171875 v 0.3046875 c 0.7851563,0 0.7851563,0.035156 0.7851563,0.9140625 v 1.5 c 0,0.77343746 0,1.67578121 1.5117187,1.67578121 0.5507813,0 0.9960938,-0.26953125 1.2773438,-0.890625 z M 12.238016,-3.9835859 h 1.429687 v -0.3046875 h -1.429687 v -1.8398438 h -0.246094 c -0.01172,0.8203125 -0.316406,1.8867188 -1.289063,1.921875 v 0.2226563 h 0.84375 v 2.7539062 c 0,1.21875001 0.925782,1.33593751 1.289063,1.33593751 0.703125,0 0.984375,-0.703125 0.984375,-1.33593751 v -0.5742187 h -0.246094 v 0.5507812 c 0,0.73828126 -0.304687,1.11328126 -0.667969,1.11328126 -0.667968,0 -0.667968,-0.90234376 -0.667968,-1.07812496 z m 3.864257,0.234375 v -0.65625 l -1.429687,0.1171875 v 0.3046875 c 0.703125,0 0.773437,0.058594 0.773437,0.4921875 v 4.6640625 c 0,0.4570312 -0.105468,0.4570312 -0.773437,0.4570312 v 0.3046875 c 0.339844,-0.011719 0.855469,-0.035156 1.113281,-0.035156 0.269531,0 0.773438,0.023437 1.125,0.035156 V 1.6296953 c -0.667969,0 -0.773437,0 -0.773437,-0.4570312 v -1.75781254 c 0.04687,0.15234375 0.46875,0.69140625 1.21875,0.69140625 1.183593,0 2.226562,-0.97265625 2.226562,-2.26171871 0,-1.265625 -0.972656,-2.25 -2.085937,-2.25 -0.773438,0 -1.195313,0.4453125 -1.394532,0.65625 z m 0.03516,2.6132812 v -2.2148437 c 0.28125,-0.515625 0.773437,-0.796875 1.277343,-0.796875 0.726563,0 1.335938,0.8671875 1.335938,1.9921875 0,1.20703121 -0.691406,2.05078121 -1.429688,2.05078121 -0.398437,0 -0.773437,-0.19921875 -1.042968,-0.609375 C 16.13743,-0.92499219 16.13743,-0.93671094 16.13743,-1.1359297 Z m 7.678711,0.35156251 v 0.890625 L 25.257547,7.890625e-4 V -0.30389844 c -0.703125,0 -0.785156,-0.0703125 -0.785156,-0.5625 V -4.4054609 l -1.453125,0.1171875 v 0.3046875 c 0.691406,0 0.773437,0.070312 0.773437,0.5625 v 1.7695312 c 0,0.86718751 -0.480469,1.54687501 -1.207031,1.54687501 -0.832031,0 -0.878906,-0.46875 -0.878906,-0.99609371 v -3.3046875 l -1.464844,0.1171875 v 0.3046875 c 0.785156,0 0.785156,0.035156 0.785156,0.9140625 v 1.5 c 0,0.77343746 0,1.67578121 1.511719,1.67578121 0.550781,0 0.996094,-0.26953125 1.277344,-0.890625 z m 3.36914,-3.19921871 h 1.429688 V -4.2882734 H 27.185284 V -6.1281172 H 26.93919 c -0.01172,0.8203125 -0.316406,1.8867188 -1.289062,1.921875 v 0.2226563 h 0.84375 v 2.7539062 c 0,1.21875001 0.925781,1.33593751 1.289062,1.33593751 0.703125,0 0.984375,-0.703125 0.984375,-1.33593751 v -0.5742187 h -0.246093 v 0.5507812 c 0,0.73828126 -0.304688,1.11328126 -0.667969,1.11328126 -0.667969,0 -0.667969,-0.90234376 -0.667969,-1.07812496 z m 0,0"
       style="fill:#330000;fill-opacity:1;fill-rule:nonzero;stroke:none"
       aria-label="output"
       transform="matrix(1.3333333,0,0,1.3333333,311.23733,91.510667)" />
    <path
       id="path85"
       d="M 131.9108,61.27435 212.36917,29.48853"
       style="fill:none;stroke:#d9d9d9;stroke-width:0.09962;stroke-linecap:butt;stroke-linejoin:miter;stroke-miterlimit:10;stroke-dasharray:none;stroke-opacity:1"
       transform="matrix(1.3333333,0,0,-1.3333333,24.652,118.95333)" />
    <path
       id="path86"
       d="M 131.9108,61.27435 212.36917,29.48853"
       style="fill:none;stroke:#d9d9d9;stroke-width:0.79701;stroke-linecap:butt;stroke-linejoin:miter;stroke-miterlimit:10;stroke-dasharray:none;stroke-opacity:1"
       transform="matrix(1.3333333,0,0,-1.3333333,24.652,118.95333)" />
    <path
       id="path87"
       d="M 133.19853,22.67754 H 211.0714"
       style="fill:none;stroke:#d9d9d9;stroke-width:0.09962;stroke-linecap:butt;stroke-linejoin:miter;stroke-miterlimit:10;stroke-dasharray:none;stroke-opacity:1"
       transform="matrix(1.3333333,0,0,-1.3333333,24.652,118.95333)" />
    <path
       id="path88"
       d="M 133.19853,22.67754 H 211.0714"
       style="fill:none;stroke:#d9d9d9;stroke-width:0.79701;stroke-linecap:butt;stroke-linejoin:miter;stroke-miterlimit:10;stroke-dasharray:none;stroke-opacity:1"
       transform="matrix(1.3333333,0,0,-1.3333333,24.652,118.95333)" />
    <path
       id="path89"
       d="m 131.9108,-15.91927 80.45837,31.7858"
       style="fill:none;stroke:#d9d9d9;stroke-width:0.09962;stroke-linecap:butt;stroke-linejoin:miter;stroke-miterlimit:10;stroke-dasharray:none;stroke-opacity:1"
       transform="matrix(1.3333333,0,0,-1.3333333,24.652,118.95333)" />
    <path
       id="path90"
       d="m 131.9108,-15.91927 80.45837,31.7858"
       style="fill:none;stroke:#d9d9d9;stroke-width:0.79701;stroke-linecap:butt;stroke-linejoin:miter;stroke-miterlimit:10;stroke-dasharray:none;stroke-opacity:1"
       transform="matrix(1.3333333,0,0,-1.3333333,24.652,118.95333)" />
    <path
       id="path91"
       d="m 129.23628,-56.62979 85.82826,67.81554"
       style="fill:none;stroke:#d9d9d9;stroke-width:0.09962;stroke-linecap:butt;stroke-linejoin:miter;stroke-miterlimit:10;stroke-dasharray:none;stroke-opacity:1"
       transform="matrix(1.3333333,0,0,-1.3333333,24.652,118.95333)" />
    <path
       id="path92"
       d="m 129.23628,-56.62979 85.82826,67.81554"
       style="fill:none;stroke:#d9d9d9;stroke-width:0.79701;stroke-linecap:butt;stroke-linejoin:miter;stroke-miterlimit:10;stroke-dasharray:none;stroke-opacity:1"
       transform="matrix(1.3333333,0,0,-1.3333333,24.652,118.95333)" />
    <path
       id="path93"
       d="M 125.00096,-134.36383 219.33263,7.2503"
       style="fill:none;stroke:#d9d9d9;stroke-width:0.09962;stroke-linecap:butt;stroke-linejoin:miter;stroke-miterlimit:10;stroke-dasharray:none;stroke-opacity:1"
       transform="matrix(1.3333333,0,0,-1.3333333,24.652,118.95333)" />
    <path
       id="path94"
       d="M 125.00096,-134.36383 219.33263,7.2503"
       style="fill:none;stroke:#d9d9d9;stroke-width:0.79701;stroke-linecap:butt;stroke-linejoin:miter;stroke-miterlimit:10;stroke-dasharray:none;stroke-opacity:1"
       transform="matrix(1.3333333,0,0,-1.3333333,24.652,118.95333)" />
    <path
       id="path95"
       d="m 1.9133333,-0.52683594 c 0,-0.29296875 -0.2441406,-0.52734376 -0.5273437,-0.52734376 -0.2929688,0 -0.52734377,0.23437501 -0.52734377,0.52734376 0,0.29296875 0.23437497,0.5273437525 0.52734377,0.5273437525 0.2832031,0 0.5273437,-0.2343750025 0.5273437,-0.5273437525 z m 0,3.98437504 c 0,-0.2929688 -0.2441406,-0.5273438 -0.5273437,-0.5273438 -0.2929688,0 -0.52734377,0.234375 -0.52734377,0.5273438 0,0.2929687 0.23437497,0.5273437 0.52734377,0.5273437 0.2832031,0 0.5273437,-0.234375 0.5273437,-0.5273437 z m 0,3.984375 c 0,-0.2929688 -0.2441406,-0.5273438 -0.5273437,-0.5273438 -0.2929688,0 -0.52734377,0.234375 -0.52734377,0.5273438 0,0.2929687 0.23437497,0.5273437 0.52734377,0.5273437 0.2832031,0 0.5273437,-0.234375 0.5273437,-0.5273437 z m 0,0"
       style="fill:#000000;fill-opacity:1;fill-rule:nonzero;stroke:none"
       aria-label=".&#10;.&#10;."
       transform="matrix(1.6,0,0,1.6,22.438667,222.632)" />
    <path
       id="path96"
       d="m 1.913112,-0.52839844 c 0,-0.29296875 -0.2441406,-0.52734376 -0.5273438,-0.52734376 -0.2929687,0 -0.52734372,0.23437501 -0.52734372,0.52734376 0,0.29296875 0.23437502,0.52734375 0.52734372,0.52734375 0.2832032,0 0.5273438,-0.234375 0.5273438,-0.52734375 z m 0,3.98681644 c 0,-0.2929688 -0.2441406,-0.5273438 -0.5273438,-0.5273438 -0.2929687,0 -0.52734372,0.234375 -0.52734372,0.5273438 0,0.2929687 0.23437502,0.5273437 0.52734372,0.5273437 0.2832032,0 0.5273438,-0.234375 0.5273438,-0.5273437 z m 0,3.984375 c 0,-0.2929688 -0.2441406,-0.5273438 -0.5273438,-0.5273438 -0.2929687,0 -0.52734372,0.234375 -0.52734372,0.5273438 0,0.2929687 0.23437502,0.5273437 0.52734372,0.5273437 0.2832032,0 0.5273438,-0.234375 0.5273438,-0.5273437 z m 0,0"
       style="fill:#000000;fill-opacity:1;fill-rule:nonzero;stroke:none"
       aria-label=".&#10;.&#10;."
       transform="matrix(1.6,0,0,1.6,175.50933,251.072)" />
    <path
       id="path97"
       d="m 1.9128906,-0.52740234 c 0,-0.29296875 -0.2441406,-0.52734376 -0.5273437,-0.52734376 -0.2929688,0 -0.52734377,0.23437501 -0.52734377,0.52734376 0,0.29296875 0.23437497,0.52734374625 0.52734377,0.52734374625 0.2832031,0 0.5273437,-0.23437499625 0.5273437,-0.52734374625 z m 0,3.98437504 c 0,-0.2929688 -0.2441406,-0.5273438 -0.5273437,-0.5273438 -0.2929688,0 -0.52734377,0.234375 -0.52734377,0.5273438 0,0.2929687 0.23437497,0.5273437 0.52734377,0.5273437 0.2832031,0 0.5273437,-0.234375 0.5273437,-0.5273437 z m 0,3.9868164 c 0,-0.2929688 -0.2441406,-0.5273438 -0.5273437,-0.5273438 -0.2929688,0 -0.52734377,0.234375 -0.52734377,0.5273438 0,0.2929687 0.23437497,0.5273437 0.52734377,0.5273437 0.2832031,0 0.5273437,-0.234375 0.5273437,-0.5273437 z m 0,0"
       style="fill:#000000;fill-opacity:1;fill-rule:nonzero;stroke:none"
       aria-label=".&#10;.&#10;."
       transform="matrix(1.6,0,0,1.6,328.58,190.504)" />
  </g>
</svg>
