<?xml version="1.0" encoding="UTF-8" standalone="no"?>
<!DOCTYPE svg PUBLIC "-//W3C//DTD SVG 1.1//EN" "http://www.w3.org/Graphics/SVG/1.1/DTD/svg11.dtd">
<svg xmlns:dc="http://purl.org/dc/elements/1.1/" version="1.1" xmlns="http://www.w3.org/2000/svg" xmlns:xl="http://www.w3.org/1999/xlink" viewBox="468.5 170 960.5495 456.00105" width="960.5495" height="456.00105">
  <defs>
    <marker orient="auto" overflow="visible" markerUnits="strokeWidth" id="FilledArrow_Marker" stroke-linejoin="miter" stroke-miterlimit="10" viewBox="-1 -4 10 8" markerWidth="10" markerHeight="8" color="black">
      <g>
        <path d="M 8 0 L 0 -3 L 0 3 Z" fill="currentColor" stroke="currentColor" stroke-width="1"/>
      </g>
    </marker>
  </defs>
  <g id="Canvas_1" fill="none" stroke-dasharray="none" stroke="none" fill-opacity="1" stroke-opacity="1">
    <title>Canvas 1</title>
    <g id="Canvas_1_Layer_1">
      <title>Layer 1</title>
      <g id="Graphic_33">
        <rect x="469" y="170.5" width="959.5495" height="455.00105" stroke="black" stroke-linecap="round" stroke-linejoin="round" stroke-width="1"/>
      </g>
      <g id="Graphic_26">
        <rect x="1228.9753" y="396.625" width="159.11903" height="92.25" fill="white"/>
        <rect x="1228.9753" y="396.625" width="159.11903" height="92.25" stroke="black" stroke-linecap="round" stroke-linejoin="round" stroke-width="1"/>
        <text transform="translate(1233.9753 415.078)" fill="black">
          <tspan font-family="Helvetica Neue" font-size="16" fill="black" x="57.67152" y="15">Final </tspan>
          <tspan font-family="Helvetica Neue" font-size="16" fill="black" x="24.919517" y="33.448">model/feature </tspan>
          <tspan font-family="Helvetica Neue" font-size="16" fill="black" x="27.743517" y="51.895996">configuration</tspan>
        </text>
      </g>
      <g id="Graphic_25">
        <path d="M 681.4753 314.5 L 746.6226 359.2412 L 721.7386 431.6338 L 641.2119 431.6338 L 616.3279 359.2412 Z" fill="white"/>
        <path d="M 681.4753 314.5 L 746.6226 359.2412 L 721.7386 431.6338 L 641.2119 431.6338 L 616.3279 359.2412 Z" stroke="black" stroke-linecap="round" stroke-linejoin="round" stroke-width="1"/>
        <text transform="translate(631.67526 358.277)" fill="black">
          <tspan font-family="Helvetica Neue" font-size="16" fill="black" x="12.615999" y="15">Variables /</tspan>
          <tspan font-family="Helvetica Neue" font-size="16" fill="black" x="18.832" y="33.448">Features</tspan>
        </text>
      </g>
      <g id="Graphic_24">
        <path d="M 681.4753 462 L 746.6226 506.7412 L 721.7386 579.1338 L 641.2119 579.1338 L 616.3279 506.7412 Z" fill="white"/>
        <path d="M 681.4753 462 L 746.6226 506.7412 L 721.7386 579.1338 L 641.2119 579.1338 L 616.3279 506.7412 Z" stroke="black" stroke-linecap="round" stroke-linejoin="round" stroke-width="1"/>
        <text transform="translate(631.67526 496.329)" fill="black">
          <tspan font-family="Helvetica Neue" font-size="16" fill="black" x="26.232" y="15">Tuning </tspan>
          <tspan font-family="Helvetica Neue" font-size="16" fill="black" x="12.759999" y="33.448">Parameter</tspan>
          <tspan font-family="Helvetica Neue" font-size="16" fill="black" x="26.536" y="51.895996">Values</tspan>
          <tspan font-family="Helvetica Neue" font-size="16" fill="black" x="26.248" y="70.34399">(If any)</tspan>
        </text>
      </g>
      <g id="Graphic_23">
        <path d="M 1065.4258 384 L 1122.8763 442.75 L 1065.4258 501.5 L 1007.9753 442.75 Z" fill="white"/>
        <path d="M 1065.4258 384 L 1122.8763 442.75 L 1065.4258 501.5 L 1007.9753 442.75 Z" stroke="black" stroke-linecap="round" stroke-linejoin="round" stroke-width="1"/>
        <text transform="translate(1028.4869 423.127)" fill="black">
          <tspan font-family="Helvetica Neue" font-size="16" fill="black" x="18.08789" y="15">Good </tspan>
          <tspan font-family="Helvetica Neue" font-size="16" fill="black" x="10.079891" y="33.448">results?</tspan>
        </text>
      </g>
      <g id="Line_22">
        <line x1="732.6927" y1="399.7661" x2="824.8081" y2="436.6646" marker-end="url(#FilledArrow_Marker)" stroke="black" stroke-linecap="round" stroke-linejoin="round" stroke-width="1"/>
      </g>
      <g id="Line_21">
        <line x1="734.6949" y1="498.54966" x2="825.5579" y2="450.40264" marker-end="url(#FilledArrow_Marker)" stroke="black" stroke-linecap="round" stroke-linejoin="round" stroke-width="1"/>
      </g>
      <g id="Line_20">
        <line x1="950.999" y1="444.6386" x2="997.8054" y2="443.8363" marker-end="url(#FilledArrow_Marker)" stroke="black" stroke-linecap="round" stroke-linejoin="round" stroke-width="1"/>
      </g>
      <g id="Line_19">
        <line x1="1122.8763" y1="442.75" x2="1219.0753" y2="442.75" marker-end="url(#FilledArrow_Marker)" stroke="black" stroke-linecap="round" stroke-linejoin="round" stroke-width="1"/>
      </g>
      <g id="Graphic_15">
        <rect x="1146.7998" y="428.526" width="35.184" height="28.447998" fill="white"/>
        <text transform="translate(1151.7998 433.526)" fill="black">
          <tspan font-family="Helvetica Neue" font-size="16" fill="black" x="552447e-18" y="15">Yes</tspan>
        </text>
      </g>
      <g id="Graphic_14">
        <text transform="translate(1040.3901 308)" fill="black">
          <tspan font-family="Helvetica Neue" font-size="16" fill="black" x="14.667652" y="15">No</tspan>
        </text>
      </g>
      <g id="Group_27">
        <g id="Line_32">
          <path d="M 854.3391 401.9143 C 854.3391 401.9143 868.4355 388.0051 890.275 388.16737 C 903.2251 388.2636 915.2869 393.2807 922.9604 397.34896" marker-end="url(#FilledArrow_Marker)" stroke="black" stroke-linecap="round" stroke-linejoin="round" stroke-width="1"/>
        </g>
        <g id="Line_31">
          <path d="M 938.3229 412.6421 C 938.3229 412.6421 950.8472 427.95014 948.401 449.39734 C 946.9525 462.0981 940.6573 473.41505 935.7638 480.53314" marker-end="url(#FilledArrow_Marker)" stroke="black" stroke-linecap="round" stroke-linejoin="round" stroke-width="1"/>
        </g>
        <g id="Line_30">
          <path d="M 921.5077 495.43703 C 921.5077 495.43703 904.793 506.14596 883.4649 501.5 C 870.8263 498.7469 860.0895 491.3691 853.4386 485.81436" marker-end="url(#FilledArrow_Marker)" stroke="black" stroke-linecap="round" stroke-linejoin="round" stroke-width="1"/>
        </g>
        <g id="Line_29">
          <path d="M 843.5781 476.2305 C 843.5781 476.2305 831.0538 460.92243 833.5 439.4752 C 834.9486 426.77445 841.2437 415.4575 846.1373 408.3394" marker-end="url(#FilledArrow_Marker)" stroke="black" stroke-linecap="round" stroke-linejoin="round" stroke-width="1"/>
        </g>
        <g id="Graphic_28"/>
      </g>
      <g id="Graphic_796"/>
      <g id="Graphic_798">
        <rect x="784.5" y="209" width="159.11903" height="60.997595" fill="white"/>
        <rect x="784.5" y="209" width="159.11903" height="60.997595" stroke="black" stroke-linecap="round" stroke-linejoin="round" stroke-width="1"/>
        <text transform="translate(789.5 221.0508)" fill="black">
          <tspan font-family="Helvetica Neue" font-size="16" fill="black" x="18.247517" y="15">EDA on holdout </tspan>
          <tspan font-family="Helvetica Neue" font-size="16" fill="black" x="34.847517" y="33.448">predictions</tspan>
        </text>
      </g>
      <g id="Line_799">
        <line x1="1065.4258" y1="384" x2="1065.4258" y2="341.348" marker-end="url(#FilledArrow_Marker)" stroke="black" stroke-linecap="round" stroke-linejoin="round" stroke-width="1"/>
      </g>
      <g id="Line_802">
        <path d="M 1065.4703 303 L 1065.6667 240.33333 L 953.519 239.8691" marker-end="url(#FilledArrow_Marker)" stroke="black" stroke-linecap="round" stroke-linejoin="round" stroke-width="1"/>
      </g>
      <g id="Line_806">
        <path d="M 784.5 239.85192 L 525.83333 241 L 526.5092 418.85016" marker-end="url(#FilledArrow_Marker)" stroke="black" stroke-linecap="round" stroke-linejoin="round" stroke-width="1"/>
      </g>
      <g id="Line_17">
        <line x1="538.9097" y1="449.4264" x2="620.0938" y2="493.4584" marker-end="url(#FilledArrow_Marker)" stroke="black" stroke-linecap="round" stroke-linejoin="round" stroke-width="1"/>
      </g>
      <g id="Line_16">
        <line x1="539.5569" y1="437.4376" x2="621.2435" y2="403.94547" marker-end="url(#FilledArrow_Marker)" stroke="black" stroke-linecap="round" stroke-linejoin="round" stroke-width="1"/>
      </g>
      <g id="Graphic_810"/>
      <g id="Graphic_819">
        <circle cx="526.6" cy="442.75" r="14.0000223706265" fill="black"/>
        <circle cx="526.6" cy="442.75" r="14.0000223706265" stroke="black" stroke-linecap="round" stroke-linejoin="round" stroke-width="1"/>
      </g>
      <g id="Graphic_858">
        <text transform="translate(855.4255 420.8292)" fill="black">
          <tspan font-family="Helvetica Neue" font-size="14" fill="black" x="0" y="13">Resample /</tspan>
          <tspan font-family="Helvetica Neue" font-size="14" fill="black" x="6.615" y="29.392">Validate /</tspan>
          <tspan font-family="Helvetica Neue" font-size="14" fill="black" x="20.608" y="45.783997">Tune</tspan>
        </text>
      </g>
    </g>
  </g>
</svg>
